<?xml version="1.0" encoding="UTF-8"?>
<svg width="32px" height="21px" viewBox="0 0 32 21" version="1.1" xmlns="http://www.w3.org/2000/svg" xmlns:xlink="http://www.w3.org/1999/xlink">
    <!-- Generator: Sketch 60.1 (88133) - https://sketch.com -->
    <title>XMLID_4_</title>
    <desc>Created with Sketch.</desc>
    <defs>
        <rect id="path-1" x="0" y="0.5" width="592" height="152" rx="8"></rect>
        <filter x="-1.2%" y="-3.3%" width="102.4%" height="109.2%" filterUnits="objectBoundingBox" id="filter-2">
            <feOffset dx="0" dy="2" in="SourceAlpha" result="shadowOffsetOuter1"></feOffset>
            <feGaussianBlur stdDeviation="2" in="shadowOffsetOuter1" result="shadowBlurOuter1"></feGaussianBlur>
            <feColorMatrix values="0 0 0 0 0   0 0 0 0 0   0 0 0 0 0  0 0 0 0.266881556 0" type="matrix" in="shadowBlurOuter1"></feColorMatrix>
        </filter>
    </defs>
    <g id="Desktop" stroke="none" stroke-width="1" fill="none" fill-rule="evenodd">
        <g id="Tour-Booking_2" transform="translate(-664.000000, -749.000000)">
            <g id="PAYMENT-METHOD" transform="translate(640.000000, 656.000000)">
                <g id="DROPDOWN" transform="translate(0.000000, 79.500000)">
                    <rect id="Rectangle" stroke="#E6E7E8" fill="#FFFFFF" x="0.5" y="1.5" width="591" height="47" rx="8"></rect>
                    <g id="Rectangle">
                        <use fill="black" fill-opacity="1" filter="url(#filter-2)" xlink:href="#path-1"></use>
                        <use fill="#FD5D5A" fill-rule="evenodd" xlink:href="#path-1"></use>
                    </g>
                    <g id="APPLE" transform="translate(0.000000, 13.500000)" fill-rule="nonzero">
                        <g id="Apple_Pay_Mark_RGB_041619" transform="translate(24.000000, 0.000000)">
                            <path d="M2.85748048,0 C2.74839133,0 2.6391094,0 2.53021494,0.000636144578 C2.43816482,0.00129156627 2.34632867,0.00231325301 2.25449253,0.00481927711 C2.05420337,0.0102361446 1.85219855,0.022053012 1.65441542,0.0576 C1.45347084,0.0937638554 1.26648289,0.152751807 1.08406361,0.245628916 C0.904728675,0.336828916 0.740545542,0.456115663 0.598263133,0.598457831 C0.455919036,0.7408 0.336632289,0.904713253 0.245451566,1.08424096 C0.152555181,1.26666024 0.0935286747,1.45370602 0.0576154217,1.65480482 C0.0218775904,1.85264578 0.00998168675,2.05461205 0.00458409639,2.25468916 C0.00211662651,2.3465253 0.00105831325,2.43836145 0.000458795181,2.53017831 C7.71084338e-07,2.63930602 7.71084338e-07,2.74835663 7.71084338e-07,2.85767711 L7.71084338e-07,17.5695422 C7.71084338e-07,17.6788627 7.71084338e-07,17.7877224 0.000458795181,17.8970622 C0.00105831325,17.988879 0.00211662651,18.0807152 0.00458409639,18.1725513 C0.00998168675,18.372453 0.0218775904,18.5744193 0.0576154217,18.7722024 C0.0935286747,18.9733783 0.152555181,19.160347 0.245451566,19.3427855 C0.336632289,19.5223133 0.455919036,19.6864386 0.598263133,19.8285687 C0.740545542,19.9711422 0.904728675,20.0904096 1.08406361,20.1813783 C1.26648289,20.274506 1.45347084,20.3335133 1.65441542,20.3696578 C1.85219855,20.4049735 2.05420337,20.4170024 2.25449253,20.4224193 C2.34632867,20.4245012 2.43816482,20.4257349 2.53021494,20.426159 C2.6391094,20.4270072 2.74839133,20.4270072 2.85748048,20.4270072 L29.0502304,20.4270072 C29.1591267,20.4270072 29.2684106,20.4270072 29.3772839,20.426159 C29.4691219,20.4257349 29.56096,20.4245012 29.6532164,20.4224193 C29.8530814,20.4170024 30.0550477,20.4049735 30.2533147,20.3696578 C30.4539894,20.3335133 30.6410159,20.274506 30.8234545,20.1813783 C31.0029822,20.0904096 31.1666834,19.9711422 31.3092588,19.8285687 C31.4513696,19.6864386 31.5706545,19.5223133 31.6620684,19.3427855 C31.7551749,19.160347 31.8141436,18.9733783 31.8498834,18.7722024 C31.8856424,18.5744193 31.8972472,18.372453 31.9026641,18.1725513 C31.9051701,18.0807152 31.9064058,17.988879 31.9068299,17.8970622 C31.9076761,17.7877224 31.9076761,17.6788646 31.9076761,17.5695422 L31.9076761,2.85767711 C31.9076761,2.74835663 31.9076761,2.63930602 31.9068299,2.53017831 C31.9064058,2.43836145 31.9051701,2.3465253 31.9026641,2.25468916 C31.8972453,2.05461205 31.8856424,1.85264578 31.8498834,1.65480482 C31.8141455,1.45370602 31.7551749,1.26666024 31.6620684,1.08424096 C31.5706545,0.904713253 31.4513696,0.7408 31.3092588,0.598457831 C31.1666834,0.456115663 31.0029822,0.336828916 30.8234545,0.245628916 C30.6410159,0.152751807 30.4539894,0.0937638554 30.2533147,0.0576 C30.0550496,0.022053012 29.8530834,0.0102361446 29.6532164,0.00481927711 C29.56096,0.00231325301 29.4691219,0.00129156627 29.3772839,0.000636144578 C29.2684106,0 29.1591267,0 29.0502304,0 L2.85748048,0 Z" id="XMLID_4_" fill="#FFFFFF"></path>
                            <path d="M28.8623221,1 L29.1787783,1.00061476 C29.2645051,1.00122951 29.3502337,1.00217086 29.4364356,1.00455303 C29.5863836,1.00866421 29.7617902,1.01690578 29.9252919,1.04664458 C30.0674188,1.072618 30.1866165,1.11211604 30.301009,1.17120942 C30.4139419,1.2294383 30.5174103,1.30574483 30.6077528,1.39728577 C30.6984399,1.48944147 30.7737367,1.59460309 30.8318786,1.7104653 C30.8897915,1.82563591 30.9284708,1.94601273 30.9539162,2.09128715 C30.9831481,2.25538846 30.9912323,2.43385968 30.9953426,2.58695302 C30.9976504,2.6733646 30.9987864,2.75977618 30.9992048,2.84824334 C31,2.95523002 31,3.06215906 31,3.16935706 L31,17.8308542 C31,17.9380522 31,18.0447892 30.9991859,18.154062 C30.9987864,18.2404543 30.9976523,18.3268659 30.9953236,18.4134312 C30.9912323,18.566294 30.98315,18.7446691 30.9535583,18.9107108 C30.9284708,19.0539872 30.8898123,19.1743833 30.8315776,19.2901302 C30.7736042,19.4057042 30.6984229,19.5107506 30.6081315,19.60233 C30.5172759,19.6945433 30.4141483,19.7706193 30.2998731,19.8293861 C30.1863344,19.8881913 30.0673412,19.9276528 29.9266153,19.9533554 C29.7598022,19.9835168 29.577046,19.991816 29.4394061,19.9956006 C29.3528085,19.9975794 29.2666274,19.9987685 29.1783467,19.9991931 C29.0731364,20 28.9675513,20 28.862324,20 L3.1376968,20 C3.13629578,20 3.13493264,20 3.13351269,20 C3.02949709,20 2.92527322,20 2.81936436,19.9991739 C2.73301285,19.9987685 2.64685067,19.9975986 2.56354731,19.9956775 C2.42276462,19.991816 2.23989481,19.983536 2.07444298,19.9535475 C1.9325073,19.9276509 1.81351413,19.8881913 1.69847976,19.8286176 C1.58528374,19.7703696 1.4822318,19.6943704 1.39133648,19.6019842 C1.30114165,19.5106161 1.22618756,19.4058964 1.16823493,19.2901494 C1.11022549,19.1745177 1.0714137,19.0537567 1.04589447,18.9087704 C1.01639562,18.7430554 1.00829247,18.565391 1.00424279,18.4135656 C1.00193112,18.3266354 1.00096556,18.2397243 1.00041652,18.1533127 L1,17.8982084 L1,17.8308542 L1,3.16935706 L1,3.10200291 L1.00039758,2.84743648 C1.00096556,2.7605062 1.00193112,2.67359513 1.00424279,2.5867417 C1.00829247,2.4347626 1.01639562,2.25702141 1.0461387,2.08992316 C1.07143263,1.94624327 1.11022549,1.82548222 1.16853785,1.70927421 C1.2260361,1.59441098 1.30112272,1.48955674 1.39179275,1.39757394 C1.48210117,1.30589852 1.58549011,1.22968804 1.69940745,1.17090204 C1.81321121,1.11209683 1.93242968,1.072618 2.07436725,1.04670221 C2.23790689,1.01688657 2.41343086,1.00866421 2.56375556,1.00453382 C2.64944443,1.00217086 2.7351333,1.00122951 2.82017846,1.00063397 L3.1376968,1 L28.8623221,1" id="XMLID_3_" fill="#FD5D5A"></path>
                            <g id="Group" transform="translate(4.240964, 5.590361)" fill="#FFFFFF">
                                <g id="Path">
                                    <path d="M4.46962892,1.28010217 C4.74283181,0.938384578 4.92822554,0.479558554 4.87932916,0.010693012 C4.47939855,0.0305792771 3.99136,0.274540723 3.70880964,0.616526265 C3.4551094,0.909384096 3.23056386,1.38742169 3.28910265,1.83663229 C3.7380453,1.87557398 4.18657349,1.61223133 4.46962892,1.28010217"></path>
                                    <path d="M4.87422843,1.9243412 C4.22225542,1.88550554 3.66791904,2.29436723 3.35656867,2.29436723 C3.04504675,2.29436723 2.56826795,1.94391133 2.05259181,1.95335711 C1.38140723,1.96321542 0.758625542,2.34270843 0.418027952,2.94628048 C-0.282523373,4.15372145 0.233152771,5.9447788 0.914401928,6.92817157 C1.24523181,7.41468723 1.64393831,7.95037687 2.16929542,7.93113446 C2.6656694,7.91165687 2.86022747,7.60972337 3.46359133,7.60972337 C4.06651181,7.60972337 4.24176771,7.93113446 4.76720964,7.92139759 C5.31210602,7.91165494 5.65276337,7.43463904 5.9835894,6.94764916 C6.36311325,6.39304675 6.51847711,5.85753253 6.52824867,5.82813494 C6.51847518,5.81839807 5.47753446,5.41906699 5.46788241,4.22166169 C5.45805494,3.21905735 6.28513735,2.74216289 6.32406361,2.71258795 C5.85700241,2.02180241 5.12722892,1.94391133 4.87422843,1.9243412"></path>
                                </g>
                                <g transform="translate(7.710843, 0.385542)">
                                    <path d="M2.84026024,0.181937349 C4.25731277,0.181937349 5.24405783,1.15872578 5.24405783,2.58085398 C5.24405783,4.00805976 4.23700819,4.98992193 2.80472675,4.98992193 L1.23577831,4.98992193 L1.23577831,7.48499277 L0.102213012,7.48499277 L0.102213012,0.181937349 L2.84026024,0.181937349 L2.84026024,0.181937349 Z M1.23577639,4.03841928 L2.53646458,4.03841928 C3.52340434,4.03841928 4.08511036,3.50707277 4.08511036,2.58592964 C4.08511036,1.66488482 3.52340434,1.13851759 2.54154024,1.13851759 L1.23577639,1.13851759 L1.23577639,4.03841928 L1.23577639,4.03841928 Z" id="Shape"></path>
                                    <path d="M5.54023518,5.97178602 C5.54023518,5.04048964 6.25383904,4.46863229 7.51919036,4.39776 L8.97665735,4.31175711 L8.97665735,3.9018506 C8.97665735,3.30968675 8.57680578,2.95542361 7.90888867,2.95542361 C7.27611566,2.95542361 6.88133976,3.25902265 6.78528193,3.73482217 L5.75285012,3.73482217 C5.81357108,2.77316627 6.6333841,2.06464 7.94930313,2.06464 C9.23984,2.06464 10.0647287,2.74788241 10.0647287,3.8157494 L10.0647287,7.4849947 L9.01707181,7.4849947 L9.01707181,6.60944 L8.99188627,6.60944 C8.68321157,7.20160386 8.0100241,7.57607325 7.31164916,7.57607325 C6.26906602,7.57607325 5.54023518,6.92826602 5.54023518,5.97178602 Z M8.97665735,5.49100723 L8.97665735,5.0709494 L7.66581398,5.15187663 C7.01293108,5.19746506 6.64353735,5.48593157 6.64353735,5.94142651 C6.64353735,6.40697639 7.02816,6.71067181 7.61524819,6.71067181 C8.37941783,6.71067181 8.97665735,6.18430458 8.97665735,5.49100723 Z" id="Shape"></path>
                                    <path d="M11.0538159,9.44364337 L11.0538159,8.55793735 C11.1346448,8.57814554 11.3168039,8.57814554 11.4079807,8.57814554 C11.9140434,8.57814554 12.1873793,8.36562506 12.3543094,7.81905157 C12.3543094,7.80889831 12.4505619,7.49514795 12.4505619,7.49007229 L10.5274467,2.16079614 L11.7115778,2.16079614 L13.0579528,6.49307759 L13.0780627,6.49307759 L14.4244395,2.16079614 L15.5783094,2.16079614 L13.5841253,7.76330988 C13.128827,9.05394506 12.6024578,9.46892723 11.4991576,9.46892723 C11.4079827,9.46892723 11.1346467,9.45877398 11.0538159,9.44364337 Z" id="Path"></path>
                                </g>
                            </g>
                        </g>
                    </g>
                </g>
            </g>
        </g>
    </g>
</svg>