<svg width="32px" height="21px" viewBox="0 0 32 21" version="1.1" xmlns="http://www.w3.org/2000/svg" xmlns:xlink="http://www.w3.org/1999/xlink">
    <g id="Desktop" stroke="none" stroke-width="1" fill="none" fill-rule="evenodd">
        <g id="Tour-Booking_2" transform="translate(-664.000000, -749.000000)" fill-rule="nonzero">
            <g id="PAYMENT-METHOD" transform="translate(640.000000, 656.000000)">
                <g id="DROPDOWN" transform="translate(0.000000, 79.500000)">
                    <g id="APPLE" transform="translate(0.000000, 13.500000)">
                        <g id="Apple_Pay_Mark_RGB_041619" transform="translate(24.000000, 0.000000)">
                            <path d="M29.0502304,0 L2.85748048,0 C2.74839133,0 2.6391094,0 2.53021494,0.000636144578 C2.43816482,0.00129156627 2.34632867,0.00231325301 2.25449253,0.00481927711 C2.05420337,0.0102361446 1.85219855,0.022053012 1.65441542,0.0576 C1.45347084,0.0937638554 1.26648289,0.152751807 1.08406361,0.245628916 C0.904728675,0.336828916 0.740545542,0.456115663 0.598263133,0.598457831 C0.455919036,0.7408 0.336632289,0.904713253 0.245451566,1.08424096 C0.152555181,1.26666024 0.0935286747,1.45370602 0.0576154217,1.65480482 C0.0218775904,1.85264578 0.00998168675,2.05461205 0.00458409639,2.25468916 C0.00211662651,2.3465253 0.00105831325,2.43836145 0.000458795181,2.53017831 C7.71084338e-07,2.63930602 7.71084338e-07,2.74835663 7.71084338e-07,2.85767711 L7.71084338e-07,17.5695422 C7.71084338e-07,17.6788627 7.71084338e-07,17.7877224 0.000458795181,17.8970622 C0.00105831325,17.988879 0.00211662651,18.0807152 0.00458409639,18.1725513 C0.00998168675,18.372453 0.0218775904,18.5744193 0.0576154217,18.7722024 C0.0935286747,18.9733783 0.152555181,19.160347 0.245451566,19.3427855 C0.336632289,19.5223133 0.455919036,19.6864386 0.598263133,19.8285687 C0.740545542,19.9711422 0.904728675,20.0904096 1.08406361,20.1813783 C1.26648289,20.274506 1.45347084,20.3335133 1.65441542,20.3696578 C1.85219855,20.4049735 2.05420337,20.4170024 2.25449253,20.4224193 C2.34632867,20.4245012 2.43816482,20.4257349 2.53021494,20.426159 C2.6391094,20.4270072 2.74839133,20.4270072 2.85748048,20.4270072 L29.0502304,20.4270072 C29.1591267,20.4270072 29.2684106,20.4270072 29.3772839,20.426159 C29.4691219,20.4257349 29.56096,20.4245012 29.6532164,20.4224193 C29.8530814,20.4170024 30.0550477,20.4049735 30.2533147,20.3696578 C30.4539894,20.3335133 30.6410159,20.274506 30.8234545,20.1813783 C31.0029822,20.0904096 31.1666834,19.9711422 31.3092588,19.8285687 C31.4513696,19.6864386 31.5706545,19.5223133 31.6620684,19.3427855 C31.7551749,19.160347 31.8141436,18.9733783 31.8498834,18.7722024 C31.8856424,18.5744193 31.8972472,18.372453 31.9026641,18.1725513 C31.9051701,18.0807152 31.9064058,17.988879 31.9068299,17.8970622 C31.9076761,17.7877224 31.9076761,17.6788646 31.9076761,17.5695422 L31.9076761,2.85767711 C31.9076761,2.74835663 31.9076761,2.63930602 31.9068299,2.53017831 C31.9064058,2.43836145 31.9051701,2.3465253 31.9026641,2.25468916 C31.8972453,2.05461205 31.8856424,1.85264578 31.8498834,1.65480482 C31.8141455,1.45370602 31.7551749,1.26666024 31.6620684,1.08424096 C31.5706545,0.904713253 31.4513696,0.7408 31.3092588,0.598457831 C31.1666834,0.456115663 31.0029822,0.336828916 30.8234545,0.245628916 C30.6410159,0.152751807 30.4539894,0.0937638554 30.2533147,0.0576 C30.0550496,0.022053012 29.8530834,0.0102361446 29.6532164,0.00481927711 C29.56096,0.00231325301 29.4691219,0.00129156627 29.3772839,0.000636144578 C29.2684106,0 29.1591267,0 29.0502304,0 L29.0502304,0 Z" id="XMLID_4_" fill="#000000"></path>
                            <path d="M29.0502304,0.68086747 L29.3724453,0.681484337 C29.459732,0.682101205 29.5470207,0.683045783 29.6347913,0.685436145 C29.787468,0.689561446 29.9660665,0.697831325 30.1325436,0.727672289 C30.2772569,0.75373494 30.3986236,0.793368675 30.5150978,0.85266506 C30.6300858,0.911093976 30.7354371,0.987662651 30.8274236,1.07951807 C30.919761,1.17199036 30.996428,1.27751325 31.055628,1.39377349 C31.1145947,1.50933976 31.1539778,1.63013012 31.1798863,1.77590361 C31.2096501,1.94056867 31.2178814,2.11965301 31.2220665,2.27327229 C31.2244164,2.35998072 31.225573,2.44668916 31.225999,2.53546024 C31.2268087,2.64281446 31.2268087,2.75011084 31.2268087,2.85767711 L31.2268087,17.5695422 C31.2268087,17.6771084 31.2268087,17.784212 31.2259798,17.8938602 C31.225573,17.9805494 31.2244183,18.0672578 31.2220472,18.1541205 C31.2178814,18.3075084 31.209652,18.4864964 31.1795219,18.6531084 C31.1539778,18.7968771 31.1146159,18.9176867 31.0553214,19.0338313 C30.996293,19.1498024 30.9197436,19.2552096 30.8278092,19.3471036 C30.7353002,19.4396337 30.6302959,19.5159711 30.5139412,19.5749398 C30.3983364,19.633947 30.2771778,19.6735441 30.1338911,19.6993349 C29.9640424,19.7296 29.7779605,19.7379277 29.6378159,19.7417253 C29.5496424,19.7437108 29.461893,19.7449041 29.3720058,19.7453301 C29.264881,19.7461398 29.1573745,19.7461398 29.0502323,19.7461398 L2.85748048,19.7461398 C2.85605398,19.7461398 2.85466602,19.7461398 2.85322024,19.7461398 C2.74731181,19.7461398 2.64119133,19.7461398 2.53335518,19.7453108 C2.44543229,19.7449041 2.35770217,19.7437301 2.27288289,19.7418024 C2.12953831,19.7379277 1.94334072,19.7296193 1.77487807,19.6995277 C1.63035952,19.6735422 1.50920096,19.633947 1.39207325,19.5741687 C1.27681735,19.5157205 1.17189012,19.4394602 1.07934072,19.3467566 C0.987504578,19.2550747 0.911186506,19.1499952 0.852179277,19.0338506 C0.793114217,18.9178217 0.753596145,18.7966458 0.72761253,18.6511614 C0.697576867,18.4848771 0.689326265,18.3066024 0.685202892,18.1542554 C0.682849157,18.0670265 0.681866024,17.9798169 0.681306988,17.8931084 L0.680882892,17.6371277 L0.680882892,17.5695422 L0.680882892,2.85767711 L0.680882892,2.79009157 L0.681287711,2.5346506 C0.681866024,2.44742169 0.682849157,2.36021205 0.685202892,2.27306024 C0.689326265,2.12055904 0.697576867,1.94220723 0.727861205,1.77453494 C0.753615422,1.63036145 0.793114217,1.50918554 0.852487711,1.39257831 C0.911032289,1.27732048 0.987485301,1.17210602 1.0798053,1.07980723 C1.17175711,0.987816867 1.27702747,0.911344578 1.39301783,0.852356627 C1.50889253,0.793349398 1.63028048,0.75373494 1.77480096,0.72773012 C1.94131663,0.697812048 2.1200347,0.689561446 2.27309494,0.685416867 C2.36034313,0.683045783 2.44759133,0.682101205 2.5341841,0.681503614 L2.85748048,0.68086747 L29.0502304,0.68086747" id="XMLID_3_" fill="#FFFFFF"></path>
                            <g id="Group" transform="translate(4.240964, 5.590361)" fill="#000000">
                                <g id="Path">
                                    <path d="M4.46962892,1.28010217 C4.74283181,0.938384578 4.92822554,0.479558554 4.87932916,0.010693012 C4.47939855,0.0305792771 3.99136,0.274540723 3.70880964,0.616526265 C3.4551094,0.909384096 3.23056386,1.38742169 3.28910265,1.83663229 C3.7380453,1.87557398 4.18657349,1.61223133 4.46962892,1.28010217"></path>
                                    <path d="M4.87422843,1.9243412 C4.22225542,1.88550554 3.66791904,2.29436723 3.35656867,2.29436723 C3.04504675,2.29436723 2.56826795,1.94391133 2.05259181,1.95335711 C1.38140723,1.96321542 0.758625542,2.34270843 0.418027952,2.94628048 C-0.282523373,4.15372145 0.233152771,5.9447788 0.914401928,6.92817157 C1.24523181,7.41468723 1.64393831,7.95037687 2.16929542,7.93113446 C2.6656694,7.91165687 2.86022747,7.60972337 3.46359133,7.60972337 C4.06651181,7.60972337 4.24176771,7.93113446 4.76720964,7.92139759 C5.31210602,7.91165494 5.65276337,7.43463904 5.9835894,6.94764916 C6.36311325,6.39304675 6.51847711,5.85753253 6.52824867,5.82813494 C6.51847518,5.81839807 5.47753446,5.41906699 5.46788241,4.22166169 C5.45805494,3.21905735 6.28513735,2.74216289 6.32406361,2.71258795 C5.85700241,2.02180241 5.12722892,1.94391133 4.87422843,1.9243412"></path>
                                </g>
                                <g transform="translate(7.710843, 0.385542)">
                                    <path d="M2.84026024,0.181937349 C4.25731277,0.181937349 5.24405783,1.15872578 5.24405783,2.58085398 C5.24405783,4.00805976 4.23700819,4.98992193 2.80472675,4.98992193 L1.23577831,4.98992193 L1.23577831,7.48499277 L0.102213012,7.48499277 L0.102213012,0.181937349 L2.84026024,0.181937349 L2.84026024,0.181937349 Z M1.23577639,4.03841928 L2.53646458,4.03841928 C3.52340434,4.03841928 4.08511036,3.50707277 4.08511036,2.58592964 C4.08511036,1.66488482 3.52340434,1.13851759 2.54154024,1.13851759 L1.23577639,1.13851759 L1.23577639,4.03841928 L1.23577639,4.03841928 Z" id="Shape"></path>
                                    <path d="M5.54023518,5.97178602 C5.54023518,5.04048964 6.25383904,4.46863229 7.51919036,4.39776 L8.97665735,4.31175711 L8.97665735,3.9018506 C8.97665735,3.30968675 8.57680578,2.95542361 7.90888867,2.95542361 C7.27611566,2.95542361 6.88133976,3.25902265 6.78528193,3.73482217 L5.75285012,3.73482217 C5.81357108,2.77316627 6.6333841,2.06464 7.94930313,2.06464 C9.23984,2.06464 10.0647287,2.74788241 10.0647287,3.8157494 L10.0647287,7.4849947 L9.01707181,7.4849947 L9.01707181,6.60944 L8.99188627,6.60944 C8.68321157,7.20160386 8.0100241,7.57607325 7.31164916,7.57607325 C6.26906602,7.57607325 5.54023518,6.92826602 5.54023518,5.97178602 Z M8.97665735,5.49100723 L8.97665735,5.0709494 L7.66581398,5.15187663 C7.01293108,5.19746506 6.64353735,5.48593157 6.64353735,5.94142651 C6.64353735,6.40697639 7.02816,6.71067181 7.61524819,6.71067181 C8.37941783,6.71067181 8.97665735,6.18430458 8.97665735,5.49100723 Z" id="Shape"></path>
                                    <path d="M11.0538159,9.44364337 L11.0538159,8.55793735 C11.1346448,8.57814554 11.3168039,8.57814554 11.4079807,8.57814554 C11.9140434,8.57814554 12.1873793,8.36562506 12.3543094,7.81905157 C12.3543094,7.80889831 12.4505619,7.49514795 12.4505619,7.49007229 L10.5274467,2.16079614 L11.7115778,2.16079614 L13.0579528,6.49307759 L13.0780627,6.49307759 L14.4244395,2.16079614 L15.5783094,2.16079614 L13.5841253,7.76330988 C13.128827,9.05394506 12.6024578,9.46892723 11.4991576,9.46892723 C11.4079827,9.46892723 11.1346467,9.45877398 11.0538159,9.44364337 Z" id="Path"></path>
                                </g>
                            </g>
                        </g>
                    </g>
                </g>
            </g>
        </g>
    </g>
</svg>