<svg id="Capa_1" enable-background="new 0 0 512 512" height="512" viewBox="0 0 512 512" width="512" xmlns="http://www.w3.org/2000/svg"><g><g><g><path d="m272.542 91.423c-3.293-2.505-7.995-1.866-10.5 1.428-1.803 2.37-4.542 3.73-7.514 3.73-2.985 0-5.733-1.371-7.536-3.759-2.493-3.304-7.194-3.959-10.494-1.467-3.304 2.493-3.96 7.192-1.468 10.494 4.661 6.177 11.768 9.719 19.498 9.719 7.694 0 14.78-3.515 19.442-9.644 2.506-3.293 1.866-7.995-1.428-10.501z"/><path d="m449.724 318.917c-.399-4.192-3.108-7.682-7.069-9.108-3.964-1.426-8.274-.462-11.254 2.516l-12.315 12.315-61.066-61.065v-14.859l61.066-61.066 12.317 12.317c2.978 2.976 7.287 3.941 11.252 2.514 3.961-1.425 6.67-4.915 7.069-9.107l8.774-92.326c.304-3.206-.827-6.351-3.104-8.628-2.277-2.276-5.409-3.409-8.628-3.104l-92.325 8.774c-4.193.399-7.682 3.107-9.108 7.07s-.461 8.275 2.516 11.253l12.315 12.315-38.999 38.999c-10.517-8.725-22.738-15.36-35.804-19.28-1.053-.316-1.788-1.336-1.788-2.479v-6.208c25.777-11.251 43.846-36.975 43.846-66.85.001-40.202-32.707-72.91-72.91-72.91s-72.911 32.708-72.911 72.911c0 31.014 19.473 57.55 46.827 68.069v4.989c0 1.144-.736 2.163-1.788 2.479-13.065 3.92-25.285 10.555-35.803 19.28l-38.999-38.999 12.315-12.315c2.978-2.979 3.943-7.29 2.516-11.253-1.426-3.962-4.915-6.671-9.098-7.069l-30.23-2.909c-4.122-.389-7.78 2.622-8.177 6.741-.396 4.119 2.622 7.78 6.741 8.177l21.315 2.051-8.967 8.967c-2.032 2.033-3.151 4.735-3.151 7.61 0 2.874 1.119 5.576 3.151 7.609l41.773 41.773c-1.914 2.129-3.745 4.334-5.474 6.622-9.953 13.175-16.425 28.23-19.126 44.232l-54.9-54.9c-2.033-2.032-4.735-3.151-7.61-3.151-2.874 0-5.576 1.119-7.609 3.152l-8.958 8.958-7.441-78.304 22.02 2.093c4.122.387 7.776-2.631 8.168-6.752.391-4.119-2.631-7.776-6.751-8.168l-27.108-2.576c-3.208-.301-6.35.827-8.628 3.104-2.276 2.277-3.408 5.422-3.104 8.628l8.774 92.325c.399 4.192 3.108 7.682 7.069 9.108 3.965 1.427 8.275.463 11.254-2.516l12.315-12.315 61.066 61.066v14.859l-61.066 61.065-12.317-12.317c-2.978-2.977-7.287-3.942-11.252-2.514-3.961 1.426-6.67 4.916-7.069 9.107l-8.774 92.326c-.304 3.206.827 6.351 3.104 8.628 2.033 2.032 4.757 3.152 7.599 3.152.341 0 .684-.017 1.028-.049l92.325-8.774c4.193-.399 7.682-3.107 9.108-7.07s.461-8.274-2.516-11.253l-12.315-12.315 33.381-33.382c3.988-.365 7.746-1.54 11.095-3.377v131.732c0 18.453 15.065 33.464 33.582 33.464 10.531 0 19.945-4.855 26.107-12.437 6.162 7.581 15.576 12.437 26.107 12.437 18.517 0 33.582-15.011 33.582-33.464v-78.502c0-4.139-3.354-7.493-7.493-7.493s-7.493 3.354-7.493 7.493v78.502c0 10.189-8.342 18.478-18.596 18.478s-18.596-8.289-18.596-18.478v-141.02c0-4.138-3.354-7.492-7.492-7.493-.001 0 0 0-.001 0-4.137 0-7.492 3.353-7.493 7.491l-.035 141.023c0 10.189-8.342 18.478-18.596 18.478s-18.596-8.289-18.596-18.478v-243.536c0-4.139-3.354-7.493-7.493-7.493s-7.493 3.354-7.493 7.493l-.092 86.701c0 7.513-6.114 13.627-13.627 13.627s-13.627-6.114-13.627-13.627v-75.531c0-19.094 6.066-37.215 17.542-52.404 11.108-14.702 26.889-25.699 44.437-30.965 7.341-2.202 12.468-9.124 12.468-16.833v-.99c3.62.555 7.326.843 11.098.843 4.816 0 9.521-.482 14.079-1.377v1.523c0 7.709 5.128 14.631 12.469 16.833 17.547 5.266 33.329 16.262 44.437 30.965 11.476 15.189 17.542 33.31 17.542 52.404v75.531c0 7.513-6.114 13.627-13.627 13.627s-13.627-6.114-13.627-13.627c0-.379-.092-85.373-.092-85.373 0-4.139-3.354-7.493-7.493-7.493s-7.493 3.354-7.493 7.493v128.738c0 4.139 3.354 7.493 7.493 7.493s7.493-3.354 7.493-7.493v-18.263c3.349 1.838 7.107 3.012 11.095 3.377l33.381 33.382-12.315 12.315c-2.978 2.979-3.943 7.29-2.516 11.253 1.426 3.962 4.915 6.671 9.107 7.07l92.326 8.774c.344.032.688.049 1.028.049 2.842 0 5.566-1.12 7.599-3.152 2.276-2.277 3.408-5.422 3.104-8.628zm-311.475 57.036c-2.032 2.033-3.151 4.735-3.151 7.609 0 2.875 1.119 5.577 3.151 7.61l8.958 8.958-78.303 7.441 7.441-78.304 8.958 8.958c2.033 2.032 4.735 3.151 7.609 3.151 2.875 0 5.577-1.119 7.61-3.151l53.457-53.456v36.932c0 10.424 5.605 19.561 13.958 24.563zm116.26-245.117c-31.94 0-57.925-25.985-57.925-57.925s25.985-57.925 57.925-57.925 57.925 25.985 57.925 57.925-25.985 57.925-57.925 57.925zm82.942 53.897c-1.728-2.288-3.56-4.493-5.474-6.622l41.773-41.773c2.032-2.033 3.151-4.735 3.151-7.609 0-2.875-1.119-5.577-3.151-7.61l-8.958-8.958 78.303-7.441-7.441 78.304-8.958-8.958c-2.033-2.032-4.735-3.151-7.609-3.151-2.875 0-5.577 1.119-7.61 3.151l-54.9 54.9c-2.701-16.002-9.173-31.059-19.126-44.233zm27.342 215.397 8.958-8.958c2.032-2.033 3.151-4.735 3.151-7.61s-1.119-5.576-3.151-7.609l-29.688-29.688c8.353-5.002 13.958-14.139 13.958-24.563v-36.932l53.457 53.457c2.033 2.032 4.735 3.151 7.61 3.151 2.874 0 5.576-1.119 7.609-3.152l8.958-8.958 7.441 78.304z"/></g></g></g></svg>