<?xml version="1.0" encoding="UTF-8"?>
<svg width="32px" height="22px" viewBox="0 0 32 22" version="1.1" xmlns="http://www.w3.org/2000/svg" xmlns:xlink="http://www.w3.org/1999/xlink">
    <!-- Generator: Sketch 60.1 (88133) - https://sketch.com -->
    <title>❌ icon/credit card</title>
    <desc>Created with Sketch.</desc>
    <defs>
        <path d="M28.6666875,0.0208125 C30.504,0.0208125 31.9999375,1.5168125 31.9999375,3.3541875 L31.9999375,3.3541875 L31.999,4.6748125 L32.0000625,4.6875 L32.0000625,8.6875 C32.0000625,8.6915551 32.0000262,8.69560178 31.999954,8.69963973 L31.9999375,18.020875 C31.9999375,19.8581875 30.5039375,21.3541875 28.666625,21.3541875 L28.666625,21.3541875 L3.3333125,21.3541875 C1.496,21.3541875 -3.90798505e-14,19.8581875 -3.90798505e-14,18.020875 L-3.90798505e-14,18.020875 L-3.90798505e-14,3.3541875 C-3.90798505e-14,1.5168125 1.496,0.0208125 3.3333125,0.0208125 L3.3333125,0.0208125 Z M30.666,9.3538125 L1.333,9.3538125 L1.3333125,18.0208125 C1.3333125,19.0733778 2.15090509,19.9388143 3.18428399,20.0153156 L3.3333125,20.0208125 L28.6666875,20.0208125 C29.769375,20.0208125 30.6666875,19.1235 30.6666875,18.0208125 L30.6666875,18.0208125 L30.666,9.3538125 Z M12.6666875,16.0208125 C13.0346875,16.0208125 13.333375,16.3195 13.333375,16.6875 C13.333375,17.0555 13.0346875,17.3541875 12.6666875,17.3541875 L12.6666875,17.3541875 L4.6666875,17.3541875 C4.2986875,17.3541875 4,17.0555 4,16.6875 C4,16.3195 4.2986875,16.0208125 4.6666875,16.0208125 L4.6666875,16.0208125 Z M26,12.0208125 C27.1026875,12.0208125 28,12.9181875 28,14.0208125 L28,14.0208125 L28,15.354125 C28,16.4568125 27.1026875,17.354125 26,17.354125 L26,17.354125 L24.6666875,17.354125 C23.564,17.354125 22.6666875,16.4568125 22.6666875,15.354125 L22.6666875,15.354125 L22.6666875,14.0208125 C22.6666875,12.918125 23.564,12.0208125 24.6666875,12.0208125 L24.6666875,12.0208125 Z M26,13.3541875 L24.6666875,13.3541875 C24.2986875,13.3541875 24,13.652875 24,14.020875 L24,14.020875 L24,15.3541875 C24,15.7221875 24.2986875,16.020875 24.6666875,16.020875 L24.6666875,16.020875 L26,16.020875 C26.368,16.020875 26.6666875,15.7221875 26.6666875,15.3541875 L26.6666875,15.3541875 L26.6666875,14.020875 C26.6666875,13.652875 26.368,13.3541875 26,13.3541875 L26,13.3541875 Z M12.6666875,13.3541875 C13.0346875,13.3541875 13.333375,13.6528125 13.333375,14.0208125 C13.333375,14.3888125 13.0346875,14.6875 12.6666875,14.6875 L12.6666875,14.6875 L4.6666875,14.6875 C4.2986875,14.6875 4,14.388875 4,14.020875 C4,13.652875 4.2986875,13.3541875 4.6666875,13.3541875 L4.6666875,13.3541875 Z M30.6666875,5.354125 L1.3333125,5.354125 L1.3333125,8.0208125 L30.6666875,8.0208125 L30.6666875,5.354125 Z M28.666625,1.3541875 L3.3333125,1.3541875 C2.230625,1.3541875 1.3333125,2.2515 1.3333125,3.3541875 L1.3333125,3.3541875 L1.333,4.0198125 L30.666,4.0198125 L30.6666875,3.3541875 C30.6666875,2.30162216 29.849038,1.43618569 28.8156539,1.35968437 L28.666625,1.3541875 Z" id="path-1"></path>
    </defs>
    <g id="Desktop" stroke="none" stroke-width="1" fill="none" fill-rule="evenodd">
        <g id="Tour-Booking_2" transform="translate(-664.000000, -849.000000)">
            <g id="PAYMENT-METHOD" transform="translate(640.000000, 656.000000)">
                <g id="DROPDOWN" transform="translate(0.000000, 79.500000)">
                    <g id="CREDIT-CARD" transform="translate(24.000000, 108.500000)">
                        <g id="❌-icon/credit-card">
                            <g id="🌈-color/black" transform="translate(-0.000000, 5.600000)">
                                <mask id="mask-2" fill="white">
                                    <use xlink:href="#path-1"></use>
                                </mask>
                                <use id="CARD" fill="#000000" fill-rule="nonzero" xlink:href="#path-1"></use>
                                <g id="🌈-color/grey30" mask="url(#mask-2)" fill="#BCBEC0">
                                    <g transform="translate(0.000000, -5.600000)" id="Rectangle-5">
                                        <rect x="0" y="0" width="32" height="32"></rect>
                                    </g>
                                </g>
                            </g>
                        </g>
                    </g>
                </g>
            </g>
        </g>
    </g>
</svg>