<svg id="Capa_1" enable-background="new 0 0 512 512" height="512" viewBox="0 0 512 512" width="512" xmlns="http://www.w3.org/2000/svg"><g><path d="m150.955 512c-62.371 0-152.13-8.729-150.9-70.768.509-26.461 20.968-58.411 57.569-96.87l21.72 20.669c-30.87 32.461-49.26 59.31-49.26 77.25.029 36.57 84 39.719 120.871 39.719z" fill="#7ed8f6"/><path d="m360.955 512v-30c36.18 0 120.489-3.029 120.969-39.359.211-17.941-17.309-44.971-48.36-77.611l21.72-20.669c37.44 39.329 56.97 71.849 56.671 98.639-.661 60.901-90.431 69-151 69" fill="#6aa9ff"/><path d="m255.955 0c-203.071 0-225 73.442-225 105 0 33.541 8.789 51.151 16.589 66.722 3.42 6.81 6.63 13.259 9.029 20.94l28.651-8.97c-3.12-9.961-7.05-17.82-10.86-25.411-7.2-14.399-13.409-26.819-13.409-53.28 0-46.26 74.729-75 195-75 120.269 0 196 28.74 196 75 0 26.461-6.211 38.881-13.411 53.28-3.81 7.592-7.74 15.45-10.86 25.411l28.651 8.97c2.399-7.681 5.609-14.13 9.029-20.94 7.8-15.571 16.591-33.181 16.591-66.722 0-31.558-22.931-105-226-105" fill="#7ed8f6"/><path d="m451.955 105c0 26.461-6.211 38.881-13.411 53.28-3.81 7.592-7.74 15.45-10.86 25.411l28.651 8.97c2.399-7.681 5.609-14.13 9.029-20.94 7.8-15.571 16.591-33.181 16.591-66.722 0-31.558-22.931-105-226-105v30c120.269.001 196 28.741 196 75.001" fill="#6aa9ff"/><path d="m430.599 163.094-174.641-74.4-173.67 74.399c-31.08 13.35-49.47 46.051-44.67 79.561l18.241 129.769c4.048 28.29 23.399 51.48 50.55 60.54l149.55 49.83 150.55-49.83c27.151-9.06 46.5-32.25 50.55-60.54l18.241-129.769c4.769-33.509-13.591-66.21-44.701-79.56" fill="#f0f7ff"/><path d="m457.056 372.415 18.239-129.769c4.799-33.481-13.59-66.209-44.7-79.559l-174.64-74.402v394.131l150.55-49.861c27.15-9.06 46.501-32.248 50.551-60.54" fill="#dfe7f4"/><path d="m255.955 165h-15v242h15 15v-242z" fill="#dfe7f4"/><path d="m255.955 165h15v242h-15z" fill="#c7cfe1"/></g></svg>