<?xml version="1.0" encoding="UTF-8"?>
<svg width="32px" height="32px" viewBox="0 0 32 32" version="1.1" xmlns="http://www.w3.org/2000/svg" xmlns:xlink="http://www.w3.org/1999/xlink">
    <!-- Generator: Sketch 60.1 (88133) - https://sketch.com -->
    <title>21155</title>
    <desc>Created with Sketch.</desc>
    <g id="Desktop" stroke="none" stroke-width="1" fill="none" fill-rule="evenodd">
        <g id="Day-Tours" transform="translate(-1216.000000, -3505.000000)" fill="#3E76CA" fill-rule="nonzero">
            <g id="FOOTER" transform="translate(0.000000, 3385.000000)">
                <g id="FOLLOW-US" transform="translate(1160.000000, 72.000000)">
                    <g id="21155" transform="translate(56.000000, 48.000000)">
                        <path d="M30.2327603,0 L1.76618587,0 C0.791411447,0 0,0.789830732 0,1.76618587 L0,30.2327603 C0,31.2091155 0.791411447,32 1.76618587,32 L17.0917473,32 L17.0917473,19.6077192 L12.9218205,19.6077192 L12.9218205,14.7775802 L17.0917473,14.7775802 L17.0917473,11.2157018 C17.0917473,7.08318514 19.6150958,4.83171969 23.3023777,4.83171969 C25.0701442,4.83171969 26.5860502,4.96397286 27.0281236,5.02140552 L27.0281236,9.34097346 L24.4705262,9.34202727 C22.4656524,9.34202727 22.078904,10.2951986 22.078904,11.6930778 L22.078904,14.7759995 L26.8621485,14.7759995 L26.2367121,19.6056115 L22.0783771,19.6056115 L22.0783771,31.9984193 L30.2322334,31.9984193 C31.2080616,31.9984193 32,31.2064809 32,30.2327603 L32,1.76513206 C31.9994731,0.789830732 31.2085886,0 30.2327603,0 Z" id="Path"></path>
                    </g>
                </g>
            </g>
        </g>
    </g>
</svg>