<?xml version="1.0" encoding="UTF-8"?>
<svg width="32px" height="22px" viewBox="0 0 32 22" version="1.1" xmlns="http://www.w3.org/2000/svg" xmlns:xlink="http://www.w3.org/1999/xlink">
    <!-- Generator: Sketch 60.1 (88133) - https://sketch.com -->
    <title>Rectangle</title>
    <desc>Created with Sketch.</desc>
    <defs>
        <rect id="path-1" x="0" y="0.5" width="592" height="152" rx="8"></rect>
        <filter x="-1.2%" y="-3.3%" width="102.4%" height="109.2%" filterUnits="objectBoundingBox" id="filter-2">
            <feOffset dx="0" dy="2" in="SourceAlpha" result="shadowOffsetOuter1"></feOffset>
            <feGaussianBlur stdDeviation="2" in="shadowOffsetOuter1" result="shadowBlurOuter1"></feGaussianBlur>
            <feColorMatrix values="0 0 0 0 0   0 0 0 0 0   0 0 0 0 0  0 0 0 0.266881556 0" type="matrix" in="shadowBlurOuter1"></feColorMatrix>
        </filter>
    </defs>
    <g id="Desktop" stroke="none" stroke-width="1" fill="none" fill-rule="evenodd">
        <g id="Tour-Booking_2" transform="translate(-664.000000, -796.000000)">
            <g id="PAYMENT-METHOD" transform="translate(640.000000, 656.000000)">
                <g id="DROPDOWN" transform="translate(0.000000, 79.500000)">
                    <g id="Rectangle">
                        <use fill="black" fill-opacity="1" filter="url(#filter-2)" xlink:href="#path-1"></use>
                        <use fill="#FD5D5A" fill-rule="evenodd" xlink:href="#path-1"></use>
                    </g>
                    <g id="GOOGLE" transform="translate(0.000000, 60.500000)">
                        <g id="Group-2" transform="translate(24.000000, 0.000000)">
                            <rect id="Rectangle" fill="#FD5D5A" x="0" y="0" width="32" height="22" rx="4"></rect>
                            <g id="google-pay-seeklogo.com" transform="translate(4.000000, 6.000000)" fill="#FFFFFF" fill-rule="nonzero">
                                <path d="M11.379405,4.64622426 L11.379405,7.43615561 L10.4951945,7.43615561 L10.4951945,0.549199085 L12.8402746,0.549199085 C13.4059497,0.538215103 13.9496568,0.752402746 14.3615561,1.14782609 C14.7734554,1.51578947 15.004119,2.04851259 14.993135,2.59771167 C15.004119,3.15240275 14.7734554,3.68512586 14.3615561,4.05858124 C13.9496568,4.44851259 13.4443936,4.64622426 12.8457666,4.64622426 L11.379405,4.64622426 L11.379405,4.64622426 Z M11.379405,1.39496568 L11.379405,3.80045767 L12.8622426,3.80045767 C13.191762,3.81144165 13.5102975,3.67963387 13.7354691,3.44347826 C14.2022883,2.99313501 14.2077803,2.25171625 13.7574371,1.78489703 L13.7354691,1.76292906 C13.5102975,1.52128146 13.191762,1.38947368 12.8622426,1.40045767 L11.379405,1.39496568 Z M17.0306636,2.57025172 C17.6842105,2.57025172 18.2004577,2.74599542 18.579405,3.09199085 C18.9583524,3.44347826 19.1450801,3.92128146 19.1450801,4.53089245 L19.1450801,7.43066362 L18.2993135,7.43066362 L18.2993135,6.7771167 L18.2608696,6.7771167 C17.8929062,7.31533181 17.409611,7.58443936 16.8,7.58443936 C16.2837529,7.58443936 15.8443936,7.43066362 15.4983982,7.12311213 C15.1578947,6.8375286 14.9656751,6.41464531 14.976659,5.96979405 C14.976659,5.48100686 15.1633867,5.09656751 15.5313501,4.80549199 C15.8993135,4.51441648 16.3935927,4.37162471 17.0086957,4.37162471 C17.5359268,4.37162471 17.9643021,4.47048055 18.3048055,4.65720824 L18.3048055,4.45400458 C18.3048055,4.15194508 18.1729977,3.86636156 17.9423341,3.67414188 C17.7061785,3.46544622 17.404119,3.35011442 17.0910755,3.35011442 C16.5967963,3.35011442 16.206865,3.55881007 15.9157895,3.97620137 L15.1359268,3.48741419 C15.5588101,2.8778032 16.190389,2.57025172 17.0306636,2.57025172 L17.0306636,2.57025172 Z M15.8883295,5.99176201 C15.8883295,6.22242563 15.9981693,6.43661327 16.179405,6.56842105 C16.3771167,6.7221968 16.6187643,6.80457666 16.8659039,6.79908467 C17.2393593,6.79908467 17.5963387,6.65080092 17.8599542,6.38718535 C18.1510297,6.11258581 18.2993135,5.78855835 18.2993135,5.41510297 C18.024714,5.19542334 17.6402746,5.08558352 17.1459954,5.08558352 C16.789016,5.08558352 16.4869565,5.17345538 16.2453089,5.34370709 C16.0091533,5.5194508 15.8883295,5.73363844 15.8883295,5.99176201 L15.8883295,5.99176201 Z M24,2.72402746 L21.0453089,9.51212815 L20.1336384,9.51212815 L21.2320366,7.1395881 L19.2878719,2.72951945 L20.2489703,2.72951945 L21.6494279,6.11258581 L21.6713959,6.11258581 L23.0389016,2.72951945 L24,2.72402746 Z" id="Shape"></path>
                                <path d="M7.80411899,4.04210526 C7.80411899,3.77299771 7.78215103,3.50389016 7.7382151,3.2402746 L4.00915332,3.2402746 L4.00915332,4.76155606 L6.14553776,4.76155606 C6.0576659,5.25034325 5.77208238,5.68970252 5.35469108,5.96430206 L5.35469108,6.95286041 L6.62883295,6.95286041 C7.37574371,6.26636156 7.80411899,5.25034325 7.80411899,4.04210526 Z" id="Path"></path>
                                <path d="M4.00915332,7.90846682 C5.07459954,7.90846682 5.97528604,7.55697941 6.62883295,6.95286041 L5.35469108,5.96430206 C4.99771167,6.20594966 4.54187643,6.34324943 4.00915332,6.34324943 C2.97665904,6.34324943 2.10343249,5.64576659 1.79038902,4.71212815 L0.477803204,4.71212815 L0.477803204,5.73363844 C1.14782609,7.06270023 2.51533181,7.90846682 4.00915332,7.90846682 Z" id="Path"></path>
                                <path d="M1.79038902,3.19633867 L1.79038902,2.18032037 L0.477803204,2.18032037 C-0.0878661745,3.29528584 -0.0878661745,4.61318098 0.477803204,5.72814645 L1.79038902,4.71212815 C1.62562929,4.22334096 1.62562929,3.69061785 1.79038902,3.19633867 Z" id="Path"></path>
                                <path d="M4.00915332,1.56521739 C4.57482838,1.55423341 5.11853547,1.76842105 5.52494279,2.1583524 L6.65080092,1.03249428 C5.93684211,0.356979405 4.99221968,-0.0109839817 4.00915332,0 C2.51533181,0 1.14782609,0.84576659 0.477803204,2.18032037 L1.79038902,3.20183066 C2.10343249,2.26270023 2.97665904,1.56521739 4.00915332,1.56521739 Z" id="Path"></path>
                            </g>
                        </g>
                    </g>
                </g>
            </g>
        </g>
    </g>
</svg>