<?xml version="1.0" encoding="UTF-8"?>
<svg width="32px" height="32px" viewBox="0 0 32 32" version="1.1" xmlns="http://www.w3.org/2000/svg" xmlns:xlink="http://www.w3.org/1999/xlink">
    <!-- Generator: Sketch 60.1 (88133) - https://sketch.com -->
    <title>instagram-sketched</title>
    <desc>Created with Sketch.</desc>
    <defs>
        <linearGradient x1="6.73116624%" y1="93.4850191%" x2="93.5910491%" y2="6.61873642%" id="linearGradient-1">
            <stop stop-color="#FFDD55" offset="0%"></stop>
            <stop stop-color="#FF543E" offset="50%"></stop>
            <stop stop-color="#C837AB" offset="100%"></stop>
        </linearGradient>
    </defs>
    <g id="Desktop" stroke="none" stroke-width="1" fill="none" fill-rule="evenodd">
        <g id="Day-Tours" transform="translate(-1328.000000, -3505.000000)" fill-rule="nonzero">
            <g id="FOOTER" transform="translate(0.000000, 3385.000000)">
                <g id="FOLLOW-US" transform="translate(1160.000000, 72.000000)">
                    <g id="instagram-sketched" transform="translate(168.000000, 48.000000)">
                        <path d="M2.13333333,2.24749773 C-0.36668479,4.8442822 0.144983819,7.60278576 0.144983819,15.9830162 C0.144983819,22.9422395 -1.06923495,29.9186951 5.2855301,31.5610718 C7.26990291,32.0714149 24.8522149,32.0714149 26.8339366,31.5584207 C29.479767,30.875754 31.6324867,28.7296621 31.9267625,24.9875883 C31.967855,24.4653152 31.967855,7.50999612 31.9254369,6.97711845 C31.6126032,2.99114045 29.1589799,0.693933981 25.9259236,0.228660194 C25.184932,0.12128932 25.0364686,0.0894757282 21.2347443,0.0828478964 C7.74975793,0.0894757282 4.79374498,-0.511005825 2.13333333,2.24749773 Z" id="Path" fill="url(#linearGradient-1)"></path>
                        <path d="M16.0491288,4.24380065 C11.2359974,4.24380065 6.66544466,3.81564272 4.91967379,8.29605696 C4.1985657,10.1465476 4.30328544,12.5497994 4.30328544,15.9909696 C4.30328544,19.0106097 4.20651909,21.8486472 4.91967379,23.6845566 C6.66146796,28.167622 11.2691366,27.7381385 16.0464777,27.7381385 C20.6554718,27.7381385 25.4076272,28.2179935 27.1746071,23.6845566 C27.8970408,21.8155081 27.7909955,19.4480466 27.7909955,15.9909696 C27.7909955,11.4018589 28.0441786,8.43921812 25.8185528,6.2149178 C23.56509,3.96145502 20.5176129,4.24380065 16.0438265,4.24380065 L16.0491288,4.24380065 Z M14.9966291,6.3607301 C25.0364686,6.3448233 26.3143146,5.22869644 25.6091133,20.733846 C25.3585812,26.2177139 21.1830472,25.6159068 16.0504544,25.6159068 C6.69195599,25.6159068 6.42286602,25.3481424 6.42286602,15.9856673 C6.42286602,6.51449579 7.16518317,6.36603236 14.9966291,6.35807896 L14.9966291,6.3607301 Z M22.3190576,8.31063819 C21.5409502,8.31063819 20.9099806,8.94160777 20.9099806,9.71971521 C20.9099806,10.4978227 21.5409502,11.1287922 22.3190576,11.1287922 C23.097165,11.1287922 23.7281346,10.4978227 23.7281346,9.71971521 C23.7281346,8.94160777 23.097165,8.31063819 22.3190576,8.31063819 L22.3190576,8.31063819 Z M16.0491288,9.95831715 C12.7179806,9.95831715 10.0178019,12.6598214 10.0178019,15.9909696 C10.0178019,19.3221178 12.7179806,22.0222964 16.0491288,22.0222964 C19.380277,22.0222964 22.0791301,19.3221178 22.0791301,15.9909696 C22.0791301,12.6598214 19.380277,9.95831715 16.0491288,9.95831715 Z M16.0491288,12.0752466 C21.2254654,12.0752466 21.2320932,19.9066926 16.0491288,19.9066926 C10.8741178,19.9066926 10.8661644,12.0752466 16.0491288,12.0752466 Z" id="Shape" fill="#FFFFFF"></path>
                    </g>
                </g>
            </g>
        </g>
    </g>
</svg>