<?xml version="1.0" encoding="UTF-8"?>
<svg width="32px" height="32px" viewBox="0 0 32 32" version="1.1" xmlns="http://www.w3.org/2000/svg" xmlns:xlink="http://www.w3.org/1999/xlink">
    <!-- Generator: Sketch 60.1 (88133) - https://sketch.com -->
    <title>60580</title>
    <desc>Created with Sketch.</desc>
    <g id="Desktop" stroke="none" stroke-width="1" fill="none" fill-rule="evenodd">
        <g id="Day-Tours" transform="translate(-1160.000000, -3505.000000)" fill="#57B8E8" fill-rule="nonzero">
            <g id="FOOTER" transform="translate(0.000000, 3385.000000)">
                <g id="FOLLOW-US" transform="translate(1160.000000, 72.000000)">
                    <g id="60580" transform="translate(0.000000, 48.000000)">
                        <path d="M28.8,0 L3.2,0 C1.44,0 0,1.44 0,3.2 L0,28.8 C0,30.56 1.44,32 3.2,32 L28.8,32 C30.56,32 32,30.56 32,28.8 L32,3.2 C32,1.44 30.56,0 28.8,0 Z M25.12,11.68 C24.96,19.04 20.32,24.16 13.28,24.48 C10.4,24.64 8.32,23.68 6.4,22.56 C8.48,22.8800627 11.2,22.0800627 12.64,20.8 C10.56,20.64 9.28,19.52 8.64,17.76 C9.28,17.92 9.92,17.76 10.4,17.76 C8.48,17.12 7.2,16 7.04,13.44 C7.52,13.76 8.16,13.92 8.8,13.92 C7.36,13.12 6.4,10.08 7.52,8.16 C9.6,10.4 12.16,12.32 16.32,12.64 C15.2,8.16 21.2800627,5.76 23.6800627,8.8 C24.8000627,8.64 25.6000627,8.16 26.4000627,7.84 C26.0800627,8.96 25.4400627,9.6 24.6400627,10.24 C25.4400627,10.08 26.2400627,9.92 26.8800627,9.6 C26.72,10.4 25.92,11.04 25.12,11.68 Z" id="Shape"></path>
                    </g>
                </g>
            </g>
        </g>
    </g>
</svg>