<svg id="Capa_1" enable-background="new 0 0 512 512" height="512" viewBox="0 0 512 512" width="512" xmlns="http://www.w3.org/2000/svg"><g><g><path d="m320.58 263.994-146.219-74.638 31.514-61.737c3.052-5.98 10.374-8.353 16.354-5.3l135.392 69.112z" fill="#c9beb9"/></g><g><path d="m348.083 210.113 9.537-18.684-135.54-69.187c-5.898-3.011-13.12-.67-16.131 5.228l-4.086 8.005z" fill="#9e9595"/></g><g><path d="m365.447 375.736h-215.021c-5.523 0-10-4.477-10-10v-183.073c0-5.523 4.477-10 10-10h215.022c24.853 0 45 20.147 45 45v113.073c-.001 24.853-20.148 45-45.001 45z" fill="#c56e37"/></g><g><path d="m442.556 87.517c-45.423-45.732-106.039-70.84-170.495-70.622-63.204.214-123.549 25.339-168.241 70.031-38.785 38.785-62.588 88.553-68.54 142.287l-13.841-12.556c-1.244-1.129-3.168-1.035-4.297.209l-16.353 18.027c-1.129 1.244-1.035 3.168.209 4.297l41.818 37.938c1.318 1.196 3.263 1.393 4.794.485l50.484-29.921c1.445-.857 1.923-2.723 1.066-4.168l-12.409-20.938c-.857-1.446-2.723-1.923-4.168-1.066l-16.933 10.036c12.163-103.762 100.738-184.505 207.774-184.239 114.415.286 207.867 93.738 208.153 208.153.288 115.31-93.438 209.213-208.682 209.213-45.115 0-87.881-14.085-123.942-40.775-1.767-1.307-4.261-.935-5.6.808l-13.603 17.688c-1.389 1.807-1.009 4.39.821 5.749 41.394 30.733 90.512 46.954 142.325 46.954 63.868 0 123.912-24.871 169.074-70.032s70.03-105.207 70.03-169.075c0-63.204-24.903-123.64-69.444-168.483z" fill="#9bd069"/><g><g><path d="m451.032 96.51c29.458 40.571 45.567 89.59 45.567 140.404 0 63.867-24.871 123.912-70.032 169.073s-105.207 70.033-169.075 70.033c-45.168 0-88.285-12.331-126.025-35.852l-1.719 2.236c-1.389 1.807-1.009 4.39.821 5.749 41.394 30.733 90.512 46.954 142.325 46.954 63.868 0 123.912-24.871 169.074-70.032s70.032-105.207 70.032-169.075c0-59.073-21.759-115.724-60.968-159.49z" fill="#69af81"/></g></g></g><g><path d="m379.464 174.728c1.338 4.23 2.064 8.731 2.064 13.403v114.301c0 24.514-19.872 44.386-44.386 44.386h-196.716v19.055c0 5.448 4.416 9.864 9.864 9.864h215.772c24.514 0 44.386-19.872 44.386-44.386v-114.3c-.001-19.843-13.022-36.64-30.984-42.323z" fill="#8f4e24"/></g><g><path d="m342.995 314.257h67.452v-64.534h-67.452c-15.02 0-27.196 12.176-27.196 27.196v10.141c-.001 15.021 12.176 27.197 27.196 27.197z" fill="#ecb9a1"/></g><g><circle cx="348.008" cy="281.99" fill="#f9f6f6" r="12.68"/></g><g><path d="m381.528 249.723v52.708c0 4.097-.566 8.059-1.605 11.826h30.524v-64.534z" fill="#df9874"/></g></g></svg>