<?xml version="1.0" encoding="UTF-8"?>
<svg width="32px" height="32px" viewBox="0 0 32 32" version="1.1" xmlns="http://www.w3.org/2000/svg" xmlns:xlink="http://www.w3.org/1999/xlink">
    <!-- Generator: Sketch 60.1 (88133) - https://sketch.com -->
    <title>1384044</title>
    <desc>Created with Sketch.</desc>
    <g id="Desktop" stroke="none" stroke-width="1" fill="none" fill-rule="evenodd">
        <g id="Day-Tours" transform="translate(-1272.000000, -3505.000000)" fill="#FD5D5A" fill-rule="nonzero">
            <g id="FOOTER" transform="translate(0.000000, 3385.000000)">
                <g id="FOLLOW-US" transform="translate(1160.000000, 72.000000)">
                    <g id="1384044" transform="translate(112.000000, 48.000000)">
                        <polygon id="Path" points="14.5454545 19.3939394 19.3939394 16.4848485 14.5454545 13.5757576"></polygon>
                        <path d="M29.6921387,0 L2.30786131,0 C1.03320312,0 0,1.03320313 0,2.30786131 L0,29.6921387 C0,30.9667969 1.03320312,32 2.30786131,32 L29.6921387,32 C30.9667969,32 32,30.9667969 32,29.6921387 L32,2.30786131 C32,1.03320312 30.9667969,0 29.6921387,0 Z M25.9976446,16.0163574 C25.9976446,16.0163574 25.9976446,19.2612305 25.5859375,20.8259277 C25.3552246,21.6823731 24.6799316,22.357666 23.8234863,22.5881347 C22.2587891,23 16,23 16,23 C16,23 9.75756837,23 8.17651369,22.5717774 C7.32006837,22.3413086 6.64477537,21.6657715 6.4140625,20.8093262 C6.00219725,19.2612305 6.00219725,16 6.00219725,16 C6.00219725,16 6.00219725,12.7553711 6.4140625,11.1906738 C6.64453125,10.3342285 7.33642575,9.642334 8.17651369,9.41186525 C9.74121094,9 16,9 16,9 C16,9 22.2587891,9 23.8234863,9.42822263 C24.6799316,9.65869138 25.3552246,10.3342285 25.5859375,11.1906738 C26.0141601,12.7553711 25.9976446,16.0163574 25.9976446,16.0163574 L25.9976446,16.0163574 Z" id="Shape"></path>
                    </g>
                </g>
            </g>
        </g>
    </g>
</svg>