
<svg width="160px" height="32px" viewBox="0 0 160 32" version="1.1" xmlns="http://www.w3.org/2000/svg" xmlns:xlink="http://www.w3.org/1999/xlink">
    <defs>
        <polygon id="path-1" points="0 0.257563495 15.2483152 0.257563495 15.2483152 31.2244443 0 31.2244443"></polygon>
        <polygon id="path-3" points="0.250920685 0.000437555135 20.047337 0.000437555135 20.047337 21.5652174 0.250920685 21.5652174"></polygon>
        <polygon id="path-5" points="0.104293017 0.234936061 20.126596 0.234936061 20.126596 31.3043478 0.104293017 31.3043478"></polygon>
        <polygon id="path-7" points="0.243065086 0.277409956 19.981405 0.277409956 19.981405 21.5652174 0.243065086 21.5652174"></polygon>
        <polygon id="path-9" points="0.028864214 0.277409956 20.0708709 0.277409956 20.0708709 21.5652174 0.028864214 21.5652174"></polygon>
        <polygon id="path-11" points="0.21339467 0.132284115 18.5917532 0.132284115 18.5917532 31.0024003 0.21339467 31.0024003"></polygon>
    </defs>
    <g id="Desktop" stroke="none" stroke-width="1" fill="none" fill-rule="evenodd">
        <g id="Reviews" transform="translate(-160.000000, -416.000000)">
            <g id="FACEBOOK" transform="translate(160.000000, 416.000000)">
                <g id="Group-23">
                    <g id="Group-3">
                        <mask id="mask-2" fill="white">
                            <use xlink:href="#path-1"></use>
                        </mask>
                        <g id="Clip-2"></g>
                        <path d="M15.2483152,0.261344813 L15.2483152,5.15970039 L12.5160206,5.15970039 C12.5160206,5.15970039 10.0479602,4.80977357 10.0479602,7.17123719 L10.0479602,11.0198123 L15.2483152,11.0198123 L14.6314563,16.3359724 L10.0479602,16.3359724 L10.0479602,31.2244443 L4.05459024,31.2244443 L4.05459024,16.2680947 L-0.000124933452,16.2680947 L-0.000124933452,11.0198123 L4.23074641,11.0198123 L4.23074641,6.55878777 C4.23074641,6.55878777 3.70196557,4.10991993 5.90547933,2.09838313 C8.10899308,0.0865363754 11.0177562,0.261344813 11.0177562,0.261344813 L15.2483152,0.261344813 Z" id="Fill-1" fill="#3B66A6" mask="url(#mask-2)"></path>
                    </g>
                    <g id="Group-6" transform="translate(14.608696, 10.434783)">
                        <mask id="mask-4" fill="white">
                            <use xlink:href="#path-3"></use>
                        </mask>
                        <g id="Clip-5"></g>
                        <path d="M14.0779984,12.7892365 C14.0779984,14.8351193 12.3775821,16.7581742 10.2794951,16.7581742 C8.18140817,16.7581742 6.48099183,14.8351193 6.48099183,12.7892365 L6.48099183,8.90874757 C6.48099183,6.86286478 8.18140817,4.93980996 10.2794951,4.93980996 C12.3775821,4.93980996 14.0779984,6.86286478 14.0779984,8.90874757 L14.0779984,12.7892365 Z M14.3937507,0.573947322 L14.3937507,3.26491141 C12.8972132,1.2515327 10.8046282,0.000437555135 8.48860184,0.000437555135 C3.93907879,0.000437555135 0.250920685,4.10189187 0.250920685,10.7827337 C0.250920685,17.41982 3.93907879,21.5653424 8.48860184,21.5653424 C10.8263304,21.5653424 12.9369497,20.2904943 14.4362382,18.2430488 L14.3974187,20.8596285 L20.047337,20.8596285 L20.047337,0.573947322 L14.3937507,0.573947322 Z" id="Fill-4" fill="#3B66A6" mask="url(#mask-4)"></path>
                    </g>
                    <g id="Group-9" transform="translate(75.130435, 0.695652)">
                        <mask id="mask-6" fill="white">
                            <use xlink:href="#path-5"></use>
                        </mask>
                        <g id="Clip-8"></g>
                        <path d="M6.29921265,18.7462404 C6.29921265,16.7372379 7.99993465,14.8488491 10.0977159,14.8488491 C12.1958029,14.8488491 13.8965249,16.7372379 13.8965249,18.7462404 L13.8965249,22.5567775 C13.8965249,24.5657801 12.1958029,26.4541688 10.0977159,26.4541688 C7.99993465,26.4541688 6.29921265,24.5657801 6.29921265,22.5567775 L6.29921265,18.7462404 Z M5.98346034,30.7413299 L5.98346034,28.0988747 C7.47999789,30.0759591 9.57288854,31.3045013 11.8886092,31.3045013 C16.4381323,31.3045013 20.126596,27.2769821 20.126596,20.716266 C20.126596,14.1991304 16.4381323,10.1283376 11.8886092,10.1283376 C9.55088063,10.1283376 7.44056706,11.3802046 5.94127852,13.3907417 L5.98009802,0.234936061 L0.104293017,0.899079284 L0.104293017,30.6504859 L5.98346034,30.7413299 Z" id="Fill-7" fill="#3B66A6" mask="url(#mask-6)"></path>
                    </g>
                    <path d="M48.0119698,26.6765385 C48.0119698,26.6765385 43.4920618,26.9372263 43.4920618,21.0309713 L43.4920618,20.7078046 C43.4920618,14.8018574 48.0119698,15.0625452 48.0119698,15.0625452 C51.0683611,15.0191485 52.1447185,16.1046806 52.1447185,16.1046806 L53.5652174,11.805641 C51.1113788,9.9814423 43.7071503,9.67766567 40.3923477,12.7606754 C37.524502,15.4288007 37.524502,19.7521547 37.5769775,20.8696957 C37.524502,21.986929 37.524502,26.310283 40.3923477,28.9784083 C43.7071503,32.061418 51.1113788,31.7576414 53.5652174,29.9337504 L52.1447185,25.6340953 C52.1447185,25.6340953 51.0683611,26.720243 48.0119698,26.6765385" id="Fill-10" fill="#3B66A6"></path>
                    <path d="M60.2374859,18.9199601 C60.2374859,18.9199601 59.9383753,14.5167578 63.8685918,14.5167578 C67.7985056,14.5167578 67.499395,18.9199601 67.499395,18.9199601 L60.2374859,18.9199601 Z M72.8391854,22.9343297 C72.8391854,22.9343297 75.1884751,10.5023883 63.9536628,10.4350844 C52.7191531,10.3674746 54.3424639,21.6824778 54.3424639,21.6824778 C54.5988877,28.5459423 57.717146,30.5317122 63.0569364,31.179053 C68.3964241,31.8263938 72.4543983,29.7546585 72.4543983,29.7546585 L71.2158745,25.740289 C71.2158745,25.740289 66.9014765,27.0784121 63.4841075,26.7761566 C60.0667386,26.4739011 60.3228596,22.9343297 60.3228596,22.9343297 L72.8391854,22.9343297 Z" id="Fill-12" fill="#3B66A6"></path>
                    <g id="Group-16" transform="translate(97.391304, 10.434783)">
                        <mask id="mask-8" fill="white">
                            <use xlink:href="#path-7"></use>
                        </mask>
                        <g id="Clip-15"></g>
                        <path d="M13.959492,12.682098 C13.959492,14.7279808 12.2144485,16.6510357 10.0616474,16.6510357 C7.90915204,16.6510357 6.16410856,14.7279808 6.16410856,12.682098 L6.16410856,8.80160907 C6.16410856,6.75572628 7.90915204,4.83267146 10.0616474,4.83267146 C12.2144485,4.83267146 13.959492,6.75572628 13.959492,8.80160907 L13.959492,12.682098 Z M10.1120822,0.277409956 C2.72843004,0.277409956 0.243065086,4.83267146 0.243065086,10.9212512 C0.243065086,17.3808151 3.44521528,21.5654049 10.1120822,21.5654049 C15.5627067,21.5654049 19.981405,17.820558 19.981405,10.9212512 C19.981405,5.04301046 17.1616422,0.277409956 10.1120822,0.277409956 L10.1120822,0.277409956 Z" id="Fill-14" fill="#3B66A6" mask="url(#mask-8)"></path>
                    </g>
                    <g id="Group-19" transform="translate(118.956522, 10.434783)">
                        <mask id="mask-10" fill="white">
                            <use xlink:href="#path-9"></use>
                        </mask>
                        <g id="Clip-18"></g>
                        <path d="M13.956313,12.682098 C13.956313,14.7279808 12.1844227,16.6510357 9.99881204,16.6510357 C7.81289097,16.6510357 6.04100067,14.7279808 6.04100067,12.682098 L6.04100067,8.80160907 C6.04100067,6.75572628 7.81289097,4.83267146 9.99881204,4.83267146 C12.1844227,4.83267146 13.956313,6.75572628 13.956313,8.80160907 L13.956313,12.682098 Z M10.0500227,0.277409956 C2.55246555,0.277409956 0.028864214,4.83267146 0.028864214,10.9212512 C0.028864214,17.3808151 3.28058863,21.5654049 10.0500227,21.5654049 C15.5841926,21.5654049 20.0708709,17.820558 20.0708709,10.9212512 C20.0708709,5.04301046 17.2080375,0.277409956 10.0500227,0.277409956 L10.0500227,0.277409956 Z" id="Fill-17" fill="#3B66A6" mask="url(#mask-10)"></path>
                    </g>
                    <g id="Group-22" transform="translate(141.217391, 0.000000)">
                        <mask id="mask-12" fill="white">
                            <use xlink:href="#path-11"></use>
                        </mask>
                        <g id="Clip-21"></g>
                        <polygon id="Fill-20" fill="#3B66A6" mask="url(#mask-12)" points="18.5918743 31.0024003 12.1973049 20.8737391 18.3077116 10.7456978 12.0552236 10.7456978 6.08689818 19.8121808 6.08689818 0.132284115 0.21339467 0.762400344 0.21339467 31.0024003 6.08689818 31.0024003 6.08689818 20.6986207 12.5287271 31.0024003"></polygon>
                    </g>
                </g>
            </g>
        </g>
    </g>
</svg>