
<svg width="159px" height="27px" viewBox="0 0 159 27" version="1.1" xmlns="http://www.w3.org/2000/svg" xmlns:xlink="http://www.w3.org/1999/xlink">
    <defs>
        <polygon id="path-1" points="0 27 159 27 159 0 0 0"></polygon>
    </defs>
    <g id="Desktop" stroke="none" stroke-width="1" fill="none" fill-rule="evenodd">
        <g id="Reviews" transform="translate(-160.000000, -1428.000000)">
            <g id="GOOGLE-TRIPS" transform="translate(0.000000, 1376.000000)">
                <g id="Group-20" transform="translate(160.000000, 52.000000)">
                    <path d="M44.185567,10.7044273 L51.8474833,10.7044273 C51.8911461,10.8862725 51.9272286,11.1060021 51.9563372,11.3636161 C51.9854457,11.6212301 52,11.8788442 52,12.1361425 C52,13.1817523 51.8474833,14.1667471 51.5418435,15.0908112 C51.2362038,16.0151909 50.7559127,16.8407555 50.1009703,17.5681362 C49.4026683,18.3406626 48.5654942,18.9395521 47.590661,19.3635418 C46.6158278,19.7875316 45.5024257,20 44.2510612,20 C43.116131,20 42.0463918,19.7875316 41.04245,19.3635418 C40.038205,18.9395521 39.1649485,18.3485552 38.4229836,17.5908669 C37.6807156,16.8334943 37.0915706,15.9356336 36.6549424,14.8976007 C36.2183141,13.8598834 36,12.7271394 36,11.5 C36,10.2725449 36.2183141,9.14011662 36.6549424,8.10208364 C37.0915706,7.06436636 37.6807156,6.16682142 38.4229836,5.40913312 C39.1649485,4.65144481 40.038205,4.06076363 41.04245,3.63614248 C42.0463918,3.21215273 43.116131,3 44.2510612,3 C45.5172832,3 46.6485749,3.22699079 47.6455428,3.68160377 C48.6419042,4.13621676 49.4969679,4.76509805 50.2101273,5.56793196 L48.1801092,7.63610533 C47.6707095,7.07573169 47.1030928,6.6476378 46.4775622,6.35213936 C45.8517283,6.05664092 45.1021831,5.9088917 44.2292298,5.9088917 C43.5160703,5.9088917 42.8395998,6.04180285 42.1992116,6.30667806 C41.5585203,6.57186896 40.9987871,6.94692468 40.5184961,7.43152949 C40.038205,7.91676571 39.6561552,8.50365845 39.3723469,9.19315481 C39.0885385,9.88265117 38.9469375,10.6517048 38.9469375,11.5 C38.9469375,12.3486109 39.0885385,13.1176645 39.3723469,13.8068452 C39.6561552,14.4963416 40.0415403,15.08355 40.5294118,15.5681548 C41.0166768,16.0530753 41.5806549,16.428131 42.2210431,16.6930062 C42.861128,16.9585129 43.5451789,17.0907926 44.2728927,17.0907926 C45.1021831,17.0907926 45.8041237,16.965774 46.3793208,16.7160526 C46.9539115,16.4660155 47.4451183,16.1439979 47.852638,15.75 C48.1437235,15.4772322 48.3947847,15.1327997 48.6058217,14.7157555 C48.8165555,14.2993426 48.9802911,13.8333643 49.0970285,13.3181362 L44.185567,13.3181362 L44.185567,10.7044273 Z" id="Fill-1" fill="#657D8A"></path>
                    <path d="M59,17.21834 C59.3843565,17.21834 59.7574932,17.1458527 60.1194102,16.9999202 C60.480686,16.8546263 60.7999679,16.6435509 61.0769354,16.3676521 C61.3539029,16.0920727 61.5731688,15.7548631 61.7347331,15.3563426 C61.8962975,14.9578222 61.9770797,14.5056548 61.9770797,13.9998403 C61.9770797,13.4943452 61.8962975,13.0424971 61.7347331,12.6436574 C61.5731688,12.2454562 61.3539029,11.9082466 61.0769354,11.6323479 C60.7999679,11.3564491 60.480686,11.1456931 60.1194102,11.0000798 C59.7574932,10.8544666 59.3843565,10.78166 59,10.78166 C58.5996153,10.78166 58.2229524,10.8544666 57.8693701,11.0000798 C57.5151467,11.1456931 57.2000321,11.3564491 56.9230646,11.6323479 C56.6460971,11.9082466 56.4268312,12.2454562 56.2652669,12.6436574 C56.1037025,13.0424971 56.0229203,13.4943452 56.0229203,13.9998403 C56.0229203,14.5056548 56.1037025,14.9578222 56.2652669,15.3563426 C56.4268312,15.7548631 56.6460971,16.0920727 56.9230646,16.3676521 C57.2000321,16.6435509 57.5151467,16.8546263 57.8693701,16.9999202 C58.2229524,17.1458527 58.5996153,17.21834 59,17.21834 M59,8 C59.8770636,8 60.6807181,8.14944517 61.4116044,8.44833551 C62.1421702,8.74722584 62.7733611,9.161074 63.3038949,9.68956066 C63.8347492,10.2183666 64.2502004,10.8506347 64.5499279,11.5863647 C64.8502965,12.3220948 65,13.1264802 65,13.9998403 C65,14.8735198 64.8502965,15.6782245 64.5499279,16.4136353 C64.2502004,17.1493653 63.8347492,17.7816334 63.3038949,18.31012 C62.7733611,18.838926 62.1421702,19.2527742 61.4116044,19.5516645 C60.6807181,19.8505548 59.8770636,20 59,20 C58.1232569,20 57.3189614,19.8505548 56.5883956,19.5516645 C55.8575092,19.2527742 55.2269594,18.838926 54.6961051,18.31012 C54.1652508,17.7816334 53.7501202,17.1493653 53.4500721,16.4136353 C53.150024,15.6782245 53,14.8735198 53,13.9998403 C53,13.1264802 53.150024,12.3220948 53.4500721,11.5863647 C53.7501202,10.8506347 54.1652508,10.2183666 54.6961051,9.68956066 C55.2269594,9.161074 55.8575092,8.74722584 56.5883956,8.44833551 C57.3189614,8.14944517 58.1232569,8 59,8" id="Fill-3" fill="#657D8A"></path>
                    <path d="M72.0003206,17.21834 C72.3843565,17.21834 72.7578138,17.1458527 73.1194102,16.9999202 C73.480686,16.8546263 73.8002885,16.6435509 74.077256,16.3676521 C74.3542234,16.0920727 74.5731688,15.7548631 74.7347331,15.3563426 C74.8962975,14.9578222 74.9770797,14.5056548 74.9770797,13.9998403 C74.9770797,13.4943452 74.8962975,13.0424971 74.7347331,12.6436574 C74.5731688,12.2454562 74.3542234,11.9082466 74.077256,11.6323479 C73.8002885,11.3564491 73.480686,11.1456931 73.1194102,11.0000798 C72.7578138,10.8544666 72.3843565,10.78166 72.0003206,10.78166 C71.5999359,10.78166 71.2229524,10.8544666 70.8693701,11.0000798 C70.5151467,11.1456931 70.2003526,11.3564491 69.9233852,11.6323479 C69.6460971,11.9082466 69.4271518,12.2454562 69.2655874,12.6436574 C69.1040231,13.0424971 69.0232409,13.4943452 69.0232409,13.9998403 C69.0232409,14.5056548 69.1040231,14.9578222 69.2655874,15.3563426 C69.4271518,15.7548631 69.6460971,16.0920727 69.9233852,16.3676521 C70.2003526,16.6435509 70.5151467,16.8546263 70.8693701,16.9999202 C71.2229524,17.1458527 71.5999359,17.21834 72.0003206,17.21834 M72.0003206,8 C72.8770636,8 73.6807181,8.14944517 74.4116044,8.44833551 C75.1424908,8.74722584 75.7733611,9.161074 76.3042154,9.68956066 C76.8347492,10.2183666 77.2498798,10.8506347 77.5502484,11.5863647 C77.8502965,12.3220948 78,13.1264802 78,13.9998403 C78,14.8735198 77.8502965,15.6782245 77.5502484,16.4136353 C77.2498798,17.1493653 76.8347492,17.7816334 76.3042154,18.31012 C75.7733611,18.838926 75.1424908,19.2527742 74.4116044,19.5516645 C73.6807181,19.8505548 72.8770636,20 72.0003206,20 C71.1232569,20 70.3192819,19.8505548 69.5887161,19.5516645 C68.8575092,19.2527742 68.2269594,18.838926 67.6961051,18.31012 C67.1655714,17.7816334 66.7501202,17.1493653 66.4503927,16.4136353 C66.150024,15.6782245 66,14.8735198 66,13.9998403 C66,13.1264802 66.150024,12.3220948 66.4503927,11.5863647 C66.7501202,10.8506347 67.1655714,10.2183666 67.6961051,9.68956066 C68.2269594,9.161074 68.8575092,8.74722584 69.5887161,8.44833551 C70.3192819,8.14944517 71.1232569,8 72.0003206,8" id="Fill-5" fill="#657D8A"></path>
                    <path d="M84.5537624,16.4119861 C84.8965909,16.4119861 85.2361431,16.3484415 85.572121,16.2204487 C85.9080989,16.0927571 86.2047602,15.9048336 86.462105,15.6563771 C86.7194498,15.4082217 86.9264574,15.102846 87.0840216,14.7411534 C87.24099,14.3794609 87.3196231,13.964162 87.3196231,13.4955579 C87.3196231,13.0275561 87.24099,12.6092456 87.0840216,12.2397229 C86.9264574,11.8708026 86.7194498,11.5621141 86.462105,11.3139587 C86.2047602,11.0658033 85.9080989,10.8778798 85.572121,10.7498871 C85.2361431,10.6221955 84.8965909,10.5583496 84.5537624,10.5583496 C84.2106361,10.5583496 83.8746581,10.6221955 83.5458287,10.7498871 C83.2169993,10.8778798 82.9239122,11.0691161 82.6668652,11.3244993 C82.4095205,11.5798825 82.2019171,11.8888722 82.0449487,12.2505647 C81.8876824,12.6125583 81.8090493,13.0275561 81.8090493,13.4955579 C81.8090493,13.964162 81.8876824,14.3794609 82.0449487,14.7411534 C82.2019171,15.102846 82.4095205,15.4082217 82.6668652,15.6563771 C82.9239122,15.9048336 83.2169993,16.0927571 83.5458287,16.2204487 C83.8746581,16.3484415 84.2106361,16.4119861 84.5537624,16.4119861 M84.4465354,24 C83.703095,24 83.0421597,23.9024243 82.4628361,23.7075742 C81.8841082,23.5124228 81.3804392,23.2591477 80.9512334,22.9486523 C80.5226233,22.6375546 80.1652,22.294534 79.8795592,21.9186869 C79.5933227,21.5428399 79.3860172,21.1669929 79.2576426,20.7914471 L81.9377217,19.707273 C82.1378787,20.2710435 82.4664103,20.7080259 82.9239122,21.0191236 C83.381414,21.329619 83.8892529,21.4850173 84.4465354,21.4850173 C85.3326474,21.4850173 86.033197,21.1940973 86.5478866,20.6128595 C87.0625762,20.0313206 87.3196231,19.2308387 87.3196231,18.2114139 L87.3196231,17.4741756 L87.1483577,17.4741756 C86.8192305,17.9370577 86.3870461,18.3017618 85.8509112,18.5691914 C85.3150741,18.836621 84.6824348,18.9703358 83.9532913,18.9703358 C83.3242263,18.9703358 82.7130324,18.8414395 82.1200076,18.5839482 C81.5266849,18.3264569 81.0012726,17.9581388 80.5440687,17.4783918 C80.086269,16.9989459 79.7148466,16.4228279 79.428908,15.7500376 C79.1429693,15.0772474 79,14.3258545 79,13.4958591 C79,12.6661647 79.1429693,11.9108568 79.428908,11.2308387 C79.7148466,10.5511218 80.086269,9.97138985 80.5440687,9.49164282 C81.0012726,9.01249812 81.5266849,8.64387893 82.1200076,8.38638759 C82.7130324,8.12919741 83.3242263,8 83.9532913,8 C84.6824348,8 85.3150741,8.1337148 85.8509112,8.40084325 C86.3870461,8.66857401 86.8192305,9.03357928 87.1483577,9.49585906 L87.3196231,9.49585906 L87.3196231,8.3469357 L90,8.3469357 L90,18.2114139 C90,19.1073633 89.8641791,19.9132661 89.5928353,20.628821 C89.3208957,21.3440747 88.942027,21.9512122 88.456527,22.4499322 C87.9701335,22.9486523 87.3875335,23.331426 86.7087271,23.5988556 C86.0296228,23.8662852 85.2754596,24 84.4465354,24" id="Fill-7" fill="#657D8A"></path>
                    <mask id="mask-2" fill="white">
                        <use xlink:href="#path-1"></use>
                    </mask>
                    <g id="Clip-10"></g>
                    <polygon id="Fill-9" fill="#657D8A" mask="url(#mask-2)" points="93 19 96 19 96 3 93 3"></polygon>
                    <path d="M106.205995,12.5516911 C106.191021,12.3527502 106.128987,12.1304984 106.018974,11.8849357 C105.908962,11.6400117 105.747305,11.4100961 105.534921,11.1951888 C105.321925,10.9809202 105.058201,10.8046515 104.742833,10.6667021 C104.427464,10.5287528 104.049756,10.4597781 103.610012,10.4597781 C102.993944,10.4597781 102.451217,10.6437106 101.982137,11.0115756 C101.512751,11.3794406 101.182715,11.8929189 100.992027,12.5516911 L106.205995,12.5516911 Z M108.823675,16.9194497 C108.325258,17.8391123 107.653878,18.5825062 106.810757,19.1493121 C105.96733,19.716118 104.937187,20 103.720024,20 C102.8986,20 102.13921,19.8505548 101.443077,19.5516645 C100.746333,19.2527742 100.141266,18.8354134 99.6281809,18.2989436 C99.1144849,17.7624737 98.7150795,17.1302057 98.4293533,16.4021395 C98.1430159,15.6743926 98,14.8735198 98,13.9998403 C98,13.1877911 98.1396544,12.417893 98.418352,11.6895074 C98.6967441,10.9617606 99.0851483,10.3256606 99.584176,9.78152692 C100.082593,9.23771255 100.673297,8.80470476 101.355067,8.48282285 C102.036837,8.16094095 102.788282,8 103.610012,8 C104.475136,8 105.244916,8.14944517 105.919658,8.44833551 C106.594399,8.74722584 107.159129,9.16075468 107.613846,9.68956066 C108.068258,10.2183666 108.413268,10.8429708 108.647655,11.5630538 C108.882348,12.2837755 109,13.0651694 109,13.9081934 L109,14.1837729 C108.985026,14.2757391 108.977692,14.3603608 108.977692,14.4366801 C108.963024,14.5136379 108.95569,14.597621 108.95569,14.6895873 L100.838315,14.6895873 C100.896377,15.1494186 101.017391,15.5441071 101.20105,15.8733335 C101.384404,16.2031986 101.611457,16.4790974 101.883126,16.7010298 C102.154184,16.9232816 102.451217,17.0842226 102.774225,17.1838527 C103.096316,17.2838021 103.426353,17.3332979 103.764029,17.3332979 C104.424103,17.3332979 104.970191,17.1761888 105.402906,16.8619708 C105.835315,16.5480721 106.176353,16.1533835 106.42602,15.6782245 L108.823675,16.9194497 Z" id="Fill-11" fill="#657D8A" mask="url(#mask-2)"></path>
                    <polygon id="Fill-12" fill="#657D8A" mask="url(#mask-2)" points="120.52863 4.96647524 120.52863 19 118.471681 19 118.471681 4.96647524 114 4.96647524 114 3 125 3 125 4.96647524"></polygon>
                    <path d="M127.125384,19 L125,19 L125,8.30559766 L127.032962,8.30559766 L127.032962,10.0515668 L127.125384,10.0515668 C127.341035,9.48402833 127.78389,9.00077171 128.453949,8.60028112 C129.124009,8.20009371 129.782194,8 130.429148,8 C131.044973,8 131.568698,8.08731362 132,8.26194085 L131.353046,10.2043657 C131.090863,10.102803 130.675285,10.0515668 130.105671,10.0515668 C129.304681,10.0515668 128.607665,10.3571645 128.014624,10.9683598 C127.421904,11.579252 127.125384,12.2923132 127.125384,13.1072403 L127.125384,19 Z" id="Fill-13" fill="#657D8A" mask="url(#mask-2)"></path>
                    <path d="M133.438508,19 L135.561492,19 L135.561492,8.17135128 L133.438508,8.17135128 L133.438508,19 Z M136,4.43635003 C136,4.83419351 135.85351,5.17340419 135.561492,5.45306115 C135.269153,5.73302508 134.915269,5.87300704 134.50016,5.87300704 C134.084731,5.87300704 133.730527,5.73302508 133.438508,5.45306115 C133.146169,5.17340419 133,4.83419351 133,4.43635003 C133,4.03881353 133.146169,3.69990983 133.438508,3.4199459 C133.730527,3.14028894 134.084731,3 134.50016,3 C134.915269,3 135.269153,3.14028894 135.561492,3.4199459 C135.85351,3.69990983 136,4.03881353 136,4.43635003 L136,4.43635003 Z" id="Fill-14" fill="#657D8A" mask="url(#mask-2)"></path>
                    <path d="M143.455123,17.706326 C144.439002,17.706326 145.266044,17.3372326 145.93687,16.59843 C146.607696,15.8747114 146.942799,14.9361244 146.942799,13.7839003 C146.942799,12.6464522 146.607696,11.7084808 145.93687,10.9693705 C145.266044,10.2308758 144.439002,9.86147453 143.455123,9.86147453 C142.456337,9.86147453 141.622152,10.2308758 140.951015,10.9693705 C140.295096,11.7084808 139.967447,12.6464522 139.967447,13.7839003 C139.967447,14.9361244 140.295096,15.8817916 140.951015,16.6205941 C141.622152,17.3446206 142.456337,17.706326 143.455123,17.706326 M143.790536,19.5678005 C142.985544,19.5678005 142.251362,19.3978759 141.5883,19.0583346 C140.925238,18.7184855 140.414664,18.2681237 140.05689,17.706326 L139.967447,17.706326 L140.05689,19.2134831 L140.05689,24 L138,24 L138,8.35462521 L139.967447,8.35462521 L139.967447,9.86147453 L140.05689,9.86147453 C140.414664,9.29998461 140.925238,8.8496229 141.5883,8.50977374 C142.251362,8.16992458 142.985544,8 143.790536,8 C145.235919,8 146.458624,8.56148992 147.45741,9.68416192 C148.4857,10.8219178 149,12.1883946 149,13.7839003 C149,15.3944898 148.4857,16.7609666 147.45741,17.8836386 C146.458624,19.0066184 145.235919,19.5678005 143.790536,19.5678005" id="Fill-15" fill="#657D8A" mask="url(#mask-2)"></path>
                    <path d="M159,16.5058279 C159,17.4868274 158.587167,18.3145457 157.761809,18.9886636 C156.935836,19.6627814 155.896382,20 154.643754,20 C153.552696,20 152.594334,19.7049337 151.769283,19.1151205 C150.943311,18.5253074 150.354164,17.7470861 150,16.781734 L151.813208,15.9770078 C152.078908,16.6517643 152.465939,17.176433 152.9743,17.5516526 C153.482969,17.9275108 154.039249,18.1149609 154.643754,18.1149609 C155.292491,18.1149609 155.834027,17.9693438 156.268976,17.6781095 C156.703618,17.3871946 156.921399,17.0426313 156.921399,16.6437809 C156.921399,15.9236787 156.390922,15.3948587 155.329352,15.0573208 L153.471911,14.5748044 C151.363515,14.0229922 150.309625,12.9656714 150.309625,11.4022034 C150.309625,10.3755389 150.711399,9.55165256 151.514949,8.9308638 C152.318191,8.31007504 153.346587,8 154.599522,8 C155.557577,8 156.423788,8.23758582 157.19785,8.71243813 C157.971604,9.18760977 158.513447,9.82404598 158.823072,10.6204694 L157.009863,11.4022034 C156.803447,10.9273511 156.468328,10.5556443 156.003891,10.2874022 C155.539147,10.0194795 155.019727,9.88503912 154.44471,9.88503912 C153.913925,9.88503912 153.438737,10.0229922 153.018532,10.2988983 C152.598328,10.5748044 152.388532,10.912023 152.388532,11.3102347 C152.388532,11.9540156 152.970614,12.4138592 154.135085,12.6897653 L155.771365,13.1262973 C157.923686,13.6781095 159,14.8047262 159,16.5058279" id="Fill-16" fill="#657D8A" mask="url(#mask-2)"></path>
                    <path d="M27,13.5 C27,20.9559026 20.9558333,27 13.4998453,27 C6.04416668,27 0,20.9559026 0,13.5 C0,6.04409743 6.04416668,0 13.4998453,0 C20.9558333,0 27,6.04409743 27,13.5" id="Fill-17" fill="#4BACBF" mask="url(#mask-2)"></path>
                    <path d="M23.0743131,4.11916263 C23.0334661,4.07831565 22.9904693,4.04053986 22.949008,4 L4,22.949008 C4.04023274,22.9901621 4.07831565,23.033159 4.11916263,23.0743131 C9.35341187,28.3085623 17.8400638,28.3085623 23.0743131,23.0743131 C28.3085623,17.8400638 28.3085623,9.35341187 23.0743131,4.11916263" id="Fill-18" fill="#51BAD1" mask="url(#mask-2)"></path>
                    <path d="M13.6318585,7.65443313 C14.4214473,7.65443313 15.0613673,8.271606 15.0613673,9.03312741 L12.2023497,9.03312741 C12.2023497,8.271606 12.8422697,7.65443313 13.6318585,7.65443313 M19.1727284,9.03312741 L16.7770904,9.03312741 C16.7770904,7.35790085 15.3688289,6 13.6318585,6 C11.8948881,6 10.4866267,7.35790085 10.4866267,9.03312741 L7.82695913,9.03312741 C6.81771029,9.03312741 6,9.82207202 6,10.7954453 L6,18.2379835 C6,19.2110554 6.81771029,20 7.82695913,20 L19.1727284,20 C20.1816648,20 21,19.2110554 21,18.2379835 L21,10.7954453 C21,9.82207202 20.1816648,9.03312741 19.1727284,9.03312741" id="Fill-19" fill="#FEFEFE" mask="url(#mask-2)"></path>
                </g>
            </g>
        </g>
    </g>
</svg>