
<svg width="211px" height="32px" viewBox="0 0 211 32" version="1.1" xmlns="http://www.w3.org/2000/svg" xmlns:xlink="http://www.w3.org/1999/xlink">
    <g id="Desktop" stroke="none" stroke-width="1" fill="none" fill-rule="evenodd">
        <g id="Reviews" transform="translate(-160.000000, -1088.000000)">
            <g id="TRIPADVISOR" transform="translate(160.000000, 1088.000000)">
                <g id="tripadvisor-logo@logotyp.us">
                    <path d="M8,5.529049 C11.9191007,5.01464368 23.038699,4.66046296 19.9919838,21 L23.447526,20.7141256 C21.9341196,10.6427439 25.1002488,5.50712353 35,5.01464368 C18.5805768,-4.23200288 9.23145674,5.36713782 8,5.529049 Z" id="Path" fill="#FAC415"></path>
                    <path d="M22.5823111,17.7934059 C23.9580035,21.5143474 27.5279335,24 31.4966636,24 C36.709549,24 41,19.7112443 41,14.5004187 C41,9.28875568 36.709549,5 31.4966636,5 C30.3723157,5 29.2580217,5.1993212 28.2032125,5.58875127 C23.3137237,7.39604179 20.7768196,12.9041742 22.5823111,17.7934059 L22.5823111,17.7934059 Z" id="Path" fill="#FFFFFF"></path>
                    <circle id="Oval" fill="#FFFFFF" cx="10.5" cy="14.5" r="9.5"></circle>
                    <circle id="Oval" fill="#EE6946" cx="11" cy="15" r="2"></circle>
                    <circle id="Oval" fill="#00AF87" cx="32" cy="15" r="2"></circle>
                    <path d="M40.8653571,8.13763984 C41.3158333,6.62074696 42.0316468,5.1925417 42.9820833,3.91744808 L35.7992063,3.91159135 C31.5043254,1.27438984 26.518373,-0.0826979915 21.4522222,0.00598962274 C16.2615079,-0.102778206 11.1484325,1.27187981 6.74007937,3.96179189 L0,3.96513859 C0.941904762,5.23102878 1.65430556,6.64668391 2.1064881,8.1493533 C0.747380952,9.95991931 0.0136507937,12.1511727 0.0136507937,14.4001567 C0.0136507937,20.1849319 4.86736111,24.9447794 10.7662103,24.9447794 C14.0313095,24.9447794 17.1249206,23.4856172 19.1640079,20.9839571 L21.4547817,24.347393 L23.7677381,20.9555101 C25.8059722,23.5073707 28.9337103,25 32.2389087,25 C38.1420238,25 43,20.2359691 43,14.4470106 C43,12.173763 42.2509127,9.95991931 40.8653571,8.13763984 Z M31.8831349,3.88230771 C26.4151389,4.03792937 21.9009921,8.27150793 21.4974405,13.6212118 C21.0904762,8.21963405 16.5097817,3.95677183 10.9880357,3.8413106 C14.302619,2.49091617 17.8629167,1.81237226 21.4522222,1.84583928 C25.0364087,1.79312872 28.5924405,2.48673279 31.8831349,3.88230771 Z M10.7721825,22.8120933 L10.7713294,22.8120933 C6.05839286,22.8120933 2.18071429,19.0094027 2.18071429,14.3876066 C2.18071429,9.76497389 6.05839286,5.96228326 10.7713294,5.96228326 C15.4842659,5.96228326 19.3627976,9.76497389 19.3627976,14.3876066 L19.3627976,14.38928 C19.3568254,19.008566 15.4825595,22.8070732 10.7721825,22.8120933 L10.7721825,22.8120933 Z M35.2019841,22.3343515 C30.7808333,23.9324019 25.8008532,21.6825812 24.1661706,17.3477649 L24.1661706,17.3452549 C23.8155159,16.4115249 23.635496,15.4250844 23.635496,14.4302771 C23.635496,9.80764435 27.5140278,6.00495372 32.2269643,6.00495372 C36.940754,6.00495372 40.8184325,9.80764435 40.8184325,14.4302771 C40.8184325,17.9501713 38.5694643,21.1153152 35.2019841,22.3343515 Z M10.6399405,9.0822466 L10.6322619,9.0822466 C7.71525794,9.0822466 5.31613095,11.4358151 5.31613095,14.2955723 C5.31613095,17.1561662 7.71525794,19.508898 10.6322619,19.508898 C13.5484127,19.508898 15.9483929,17.1561662 15.9483929,14.2955723 L15.9483929,14.2947356 C15.9432738,11.4399985 13.5509722,9.09061335 10.6399405,9.0822466 Z M10.6399405,17.7133921 L10.6331151,17.7133921 C8.72115079,17.7133921 7.14704365,16.1705623 7.14704365,14.2955723 C7.14704365,12.4205823 8.72115079,10.8777524 10.6331151,10.8777524 C12.5442262,10.8777524 14.1174802,12.4205823 14.1183333,14.2947356 C14.1140675,16.166379 12.5476389,17.7050254 10.6399405,17.7133921 L10.6399405,17.7133921 Z M32.2030754,9.0822466 L32.2005159,9.0822466 C29.2835119,9.0822466 26.8843849,11.4358151 26.8843849,14.2955723 C26.8843849,17.1561662 29.2835119,19.508898 32.2005159,19.508898 C35.1166667,19.508898 37.5166468,17.1561662 37.5166468,14.2955723 L37.5166468,14.2947356 C37.512381,11.4374884 35.1166667,9.08726665 32.2030754,9.0822466 Z M32.2030754,17.7133921 L32.201369,17.7133921 C30.2894048,17.7133921 28.7161508,16.1705623 28.7161508,14.2955723 C28.7161508,12.4205823 30.2894048,10.8777524 32.201369,10.8777524 C34.1133333,10.8777524 35.6865873,12.4205823 35.6874405,14.2947356 C35.684881,16.168889 34.1133333,17.7100454 32.2030754,17.7133921 Z" id="Shape" fill="#000000"></path>
                    <path d="M151,3.00123533 C151,4.09820877 151.903438,5 152.999588,5 C154.097385,5 155,4.09738522 155,3.00041178 C155,1.90261478 154.097385,1 153.000412,1 C151.902615,1.00164711 151,1.90426189 151,3.00123533 Z" id="Path" fill="#00AF87"></path>
                    <path d="M53.5579506,3.08316195 L50.4492404,4.14830693 L50.4492404,8.18544159 L47,8.18544159 L47,10.8919851 L50.3495318,10.8919851 L50.3495318,19.5803088 C50.3495318,23.7165658 51.7682664,25.4016867 55.2428564,25.4016867 C56.1106589,25.4041653 56.9750815,25.2916027 57.8133094,25.0656374 L57.9493525,25.0295166 L57.910483,22.2263708 L57.6713515,22.3095328 C57.150839,22.5161776 56.5990619,22.6363004 56.0396799,22.6648611 C54.4080084,22.6648611 53.8004622,21.7475596 53.8004622,19.2837818 L53.8004622,10.8919851 L57.7811999,10.8919851 L57.7811999,8.18544159 L53.8004622,8.18544159 L53.8004622,3 L53.5579506,3.08316195 Z M64.3180258,10.9264259 L64.3180258,8.18544159 L61.1653762,8.18544159 L61.1653762,25.1059583 L64.6154616,25.1059583 L64.6154616,16.6125192 C64.6154616,13.0499957 66.1186949,11.0885497 68.8471607,11.0885497 C69.2679646,11.0927498 69.6870786,11.1574313 70.0892928,11.2800742 L70.3157495,11.3439157 L70.4272879,8.00147728 L68.9443343,7.88807462 C66.9366432,7.89983489 65.1173843,9.09518292 64.3180258,10.9264259 L64.3180258,10.9264259 Z M88.9477315,7.78875985 C86.6307748,7.77131188 84.4684509,8.96749993 83.2609633,10.933146 L83.2609633,8.18544159 L80.1074687,8.18544159 L80.1074687,32 L83.559244,32 L83.559244,22.7656635 C84.7684216,24.4448628 86.7414682,25.4209657 88.8176033,25.3672045 C93.1811206,25.3672045 96,21.8147612 96,16.3151522 C96,11.2153926 93.1667558,7.78875985 88.9477315,7.78875985 L88.9477315,7.78875985 Z M87.9878253,22.5976595 C85.2576696,22.5976595 83.559244,20.2792052 83.559244,16.5453176 C83.559244,12.9500333 85.3506182,10.6265388 88.1213334,10.6265388 C90.789805,10.6265388 92.382607,12.8265504 92.382607,16.5142369 C92.382607,20.2666049 90.6985463,22.5976595 87.9878253,22.5976595 L87.9878253,22.5976595 Z" id="Shape" fill="#000000"></path>
                    <path d="M106.707803,7.56292793 C104.765296,7.52985149 102.841288,7.93669169 101.083781,8.75037211 L100.976985,8.79915986 L101.015667,11.6817716 L101.283077,11.5345814 C102.652924,10.7151126 104.214498,10.2536963 105.816436,10.1941587 C108.303014,10.1941587 109.728361,11.5965997 109.728361,14.0417755 L109.728361,14.1848311 L107.765671,14.1848311 C102.111376,14.1848311 99,16.1983594 99,19.853306 C99,22.7863593 101.244395,24.8362716 104.462567,24.8362716 C106.625394,24.9156551 108.689834,23.9250157 109.958771,22.2009063 L109.958771,24.609698 L113.065101,24.609698 L113.065101,14.5263454 C113.065101,9.90556676 110.927502,7.56292793 106.707803,7.56292793 L106.707803,7.56292793 Z M109.728361,17.5793008 C109.728361,20.4503357 107.973377,22.3017894 105.253866,22.3017894 L105.056251,22.3092316 C103.616609,22.3092316 102.431764,21.144941 102.431764,19.7292693 L102.432605,19.6887507 C102.432605,17.6686072 104.396135,16.5572388 107.962445,16.5572388 L109.728361,16.5572388 L109.728361,17.5793008 Z M127.655773,0 L127.655773,10.2140046 C126.465041,8.50229881 124.465351,7.5009096 122.357184,7.56292793 C118.161031,7.56292793 115.342292,10.962359 115.342292,16.0205735 C115.342292,21.2301128 118.198872,24.8668673 122.291593,24.8668673 C124.60242,24.9239242 126.767769,23.7282109 127.919819,21.757682 L127.919819,24.609698 L131.0909,24.609698 L131.0909,0 L127.655773,0 Z M123.184642,22.0743889 C120.566881,22.0743889 118.941397,19.8301525 118.941397,16.2157245 C118.941397,12.597162 120.581177,10.2594847 123.117369,10.2594847 C125.959653,10.2594847 127.655773,12.486356 127.655773,16.2157245 C127.655773,19.7755764 125.899948,22.0743889 123.184642,22.0743889 Z M146.439234,7.95322991 L141.566146,17.5660702 L137.066424,7.95322991 L133.194863,7.95322991 L141.497192,24.609698 L150.024884,7.95322991 L146.439234,7.95322991 Z M155.029995,7.95322991 L151.775664,7.95322991 L151.775664,24.609698 L155.212473,24.609698 L155.212473,7.95322991 L155.029995,7.95322991 Z M159.238762,12.2233983 C159.238762,14.5685178 160.876859,15.8014421 163.897417,17.251844 C165.803765,18.1738498 166.801087,18.7154765 166.801087,20.0145536 C166.801087,21.3433996 165.574196,22.2066947 163.679621,22.2066947 C162.177751,22.1678299 160.704472,21.7965468 159.369103,21.1184798 L159.11683,20.9985777 L159.002466,23.9332848 L159.122716,23.9812457 C160.532085,24.5270069 162.033114,24.8056759 163.548438,24.8040294 C167.748796,24.8040294 170.464102,22.835147 170.464102,19.7871531 C170.464102,17.2452287 168.744436,15.9585552 165.770129,14.5916714 C163.58712,13.5869745 162.67473,12.9957331 162.67473,11.9306718 C162.67473,10.9143982 163.689711,10.2594847 165.2639,10.2594847 C166.688405,10.2603116 168.095252,10.5761916 169.379325,11.1839712 L169.624871,11.2989118 L169.78044,8.42208845 L169.64169,8.3807429 C168.286139,7.97721033 166.878451,7.76800185 165.462355,7.75725201 C161.739636,7.75725201 159.238762,9.55164886 159.238762,12.2233983 Z M181.176485,7.56292793 C176.014124,7.56292793 172.807725,10.9036483 172.807725,16.2810505 C172.807725,21.6592796 176.014124,25 181.176485,25 C186.35987,25 189.581405,21.6592796 189.581405,16.2810505 C189.581405,10.9036483 186.35987,7.56292793 181.176485,7.56292793 Z M181.209281,22.2389442 C178.358588,22.2389442 176.439626,19.8301525 176.439626,16.248801 C176.439626,12.6476036 178.358588,10.2272351 181.209281,10.2272351 C184.108747,10.2272351 185.981459,12.5888929 185.981459,16.248801 C185.981459,19.8872093 184.108747,22.2389442 181.209281,22.2389442 Z M195.918521,10.6514405 L195.918521,7.95322991 L192.781918,7.95322991 L192.781918,24.609698 L196.215363,24.609698 L196.215363,16.248801 C196.215363,12.7418715 197.713028,10.8110343 200.425812,10.8110343 C200.844586,10.8151689 201.261679,10.8780141 201.661953,10.99957 L201.888159,11.0624152 L202,7.77213641 L200.524199,7.66050342 C198.526191,7.67290709 196.714865,8.84877452 195.918521,10.6514405 L195.918521,10.6514405 Z" id="Shape" fill="#00AF87"></path>
                    <path d="M76.5110105,8.02496576 L73.3243466,8.02496576 L73.3243466,25 L76.6888249,25 L76.6888249,8.02496576 L76.5110105,8.02496576 Z M73,3.04782471 C73.0008232,4.17117876 73.9030665,5.0948067 75.0004116,5.0948067 C76.0977567,5.0948067 77,4.17033604 77,3.04698199 C77,1.92447066 76.0977567,1 75.0004116,1 C73.9038897,1.00168545 73.0016464,1.92531339 73,3.04782471 Z" id="Shape" fill="#000000"></path>
                    <path d="M210.159607,5.90516409 C210.707574,6.46441349 211.010354,7.21911275 210.999658,8.0009122 C211.012,8.80242088 210.689473,9.57354449 210.110241,10.1278666 C209.545819,10.6813675 208.7864,10.9942515 207.994893,11 C207.189398,11 206.41846,10.6698704 205.863089,10.0868057 C205.311831,9.5324836 205.001646,8.78271165 205,8.0009122 C205.002468,7.19037012 205.330755,6.4143192 205.911632,5.84685762 C206.464535,5.29828406 207.214904,4.992791 207.994893,5.00018196 C208.81026,4.99114856 209.594363,5.31881451 210.159607,5.90516409 Z M206.291753,6.23365126 C205.817836,6.70010303 205.55208,7.33736813 205.55208,8.0009122 C205.562777,9.33621252 206.657064,10.4333596 207.994893,10.4481416 C208.64406,10.4473203 209.267722,10.193564 209.732588,9.74189416 C210.680423,8.79667235 210.69441,7.24539172 209.764677,6.28292433 C209.304747,5.80661794 208.667921,5.53890091 208.004766,5.543007 C207.363826,5.53315238 206.745924,5.78280263 206.291753,6.23365126 L206.291753,6.23365126 Z M208.052487,6.29031529 C208.999498,6.29031529 209.477529,6.62865707 209.477529,7.24374929 C209.482466,7.66585529 209.189558,8.037867 208.777349,8.13230706 L209.508794,9.57682936 L208.514885,9.57682936 L207.896983,8.27191411 L207.63205,8.27191411 L207.63205,9.57682936 L206.727823,9.57682936 L206.727823,6.29031529 L208.052487,6.29031529 Z M207.63205,7.73730125 L207.955399,7.73730125 C208.35033,7.73730125 208.546973,7.59687299 208.546973,7.31026794 C208.546973,6.98999295 208.34128,6.85859809 207.906033,6.85859809 L207.63205,6.85859809 L207.63205,7.73730125 Z" id="Shape" fill-opacity="0.5" fill="#00AF87"></path>
                </g>
            </g>
        </g>
    </g>
</svg>