
<svg width="113px" height="56px" viewBox="0 0 113 56" version="1.1" xmlns="http://www.w3.org/2000/svg" xmlns:xlink="http://www.w3.org/1999/xlink">
    <defs>
        <polygon id="path-1" points="0.407534833 0.222242424 12.9663773 0.222242424 12.9663773 18.4873727 0.407534833 18.4873727"></polygon>
    </defs>
    <g id="Desktop" stroke="none" stroke-width="1" fill="none" fill-rule="evenodd">
        <g id="Reviews" transform="translate(-160.000000, -740.000000)">
            <g id="YELP" transform="translate(0.000000, 704.000000)">
                <g id="Group-22" transform="translate(160.000000, 36.000000)">
                    <path d="M10.6548766,42.4147738 L10.7337318,42.4147738 L14.2292564,30.4091973 C14.6223557,29.0681578 15.4479822,27.7152658 16.9791867,28.0522189 C19,28.4975388 19,29.2532845 19,29.9063075 C19,30.3409036 18.8428779,30.8861242 18.5668845,31.5752695 L12.8545854,49.4874023 C11.4799145,53.1131756 9.90810543,55 6.29429801,55 C3.74150587,55 2.6804906,53.8407008 2.6804906,52.5696482 C2.6804906,51.1557998 4.38705981,50.445207 5.91885279,50.445207 L6.50850187,50.445207 C7.25468455,50.445207 8.17564345,50.0642298 8.607582,48.4313902 L0.707343513,32.9761364 C0.235388856,31.7067771 0,31.1271275 0,30.5107912 C0,29.0596917 0.21714622,28.7170945 1.88193391,28.1126108 C3.04416638,27.6915605 4.47533063,28.9106873 4.82900238,30.1083665 L10.6548766,42.4147738 Z" id="Fill-1" fill="#231F20"></path>
                    <path d="M66.1390337,31.7915536 C63.0676007,31.7915536 61.9118552,34.97671 61.9118552,38.4579208 C61.9118552,41.6013554 62.9234152,45.2906044 66.1390337,45.2483109 C69.4960106,45.2483109 70.3277628,41.3087302 70.3277628,38.4579208 C70.3277628,34.8515442 68.9543256,31.8749974 66.1390337,31.7915536 L66.1390337,31.7915536 Z M55,30.5999061 C55,28.9035945 55.7305397,28 57.297355,28 C58.7951875,28 59.5964064,28.9035945 59.5964064,30.5999061 L59.5964064,31.4669225 L59.6648238,31.4669225 C60.5016649,29.1316364 62.5553182,28 65.0273921,28 C69.2743607,28 73,31.3549019 73,38.4762099 C73,43.7531792 70.5279261,48.6900859 65.1659232,48.6900859 C62.8335113,48.6900859 61.0919771,47.6704701 60.1539235,45.9010022 L60.0838098,45.9010022 L60.0838098,53.248066 C60.0838098,55.0586842 59.0739461,56 57.5416222,56 C56.0098637,56 55,55.0586842 55,53.248066 L55,30.5999061 Z" id="Fill-3" fill="#231F20"></path>
                    <path d="M44,23.8388851 C44,21.9718079 44.9932698,21 46.5002804,21 C48.0067302,21 49,21.9718079 49,23.8388851 L49,47.1622746 C49,49.0276123 48.0067302,50 46.5002804,50 C44.9932698,50 44,49.0276123 44,47.1622746 L44,23.8388851 Z" id="Fill-5" fill="#231F20"></path>
                    <path d="M33.8810485,36.5397256 C33.5957584,33.6876997 31.80674,31.59971 29.483166,31.59971 C26.8713968,31.59971 25.2985248,33.5162849 24.7256206,36.5397256 L33.8810485,36.5397256 Z M25.8667807,39.5518889 C25.8667807,42.4963886 27.5326189,44.6379454 30.3657639,44.6379454 C34.0326996,44.6379454 34.0326996,41.8840319 35.9995158,41.8840319 C37.1662416,41.8840319 37.9994512,43.0314959 37.9994512,44.0650592 C37.9994512,47.4313294 33.3000097,49 30.3657639,49 C23.5664482,49 21,43.7205381 21,38.8634106 C21,32.360363 24.432777,28 30.1995868,28 C35.8002195,28 39,32.5526408 39,37.1419327 C39,39.0534329 38.4997256,39.5518889 36.8664256,39.5518889 L25.8667807,39.5518889 Z" id="Fill-7" fill="#231F20"></path>
                    <path d="M110.103902,8.16998361 C109.949773,8.00936549 109.671682,7.92960275 109.270177,7.92960275 C109.164316,7.92960275 109.073264,7.93124171 109.000313,7.93779755 C108.926265,7.94216811 108.862639,7.95036291 108.809434,7.95965036 L108.809434,9.42324202 L109.30199,9.42324202 C109.577339,9.42324202 109.818132,9.36751737 110.024369,9.25934598 C110.230058,9.15008195 110.333177,8.96050886 110.333177,8.69117303 C110.333177,8.50487786 110.256386,8.33060173 110.103902,8.16998361 L110.103902,8.16998361 Z M110.508698,11.5227503 C110.402837,11.3883556 110.301912,11.0556466 110.206472,10.5262624 C110.153816,10.2574729 110.055634,10.0684461 109.912475,9.95863576 C109.769864,9.84991805 109.561432,9.79583236 109.285535,9.79583236 L108.809434,9.79583236 L108.809434,11.5227503 L108.30152,11.5227503 L108.30152,7.61765395 C108.480881,7.59689378 108.648723,7.57722625 108.801755,7.55537345 C108.955336,7.5351596 109.132503,7.52477952 109.333803,7.52477952 C109.608604,7.52477952 109.843912,7.55373449 110.040824,7.60945914 C110.235543,7.66736908 110.391866,7.73729806 110.508698,7.82033872 C110.751685,7.99680012 110.872904,8.26121907 110.872904,8.61414189 C110.872904,8.88347772 110.796662,9.09599625 110.643081,9.25169749 C110.490049,9.40685242 110.306848,9.51557012 110.095675,9.57839694 L110.095675,9.60953719 C110.455493,9.67072504 110.683122,9.98759073 110.778013,10.5584953 C110.830669,10.8589714 110.878389,11.0796847 110.920624,11.2189963 C110.963407,11.3594006 111.005642,11.4599235 111.047877,11.5227503 L110.508698,11.5227503 Z M112.215092,8.30164677 C112.060962,7.92960275 111.854725,7.60508858 111.595283,7.32974323 C111.335841,7.05549052 111.029227,6.83750878 110.675443,6.67743698 C110.32111,6.51572622 109.936609,6.43596347 109.523586,6.43596347 C109.111111,6.43596347 108.727707,6.51572622 108.373374,6.67743698 C108.017944,6.83750878 107.709136,7.05549052 107.444758,7.32974323 C107.179831,7.60508858 106.970851,7.92960275 106.81727,8.30164677 C106.664238,8.67642238 106.587447,9.06922657 106.587447,9.48442988 C106.587447,9.91001327 106.664238,10.308827 106.81727,10.6830563 C106.970851,11.0556466 107.179831,11.3828924 107.444758,11.6626083 C107.709136,11.9423242 108.021783,12.1630375 108.381053,12.324202 C108.740871,12.4842738 109.127566,12.5651292 109.541138,12.5651292 C109.942642,12.5651292 110.32111,12.4842738 110.675443,12.324202 C111.029227,12.1630375 111.335841,11.9450558 111.595283,11.6697105 C111.854725,11.3954577 112.060962,11.0720362 112.215092,10.6972606 C112.368673,10.3252166 112.444915,9.92476391 112.444915,9.49972684 C112.444915,9.07523609 112.368673,8.67642238 112.215092,8.30164677 L112.215092,8.30164677 Z M112.730685,10.8769999 C112.550776,11.3075002 112.301755,11.6779053 111.984172,11.9893077 C111.667137,12.2996176 111.296349,12.5471006 110.872904,12.7284789 C110.449459,12.9098572 109.99475,13 109.508228,13 C109.021157,13 108.566447,12.9098572 108.143551,12.7284789 C107.719558,12.5471006 107.349867,12.2996176 107.031735,11.9893077 C106.714151,11.6779053 106.462937,11.3075002 106.276994,10.8769999 C106.092697,10.4464996 106,9.98267385 106,9.48442988 C106,8.99765863 106.092697,8.54093499 106.276994,8.11589792 C106.462937,7.69140716 106.714151,7.32264107 107.031735,7.01178491 C107.349867,6.6998361 107.719558,6.45344572 108.143551,6.27261375 C108.566447,6.09014282 109.021157,6 109.508228,6 C109.99475,6 110.449459,6.09014282 110.872904,6.27261375 C111.296349,6.45344572 111.667137,6.6998361 111.984172,7.01178491 C112.301755,7.32264107 112.550776,7.69140716 112.730685,8.11589792 C112.910045,8.54093499 113,8.99765863 113,9.48442988 C113,9.98267385 112.910045,10.4464996 112.730685,10.8769999 L112.730685,10.8769999 Z" id="Fill-9" fill="#C93C27"></path>
                    <path d="M93.3364188,26.429172 C92.6476647,27.1126255 93.2298328,28.3558383 93.2298328,28.3558383 L98.4160527,36.8770614 C98.4160527,36.8770614 99.2670029,38 100.004995,38 C100.745884,38 101.478083,37.4014794 101.478083,37.4014794 L105.577589,31.634591 C105.577589,31.634591 105.99061,30.907246 106,30.2699641 C106.014939,29.3636329 104.626425,29.1151044 104.626425,29.1151044 L94.9201478,26.0483989 C94.9201478,26.0483989 93.9695628,25.7998703 93.3364188,26.429172" id="Fill-11" fill="#C93C27"></path>
                    <path d="M93.1923391,22.3652306 C93.6774144,23.2138957 95.0166069,22.966417 95.0166069,22.966417 L104.478687,20.1145754 C104.478687,20.1145754 105.768636,19.5735077 105.952591,18.8526676 C106.13315,18.1318276 105.739769,17.2609828 105.739769,17.2609828 L101.217872,11.7685904 C101.217872,11.7685904 100.825623,11.0740158 100.012825,11.0039746 C99.1162567,10.9251784 98.5643916,12.0440855 98.5643916,12.0440855 L93.2178098,20.7204313 C93.2178098,20.7204313 92.7451869,21.5848556 93.1923391,22.3652306" id="Fill-13" fill="#C93C27"></path>
                    <g id="Group-17" transform="translate(77.000000, 0.000000)">
                        <mask id="mask-2" fill="white">
                            <use xlink:href="#path-1"></use>
                        </mask>
                        <g id="Clip-16"></g>
                        <path d="M11.6185136,18.4385212 C12.7820136,18.1592788 12.9663773,16.5126121 12.9663773,16.5126121 L12.8871955,2.80900606 C12.8871955,2.80900606 12.7122864,1.11858182 11.9322864,0.660278788 C10.7096955,-0.0622969697 10.3474682,0.314824242 9.99705909,0.365490909 L1.79524091,3.33467273 C1.79524091,3.33467273 0.992195455,3.59376364 0.573831818,4.24667273 C-0.0235772727,5.17191515 1.18069545,6.52667273 1.18069545,6.52667273 L9.70574091,17.8489455 C9.70574091,17.8489455 10.5471955,18.6964606 11.6185136,18.4385212" id="Fill-15" fill="#C93C27" mask="url(#mask-2)"></path>
                    </g>
                    <path d="M86.9995371,24.076336 C87.0277738,23.0600512 85.7548613,22.4495054 85.7548613,22.4495054 L77.3295811,18.2775345 C77.3295811,18.2775345 76.0809522,17.7727133 75.4749916,18.1247597 C75.0107795,18.3932227 74.5990878,18.8803309 74.5589916,19.3104253 L74.0100693,25.9312218 C74.0100693,25.9312218 73.9281827,27.0786937 74.2314453,27.6006744 C74.6606439,28.3407467 76.0741754,27.8254084 76.0741754,27.8254084 L85.9101634,25.6948637 C86.292489,25.4430066 86.9628293,25.4197582 86.9995371,24.076336" id="Fill-18" fill="#C93C27"></path>
                    <path d="M89.1848967,28.1187082 C88.3315498,27.6836767 87.3103875,28.5843278 87.3103875,28.5843278 L80.6537109,35.8569443 C80.6537109,35.8569443 79.823196,36.9688803 80.0343922,37.6520157 C80.2330308,38.2921011 80.5629536,38.6098781 81.0287269,38.8341912 L87.7139436,40.9283467 C87.7139436,40.9283467 88.5244804,41.0954487 89.1380911,40.9192836 C90.0091328,40.6683474 89.8487378,39.3151049 89.8487378,39.3151049 L90,29.4679856 C90,29.4679856 89.965752,28.5197528 89.1848967,28.1187082" id="Fill-20" fill="#C93C27"></path>
                </g>
            </g>
        </g>
    </g>
</svg>