<?xml version="1.0" encoding="iso-8859-1"?>
<!-- Generator: Adobe Illustrator 19.0.0, SVG Export Plug-In . SVG Version: 6.00 Build 0)  -->
<svg version="1.1" id="Capa_1" xmlns="http://www.w3.org/2000/svg" xmlns:xlink="http://www.w3.org/1999/xlink" x="0px" y="0px"
	 viewBox="0 0 47.838 47.838" style="enable-background:new 0 0 47.838 47.838;" xml:space="preserve">
<g>
	<g>
		<path d="M43.059,9.383c-0.066-0.349-0.275-0.88-0.465-1.181c0,0-5.186-8.202-18.676-8.202C10.432,0,5.242,8.202,5.242,8.202
			c-0.191,0.301-0.4,0.832-0.466,1.181c0,0-1.003,5.319,0.657,12.943c1.529,7.009,5.755,17.056,17.229,25.113
			c0.378,0.266,0.818,0.399,1.257,0.399c0.439,0,0.877-0.133,1.257-0.399c11.47-8.058,15.698-18.104,17.226-25.113
			C44.067,14.702,43.059,9.383,43.059,9.383z M37.981,21.362c-0.043,0.201-0.096,0.411-0.146,0.617H23.918v20.775
			C14.966,35.96,11.4,27.878,10,21.979h13.918V4.525c9.605,0,13.882,4.836,14.73,5.938C38.788,11.479,39.224,15.667,37.981,21.362z"
			/>
	</g>
</g>
<g>
</g>
<g>
</g>
<g>
</g>
<g>
</g>
<g>
</g>
<g>
</g>
<g>
</g>
<g>
</g>
<g>
</g>
<g>
</g>
<g>
</g>
<g>
</g>
<g>
</g>
<g>
</g>
<g>
</g>
</svg>
