<svg id="Layer_1" enable-background="new 0 0 511.724 511.724" height="512" viewBox="0 0 511.724 511.724" width="512" xmlns="http://www.w3.org/2000/svg"><g><path d="m330.666 109.051c30.075 2.135 56.187-20.516 58.321-50.59 2.135-30.075-20.516-56.187-50.591-58.322-30.075-2.134-56.187 20.516-58.321 50.591-2.134 30.076 20.516 56.187 50.591 58.321z"/><path d="m422.59 453.817h-21.921c10.655-6.909 16.001-20.219 12.251-33.03l-37.097-126.744c-3.679-12.572-15.21-21.21-28.309-21.21h-42.616l10.259-28.084c.027-.008.055-.013.082-.021l83.778-24.099c13.046-3.753 20.58-17.372 16.827-30.418s-17.37-20.579-30.418-16.827l-49.39 14.207 4.42-12.099c7.946-21.753-3.246-45.829-24.999-53.775l-49.304-18.011c-21.753-7.946-45.829 3.246-53.775 24.999l-2.721 7.449 29.092-1.414-62.708 17.391c-8.493 2.355-15.075 9.078-17.25 17.618l-24.388 95.728c-3.352 13.155 4.596 26.537 17.751 29.888 13.157 3.353 26.538-4.6 29.888-17.751l20.87-81.918 48.976-13.583-35.167 18.872-14.442 56.688c6.603-.986 13.358-1.503 20.231-1.503 75.22 0 136.416 61.196 136.416 136.416 0 12.688-1.748 24.976-5.004 36.64l2.38 8.133c2.067 7.063 6.552 12.751 12.281 16.458h-24.197c-5.799 11.495-13.176 22.06-21.846 31.414h100.05c8.675 0 15.707-7.032 15.707-15.707s-7.032-15.707-15.707-15.707z"/><path d="m120.171 261.852 12.549-49.257-13.755-41.453c15.772 9.063 34.794-6.215 28.927-23.737l-23.267-69.498c-3.536-10.658-15.218-16.323-25.834-12.376-10.112 3.759-15.18 15.12-11.783 25.359l8.61 25.95c-3.474-1.577-7.521-1.916-11.427-.619-8.233 2.732-12.693 11.621-9.961 19.855l44.733 134.811c.053-2.987.438-6.015 1.208-9.035z"/><path d="m222.511 273.448c-8.545 0-16.88.912-24.92 2.63l-1.315 5.163c-5.354 21.015-26.731 33.712-47.747 28.357-2.925-.745-5.682-1.811-8.258-3.133-22.722 21.708-36.897 52.29-36.897 86.121 0 65.692 53.445 119.138 119.138 119.138s119.138-53.445 119.138-119.138c-.001-65.693-53.447-119.138-119.139-119.138zm80.221 154.572-42.339-24.445c-1.802 6.201-5.085 11.773-9.444 16.312l42.339 24.444c-14.224 19.402-36.211 32.767-61.353 35.465v-48.906c-3.022.744-6.176 1.146-9.424 1.146s-6.403-.402-9.424-1.146v48.906c-25.142-2.698-47.129-16.063-61.353-35.465l42.339-24.444c-4.359-4.539-7.642-10.111-9.444-16.312l-42.34 24.445c-4.809-10.844-7.502-22.827-7.502-35.434s2.694-24.589 7.503-35.434l42.339 24.444c1.802-6.2 5.085-11.773 9.444-16.312l-42.339-24.444c14.224-19.402 36.211-32.767 61.353-35.465v48.906c3.022-.744 6.176-1.146 9.424-1.146s6.402.402 9.424 1.146v-48.906c25.142 2.698 47.129 16.063 61.353 35.465l-42.339 24.444c4.359 4.539 7.642 10.111 9.444 16.312l42.339-24.444c4.809 10.845 7.503 22.827 7.503 35.434s-2.694 24.589-7.503 35.434z"/><circle cx="222.511" cy="392.586" r="26.885"/></g></svg>