
<svg width="78px" height="71px" viewBox="0 0 78 71" version="1.1" xmlns="http://www.w3.org/2000/svg" xmlns:xlink="http://www.w3.org/1999/xlink">
    <defs>
        <path d="M6.13945946,30.1171171 L3.90162162,29.347027 L0.248648649,40.6518919 L5.02162162,44.1427027 L6.84792793,44.2028829 C10.7553153,59.4504505 24.5881081,70.7207207 41.0533333,70.7207207 L41.0533333,70.7207207 C55.5672072,70.7207207 68.0335135,61.9628829 73.4616216,49.4443243 L73.4616216,49.4443243 L76.3625225,49.0100901 L79.2544144,44.1427027 L78.1718919,37.4497297 L79.9308108,30.0320721 L76.3625225,23.6518919 L74.3823423,23.7315315 C69.5603604,9.97153153 56.4605405,0.102342342 41.0533333,0.102342342 L41.0533333,0.102342342 C23.3524324,0.102342342 8.69441441,13.1282883 6.13945946,30.1171171 L6.13945946,30.1171171 Z" id="path-1"></path>
    </defs>
    <g id="Desktop" stroke="none" stroke-width="1" fill="none" fill-rule="evenodd">
        <g id="Homepage_Pick-City" transform="translate(-1066.000000, -164.000000)">
            <g id="PICK-CITY">
                <g id="SERVICES" transform="translate(160.000000, 152.000000)">
                    <g id="AIPORT-TRANSFER" transform="translate(880.000000, 0.000000)">
                        <g id="Group-114" transform="translate(24.000000, 12.000000)">
                            <path d="M76.3626306,35.3757838 C76.3626306,54.8763243 60.553982,70.6846126 41.0534414,70.6846126 C21.5529009,70.6846126 5.74461261,54.8763243 5.74461261,35.3757838 C5.74461261,15.8748829 21.5529009,0.0665945946 41.0534414,0.0665945946 C60.553982,0.0665945946 76.3626306,15.8748829 76.3626306,35.3757838" id="Fill-1" fill="#F7F7F7"></path>
                            <g id="Group-113" transform="translate(0.000000, 0.167928)">
                                <mask id="mask-2" fill="white">
                                    <use xlink:href="#path-1"></use>
                                </mask>
                                <g id="Clip-4"></g>
                                <polygon id="Fill-3" fill="#D9E9FF" mask="url(#mask-2)" points="77.9877477 73.0504505 80.154955 73.0504505 80.154955 -3.57369369 77.9877477 -3.57369369"></polygon>
                                <polygon id="Fill-5" fill="#D9E9FF" mask="url(#mask-2)" points="4.87387387 79.5394595 7.04144144 79.5394595 7.04144144 2.91531532 4.87387387 2.91531532"></polygon>
                                <polygon id="Fill-6" fill="#D9E9FF" mask="url(#mask-2)" points="40.5477477 79.5394595 42.7153153 79.5394595 42.7153153 -6.36504505 40.5477477 -6.36504505"></polygon>
                                <polygon id="Fill-7" fill="#D9E9FF" mask="url(#mask-2)" points="84.8117477 61.2327928 -1.91906306 61.1794595 -1.91762162 59.0118919 84.8128288 59.0652252"></polygon>
                                <polygon id="Fill-8" fill="#D9E9FF" mask="url(#mask-2)" points="15.3270991 81.0811171 10.0398919 81.0811171 64.0525045 -8.54771171 69.3397117 -8.54771171"></polygon>
                                <polygon id="Fill-9" fill="#D9E9FF" mask="url(#mask-2)" points="25.0406486 81.0811171 19.7534414 81.0811171 73.7660541 -8.54771171 79.0532613 -8.54771171"></polygon>
                                <polygon id="Fill-10" fill="#D9E9FF" mask="url(#mask-2)" points="-9.84796396 71.5968288 33.3851892 0.124756757 28.097982 0.124756757 -15.1351712 71.5968288"></polygon>
                                <polygon id="Fill-11" fill="#D9E9FF" mask="url(#mask-2)" points="-3.76248649 77.2572252 49.3892252 -10.2577297 43.1978739 -10.2577297 -9.04933333 77.2572252"></polygon>
                                <polygon id="Fill-12" fill="#D9E9FF" mask="url(#mask-2)" points="48.4401441 74.4142703 92.6257297 1.30436036 87.3385225 1.30436036 43.1529369 74.4142703"></polygon>
                                <polygon id="Fill-13" fill="#D9E9FF" mask="url(#mask-2)" points="57.5953874 75.1613694 95.3143063 11.6867748 90.0274595 11.6867748 52.3081802 75.1613694"></polygon>
                                <path d="M18.460036,49.9854414 C19.3652613,51.6531892 19.9504865,53.4585946 20.0935495,55.2845405 L20.1072432,55.3677838 C20.2449009,55.6877838 20.193009,55.4733694 20.193009,55.4733694 L20.2380541,55.3292252 C20.1418378,53.4784144 19.5458018,51.7094054 18.6766126,50.0528288 L18.7126486,50.0643604 L18.6629189,49.9695856 L18.5908468,49.9472432 C18.5411171,49.8524685 18.4553514,49.7465225 18.4167928,49.6157117 C18.8582342,48.9616577 19.6268829,48.5285045 20.2758919,48.0975135 C21.7742703,47.100036 23.2726486,46.1025586 24.2726486,44.6726486 C24.3649009,44.5032793 24.5043604,44.3094054 24.5043604,44.3094054 C24.6193153,44.0683243 24.6373333,43.756973 24.458955,43.8203964 L24.3533694,43.9058018 L24.3058018,43.9306667 C23.2582342,44.7522883 22.0391351,45.3616577 20.944,46.2077838 C19.9663423,46.9321081 19.1101261,47.7735495 18.5562523,48.7883243 C18.4524685,48.9937297 18.349045,49.1987748 18.2816577,49.4153514 C17.8232793,48.5994955 17.2816577,47.7973333 16.7176937,47.0672432 L16.7288649,47.0312072 L16.7627387,46.9230991 C16.8654414,45.451027 17.9760721,44.1742703 18.6038198,42.6676036 C19.0380541,41.6553514 19.4366126,40.6315676 19.5122883,39.6261622 C19.5212973,39.4704865 19.5054414,39.2676036 19.5054414,39.2676036 L19.4809369,39.2203964 L19.4557117,39.1731892 L19.4308468,39.1256216 C19.3814775,39.0312072 19.2596757,38.9137297 19.1447207,39.1551712 C19.0996757,39.2996757 18.8092252,39.7234595 18.6131892,40.0978739 C18.0931892,41.0045405 17.5007568,41.8885045 17.0528288,42.8175135 C16.5486847,43.9270631 16.0221982,45.1086847 16.236973,46.3238198 C16.2506667,46.4070631 16.2755315,46.4546306 16.3003964,46.5018378 C15.7249009,45.8077838 15.1494054,45.1137297 14.5630991,44.4560721 C14.4164324,44.2917477 14.2697658,44.1270631 14.0870631,43.9512072 C14.0870631,43.9512072 14.0758919,43.9872432 14.1184144,43.7238198 C14.1537297,42.467964 14.6553514,41.2391351 14.9767928,39.9537297 C15.2106667,39.076973 15.3836396,38.1411171 15.5814775,37.2528288 C15.7342703,36.5086847 15.8625586,35.7173333 15.6092252,35.0052613 C15.5847207,34.9576937 15.5238198,34.8993153 15.5238198,34.8993153 C15.4153514,34.8654414 15.4265225,34.8294054 15.356973,34.9263423 C15.2171532,35.1205766 15.2106667,35.3955315 15.1317477,35.6477838 C14.4139099,37.4427387 13.6485045,39.2625586 13.4697658,41.1068829 C13.4203964,41.6456216 13.4074234,42.1955315 13.5249009,42.7072432 C13.5904865,43.0049009 13.7032793,43.2776937 13.8160721,43.5504865 C12.9497658,42.6470631 12.0838198,41.7432793 11.2175135,40.8402162 C11.1926486,40.7926486 11.2038198,40.7566126 11.2038198,40.7566126 C11.1292252,40.6146306 11.1767928,40.5897658 11.187964,40.5537297 C11.196973,40.3984144 11.2528288,40.2178739 11.2528288,40.2178739 L11.2755315,40.1458018 C11.4258018,39.2823784 11.7205766,38.4636396 11.8712072,37.6002162 C12.0643604,36.4726486 12.0658018,35.3252613 11.9836396,34.1915676 C11.9677838,33.9886847 11.8412973,33.6326486 11.713009,33.7904865 C11.6430991,33.8874234 11.6704865,34.0542703 11.6704865,34.0542703 C11.6139099,34.2348108 11.5580541,34.414991 11.5378739,34.6067027 C11.1825586,35.9998559 10.6603964,37.4207568 10.6773333,38.8903063 C10.700036,39.4517477 10.7951712,40.0355315 10.9962523,40.5335495 C10.3375135,39.8531892 9.68994595,39.1371532 9.03120721,38.4564324 C8.7876036,38.2221982 8.59120721,37.9630991 8.3476036,37.7288649 C8.01354955,37.1497658 7.73823423,36.5097658 7.46255856,35.8697658 C6.82616216,34.4834595 6.11733333,33.0751712 5.26868468,31.8607568 C5.09715315,31.6488649 4.96165766,31.4485045 4.68237838,31.2027387 C4.62147748,31.1443604 4.53787387,31.1576937 4.53787387,31.1576937 C4.44345946,31.2074234 4.35517117,30.9821982 4.4885045,31.6967928 C4.91409009,33.8877838 6.01138739,36.2088649 7.79120721,37.9908468 C8.30327928,38.5065225 8.81535135,39.0225586 9.45571171,39.3803964 C9.66327928,39.6034595 9.90688288,39.8376937 10.1144505,40.0607568 C8.56958559,39.3021982 6.5476036,39.1865225 4.57499099,39.1652613 C4.06075676,39.1634595 3.54688288,39.1612973 3.0467027,39.2427387 C2.76021622,39.2722883 3.07625225,39.5292252 3.07625225,39.5292252 C3.48886486,39.8557117 4.03012613,40.0243604 4.54652252,40.1458018 C6.62508108,40.7148108 8.95553153,40.0953514 10.894991,40.8582342 C10.9919279,40.9281441 11.0416577,41.0229189 11.1385946,41.0928288 C11.1522883,41.1760721 11.1522883,41.1760721 11.1634595,41.140036 C11.7612973,41.7616577 12.3703063,42.3476036 12.9681441,42.9692252 C11.8787748,42.2733694 10.498955,42.0016577 9.12381982,41.9685045 L9.08778378,41.9573333 C7.90436036,41.9447207 6.77282883,42.1461622 5.61643243,42.3003964 C5.44958559,42.3274234 5.11372973,42.2621982 5.2849009,42.4740901 C5.3594955,42.6160721 5.4067027,42.5912072 5.46796396,42.6499459 C5.67300901,42.7533694 5.91445045,42.8683243 6.17787387,42.9108468 C7.53535135,43.2546306 8.90183784,43.4430991 10.3987748,43.5933694 C11.5958919,43.6892252 12.8964324,43.5803964 14.0171532,44.0481441 C14.578955,44.658955 15.1047207,45.2582342 15.6301261,45.8575135 C15.4971532,45.7764324 15.0146306,45.5468829 14.6178739,45.4229189 C13.344,45.0654414 11.971027,45.1519279 10.6704865,45.2611171 C9.9421982,45.3112072 9.17823423,45.3501261 8.48598198,45.4117477 C8.2830991,45.4276036 7.92237838,45.3151712 7.98796396,45.6124685 L8.03769369,45.7072432 C8.59697297,46.1980541 9.47192793,46.3126486 10.3216577,46.3796757 C11.9742703,46.5385946 13.6805766,46.3976937 15.3108468,46.6286847 C15.7299459,46.6802162 16.1742703,46.7793153 16.5126486,46.9638198 C17.0766126,47.6939099 17.6294054,48.460036 18.098955,49.2394955 L18.1238198,49.2870631 C17.3230991,48.6809369 16.1461622,48.3933694 15.0211171,48.3194955 C13.5602162,48.1807568 12.0903063,48.1976937 10.6070631,48.131027 C10.4513874,48.1223784 10.2957117,48.1133694 10.2957117,48.1133694 C10.1537297,48.1876036 10.2261622,48.2103063 10.2870631,48.2686847 L10.347964,48.3274234 C11.011027,48.6131892 11.660036,48.8157117 12.356973,48.9933694 C13.8225586,49.371027 15.322018,49.6405766 16.8661622,49.7656216 C17.380036,49.7677838 17.9303063,49.7807568 18.460036,49.9854414" id="Fill-14" fill="#56B9E8" mask="url(#mask-2)"></path>
                                <path d="M73.1044324,53.093009 C78.3566847,59.8937297 68.9754234,68.6764324 58.8795676,63.6382342 C52.8795676,60.6288649 50.1174054,49.8497658 58.9213694,48.0382342 C67.724973,46.2267027 55.5847928,39.9348108 63.5246126,36.9157117 C71.4161441,33.9117477 68.3098378,34.6411171 70.0673153,29.2011171 C70.6802883,27.3081441 72.5883964,25.318955 75.4889369,25.7686847 C78.6129009,26.253009 79.3329009,30.1575135 78.3674955,32.1099459 C75.7678559,37.2367928 73.9765045,34.7885045 77.7404685,41.9067027 C81.422991,49.1041802 67.8673153,46.3402162 73.1044324,53.093009" id="Fill-15" fill="#FD5D5B" mask="url(#mask-2)"></path>
                                <path d="M62.9107027,59.0076396 C62.002955,61.3986306 61.0746667,63.7975495 60.1571892,66.208 L59.242955,65.1611532 C60.3207928,62.3712432 61.4335856,59.5838559 62.5852973,56.8321441 C61.9388108,56.1377297 61.3251171,55.3802523 60.7114234,54.6224144 L60.0667387,53.7683604 C59.8937658,53.5586306 59.6898018,53.253045 59.6898018,53.253045 C59.6108829,53.171964 59.5798919,53.0761081 59.5013333,52.995027 C59.3914234,52.8180901 59.2184505,52.6087207 59.1085405,52.4314234 C58.9200721,52.1737658 58.826018,52.0451171 58.826018,52.0451171 L58.8606126,51.8220541 C58.8606126,51.8220541 59.0202523,51.8238559 59.1625946,51.9373694 C59.5723243,52.3892613 60.1398919,53.0025946 60.1398919,53.0025946 C60.3283604,53.2606126 60.5651171,53.5027748 60.5651171,53.5027748 C61.3038559,54.4854775 61.9946667,55.4836757 62.8292613,56.4357477 C64.1445766,53.2577297 65.4598919,50.0800721 66.7114234,46.8692613 C66.4321441,44.8382703 65.9607928,42.8685405 65.3449369,40.9449369 C65.3449369,40.9449369 65.0851171,39.968 64.8696216,39.2948468 C64.8696216,39.2948468 64.9042162,39.0717838 65.0598919,39.3928649 C65.3081802,40.0025946 65.6332252,40.8526847 65.6332252,40.8526847 C66.155027,42.6472793 66.613045,44.4090811 66.8786306,46.2328649 C66.9615135,45.9943063 67.044036,45.7557477 67.1748468,45.5016937 C68.1305225,43.0220541 69.1975495,40.5597117 70.3128649,38.0822342 L70.362955,37.9070991 C70.7723243,37.0335856 71.3607928,35.8912432 71.3607928,35.8912432 L71.7204324,35.1928649 C72.6202523,33.3672793 73.5683604,31.5261982 74.3896216,29.6198919 L74.6472793,29.4310631 C74.6779099,29.5272793 74.7413333,29.5600721 74.7723243,29.6562883 C74.0782703,31.6278198 73.257009,33.5344865 72.484036,35.4252973 L72.1881802,36.1564685 C71.9420541,36.7121441 71.7110631,37.3164685 71.417009,37.8876396 L71.2534054,38.2051171 C71.1052973,38.5705225 70.9092613,38.9514234 70.7611532,39.3168288 C69.8595315,41.3020541 69.0692613,43.3045766 68.278991,45.3070991 C68.9215135,44.9953874 69.5312432,44.7474595 70.1889009,44.4836757 C71.1197117,44.0797117 72.0508829,43.6753874 72.9816937,43.2714234 C72.9816937,43.2714234 74.3452973,42.7287207 75.3726847,42.2937658 C75.3726847,42.2937658 75.5168288,42.2476396 75.4033153,42.389982 C73.2508829,43.4501622 71.1161081,44.398991 68.8847568,45.3784505 C68.6116036,45.5186306 68.3388108,45.6591712 68.1135856,45.7842162 C66.435027,49.9798919 64.9489009,54.1135856 63.2548468,58.2613333 C63.2220541,58.3247568 63.1892613,58.3881802 63.1723243,58.4995315 C63.3492613,58.389982 63.5896216,58.3132252 63.7665586,58.2033153 L63.8144865,58.1881802 C66.0436757,57.3683604 68.380973,56.8851171 70.5946667,56.017009 L70.8815135,56.0843964 C70.8815135,56.0843964 70.8314234,56.2595315 70.7507027,56.3384505 C68.6004324,57.238991 66.2786306,57.7701622 64.0494414,58.589982 C64.0494414,58.589982 63.5204324,58.7593514 62.9107027,59.0076396" id="Fill-16" fill="#C34A4A" mask="url(#mask-2)"></path>
                                <polygon id="Fill-17" fill="#FFFFFF" mask="url(#mask-2)" points="64.8212252 50.2782342 65.1981622 50.2814775 65.2280721 41.6342703 64.8511351 41.6306667"></polygon>
                                <polygon id="Fill-18" fill="#FFFFFF" mask="url(#mask-2)" points="62.4748468 50.2574414 62.8517838 50.2606847 62.8816937 41.6134775 62.5047568 41.6098739"></polygon>
                                <path d="M66.0084437,41.4516757 C66.0098739,41.2632072 65.8729369,41.1248288 65.6819459,41.1233874 L62.0671712,41.0913153 C61.9525766,41.0923964 61.8314955,41.1406847 61.7403243,41.2293333 C61.6487928,41.317982 61.5958198,41.4350991 61.5947324,41.5496937 C61.5936577,41.7381622 61.7305946,41.8761802 61.9215856,41.877982 L65.536,41.9100541 L65.539964,41.9100541 C65.6549189,41.9100541 65.7727568,41.859964 65.8628468,41.7723964 C65.9543784,41.6837477 66.0073514,41.5666306 66.0084437,41.4516757" id="Fill-19" fill="#1A0C54" mask="url(#mask-2)"></path>
                                <path d="M69.1723243,68.9988468 L69.1752072,68.6716396 C69.1759279,68.5894775 69.109982,68.5224505 69.0278198,68.5217167 C68.9456577,68.5206486 68.8786306,68.586955 68.8779099,68.6687568 L68.875027,68.9761441 C68.8083604,68.9743423 68.7312432,68.9725405 68.6418739,68.9718198 C68.3301622,68.9689369 68.075027,69.2193874 68.0725045,69.5314595 C68.0696216,69.8428108 68.3200721,70.0979459 68.6317838,70.1008288 C68.6631351,70.1011892 69.0137658,70.1040721 69.0137658,70.1040721 C69.3254775,70.106955 69.5806126,69.8561441 69.5831351,69.5447928 C69.5852973,69.2846126 69.4108829,69.0662342 69.1723243,68.9988468" id="Fill-20" fill="#00327D" mask="url(#mask-2)"></path>
                                <path d="M67.1099099,68.9805405 L67.1127928,68.6533333 C67.1135135,68.5711712 67.0475676,68.5041441 66.9654054,68.5034176 C66.8832432,68.5027027 66.8162162,68.5686486 66.8154955,68.6508108 L66.8126126,68.9578378 C66.7459459,68.956036 66.6688288,68.9542342 66.5794595,68.9535135 C66.2677477,68.9506306 66.012973,69.2010811 66.0100901,69.5131532 C66.0072072,69.8248649 66.2576577,70.0796396 66.5693694,70.0825225 C66.6007207,70.0828829 66.9513514,70.0857658 66.9513514,70.0857658 C67.2630631,70.0886486 67.5181982,69.8381982 67.5210811,69.5264865 C67.5232432,69.2663063 67.3484685,69.0482883 67.1099099,68.9805405" id="Fill-21" fill="#00327D" mask="url(#mask-2)"></path>
                                <path d="M60.1499099,68.918955 L60.1527928,68.5917477 C60.1535135,68.5095856 60.0875676,68.4425586 60.0054054,68.441832 C59.9232432,68.4411171 59.8558559,68.5070631 59.8551351,68.5892252 L59.8526126,68.8962523 C59.7859459,68.8944505 59.7088288,68.8926486 59.6194595,68.8919279 C59.3077477,68.889045 59.0526126,69.1398559 59.0497297,69.4515676 C59.0468468,69.7632793 59.2976577,70.0180541 59.6093694,70.0209369 C59.6407207,70.0212973 59.9913514,70.0241802 59.9913514,70.0241802 C60.3030631,70.0270631 60.5578378,69.7766126 60.5607207,69.4649009 C60.5628829,69.2047207 60.3884685,68.9867027 60.1499099,68.918955" id="Fill-22" fill="#00327D" mask="url(#mask-2)"></path>
                                <path d="M58.0875315,68.9008288 L58.0904144,68.5736216 C58.0911351,68.4914595 58.0251892,68.4244324 57.943027,68.4236987 C57.8608649,68.4226306 57.7934775,68.4889369 57.7927568,68.5710991 L57.7902342,68.8781261 C57.7235676,68.8763243 57.6464505,68.8745225 57.5570811,68.8738018 C57.2453694,68.8709189 56.9902342,69.1213694 56.9873514,69.4334414 C56.9848288,69.7447928 57.2352793,69.9999279 57.546991,70.0028108 C57.5783423,70.0031712 57.928973,70.0060541 57.928973,70.0060541 C58.2406847,70.0089369 58.4954595,69.7581261 58.4983423,69.4467748 C58.5005045,69.1865946 58.3260901,68.9682162 58.0875315,68.9008288" id="Fill-23" fill="#00327D" mask="url(#mask-2)"></path>
                                <path d="M57.4352432,68.7758919 L59.466955,68.7939099 L59.6312793,50.1899459 L57.5999279,50.1722092 C56.5743423,50.1629189 55.7354234,50.9870631 55.7264144,52.0126486 L55.5948829,66.9023784 C55.5858739,67.927964 56.4096577,68.7668829 57.4352432,68.7758919" id="Fill-24" fill="#468AFF" mask="url(#mask-2)"></path>
                                <path d="M59.4668468,68.7938378 L68.785045,68.8764278 C69.810991,68.885009 70.6495495,68.0612252 70.6585586,67.0356396 L70.7901692,52.1459099 C70.7994595,51.1203243 69.9753153,50.2814054 68.9497297,50.2723964 L59.6311712,50.1902342 L59.4668468,68.7938378 Z" id="Fill-25" fill="#3468BF" mask="url(#mask-2)"></path>
                                <path d="M68.990018,67.0626047 L68.990018,67.0626047 C69.1806486,67.064036 69.3363243,66.9112432 69.3381261,66.7206126 L69.4642523,52.4377297 C69.4660541,52.2467387 69.3129009,52.0910631 69.1222703,52.0892456 C68.9316396,52.0874595 68.775964,52.240973 68.7741622,52.4312432 L68.648036,66.7144865 C68.6462342,66.9051171 68.7993874,67.0607928 68.990018,67.0626047" id="Fill-26" fill="#468AFF" mask="url(#mask-2)"></path>
                                <path d="M66.377045,67.0394031 L66.377045,67.0394031 C66.5676757,67.0411892 66.7233514,66.888036 66.7251532,66.6974054 L66.8512793,52.4145225 C66.8530811,52.2238919 66.6999279,52.0678559 66.5092973,52.0663987 C66.3186667,52.0646126 66.162991,52.2177658 66.1611892,52.4083964 L66.0350631,66.6912793 C66.0332613,66.8819099 66.1864144,67.0379459 66.377045,67.0394031" id="Fill-27" fill="#468AFF" mask="url(#mask-2)"></path>
                                <path d="M63.7640721,67.0163401 L63.7640721,67.0163401 C63.9547027,67.0181261 64.1103784,66.864973 64.1121802,66.6743423 L64.2383063,52.3914595 C64.2401081,52.2008288 64.086955,52.0447928 63.8963243,52.0429809 C63.7056937,52.0415495 63.550018,52.1947027 63.5482162,52.384973 L63.4220901,66.6682162 C63.4202883,66.8588468 63.5734414,67.0148829 63.7640721,67.0163401" id="Fill-28" fill="#468AFF" mask="url(#mask-2)"></path>
                                <path d="M61.1511351,66.9932714 L61.1511351,66.9932714 C61.3417658,66.9947027 61.4974414,66.8419099 61.4992432,66.6512793 L61.6253694,52.3683964 C61.6271712,52.1774054 61.474018,52.0217297 61.2833874,52.0199122 C61.0927568,52.0181261 60.9370811,52.1716396 60.9352793,52.3619099 L60.8091532,66.6451532 C60.8073514,66.8357838 60.9605045,66.9914595 61.1511351,66.9932714" id="Fill-29" fill="#468AFF" mask="url(#mask-2)"></path>
                                <polygon id="Fill-30" fill="#9EBFFF" mask="url(#mask-2)" points="55.6565045 59.9296577 70.7202883 60.062991 70.7285766 59.1184865 55.6647928 58.9851532"></polygon>
                                <polygon id="Fill-31" fill="#BCCEFF" mask="url(#mask-2)" points="55.6565045 59.9296577 59.5321802 59.9638919 59.5408288 59.0197477 55.6647928 58.9851532"></polygon>
                                <path d="M56.4729369,57.940973 L57.4084324,57.9492613 C57.5241081,57.9503423 57.6192432,57.857009 57.6203336,57.7413333 C57.6214054,57.6252973 57.5280721,57.5305225 57.412036,57.5294414 L56.4769009,57.5211439 C56.3608649,57.5200721 56.2660901,57.6134054 56.2649997,57.7294414 C56.2639279,57.8451171 56.3572613,57.9398919 56.4729369,57.940973" id="Fill-32" fill="#BCCEFF" mask="url(#mask-2)"></path>
                                <path d="M56.4423423,61.408036 L57.3778378,61.415964 C57.4935135,61.417045 57.5886486,61.3240721 57.5897339,61.208036 C57.5904505,61.0923604 57.4974775,60.9975856 57.3814414,60.9965045 L56.4459459,60.9882069 C56.3302703,60.9871351 56.2354955,61.0801081 56.2344051,61.1961441 C56.2333333,61.3121802 56.3263063,61.406955 56.4423423,61.408036" id="Fill-33" fill="#BCCEFF" mask="url(#mask-2)"></path>
                                <path d="M56.3506667,61.7645563 L56.3506667,61.7645563 C56.5412973,61.7663423 56.696973,61.6131892 56.6987748,61.4225586 L56.7333694,57.5112072 C56.7351712,57.3205766 56.582018,57.1645405 56.3913874,57.1627286 C56.2007568,57.1612973 56.0447207,57.3144505 56.0429189,57.5050811 L56.0086847,61.4164324 C56.0068829,61.6070631 56.160036,61.7630991 56.3506667,61.7645563" id="Fill-34" fill="#00327D" mask="url(#mask-2)"></path>
                                <path d="M62.7708108,38.6062703 C62.9297297,38.4235676 63.1409009,38.3857297 63.3322523,38.4001441 C63.9672072,38.4484324 64.5275676,39.0116757 64.7488288,39.8235676 C64.8508108,40.1997838 64.88,40.6534775 64.7333333,41.0423063 C64.4536937,41.7860901 63.7985586,41.9839279 63.4133333,41.7125766 C62.9625225,41.3947387 62.5499099,38.8603243 62.7708108,38.6062703" id="Fill-35" fill="#FF9885" mask="url(#mask-2)"></path>
                                <path d="M54.9157117,30.5908829 C57.1672432,33.5905225 59.5387748,36.5743063 62.7276036,39.4820541 C63.1881441,39.3043964 63.5715676,39.2651171 64.0043604,38.677009 C62.8731892,37.3141261 59.4976937,32.9779099 57.0796757,29.4146667 C56.0133694,29.9159279 56.065982,30.3508829 54.9157117,30.5908829" id="Fill-36" fill="#FE9B88" mask="url(#mask-2)"></path>
                                <path d="M57.4259459,29.4148108 C56.2021622,27.6454414 55.4072072,26.3247207 54.4987387,25.1283243 C52.8446847,24.1164324 52.7055856,23.7917477 50.6133333,24.0421982 C51.716036,26.6670631 53.1030631,28.9376937 54.756036,31.0573333 C55.7935135,30.6785946 56.5891892,30.1121081 57.4259459,29.4148108" id="Fill-37" fill="#C34A4A" mask="url(#mask-2)"></path>
                                <path d="M41.4696216,22.621982 C40.3752072,23.5066667 40.162955,24.7441441 39.9971892,25.9023423 C39.7658378,27.5167568 39.5373694,29.1315315 39.3038559,30.7459459 C38.6404324,35.3383784 42.0779099,37.8486486 45.5643964,38.1275676 C47.5885405,38.2897297 44.278991,37.6374775 46.6811532,36.8785586 C49.2386306,36.070991 50.2851171,33.972973 50.8681802,32.0724324 C51.5604324,29.8140541 51.9734054,27.514955 52.1006126,25.2079279 C52.1481802,24.3502703 52.1434955,23.4518919 51.5766486,22.6879279 C49.9867387,20.5437838 43.4267387,21.04 41.4696216,22.621982" id="Fill-38" fill="#468AFF" mask="url(#mask-2)"></path>
                                <path d="M42.9107027,22.8767568 C42.0645766,23.7459459 41.9002523,24.9618018 41.7723243,26.0994595 C41.5935856,27.6861261 41.4152072,29.2724324 41.2364685,30.8587387 C41.0703423,32.3362162 40.924036,33.9127928 41.7128649,35.2266667 C42.6652973,36.8126126 45.0822342,37.6291892 46.9391712,36.8836036 C48.9161081,36.0900901 49.7254775,34.0288288 50.1759279,32.1614414 C50.7110631,29.9427027 51.0303423,27.683964 51.1287207,25.4176577 C51.1651171,24.5747748 51.1615135,23.6922523 50.7236757,22.9416216 C49.4948468,20.834955 44.4234955,21.3225225 42.9107027,22.8767568" id="Fill-39" fill="#3468BF" mask="url(#mask-2)"></path>
                                <path d="M44.8270631,16.6549189 C45.1067027,15.7237477 45.5719279,14.8794234 46.2584144,14.2585225 C46.7618378,13.803027 47.2519279,13.7277117 47.8612973,13.6033874 C48.2277838,13.1021261 48.5593153,12.7334775 49.1438198,12.4228468 C49.8339099,12.056 50.9964324,11.8545586 51.6587748,12.2765405 C53.0504865,13.1633874 53.2897658,14.6145586 53.2335495,15.994018 C53.1294054,18.5468108 52.4667027,20.5929369 51.2897658,22.8113153 C51.231027,22.9223063 50.3827387,22.9003243 50.2295856,22.8934775 C49.8198559,22.8743784 49.4414775,22.9201441 49.0764324,22.8949189 C48.3308468,22.8437477 47.6793153,22.8329369 46.9748108,22.5403243 C45.7621982,22.0365405 44.8288649,21.3680721 44.4706667,19.9983423 C44.1841802,18.9032072 44.5070631,17.7205045 44.8270631,16.6549189" id="Fill-40" fill="#00327D" mask="url(#mask-2)"></path>
                                <path d="M45.4488649,23.163027 C47.0531892,21.6913153 49.6665225,21.1136577 51.8827387,21.9594234 C52.9119279,22.3522162 53.7295856,23.0808649 54.2596757,23.9615856 C54.9508468,25.1096937 55.6607568,26.621045 55.7230991,27.9302342 C55.7598559,28.6956396 55.5036396,29.5086126 54.9436396,30.0617658 C54.7616577,32.7205045 54.1638198,37.0358198 54.0953514,37.5922162 C54.0214775,38.1936577 44.7515676,37.6668108 44.7515676,37.2484324 C44.7515676,34.6466306 42.3681441,25.9896937 45.4488649,23.163027" id="Fill-41" fill="#FD5D5B" mask="url(#mask-2)"></path>
                                <path d="M48.0926486,21.7701622 C48.0933694,21.7831351 48.0940901,21.7957477 48.0948108,21.8083604 C48.2227387,23.7362883 51.0306667,23.9326847 51.4155315,22.0397117 C51.4303063,21.9654775 51.4432793,21.8908829 51.4540901,21.8155676 C51.4540901,21.8152072 51.4540901,21.8152072 51.4537297,21.8148468 C50.3521081,21.4901622 49.1776937,21.4962883 48.0926486,21.7701622" id="Fill-42" fill="#FF9885" mask="url(#mask-2)"></path>
                                <path d="M48.6046847,21.999964 C48.5643243,21.6367207 48.516036,19.8677117 48.516036,19.346991 L48.516036,19.3394234 L51.4425225,18.0093333 C51.3927928,19.1005045 51.2140541,20.7314955 51.0313514,21.8107748 C51.0057658,21.9632072 50.6655856,22.3037477 50.2814414,22.6457297 C49.6774775,23.1837477 48.7041441,22.826991 48.6072072,22.0237477 C48.6064865,22.0158198 48.6054054,22.0078919 48.6046847,21.999964" id="Fill-43" fill="#FF9885" mask="url(#mask-2)"></path>
                                <path d="M50.496036,18.5281441 C49.7079279,18.9223784 48.5194595,19.162018 48.5194595,19.162018 L48.5194595,19.1695856 C48.5194595,19.5677838 48.5021622,19.9357117 48.5158559,20.5811171 C48.5227027,20.6957117 48.570991,21.7901261 48.6016216,21.9832793 C48.9410811,21.9396757 49.2751351,21.8308468 49.58,21.6632793 C50.3082883,21.2625586 50.7944144,20.5097658 51.1036036,19.6063423 C51.136036,19.0153514 51.1551351,18.7778739 51.1763964,18.2488649 C50.9771171,18.3306667 50.7428829,18.4268829 50.496036,18.5281441" id="Fill-44" fill="#FF785E" mask="url(#mask-2)"></path>
                                <path d="M52.096,14.2895135 C52.0736577,14.1626667 52.0491532,14.0387027 52.0232072,13.9172613 C51.8448288,13.0851892 51.5003243,13.1305946 50.6203243,12.7439279 C50.016,12.4783423 49.2956396,12.5687928 48.6686126,12.7428468 C48.4837477,12.7943784 48.3014054,12.8541982 48.1212252,12.9194234 C47.723027,13.0635676 47.3161802,13.0952793 46.9006847,13.0462703 C46.6019459,13.0113153 46.7824865,13.6787027 46.6426667,13.9587027 C46.2242883,14.7954595 44.197982,21.2527568 48.5907748,20.9738378 C49.3969009,20.9226667 52.0772613,19.7187027 52.1259099,17.3096937 C52.1460901,16.2974414 52.2718559,15.2848288 52.096,14.2895135" id="Fill-45" fill="#FF9885" mask="url(#mask-2)"></path>
                                <path d="M51.9580541,17.9122883 C52.0751712,18.0506667 52.9980541,17.805982 52.9140901,16.6337297 C52.8571532,15.8376937 52.2103063,15.7858018 51.9043604,16.113009 C51.4056216,16.6467027 51.6283243,17.5227387 51.9580541,17.9122883" id="Fill-46" fill="#FF9885" mask="url(#mask-2)"></path>
                                <path d="M52.4196036,17.5477117 C52.4116757,17.5477117 52.403027,17.5466306 52.3947387,17.5441081 C52.2131171,17.4886126 52.0747387,17.3242883 52.0149189,17.0929369 C51.9471712,16.8313153 51.9864505,16.4569009 52.2260901,16.2100541 C52.2592432,16.1758198 52.3136577,16.1747387 52.3478919,16.2078919 C52.3821261,16.2414054 52.3828468,16.2958198 52.3496937,16.3300541 C52.1569009,16.528973 52.1262703,16.8349189 52.1817658,17.0496937 C52.2260901,17.2219459 52.3219459,17.3419459 52.4448288,17.3790631 C52.4902342,17.3927568 52.5158198,17.441045 52.5021261,17.4864505 C52.490955,17.5239279 52.4567207,17.5477117 52.4196036,17.5477117" id="Fill-47" fill="#FF785E" mask="url(#mask-2)"></path>
                                <path d="M50.7191351,14.2668108 C50.6131892,15.2563604 50.214991,17.2523964 52.1472432,16.9295135 C52.9504865,16.7954595 53.140036,16.3014054 53.1227387,15.9046486 C53.0888649,15.1053694 52.8503063,14.7024865 52.5281441,13.9842883 C52.3003964,13.4769009 51.4773333,12.4372613 50.8899459,12.9006847 C50.2358919,13.4170811 50.8211171,13.3132973 50.7191351,14.2668108" id="Fill-48" fill="#00327D" mask="url(#mask-2)"></path>
                                <path d="M46.3337658,12.5716396 C47.0905225,11.7392072 48.1672793,11.1864144 49.2962883,11.1226306 C49.9759279,11.0844324 50.7020541,11.2285766 51.1986306,11.6938018 C51.598991,12.0689369 51.7968288,12.6386667 51.7470991,13.1824505 C51.7305225,13.3640721 51.7168288,13.5597477 51.613045,13.7107387 C50.2642162,15.6743423 46.5633153,15.2509189 45.8959279,15.1179459 C44.6876396,14.8772252 45.9507027,12.9932613 46.3337658,12.5716396" id="Fill-49" fill="#00327D" mask="url(#mask-2)"></path>
                                <path d="M46.3856577,30.0322162 C49.0746667,31.2516757 51.5852973,31.6700541 54.3759279,30.2473514 C51.4458378,30.6938378 49.771964,30.6938378 46.3856577,30.0322162" id="Fill-50" fill="#C34A4A" mask="url(#mask-2)"></path>
                                <path d="M46.5157117,32.6256577 C47.2883243,32.0144865 47.7733694,31.0901622 47.982018,30.1276396 C48.1906667,29.1651171 48.1416577,28.162955 47.9892252,27.189982 C47.718955,25.4652973 47.1243604,23.7917838 46.2458018,22.2833153 C45.7286847,22.5391712 45.3571532,22.9625946 45.0976937,23.4775495 C46.8234595,26.1705225 47.4685045,29.5726847 46.5157117,32.6256577" id="Fill-51" fill="#3468BF" mask="url(#mask-2)"></path>
                                <path d="M54.5648649,29.4876396 C54.210991,26.413045 53.7922523,23.6238559 53.7554955,23.2818739 C53.7201802,22.9557477 53.2758559,22.5784505 52.9558559,22.5081802 C53.1263063,24.6328649 53.6055856,26.900973 54.2877477,28.9207928 C54.3879279,29.2166486 54.4099099,29.2166486 54.5648649,29.4876396" id="Fill-52" fill="#3468BF" mask="url(#mask-2)"></path>
                                <path d="M53.6812252,37.4301622 L48.6606847,38.1274595 L50.1947387,68.2507027 C50.3341982,68.6690811 51.8127568,69.3508829 51.9169009,68.7887207 L51.5893333,68.1112432 L53.6812252,37.4301622 Z" id="Fill-53" fill="#FE9B88" mask="url(#mask-2)"></path>
                                <path d="M48.4248288,53.3115315 C48.6349189,51.1508108 49.3628468,45.6596396 49.8655495,41.0113514 C48.1765405,40.8877477 46.3570811,40.1684685 44.512036,40.5201802 C44.8241081,44.3508108 44.9549189,50.7072072 44.9844685,52.8809009 C44.9891532,53.232973 44.9484324,53.5818018 44.8626667,53.9230631 C44.4006847,55.7565766 41.534018,67.8758559 41.5012252,67.9821622 C41.6994234,67.9818018 42.6132973,68.2405405 42.857982,68.3345946 C44.6349189,64.0758559 47.441045,56.1327928 48.1314955,54.4794595 C48.2871712,54.1068468 48.3859099,53.7136937 48.4248288,53.3115315" id="Fill-54" fill="#FE9B88" mask="url(#mask-2)"></path>
                                <path d="M54.2184144,51.4494054 C53.6605766,51.7283243 44.9726486,51.4198559 42.6641802,50.8184144 C42.6641802,50.8184144 41.5276036,39.176973 44.7557117,36.733009 C47.8238198,37.1513874 50.4872432,37.2832793 54.2393153,36.733009 C54.7762523,41.8267027 54.2184144,51.4494054 54.2184144,51.4494054" id="Fill-55" fill="#003D75" mask="url(#mask-2)"></path>
                                <path d="M43.0759279,67.8936577 C43.7498018,68.2194234 44.5411532,68.6983423 44.8953874,69.3664505 C44.8251171,69.3531171 44.5934054,69.4806847 44.5231351,69.4857297 C43.4878198,69.5617658 42.280973,69.5347387 41.2694414,69.226991 C41.1501622,68.928973 41.4788108,67.9502342 41.6236757,67.6778018 C41.8388108,67.761045 41.8946667,68.1214054 42.1022342,68.0392432 C42.3098018,67.9574414 42.513045,67.8507748 42.7386306,67.8374414 C42.8489009,67.830955 42.9739459,67.8442883 43.0759279,67.8936577" id="Fill-56" fill="#FE9B88" mask="url(#mask-2)"></path>
                                <path d="M44.197982,68.5297297 C43.8113153,68.9704505 42.9428468,69.3664865 41.3648288,69.1106306 C41.2282523,69.0882883 41.1197838,69.1664865 41.1259099,69.3045045 C41.1259099,69.3066667 41.1259099,69.3084685 41.1259099,69.3102703 C41.1244685,69.3585586 41.1237477,69.390991 41.1233874,69.3938739 C41.1150991,69.4738739 42.0513153,69.6857658 43.2141982,69.867027 C44.290955,70.034955 45.1839279,70.1174775 45.3169009,70.0655856 C45.3287928,70.0677477 45.336,70.0691892 45.336,70.0695495 C45.3608649,69.7236036 45.3114955,68.9059459 44.6163604,68.6691892 C44.5219459,68.6367568 44.197982,68.5297297 44.197982,68.5297297" id="Fill-57" fill="#00327D" mask="url(#mask-2)"></path>
                                <path d="M54.9104505,69.1698739 C53.5032432,68.3806847 51.8945946,67.9381622 50.3169369,67.776 C50.1655856,68.3100541 50.0192793,68.9500541 50.1947748,69.6451892 L50.4675676,69.6657297 C52.1345946,69.9860901 53.8441441,70.0048288 55.4859459,69.7208649 C55.3983784,69.4657297 55.1472072,69.3028468 54.9104505,69.1698739" id="Fill-58" fill="#FE9B88" mask="url(#mask-2)"></path>
                                <path d="M53.5397477,68.3668108 C53.361009,68.7113153 53.2514595,69.0936577 53.2287568,69.4882523 C52.7303784,69.5585225 52.2251532,69.5916757 51.7181261,69.5873514 C51.2673153,69.5833874 50.8154234,69.5505946 50.3660541,69.4878919 C50.3022703,69.4792432 50.2363243,69.4723964 50.1707387,69.4644685 C50.0514595,69.4500541 49.9530811,69.5603243 49.9862342,69.676 C49.9862342,69.6767207 49.9865946,69.6774414 49.986955,69.6781622 C50.0345225,69.8442883 50.4316396,69.8821261 50.5577658,69.9048288 C50.9444324,69.9747387 51.3365045,70.0057297 51.7260541,70.0323964 C52.7004685,70.0987027 53.6777658,70.1224865 54.6492973,70.088973 C55.0219099,70.076 55.3952432,70.0345586 55.7581261,69.961045 C55.7631712,69.9603243 55.7682162,69.9592432 55.7732613,69.9581622 C55.666955,68.9718559 53.6637117,68.4165405 53.5397477,68.3668108" id="Fill-59" fill="#00327D" mask="url(#mask-2)"></path>
                                <path d="M56.1882523,34.8872432 C56.172036,34.0843604 56.1666306,33.2814775 56.1738378,32.4782342 C54.2978018,32.9812973 52.0657297,33.3967928 49.5796036,33.6112072 C49.6462703,34.1676036 49.7457297,34.9834595 49.8596036,35.9157117 C52.0102342,36.0548108 54.1904144,35.6962523 56.1882523,34.8872432" id="Fill-60" fill="#003D75" mask="url(#mask-2)"></path>
                                <path d="M56.1616937,35.9273153 C56.2489009,35.1291171 56.3472793,34.3323604 56.4575495,33.5366847 C54.5325045,33.793982 52.2654775,33.9183063 49.7725045,33.8109189 C49.7667387,34.3712793 49.7606126,35.1929009 49.753045,36.1323604 C51.8683604,36.5471351 54.0762883,36.4725405 56.1616937,35.9273153" id="Fill-61" fill="#FFFFFF" mask="url(#mask-2)"></path>
                                <path d="M48.9189189,34.1565045 L48.3776577,35.2963243 C49.4767568,35.6905586 51.1772973,36.3103784 52.0036036,35.1565045 C52.4767568,34.495964 49.7556757,34.017045 48.9189189,34.1565045" id="Fill-62" fill="#FE9B88" mask="url(#mask-2)"></path>
                                <path d="M44.6122162,24.2787748 C45.0471712,24.8286847 45.5884324,27.3468829 45.5884324,28.0441802 C45.479964,29.0524685 44.8745586,30.1119279 44.1772613,32.4830991 C45.9902342,32.9011171 48.2215856,33.7382342 49.3372613,34.1566126 C49.3862703,34.6441802 48.7801441,35.3021982 48.7794234,35.4117477 C48.3451892,35.2784144 44.0378018,35.2719279 41.666991,33.8776937 C42.0143784,30.8452613 43.1783423,26.7962523 44.6122162,24.2787748" id="Fill-63" fill="#FE9B88" mask="url(#mask-2)"></path>
                                <path d="M44.6787027,31.1231712 C45.1075315,30.0752432 45.5136577,28.7379459 45.5882523,28.0442523 C45.5882523,27.346955 45.046991,24.8287568 44.612036,24.2788468 C43.6848288,25.906955 42.6963604,28.2521802 42.0196036,30.5260541 C42.9060901,30.7253333 43.7922162,30.9242523 44.6787027,31.1231712" id="Fill-64" fill="#C34A4A" mask="url(#mask-2)"></path>
                                <path d="M14.8384865,39.3433514 C15.2608288,38.8593874 17.7602883,37.0201081 17.8871351,37.5422703 L17.6604685,38.8046126 C17.4831712,39.7938018 16.6157838,40.5260541 15.6114595,40.4957838 C15.6031712,40.4954234 15.5948829,40.4950631 15.5862342,40.4947027 C14.9642523,40.4712793 14.3761441,39.8734414 14.8384865,39.3433514" id="Fill-65" fill="#FF9885" mask="url(#mask-2)"></path>
                                <polygon id="Fill-66" fill="#FFFFFF" mask="url(#mask-2)" points="16.4977658 40.366018 15.4656937 46.455027 16.1925405 46.455027 17.224973 40.366018"></polygon>
                                <polygon id="Fill-67" fill="#FFFFFF" mask="url(#mask-2)" points="12.645009 46.455027 13.3718559 46.455027 14.4042883 40.366018 13.6774414 40.366018"></polygon>
                                <path d="M17.8806126,40.0746306 C17.8146667,39.9960721 17.7159279,39.951027 17.609982,39.951027 L13.2110631,39.951027 C13.0157477,39.951027 12.8366486,40.1027387 12.8024144,40.2962523 L12.6914234,40.9272432 C12.671964,41.0360721 12.7000721,41.1452613 12.7678198,41.225982 C12.8352072,41.3063423 12.9361081,41.3521081 13.0449369,41.3521081 C13.2449369,41.3521081 13.4290811,41.1967928 13.464036,40.9978739 L13.5058378,40.7607568 L17.1007928,40.7607568 L17.0712432,40.9272432 C17.0521441,41.0360721 17.0798919,41.1452613 17.148,41.225982 C17.215027,41.3063423 17.3162883,41.3521081 17.4247568,41.3521081 C17.6251171,41.3521081 17.8092613,41.1967928 17.8442162,40.9978739 L17.9555676,40.3665225 C17.9743063,40.2602162 17.9472793,40.1535495 17.8806126,40.0746306" id="Fill-68" fill="#00327D" mask="url(#mask-2)"></path>
                                <path d="M17.0945946,68.7739459 L17.1637838,68.3807928 C17.1814414,68.2820541 17.1154955,68.2020541 17.0167568,68.2020541 C16.9176577,68.2020541 16.8236036,68.2820541 16.8063063,68.3807928 L16.7410811,68.7498018 C16.6614414,68.7483604 16.5688288,68.7469189 16.4614414,68.7469189 C16.0866667,68.7469189 15.7291892,69.0510631 15.6632432,69.4254775 C15.5972973,69.8002523 15.8473874,70.104036 16.2221622,70.104036 L16.6812613,70.104036 C17.056036,70.104036 17.4131532,69.8002523 17.4790991,69.4254775 C17.5345946,69.113045 17.3681081,68.8528649 17.0945946,68.7739459" id="Fill-69" fill="#00327D" mask="url(#mask-2)"></path>
                                <path d="M6.24947748,68.7739459 L6.31866667,68.3807928 C6.33632432,68.2820541 6.27037838,68.2020541 6.17163964,68.2020541 C6.0729009,68.2020541 5.97884685,68.2820541 5.96118919,68.3807928 L5.89632432,68.7498018 C5.81632432,68.7483604 5.72371171,68.7469189 5.61632432,68.7469189 C5.24154955,68.7469189 4.88407207,69.0510631 4.81812613,69.4254775 C4.75218018,69.8002523 5.00227027,70.104036 5.37704505,70.104036 L5.83614414,70.104036 C6.21091892,70.104036 6.5683964,69.8002523 6.63434234,69.4254775 C6.68947748,69.113045 6.52299099,68.8528649 6.24947748,68.7739459" id="Fill-70" fill="#00327D" mask="url(#mask-2)"></path>
                                <path d="M3.01063063,68.6307387 L5.45243243,68.6307387 L9.3954955,46.2689369 L6.95369369,46.2689369 C5.7209009,46.2689369 4.54540541,47.2682162 4.32810811,48.501009 L1.17207207,66.3986667 C0.954774775,67.6314595 1.77783784,68.6307387 3.01063063,68.6307387" id="Fill-71" fill="#C34A4A" mask="url(#mask-2)"></path>
                                <path d="M5.4523964,68.6307387 L16.6534775,68.6307387 C17.8859099,68.6307387 19.0614054,67.6314595 19.2790631,66.3986667 L22.4347387,48.501009 C22.652036,47.2682162 21.828973,46.2689369 20.5961802,46.2689369 L9.39545946,46.2689369 L5.4523964,68.6307387 Z" id="Fill-72" fill="#FD5D5B" mask="url(#mask-2)"></path>
                                <polygon id="Fill-73" fill="#C34A4A" mask="url(#mask-2)" points="2.65009009 58.0175135 20.7567568 58.0175135 20.9567568 56.8823784 2.85009009 56.8823784"></polygon>
                                <polygon id="Fill-74" fill="#C34A4A" mask="url(#mask-2)" points="2.65009009 58.0175135 7.30882883 58.0175135 7.50882883 56.8823784 2.85009009 56.8823784"></polygon>
                                <path d="M4.33120721,55.6185225 L5.45553153,55.6185225 C5.59499099,55.6185225 5.7276036,55.5057297 5.75210811,55.3662703 C5.77697297,55.2268108 5.68363964,55.114018 5.54454054,55.114018 L4.42021622,55.114018 C4.28075676,55.114018 4.14814414,55.2268108 4.12327928,55.3662703 C4.09877477,55.5057297 4.19174775,55.6185225 4.33120721,55.6185225" id="Fill-75" fill="#FFFFFF" mask="url(#mask-2)"></path>
                                <path d="M3.5963964,59.7857297 L4.72072072,59.7857297 C4.86018018,59.7857297 4.99279279,59.6729369 5.0172973,59.5334775 C5.04216216,59.3943784 4.94882883,59.2812252 4.80972973,59.2812252 L3.68540541,59.2812252 C3.54594595,59.2812252 3.41333333,59.3943784 3.38846847,59.5334775 C3.36396396,59.6729369 3.45693694,59.7857297 3.5963964,59.7857297" id="Fill-76" fill="#FFFFFF" mask="url(#mask-2)"></path>
                                <path d="M3.41412613,60.2153874 L3.41412613,60.2153874 C3.64331532,60.2153874 3.86169369,60.0294414 3.90205405,59.8006126 L4.73124324,55.098991 C4.7716036,54.8701622 4.61845045,54.6842162 4.38962162,54.6842162 C4.16043243,54.6842162 3.94169369,54.8701622 3.90169369,55.098991 L3.0725045,59.8006126 C3.03214414,60.0294414 3.18493694,60.2153874 3.41412613,60.2153874" id="Fill-77" fill="#00327D" mask="url(#mask-2)"></path>
                                <path d="M5.30742342,52.5068829 L5.30742342,52.5068829 C5.59859459,52.5068829 5.87607207,52.2708468 5.92724324,51.980036 L6.49156757,48.7803964 C6.54273874,48.4895856 6.3485045,48.2535495 6.05769369,48.2535495 C5.76652252,48.2535495 5.48904505,48.4895856 5.43787387,48.7803964 L4.87354955,51.980036 C4.82237838,52.2708468 5.01661261,52.5068829 5.30742342,52.5068829" id="Fill-78" fill="#3468BF" mask="url(#mask-2)"></path>
                                <path d="M2.81445045,66.6461261 L2.81445045,66.6461261 C3.10526126,66.6461261 3.38273874,66.4100901 3.43390991,66.1192793 L3.99823423,62.9196396 C4.04940541,62.6288288 3.85517117,62.3927928 3.56436036,62.3927928 C3.27318919,62.3927928 2.99607207,62.6288288 2.94454054,62.9196396 L2.38057658,66.1192793 C2.32904505,66.4100901 2.52327928,66.6461261 2.81445045,66.6461261" id="Fill-79" fill="#3468BF" mask="url(#mask-2)"></path>
                                <path d="M15.393982,39.3597117 C15.1835315,39.3193514 14.9283964,39.3301622 14.7792072,39.4685405 C14.6718198,39.5676396 14.646955,39.7089009 14.652,39.8386306 C14.6689369,40.2696216 14.9817297,40.6725045 15.442991,40.8573694 C15.6563243,40.9427748 15.9154234,40.9820541 16.1402883,40.9002523 C16.5705586,40.7434955 16.6945225,40.3096216 16.5456937,40.0375495 C16.3716396,39.7193514 15.8109189,39.4397117 15.393982,39.3597117" id="Fill-80" fill="#FF9885" mask="url(#mask-2)"></path>
                                <path d="M39.1337855,68.2561081 L39.0134054,62.5728649 C38.946018,62.1213333 36.7856577,62.1234955 36.8523243,62.5728649 L37.4973694,68.3224144 C37.715027,69.2182703 39.1398919,68.8171892 39.1337855,68.2561081" id="Fill-81" fill="#FFFFFF" mask="url(#mask-2)"></path>
                                <path d="M25.6814775,67.5652973 L27.6050811,62.4168288 C27.7546306,61.9858378 25.7924685,62.0935856 25.6436396,62.5227748 L24.2184144,67.2114234 C23.9964324,68.1061982 25.4270631,68.0654775 25.6814775,67.5652973" id="Fill-82" fill="#FFFFFF" mask="url(#mask-2)"></path>
                                <path d="M42.7542703,69.7033514 C42.7593153,69.7022703 42.764,69.7011892 42.769045,69.6997477 C42.6843604,68.7444324 42.4739099,68.2583063 41.0108468,68.2896577 C40.4854414,68.3004685 40.0432793,67.9047928 39.8602162,67.4060541 C39.8594955,67.4042523 39.8587748,67.4020901 39.8580541,67.4002883 C39.7740901,67.179027 39.4641802,67.1613694 39.3470631,67.3671351 C39.1517477,67.7105586 38.9438198,67.9310991 38.527964,67.9509189 C38.2378739,67.964973 37.9485045,67.9411892 37.6584144,67.9530811 C36.8782342,67.9851532 37.0256216,69.1235315 37.1578739,69.613982 C37.2011171,69.773982 37.5856216,69.7981261 37.7077838,69.8161441 C38.0818378,69.8712793 38.462018,69.8889369 38.8393153,69.9022703 C39.7841802,69.9357838 40.7322883,69.9271351 41.6753514,69.8633514 C42.0378739,69.8384865 42.4007568,69.7865946 42.7542703,69.7033514" id="Fill-83" fill="#00327D" mask="url(#mask-2)"></path>
                                <path d="M24.2024144,66.8227748 C24.3415135,66.7326847 24.366018,66.8108829 24.4402523,66.8112432 C24.6636757,66.813045 24.8380901,66.8256577 25.0287207,66.7514234 C25.2683604,66.6577297 25.4121441,66.5820541 25.6824144,66.6512432 C26.0078198,66.7352072 26.4200721,66.7907027 26.4914234,67.2681802 C26.4917838,67.2710631 26.5083604,67.9755676 26.5843964,68.0670991 C26.6344865,68.0966486 26.7325045,68.0764685 26.7735856,68.0800721 C27.560973,68.1470991 27.7206126,68.7593514 27.7166486,69.4620541 C27.6834955,69.4645766 27.7393514,69.4526847 27.6856577,69.4620541 C27.0287207,69.5755676 25.2377297,69.5957477 25.2377297,69.5957477 C25.2377297,69.5957477 23.7905225,69.0872793 23.3436757,68.6051171 C23.3267387,68.5870991 23.3544865,68.5752072 23.366018,68.5157477 C23.462955,68.0047568 23.7696216,67.1034955 24.2024144,66.8227748" id="Fill-84" fill="#00327D" mask="url(#mask-2)"></path>
                                <path d="M33.3717117,22.1706306 C34.463964,22.6520721 36.14,23.1381982 37.1227027,24.6221622 C38.1900901,29.5003604 38.6502703,34.9057658 43.4264865,37.7774775 C43.7504505,37.8794595 45.4333333,38.5875676 45.5864865,38.6888288 C45.8401802,38.8571171 45.5818018,39.170991 45.496036,39.4783784 C45.3861261,39.8733333 45.1331532,40.1479279 42.0931532,38.9291892 C36.6884685,36.7630631 32.2956757,29.4236036 33.3717117,22.1706306" id="Fill-85" fill="#FF9885" mask="url(#mask-2)"></path>
                                <path d="M37.5957477,28.0322883 C37.9474595,29.1836396 38.4966486,30.2748108 39.2126847,31.2427387 C38.7647568,32.3230991 37.7759279,33.1450811 36.6692613,33.5249009 C36.4094414,32.0917477 36.2757477,30.7375135 36.3834955,29.2852613 C36.4072793,28.962018 36.4443964,28.6268829 36.6126847,28.3497658 C36.7813333,28.073009 37.2843964,27.9425586 37.5957477,28.0322883" id="Fill-86" fill="#9EBFFF" mask="url(#mask-2)"></path>
                                <path d="M24.427964,65.5433874 C25.0697658,65.7812252 25.7140901,65.9286126 26.3558919,66.1664505 C29.658955,56.7639279 30.9151712,50.8435676 31.1144505,40.8241081 C29.5494054,40.6302342 27.9829189,40.4507748 26.4171532,40.2673514 C27.1277838,50.1642883 26.7256216,55.8969009 24.427964,65.5433874" id="Fill-87" fill="#85B8ED" mask="url(#mask-2)"></path>
                                <path d="M36.9571892,66.9837838 C37.6404324,67.027027 38.8786306,67.0295495 39.1485405,66.8944144 C39.611964,56.9394595 38.9492613,51.04 36.2620541,41.3859459 C34.7078198,41.6493694 33.1553874,41.9275676 31.602955,42.2014414 C35.1261982,51.4771171 36.3874595,57.083964 36.9571892,66.9837838" id="Fill-88" fill="#85B8ED" mask="url(#mask-2)"></path>
                                <path d="M26.7977658,43.0562162 C26.3271351,41.645045 26.3271351,39.7927928 26.573982,38.6266667 C29.8132613,38.2497297 33.8651532,37.741982 37.1026306,38.1279279 C37.1141622,39.6666667 37.437045,42.0554955 36.8323604,43.5300901 C36.5761441,43.5333333 32.2608288,44.8803604 26.7977658,43.0562162" id="Fill-89" fill="#85B8ED" mask="url(#mask-2)"></path>
                                <path d="M36.2922523,40.2887928 C36.2922523,41.6314955 31.6803604,42.7197838 29.4043243,41.9093333 C27.4367568,41.2087928 29.0194595,40.2808649 29.0194595,38.9381622 C29.0194595,37.5954595 30.7124324,36.5071712 32.8010811,36.5071712 C34.8893694,36.5071712 36.2922523,38.9460901 36.2922523,40.2887928" id="Fill-90" fill="#FFFFFF" mask="url(#mask-2)"></path>
                                <path d="M27.9388468,24.0820541 C24.6974054,27.8636757 18.882991,35.7022342 16.8642523,37.8579099 C17.1114595,38.6917838 16.7716396,38.4961081 17.5395676,38.9382703 C25.3727207,32.8607928 29.5597477,29.4842162 32.935964,23.1364685 C30.6674955,23.0932252 29.8530811,22.8921441 27.9388468,24.0820541" id="Fill-91" fill="#FF9885" mask="url(#mask-2)"></path>
                                <path d="M27.3986667,24.0820541 L22.2087568,30.8993514 C22.615964,32.2625946 23.4819099,33.2658378 24.6974054,33.806018 C25.7781261,32.8607928 26.8238919,31.9937658 27.9388468,30.8348468 C27.7561441,28.8971892 27.5817297,26.0197117 27.3986667,24.0820541" id="Fill-92" fill="#003D75" mask="url(#mask-2)"></path>
                                <path d="M38.0866667,28.8828829 C38.0866667,26.2288288 37.2675676,23.9099099 35.367027,22.8666667 C32.9717117,21.5517117 29.2502703,22.0201802 27.6686486,23.6771171 C26.4106306,24.994955 26.5345946,27.0745946 26.3893694,28.8915315 C26.0895495,32.658018 25.912973,39.4043243 26.1832432,42.1794595 C26.2084685,42.4389189 28.401982,42.5308108 31.4502703,42.4497297 C31.7882883,40.8482883 32.3277477,39.1891892 32.6657658,37.5877477 C32.6412613,39.1884685 32.936036,42.4497297 32.936036,42.4497297 C35.8452252,42.3527928 38.5745946,42.0789189 38.6081081,41.7744144 C38.7021622,40.9275676 38.0866667,28.8828829 38.0866667,28.8828829" id="Fill-93" fill="#003D75" mask="url(#mask-2)"></path>
                                <path d="M30.639964,22.0562523 C31.1257297,23.6227387 31.8554595,25.1625586 32.3956396,26.9182342 C32.6032072,26.3124685 33.8518559,23.087964 34.1513153,22.0562523 C33.1268108,21.800036 31.6806847,21.8811171 30.639964,22.0562523" id="Fill-94" fill="#FF9885" mask="url(#mask-2)"></path>
                                <path d="M31.2853694,23.8582342 C31.6875315,24.9007568 32.1192432,25.9796757 32.4064505,27.0531892 C32.614018,26.4474234 33.070955,25.4326486 33.070955,25.4326486 C33.070955,25.4326486 33.2990631,24.7476036 33.556,23.9551712 C33.1916757,24.0485045 32.8143784,24.091027 32.4381622,24.0773333 C32.0457297,24.0632793 31.6561802,23.9876036 31.2853694,23.8582342" id="Fill-95" fill="#FFFFFF" mask="url(#mask-2)"></path>
                                <path d="M33.7463063,22.4615135 C33.8407207,22.0834955 33.6634234,19.6982703 33.6652252,19.160973 L30.5607207,17.7498018 C30.6133333,18.9076396 30.8176577,21.0528649 31.045045,22.1912432 C31.1801802,22.8665586 33.4864865,23.511964 33.7412613,22.4816937 C33.7430631,22.4748468 33.7445045,22.468 33.7463063,22.4615135" id="Fill-96" fill="#FF9885" mask="url(#mask-2)"></path>
                                <path d="M30.5606126,17.7499099 L33.6651171,19.1610811 C33.6651171,19.1636036 33.7461982,19.2172973 33.7461982,19.2201802 C33.7461982,19.7722523 33.7735856,22.0922523 33.7461982,22.1913514 C33.3411532,22.1473874 32.7905225,21.9956757 32.4272793,21.8140541 C31.5768288,21.3891892 31.0096216,20.5906306 30.6489009,19.6324324 C30.6089009,18.9809009 30.5869189,18.3275676 30.5606126,17.7499099" id="Fill-97" fill="#FF785E" mask="url(#mask-2)"></path>
                                <path d="M29.6394595,13.2212973 C29.6646847,13.080036 29.6920721,12.9416577 29.7212613,12.8068829 C29.9205405,11.880036 30.2866667,11.2508468 31.2272072,10.8104865 C31.872973,10.5081441 32.6383784,10.6003964 33.3032432,10.7863423 C33.4989189,10.8414775 35.2221622,12.0144505 35.238018,12.1971532 C35.4163964,14.249045 36.9385586,16.5805766 36.4578378,18.6263423 C35.9025225,20.9899459 33.1245045,21.8555315 31.1908108,20.5034595 C29.1854054,19.1012973 29.263964,15.613009 29.5954955,13.4832793 C29.6091892,13.3957117 29.623964,13.3085045 29.6394595,13.2212973" id="Fill-98" fill="#FF9885" mask="url(#mask-2)"></path>
                                <path d="M29.8256216,17.6471351 C29.7012973,17.7938018 28.7225586,17.5343423 28.8115676,16.2907387 C28.8717477,15.4464144 29.5578739,15.3912793 29.8825586,15.7386667 C30.4112072,16.3044324 30.1751712,17.2338018 29.8256216,17.6471351" id="Fill-99" fill="#FF9885" mask="url(#mask-2)"></path>
                                <path d="M29.335964,17.2524685 C29.3002883,17.2524685 29.2671351,17.2294054 29.2563243,17.193009 C29.242991,17.149045 29.2674955,17.1025586 29.3118198,17.0892252 C29.4447928,17.0488649 29.5482162,16.9194955 29.5961441,16.7342703 C29.6556036,16.504 29.6228108,16.1764324 29.4156036,15.9630991 C29.3835315,15.9299459 29.3842523,15.876973 29.4174054,15.8449009 C29.4505586,15.8128288 29.5031712,15.8139099 29.5352432,15.8467027 C29.7874955,16.1065225 29.8285766,16.5007568 29.7575856,16.7760721 C29.6952432,17.018955 29.550018,17.1912072 29.3601081,17.2488649 C29.3521802,17.2513874 29.3438919,17.2524685 29.335964,17.2524685" id="Fill-100" fill="#FF785E" mask="url(#mask-2)"></path>
                                <path d="M31.2192136,13.798955 C31.221009,14.6616577 30.8386667,15.5751712 30.606955,16.3964324 C30.5738018,16.5146306 30.5114595,16.656973 30.3889369,16.6609369 C30.2909189,16.6641802 30.2188468,16.5737297 30.1640721,16.4926486 C29.8440721,16.0191351 29.3067748,15.576973 29.3287568,14.9935495 C29.3384865,14.7438198 29.4001081,13.4227387 29.5961441,13.2919279 C29.8228108,13.1384144 30.079027,13.0476036 30.3366847,13.0043604 C30.6887568,12.9456216 31.2188468,13.5737297 31.2192136,13.798955" id="Fill-101" fill="#003D75" mask="url(#mask-2)"></path>
                                <path d="M34.9525045,12.4410811 C34.0393514,12.4108108 31.0307027,12.4118919 30.5341261,12.4720721 C30.3272793,12.5927928 30.173045,12.6832432 30.1236757,12.7102703 C29.3027748,13.1614414 28.4422342,13.5899099 27.6256577,14.0594595 C27.4807928,14.1430631 27.5398919,14.3059459 27.7070991,14.3535135 C30.3946667,15.114955 34.7553874,14.7884685 37.2112432,13.5953153 C37.3683604,13.5189189 37.4011532,13.3531532 37.235027,13.2911712 L34.9525045,12.4410811 Z" id="Fill-102" fill="#C34A4A" mask="url(#mask-2)"></path>
                                <path d="M34.467027,10.3841441 C33.8140541,9.87243243 30.4994595,10.0832432 29.8789189,10.6590991 C29.8789189,10.6590991 29.314955,13.2028829 29.3185414,13.2389189 C29.3448649,13.4836036 30.7585586,13.5798198 32.4763964,13.4540541 C34.0998198,13.3354955 35.4133333,13.0609009 35.5300901,12.8245045 C35.5535135,12.8183784 34.467027,10.3841441 34.467027,10.3841441" id="Fill-103" fill="#FD5D5B" mask="url(#mask-2)"></path>
                                <path d="M34.4707387,10.4017297 C34.497045,10.6460541 33.488036,10.9195676 32.2174054,11.0125405 C30.9464144,11.1055135 29.8952432,10.9826306 29.8685766,10.7383063 C29.8426306,10.4936216 30.8516396,10.2204685 32.1222703,10.1274955 C33.3929009,10.0345225 34.4444324,10.1574054 34.4707387,10.4017297" id="Fill-104" fill="#C34A4A" mask="url(#mask-2)"></path>
                                <polygon id="Fill-105" fill="#9EBFFF" mask="url(#mask-2)" points="30.639964 21.7861622 29.4244685 22.5966126 30.8976216 25.5176937 31.1981622 24.4103063 31.8554595 25.2975135"></polygon>
                                <polygon id="Fill-106" fill="#9EBFFF" mask="url(#mask-2)" points="34.0163964 21.9211171 35.0967568 22.7315676 33.8938739 25.653009 33.592973 24.5452613 33.0708108 25.4328288"></polygon>
                                <path d="M32.2211171,28.404973 C32.4070631,28.4204685 32.5450811,28.5837117 32.5295856,28.7696577 C32.5140901,28.9552432 32.3508468,29.0936216 32.1652613,29.0781261 C31.9793153,29.0626306 31.8412973,28.8993874 31.8567928,28.7134414 C31.8722883,28.5274955 32.0351712,28.3894775 32.2211171,28.404973" id="Fill-107" fill="#9EBFFF" mask="url(#mask-2)"></path>
                                <path d="M32.2211171,31.9165766 C32.4070631,31.9320721 32.5450811,32.0953153 32.5295856,32.2809009 C32.5140901,32.4668468 32.3508468,32.6048649 32.1652613,32.5893694 C31.9793153,32.5738739 31.8412973,32.410991 31.8567928,32.2246847 C31.8722883,32.0390991 32.0351712,31.9010811 32.2211171,31.9165766" id="Fill-108" fill="#9EBFFF" mask="url(#mask-2)"></path>
                                <path d="M32.2211171,35.427964 C32.4070631,35.4434595 32.5450811,35.6067027 32.5295856,35.7922883 C32.5140901,35.9782342 32.3508468,36.1162523 32.1652613,36.1007568 C31.9793153,36.0852613 31.8412973,35.9223784 31.8567928,35.7364324 C31.8722883,35.5504865 32.0351712,35.4124685 32.2211171,35.427964" id="Fill-109" fill="#9EBFFF" mask="url(#mask-2)"></path>
                                <path d="M45.8505946,36.7400721 C45.1958198,36.3206126 44.5468108,35.8921441 43.9042883,35.4543063 C43.2981622,37.2348468 42.4304144,39.255027 41.2635676,41.3714234 C41.7471712,41.6171892 42.4574414,41.9764685 43.268973,42.3872793 C44.5396036,40.7310631 45.4253694,38.7836757 45.8505946,36.7400721" id="Fill-110" fill="#003D75" mask="url(#mask-2)"></path>
                                <path d="M46.403964,37.4838559 C45.8144144,36.9768288 45.2317117,36.4618739 44.6569369,35.9379099 C43.8075676,37.6161081 42.6652252,39.4943063 41.2133333,41.4261982 C41.6576577,41.7379099 42.3106306,42.193045 43.0565766,42.7137658 C44.5466667,41.2517838 45.6965766,39.4478198 46.403964,37.4838559" id="Fill-111" fill="#FFFFFF" mask="url(#mask-2)"></path>
                                <path d="M44.6794234,39.3738018 C44.5136577,39.6566847 44.3691532,40.2667748 44.6887928,40.3226306 C46.0361802,40.559027 46.1770811,39.184973 46.0361802,38.9381261 C45.677982,38.3107387 45.0988829,38.6581261 44.6794234,39.3738018" id="Fill-112" fill="#FF9885" mask="url(#mask-2)"></path>
                            </g>
                        </g>
                    </g>
                </g>
            </g>
        </g>
    </g>
</svg>