
<svg width="80px" height="74px" viewBox="0 0 80 74" version="1.1" xmlns="http://www.w3.org/2000/svg" xmlns:xlink="http://www.w3.org/1999/xlink">
    <defs>
        <path d="M36.4587907,0.280186047 C16.3233488,0.280186047 0,16.6035349 0,36.7389767 L0,36.7389767 C0,56.8747907 16.3233488,73.1977674 36.4587907,73.1977674 L36.4587907,73.1977674 C50.7501395,73.1977674 63.1185116,64.9733953 69.095814,53.0009302 L69.095814,53.0009302 L76.980093,48.1733953 L79.9836279,20.1484651 L71.3923721,13.2513488 L67.4809302,6.54623256 L60.2109767,9.08055814" id="path-1"></path>
        <path d="M36.4587907,0.280186047 C16.3233488,0.280186047 0,16.6035349 0,36.7389767 L0,36.7389767 C0,56.8747907 16.3233488,73.1977674 36.4587907,73.1977674 L36.4587907,73.1977674 C50.7501395,73.1977674 63.1185116,64.9733953 69.095814,53.0009302 L69.095814,53.0009302 L76.980093,48.1733953 L79.9836279,20.1484651 L71.3923721,13.2513488 L67.4809302,6.54623256 L60.2109767,9.08055814" id="path-3"></path>
        <path d="M36.4587907,0.280186047 C16.3233488,0.280186047 0,16.6035349 0,36.7389767 L0,36.7389767 C0,56.8747907 16.3233488,73.1977674 36.4587907,73.1977674 L36.4587907,73.1977674 C50.7501395,73.1977674 63.1185116,64.9733953 69.095814,53.0009302 L69.095814,53.0009302 L76.980093,48.1733953 L79.9836279,20.1484651 L71.3923721,13.2513488 L67.4809302,6.54623256 L60.2109767,9.08055814" id="path-5"></path>
        <path d="M36.4587907,0.280186047 C16.3233488,0.280186047 0,16.6035349 0,36.7389767 L0,36.7389767 C0,56.8747907 16.3233488,73.1977674 36.4587907,73.1977674 L36.4587907,73.1977674 C50.7501395,73.1977674 63.1185116,64.9733953 69.095814,53.0009302 L69.095814,53.0009302 L76.980093,48.1733953 L79.9836279,20.1484651 L71.3923721,13.2513488 L67.4809302,6.54623256 L60.2109767,9.08055814" id="path-7"></path>
        <path d="M36.4587907,0.280186047 C16.3233488,0.280186047 0,16.6035349 0,36.7389767 L0,36.7389767 C0,56.8747907 16.3233488,73.1977674 36.4587907,73.1977674 L36.4587907,73.1977674 C50.7501395,73.1977674 63.1185116,64.9733953 69.095814,53.0009302 L69.095814,53.0009302 L76.980093,48.1733953 L79.9836279,20.1484651 L71.3923721,13.2513488 L67.4809302,6.54623256 L60.2109767,9.08055814" id="path-9"></path>
        <path d="M36.4587907,0.280186047 C16.3233488,0.280186047 0,16.6035349 0,36.7389767 L0,36.7389767 C0,56.8747907 16.3233488,73.1977674 36.4587907,73.1977674 L36.4587907,73.1977674 C50.7501395,73.1977674 63.1185116,64.9733953 69.095814,53.0009302 L69.095814,53.0009302 L76.980093,48.1733953 L79.9836279,20.1484651 L71.3923721,13.2513488 L67.4809302,6.54623256 L60.2109767,9.08055814 C53.8310698,3.59590698 45.5322791,0.280186047 36.4587907,0.280186047 Z" id="path-11"></path>
        <path d="M36.4587907,0.280186047 C16.3233488,0.280186047 0,16.6035349 0,36.7389767 L0,36.7389767 C0,56.8747907 16.3233488,73.1977674 36.4587907,73.1977674 L36.4587907,73.1977674 C50.7501395,73.1977674 63.1185116,64.9733953 69.095814,53.0009302 L69.095814,53.0009302 L76.980093,48.1733953 L79.9836279,20.1484651 L71.3923721,13.2513488 L67.4809302,6.54623256 L60.2109767,9.08055814 C53.8310698,3.59590698 45.5322791,0.280186047 36.4587907,0.280186047 Z" id="path-13"></path>
        <path d="M36.4587907,0.280186047 C16.3233488,0.280186047 0,16.6035349 0,36.7389767 L0,36.7389767 C0,56.8747907 16.3233488,73.1977674 36.4587907,73.1977674 L36.4587907,73.1977674 C50.7501395,73.1977674 63.1185116,64.9733953 69.095814,53.0009302 L69.095814,53.0009302 L76.980093,48.1733953 L79.9836279,20.1484651 L71.3923721,13.2513488 L67.4809302,6.54623256 L60.2109767,9.08055814" id="path-15"></path>
        <path d="M36.4587907,0.280186047 C16.3233488,0.280186047 0,16.6035349 0,36.7389767 L0,36.7389767 C0,56.8747907 16.3233488,73.1977674 36.4587907,73.1977674 L36.4587907,73.1977674 C50.7501395,73.1977674 63.1185116,64.9733953 69.095814,53.0009302 L69.095814,53.0009302 L76.980093,48.1733953 L79.9836279,20.1484651 L71.3923721,13.2513488 L67.4809302,6.54623256 L60.2109767,9.08055814" id="path-17"></path>
        <path d="M36.4587907,0.280186047 C16.3233488,0.280186047 0,16.6035349 0,36.7389767 L0,36.7389767 C0,56.8747907 16.3233488,73.1977674 36.4587907,73.1977674 L36.4587907,73.1977674 C50.7501395,73.1977674 63.1185116,64.9733953 69.095814,53.0009302 L69.095814,53.0009302 L76.980093,48.1733953 L79.9836279,20.1484651 L71.3923721,13.2513488 L67.4809302,6.54623256 L60.2109767,9.08055814" id="path-19"></path>
        <path d="M36.4587907,0.280186047 C16.3233488,0.280186047 0,16.6035349 0,36.7389767 L0,36.7389767 C0,56.8747907 16.3233488,73.1977674 36.4587907,73.1977674 L36.4587907,73.1977674 C50.7501395,73.1977674 63.1185116,64.9733953 69.095814,53.0009302 L69.095814,53.0009302 L76.980093,48.1733953 L79.9836279,20.1484651 L71.3923721,13.2513488 L67.4809302,6.54623256 L60.2109767,9.08055814" id="path-21"></path>
        <path d="M36.4587907,0.280186047 C16.3233488,0.280186047 0,16.6035349 0,36.7389767 L0,36.7389767 C0,56.8747907 16.3233488,73.1977674 36.4587907,73.1977674 L36.4587907,73.1977674 C50.7501395,73.1977674 63.1185116,64.9733953 69.095814,53.0009302 L69.095814,53.0009302 L76.980093,48.1733953 L79.9836279,20.1484651 L71.3923721,13.2513488 L67.4809302,6.54623256 L60.2109767,9.08055814" id="path-23"></path>
        <path d="M36.4587907,0.280186047 C16.3233488,0.280186047 0,16.6035349 0,36.7389767 L0,36.7389767 C0,56.8747907 16.3233488,73.1977674 36.4587907,73.1977674 L36.4587907,73.1977674 C50.7501395,73.1977674 63.1185116,64.9733953 69.095814,53.0009302 L69.095814,53.0009302 L76.980093,48.1733953 L79.9836279,20.1484651 L71.3923721,13.2513488 L67.4809302,6.54623256 L60.2109767,9.08055814" id="path-25"></path>
        <path d="M36.4587907,0.280186047 C16.3233488,0.280186047 0,16.6035349 0,36.7389767 L0,36.7389767 C0,56.8747907 16.3233488,73.1977674 36.4587907,73.1977674 L36.4587907,73.1977674 C50.7501395,73.1977674 63.1185116,64.9733953 69.095814,53.0009302 L69.095814,53.0009302 L76.980093,48.1733953 L79.9836279,20.1484651 L71.3923721,13.2513488 L67.4809302,6.54623256 L60.2109767,9.08055814" id="path-27"></path>
        <path d="M36.4587907,0.280186047 C16.3233488,0.280186047 0,16.6035349 0,36.7389767 L0,36.7389767 C0,56.8747907 16.3233488,73.1977674 36.4587907,73.1977674 L36.4587907,73.1977674 C50.7501395,73.1977674 63.1185116,64.9733953 69.095814,53.0009302 L69.095814,53.0009302 L76.980093,48.1733953 L79.9836279,20.1484651 L71.3923721,13.2513488 L67.4809302,6.54623256 L60.2109767,9.08055814" id="path-29"></path>
        <path d="M36.4587907,0.280186047 C16.3233488,0.280186047 0,16.6035349 0,36.7389767 L0,36.7389767 C0,56.8747907 16.3233488,73.1977674 36.4587907,73.1977674 L36.4587907,73.1977674 C50.7501395,73.1977674 63.1185116,64.9733953 69.095814,53.0009302 L69.095814,53.0009302 L76.980093,48.1733953 L79.9836279,20.1484651 L71.3923721,13.2513488 L67.4809302,6.54623256 L60.2109767,9.08055814" id="path-31"></path>
        <path d="M36.4587907,0.280186047 C16.3233488,0.280186047 0,16.6035349 0,36.7389767 L0,36.7389767 C0,56.8747907 16.3233488,73.1977674 36.4587907,73.1977674 L36.4587907,73.1977674 C50.7501395,73.1977674 63.1185116,64.9733953 69.095814,53.0009302 L69.095814,53.0009302 L76.980093,48.1733953 L79.9836279,20.1484651 L71.3923721,13.2513488 L67.4809302,6.54623256 L60.2109767,9.08055814" id="path-33"></path>
        <path d="M36.4587907,0.280186047 C16.3233488,0.280186047 0,16.6035349 0,36.7389767 L0,36.7389767 C0,56.8747907 16.3233488,73.1977674 36.4587907,73.1977674 L36.4587907,73.1977674 C50.7501395,73.1977674 63.1185116,64.9733953 69.095814,53.0009302 L69.095814,53.0009302 L76.980093,48.1733953 L79.9836279,20.1484651 L71.3923721,13.2513488 L67.4809302,6.54623256 L60.2109767,9.08055814" id="path-35"></path>
        <path d="M36.4587907,0.280186047 C16.3233488,0.280186047 0,16.6035349 0,36.7389767 L0,36.7389767 C0,56.8747907 16.3233488,73.1977674 36.4587907,73.1977674 L36.4587907,73.1977674 C50.7501395,73.1977674 63.1185116,64.9733953 69.095814,53.0009302 L69.095814,53.0009302 L76.980093,48.1733953 L79.9836279,20.1484651 L71.3923721,13.2513488 L67.4809302,6.54623256 L60.2109767,9.08055814" id="path-37"></path>
        <path d="M36.4587907,0.280186047 C16.3233488,0.280186047 0,16.6035349 0,36.7389767 L0,36.7389767 C0,56.8747907 16.3233488,73.1977674 36.4587907,73.1977674 L36.4587907,73.1977674 C50.7501395,73.1977674 63.1185116,64.9733953 69.095814,53.0009302 L69.095814,53.0009302 L76.980093,48.1733953 L79.9836279,20.1484651 L71.3923721,13.2513488 L67.4809302,6.54623256 L60.2109767,9.08055814" id="path-39"></path>
        <path d="M36.4587907,0.280186047 C16.3233488,0.280186047 0,16.6035349 0,36.7389767 L0,36.7389767 C0,56.8747907 16.3233488,73.1977674 36.4587907,73.1977674 L36.4587907,73.1977674 C50.7501395,73.1977674 63.1185116,64.9733953 69.095814,53.0009302 L69.095814,53.0009302 L76.980093,48.1733953 L79.9836279,20.1484651 L71.3923721,13.2513488 L67.4809302,6.54623256 L60.2109767,9.08055814" id="path-41"></path>
        <path d="M36.4587907,0.280186047 C16.3233488,0.280186047 0,16.6035349 0,36.7389767 L0,36.7389767 C0,56.8747907 16.3233488,73.1977674 36.4587907,73.1977674 L36.4587907,73.1977674 C50.7501395,73.1977674 63.1185116,64.9733953 69.095814,53.0009302 L69.095814,53.0009302 L76.980093,48.1733953 L79.9836279,20.1484651 L71.3923721,13.2513488 L67.4809302,6.54623256 L60.2109767,9.08055814" id="path-43"></path>
        <path d="M36.4587907,0.280186047 C16.3233488,0.280186047 0,16.6035349 0,36.7389767 L0,36.7389767 C0,56.8747907 16.3233488,73.1977674 36.4587907,73.1977674 L36.4587907,73.1977674 C50.7501395,73.1977674 63.1185116,64.9733953 69.095814,53.0009302 L69.095814,53.0009302 L76.980093,48.1733953 L79.9836279,20.1484651 L71.3923721,13.2513488 L67.4809302,6.54623256 L60.2109767,9.08055814" id="path-45"></path>
        <path d="M36.4587907,0.280186047 C16.3233488,0.280186047 0,16.6035349 0,36.7389767 L0,36.7389767 C0,56.8747907 16.3233488,73.1977674 36.4587907,73.1977674 L36.4587907,73.1977674 C50.7501395,73.1977674 63.1185116,64.9733953 69.095814,53.0009302 L69.095814,53.0009302 L76.980093,48.1733953 L79.9836279,20.1484651 L71.3923721,13.2513488 L67.4809302,6.54623256 L60.2109767,9.08055814" id="path-47"></path>
        <path d="M36.4587907,0.280186047 C16.3233488,0.280186047 0,16.6035349 0,36.7389767 L0,36.7389767 C0,56.8747907 16.3233488,73.1977674 36.4587907,73.1977674 L36.4587907,73.1977674 C50.7501395,73.1977674 63.1185116,64.9733953 69.095814,53.0009302 L69.095814,53.0009302 L76.980093,48.1733953 L79.9836279,20.1484651 L71.3923721,13.2513488 L67.4809302,6.54623256 L60.2109767,9.08055814" id="path-49"></path>
        <path d="M36.4587907,0.280186047 C16.3233488,0.280186047 0,16.6035349 0,36.7389767 L0,36.7389767 C0,56.8747907 16.3233488,73.1977674 36.4587907,73.1977674 L36.4587907,73.1977674 C50.7501395,73.1977674 63.1185116,64.9733953 69.095814,53.0009302 L69.095814,53.0009302 L76.980093,48.1733953 L79.9836279,20.1484651 L71.3923721,13.2513488 L67.4809302,6.54623256 L60.2109767,9.08055814" id="path-51"></path>
        <path d="M36.4587907,0.280186047 C16.3233488,0.280186047 0,16.6035349 0,36.7389767 L0,36.7389767 C0,56.8747907 16.3233488,73.1977674 36.4587907,73.1977674 L36.4587907,73.1977674 C50.7501395,73.1977674 63.1185116,64.9733953 69.095814,53.0009302 L69.095814,53.0009302 L76.980093,48.1733953 L79.9836279,20.1484651 L71.3923721,13.2513488 L67.4809302,6.54623256 L60.2109767,9.08055814" id="path-53"></path>
        <path d="M36.4587907,0.280186047 C16.3233488,0.280186047 0,16.6035349 0,36.7389767 L0,36.7389767 C0,56.8747907 16.3233488,73.1977674 36.4587907,73.1977674 L36.4587907,73.1977674 C50.7501395,73.1977674 63.1185116,64.9733953 69.095814,53.0009302 L69.095814,53.0009302 L76.980093,48.1733953 L79.9836279,20.1484651 L71.3923721,13.2513488 L67.4809302,6.54623256 L60.2109767,9.08055814" id="path-55"></path>
        <path d="M36.4587907,0.280186047 C16.3233488,0.280186047 0,16.6035349 0,36.7389767 L0,36.7389767 C0,56.8747907 16.3233488,73.1977674 36.4587907,73.1977674 L36.4587907,73.1977674 C50.7501395,73.1977674 63.1185116,64.9733953 69.095814,53.0009302 L69.095814,53.0009302 L76.980093,48.1733953 L79.9836279,20.1484651 L71.3923721,13.2513488 L67.4809302,6.54623256 L60.2109767,9.08055814" id="path-57"></path>
        <path d="M36.4587907,0.280186047 C16.3233488,0.280186047 0,16.6035349 0,36.7389767 L0,36.7389767 C0,56.8747907 16.3233488,73.1977674 36.4587907,73.1977674 L36.4587907,73.1977674 C50.7501395,73.1977674 63.1185116,64.9733953 69.095814,53.0009302 L69.095814,53.0009302 L76.980093,48.1733953 L79.9836279,20.1484651 L71.3923721,13.2513488 L67.4809302,6.54623256 L60.2109767,9.08055814" id="path-59"></path>
        <path d="M36.4587907,0.280186047 C16.3233488,0.280186047 0,16.6035349 0,36.7389767 L0,36.7389767 C0,56.8747907 16.3233488,73.1977674 36.4587907,73.1977674 L36.4587907,73.1977674 C50.7501395,73.1977674 63.1185116,64.9733953 69.095814,53.0009302 L69.095814,53.0009302 L76.980093,48.1733953 L79.9836279,20.1484651 L71.3923721,13.2513488 L67.4809302,6.54623256 L60.2109767,9.08055814" id="path-61"></path>
        <path d="M36.4587907,0.280186047 C16.3233488,0.280186047 0,16.6035349 0,36.7389767 L0,36.7389767 C0,56.8747907 16.3233488,73.1977674 36.4587907,73.1977674 L36.4587907,73.1977674 C50.7501395,73.1977674 63.1185116,64.9733953 69.095814,53.0009302 L69.095814,53.0009302 L76.980093,48.1733953 L79.9836279,20.1484651 L71.3923721,13.2513488 L67.4809302,6.54623256 L60.2109767,9.08055814" id="path-63"></path>
        <path d="M36.4587907,0.280186047 C16.3233488,0.280186047 0,16.6035349 0,36.7389767 L0,36.7389767 C0,56.8747907 16.3233488,73.1977674 36.4587907,73.1977674 L36.4587907,73.1977674 C50.7501395,73.1977674 63.1185116,64.9733953 69.095814,53.0009302 L69.095814,53.0009302 L76.980093,48.1733953 L79.9836279,20.1484651 L71.3923721,13.2513488 L67.4809302,6.54623256 L60.2109767,9.08055814" id="path-65"></path>
        <path d="M36.4587907,0.280186047 C16.3233488,0.280186047 0,16.6035349 0,36.7389767 L0,36.7389767 C0,56.8747907 16.3233488,73.1977674 36.4587907,73.1977674 L36.4587907,73.1977674 C50.7501395,73.1977674 63.1185116,64.9733953 69.095814,53.0009302 L69.095814,53.0009302 L76.980093,48.1733953 L79.9836279,20.1484651 L71.3923721,13.2513488 L67.4809302,6.54623256 L60.2109767,9.08055814" id="path-67"></path>
        <path d="M36.4587907,0.280186047 C16.3233488,0.280186047 0,16.6035349 0,36.7389767 L0,36.7389767 C0,56.8747907 16.3233488,73.1977674 36.4587907,73.1977674 L36.4587907,73.1977674 C50.7501395,73.1977674 63.1185116,64.9733953 69.095814,53.0009302 L69.095814,53.0009302 L76.980093,48.1733953 L79.9836279,20.1484651 L71.3923721,13.2513488 L67.4809302,6.54623256 L60.2109767,9.08055814" id="path-69"></path>
        <path d="M36.4587907,0.280186047 C16.3233488,0.280186047 0,16.6035349 0,36.7389767 L0,36.7389767 C0,56.8747907 16.3233488,73.1977674 36.4587907,73.1977674 L36.4587907,73.1977674 C50.7501395,73.1977674 63.1185116,64.9733953 69.095814,53.0009302 L69.095814,53.0009302 L76.980093,48.1733953 L79.9836279,20.1484651 L71.3923721,13.2513488 L67.4809302,6.54623256 L60.2109767,9.08055814" id="path-71"></path>
    </defs>
    <g id="Desktop" stroke="none" stroke-width="1" fill="none" fill-rule="evenodd">
        <g id="Homepage_Pick-City" transform="translate(-536.000000, -163.000000)">
            <g id="PICK-CITY">
                <g id="SERVICES" transform="translate(160.000000, 152.000000)">
                    <g id="ONE-DAY" transform="translate(352.000000, 0.000000)">
                        <g id="Group-112" transform="translate(24.000000, 11.000000)">
                            <path d="M72.9173953,36.8309209 C72.9173953,56.9663628 56.5944186,73.2897116 36.4586047,73.2897116 C16.3231628,73.2897116 0.000186046512,56.9663628 0.000186046512,36.8309209 C0.000186046512,16.6954791 16.3231628,0.372130233 36.4586047,0.372130233 C56.5944186,0.372130233 72.9173953,16.6954791 72.9173953,36.8309209" id="Fill-1" fill="#F7F7F7"></path>
                            <g id="Group-111" transform="translate(0.000000, 0.091907)">
                                <g id="Group-5">
                                    <mask id="mask-2" fill="white">
                                        <use xlink:href="#path-1"></use>
                                    </mask>
                                    <g id="Clip-4"></g>
                                    <path d="M26.7122605,67.1370791 C28.6717023,69.152707 30.9671442,70.7761488 33.486586,71.7837767 L33.598586,71.8399628 C33.9904,72.1759628 33.710586,72.0077767 33.710586,72.0077767 L33.486586,72.0077767 C30.9113302,71.0559628 28.6717023,69.4325209 26.7122605,67.4730791 L26.7122605,67.528893 L26.6002605,67.416893 L26.6002605,67.3052651 C26.4882605,67.192893 26.3766326,67.0250791 26.2084465,66.9130791 C25.0888186,67.2490791 24.1370047,68.144707 23.2413767,68.872893 C21.1699349,70.5521488 19.098493,72.2317767 16.6348651,73.0154047 C16.3554233,73.0715907 16.0194233,73.1835907 16.0194233,73.1835907 C15.6272372,73.2394047 15.1796093,73.1274047 15.3474233,72.9037767 L15.5152372,72.7914047 L15.5714233,72.7355907 C17.1948651,71.6159628 18.5946791,70.1603349 20.2739349,68.9845209 C21.7295628,67.920707 23.2971907,67.0812651 24.9768186,66.7452651 C25.3128186,66.6890791 25.6488186,66.6332651 25.9844465,66.6332651 C25.0326326,65.6256372 24.1370047,64.5060093 23.3533767,63.3860093 L23.2971907,63.3860093 L23.1293767,63.3860093 C21.0017488,62.8821953 18.706307,63.8898233 16.2992372,64.1138233 C14.6754233,64.2820093 13.0519814,64.3936372 11.5963535,64.0580093 C11.3723535,64.0018233 11.0925395,63.8898233 11.0925395,63.8898233 L11.0367256,63.8340093 L10.9805395,63.7781953 L10.9247256,63.7220093 C10.8127256,63.6100093 10.7007256,63.3860093 11.0925395,63.3301953 C11.3165395,63.3301953 12.0443535,63.1061953 12.6601674,62.9941953 C14.1716093,62.6581953 15.6834233,62.2105674 17.1948651,61.9865674 C18.986493,61.7625674 20.8901209,61.5385674 22.5135628,62.3783814 C22.6255628,62.4345674 22.6813767,62.4903814 22.7375628,62.5465674 C22.0097488,61.4265674 21.2819349,60.3069395 20.6099349,59.1873116 C20.4421209,58.9074977 20.2739349,58.6273116 20.1061209,58.2916837 C20.1061209,58.2916837 20.1619349,58.2916837 19.7701209,58.2354977 C17.9788651,57.7316837 16.0194233,57.8994977 14.0599814,57.7878698 C12.7159814,57.7316837 11.3165395,57.5634977 9.97291163,57.4518698 C8.85328372,57.3398698 7.67746977,57.1716837 6.78184186,56.5000558 C6.72565581,56.4442419 6.66984186,56.3318698 6.66984186,56.3318698 C6.66984186,56.1640558 6.61365581,56.1640558 6.78184186,56.1082419 C7.11746977,55.9962419 7.50965581,56.1082419 7.90146977,56.1082419 C10.7569116,55.8842419 13.6677953,55.6044279 16.3554233,56.1640558 C17.1390512,56.3318698 17.9226791,56.5558698 18.5946791,56.9480558 C18.986493,57.1716837 19.322493,57.4518698 19.6581209,57.7316837 C18.762493,56.1082419 17.8668651,54.4848 16.9708651,52.860986 C16.9150512,52.8051721 16.8592372,52.8051721 16.8592372,52.8051721 C16.6910512,52.636986 16.6348651,52.6931721 16.5790512,52.6931721 C16.3554233,52.636986 16.0752372,52.636986 16.0752372,52.636986 L15.9632372,52.636986 C14.6754233,52.4691721 13.3879814,52.524986 12.1001674,52.3571721 C10.4209116,52.1331721 8.79746977,51.6293581 7.22984186,51.0135442 C6.94965581,50.9015442 6.50202791,50.5655442 6.78184186,50.4539163 C6.94965581,50.3977302 7.17365581,50.5097302 7.17365581,50.5097302 C7.45346977,50.5097302 7.73365581,50.5097302 8.01346977,50.5655442 C10.1407256,50.6775442 12.3803535,50.5655442 14.4517953,51.2375442 C15.2354233,51.5173581 16.0194233,51.9091721 16.6348651,52.4133581 C15.9632372,51.1813581 15.2354233,49.9497302 14.5637953,48.7181023 C14.3397953,48.2701023 14.0599814,47.8782884 13.8359814,47.4306605 C13.1639814,46.7028465 12.3803535,46.0308465 11.5963535,45.3592186 C9.91672558,43.8474047 8.23746977,42.2239628 6.89384186,40.4885209 C6.66984186,40.1525209 6.44584186,39.872707 6.22184186,39.368893 C6.16602791,39.256893 6.22184186,39.144893 6.22184186,39.144893 C6.33384186,39.032893 6.05402791,38.808893 7.00584186,39.312707 C9.91672558,40.8803349 12.7159814,43.4555907 14.4517953,46.7586605 C14.9556093,47.7104744 15.4594233,48.6622884 15.6834233,49.7261023 C15.9070512,50.1179163 16.1310512,50.5655442 16.3554233,50.9577302 C15.9632372,48.4382884 16.6910512,45.5270326 17.5308651,42.7277767 C17.7548651,41.9999628 17.9788651,41.2721488 18.314493,40.6005209 C18.4826791,40.2083349 18.706307,40.7683349 18.706307,40.7683349 C18.986493,41.4961488 18.986493,42.3359628 18.930307,43.1195907 C18.8186791,46.3106605 16.9150512,49.3339163 17.1390512,52.4133581 C17.1948651,52.5811721 17.3068651,52.6931721 17.3630512,52.860986 C17.4746791,52.9171721 17.4746791,52.9171721 17.4188651,52.9171721 C18.0346791,54.0368 18.5946791,55.1564279 19.210493,56.2760558 C18.706307,54.428614 18.930307,52.3571721 19.490307,50.3977302 L19.490307,50.3415442 C19.9941209,48.6622884 20.7781209,47.1504744 21.5055628,45.5828465 C21.6179349,45.3592186 21.6737488,44.8554047 21.8977488,45.1910326 C22.0655628,45.3592186 22.0097488,45.4150326 22.0655628,45.5270326 C22.1217488,45.8630326 22.1775628,46.2548465 22.1217488,46.6466605 C22.0097488,48.7181023 21.6737488,50.7337302 21.2257488,52.9171721 C20.8339349,54.652614 20.1061209,56.4442419 20.2739349,58.2354977 C20.8901209,59.2993116 21.5055628,60.3069395 22.1217488,61.3149395 C22.0655628,61.0905674 21.9535628,60.3069395 21.9535628,59.6911256 C22.0097488,57.7316837 22.7375628,55.8280558 23.4650047,54.0368 C23.8571907,53.0288 24.2490047,51.9653581 24.6408186,51.0135442 C24.7528186,50.7337302 24.7528186,50.1737302 25.1450047,50.3977302 L25.2566326,50.5097302 C25.7046326,51.5173581 25.4806326,52.8048 25.2008186,54.0368 C24.6966326,56.4442419 23.7451907,58.7954977 23.3533767,61.2025674 C23.2413767,61.8187535 23.1851907,62.4903814 23.2971907,63.0503814 C24.0811907,64.1700093 24.9210047,65.2896372 25.8166326,66.2972651 L25.8724465,66.3534512 C25.3686326,64.9536372 25.4806326,63.1620093 25.8724465,61.5385674 C26.3204465,59.4113116 26.9920744,57.3398698 27.5520744,55.212614 L27.6640744,54.764614 C27.8318884,54.5964279 27.8318884,54.7084279 27.8880744,54.8204279 L27.9442605,54.9324279 C28.0558884,55.9962419 28.0558884,57.0038698 28.0000744,58.0676837 C27.8880744,60.3069395 27.6082605,62.5465674 27.1040744,64.7858233 C26.8804465,65.5136372 26.6564465,66.2972651 26.7122605,67.1370791" id="Fill-3" fill="#56B9E8" mask="url(#mask-2)"></path>
                                </g>
                                <g id="Group-8">
                                    <mask id="mask-4" fill="white">
                                        <use xlink:href="#path-3"></use>
                                    </mask>
                                    <g id="Clip-7"></g>
                                    <path d="M49.8312558,61.7927814 C57.2716279,57.2945488 54.4612093,48.5298977 57.0089302,41.9088744 C58.8184186,37.2584558 63.6403721,35.1155721 66.3090233,31.0619907 C68.1285581,28.3226419 68.0783256,25.1989209 68.0076279,22.0045023 C67.8859535,18.3654326 67.4818605,14.807107 67.2898605,11.1881302 C67.2292093,10.4398512 67.1685581,9.69194419 67.1786047,8.92394419 C67.1585116,8.85287442 67.2496744,7.83185116 67.2496744,7.83185116 C65.8848372,7.60933953 63.5294884,9.81324651 62.6602791,10.5209674 C58.0705116,14.2813395 57.4338605,19.8210605 56.4124651,25.0876651 C55.3914419,30.3542698 47.9514419,31.1021767 46.3540465,36.227386 C45.4442791,38.9365953 46.7179535,41.7872 46.9910698,44.6177116 C47.1629767,46.5585488 46.364093,48.3174326 46.6066977,50.2381767 C46.8087442,52.0175256 47.8096744,53.6450605 48.224186,55.363386 C48.8708837,57.6279442 48.7696744,59.9527814 48.972093,62.2679442" id="Fill-6" fill="#56B9E8" mask="url(#mask-4)"></path>
                                </g>
                                <g id="Group-11">
                                    <mask id="mask-6" fill="white">
                                        <use xlink:href="#path-5"></use>
                                    </mask>
                                    <g id="Clip-10"></g>
                                    <path d="M49.3158326,61.8634419 C49.4066233,61.9140465 49.4270884,61.9847442 49.6090419,62.0859535 C49.6797395,62.0654884 49.6592744,61.9947907 49.7303442,61.9746977 C49.8516465,61.8634419 50.0231814,61.6613953 50.0231814,61.6613953 C50.0231814,61.6613953 50.1850419,61.6915349 50.2862512,61.5095814 C51.2265302,60.2459535 52.0756465,58.932093 52.5608558,57.4154419 C53.0460651,55.3633488 52.9753674,53.2405581 52.9046698,51.1177674 C52.9046698,51.1177674 52.8842047,50.5112558 52.8339721,50.0662326 C52.8440186,49.8340465 52.7833674,49.6215814 52.813507,49.460093 C52.6315535,46.144 52.8239256,42.7981395 54.5322047,39.9374884 C55.5431814,38.1179535 57.0996465,36.6016744 58.585786,35.1054884 C58.585786,35.1054884 59.1722047,34.4785116 59.6172279,33.8924651 C60.3044837,33.0835349 60.9009488,32.2243721 61.4062512,31.3146047 C62.0432744,30.0610233 62.5690419,28.6865116 62.7911814,27.3216744 C62.9024372,26.9071628 63.0442047,26.3311628 62.5284837,26.4018605 C62.2252279,26.411907 61.9521116,26.795907 61.709507,27.0184186 C59.7385302,28.9592558 58.717507,31.5471628 56.857414,33.6093023 C55.5327628,35.1356279 53.9357395,36.5105116 52.5913674,37.9661395 C50.1954605,40.564093 48.6992744,43.899907 48.9619721,47.4987907 C49.2045767,50.4911628 50.4280186,53.4325581 50.6706233,56.4249302 C50.7714605,57.3142326 50.7108093,58.1737674 50.5794605,59.0530233 C50.2557395,60.064 49.6797395,60.9942326 48.9921116,61.8027907 L49.1238326,61.9947907 C49.2451349,61.8835349 49.2451349,61.8835349 49.3158326,61.8634419" id="Fill-9" fill="#3F8BAB" mask="url(#mask-6)"></path>
                                </g>
                                <g id="Group-14">
                                    <mask id="mask-8" fill="white">
                                        <use xlink:href="#path-7"></use>
                                    </mask>
                                    <g id="Clip-13"></g>
                                    <path d="M48.6218047,47.7035535 C35.955014,48.4693209 35.3019907,67.4356465 50.7137116,73.7690419 C59.8895256,77.5182512 74.5611535,70.1180651 68.0227349,58.5668093 C61.4843163,47.0155535 80.2768744,54.4053209 75.9211535,42.6412279 C71.5948279,30.9456 73.8013395,35.1093209 78.1444093,27.8698791 C79.6539907,25.3485767 80.0126884,21.2942512 76.6943628,18.5050419 C73.1207814,15.5011349 68.0789209,18.4938791 66.8450605,21.4642977 C63.6688744,29.3366698 68.1325023,28.9500651 56.5589209,31.6801116 C44.9764093,34.5764837 61.2197581,46.9675535 48.6218047,47.7035535" id="Fill-12" fill="#FD5D5B" mask="url(#mask-8)"></path>
                                </g>
                                <g id="Group-17">
                                    <mask id="mask-10" fill="white">
                                        <use xlink:href="#path-9"></use>
                                    </mask>
                                    <g id="Clip-16"></g>
                                    <path d="M51.947386,64.7871256 C50.1698977,68.1195907 48.4035721,71.4833116 46.6141767,74.8448 L48.6666419,74.8448 C50.7224558,70.9355907 52.7414326,66.9895442 54.683014,63.0353116 C56.0832,63.0799628 57.5220837,63.0263814 58.9613395,62.9728 L60.5371535,62.8596837 C60.9386419,62.848893 61.4766884,62.7785674 61.4766884,62.7785674 C61.643386,62.7874977 61.7803163,62.728707 61.9466419,62.7376372 C62.2498977,62.6877767 62.651386,62.676614 62.9546419,62.6267535 L63.659386,62.5657302 L63.8740837,62.3104744 C63.8740837,62.3104744 63.7166884,62.1348465 63.4521302,62.0868465 C62.5516651,62.0701023 61.3178047,62.0351256 61.3178047,62.0351256 C60.8478512,62.0756837 60.3485023,62.0477767 60.3485023,62.0477767 C58.5375256,62.180986 56.7563163,62.3826605 54.8865488,62.3789395 C57.1429209,57.828614 59.3996651,53.2786605 61.7542698,48.7674047 C64.2848744,47.1045209 66.9334326,45.7154977 69.6709209,44.5314977 C69.6709209,44.5314977 71.0100837,43.8714047 71.9682233,43.456893 C71.9682233,43.456893 72.1829209,43.2016372 71.6742698,43.3404279 C70.7548279,43.656707 69.4934326,44.1210791 69.4934326,44.1210791 C66.9907349,45.2842419 64.5862698,46.4864744 62.3001302,47.9625674 C62.4850605,47.6388465 62.6699907,47.3151256 62.8255256,46.9233116 C64.6547349,43.4513116 66.3566884,39.8721488 68.0285023,36.2245209 L68.1747349,35.9990326 C68.7481302,34.6948465 69.447293,32.9303814 69.447293,32.9303814 L69.8748279,31.8520558 C71.0309209,29.0777302 72.1572465,26.2345674 73.4796651,23.4695442 L73.439107,22.9995907 C73.3021767,23.0587535 73.2039442,23.0200558 73.067386,23.0792186 C71.5485023,25.7668465 70.2260837,28.5318698 68.8738977,31.2288 L68.3488744,32.2680558 C67.9697116,33.0821953 67.5217116,33.9257302 67.1723163,34.8079628 L66.9780837,35.2980093 C66.715386,35.8178233 66.4824558,36.4061023 66.2197581,36.9259163 C64.8876651,39.8572651 63.4283163,42.6818233 61.9689674,45.5063814 C61.691386,44.4890791 61.375107,43.5696372 61.0294326,42.5821023 C60.5743628,41.1540093 60.119293,39.7259163 59.6645953,38.2981953 C59.6645953,38.2981953 58.943107,36.2542884 58.4288744,34.6892651 C58.4288744,34.6892651 58.3399442,34.4842419 58.2919442,34.7484279 C59.2039442,38.1724279 60.223107,41.4684279 61.3014326,44.9013581 C61.4104558,45.3415442 61.5194791,45.7817302 61.599107,46.1534512 C58.5635721,52.0965209 55.4100837,57.7657302 52.443014,63.6790326 C52.4043163,63.7772651 52.3652465,63.8751256 52.2580837,64.0027535 C52.2082233,63.6994977 52.0601302,63.3571721 52.0102698,63.0539163 L51.9805023,62.9854512 C50.7265488,59.7095442 48.9937116,56.6412651 47.8078512,53.3359628 L47.4547349,53.0821953 C47.4547349,53.0821953 47.3085023,53.3080558 47.2992,53.4743814 C48.3868279,56.740986 50.0515721,59.8394047 51.3055256,63.1149395 C51.3055256,63.1149395 51.631107,63.8676837 51.947386,64.7871256" id="Fill-15" fill="#C34A4A" mask="url(#mask-10)"></path>
                                </g>
                                <g id="Group-20">
                                    <mask id="mask-12" fill="white">
                                        <use xlink:href="#path-11"></use>
                                    </mask>
                                    <g id="Clip-19"></g>
                                    <path d="M44.2195349,57.5222326 C44.2195349,57.5222326 44.5101395,64.5328372 45.5627907,68.4066977 C46.6154419,72.2813023 45.9103256,78.6154419 45.9103256,78.6154419 L43.6379535,78.2463256 C43.6379535,78.2463256 44.6987907,72.5886512 43.6379535,68.7144186 C42.5767442,64.840186 41.7893953,57.5222326 41.7893953,57.5222326 L44.2195349,57.5222326 Z" id="Fill-18" fill="#1C1C1C" mask="url(#mask-12)"></path>
                                </g>
                                <g id="Group-23">
                                    <mask id="mask-14" fill="white">
                                        <use xlink:href="#path-13"></use>
                                    </mask>
                                    <g id="Clip-22"></g>
                                    <polygon id="Stroke-21" stroke="#E8F1F8" stroke-width="0.82" mask="url(#mask-14)" points="40.865414 55.5544186 43.6378791 57.5224186 41.7893209 57.5224186 39.7361116 55.7389767"></polygon>
                                </g>
                                <g id="Group-26">
                                    <mask id="mask-16" fill="white">
                                        <use xlink:href="#path-15"></use>
                                    </mask>
                                    <g id="Clip-25"></g>
                                    <path d="M56.0618419,39.2580837 C56.0618419,39.2580837 54.6929116,42.9477581 54.4190512,44.7929674 C54.1451907,46.6378047 53.4605395,56.9689674 50.9280744,58.0755721 C48.3952372,59.1825488 47.8475163,61.4445023 45.8624,62.035386 C43.8772837,62.6262698 35.7589581,59.9821767 35.7589581,59.9821767 C35.7589581,59.9821767 37.2209116,29.0627349 37.5029581,28.3181767 C37.7850047,27.5739907 48.3267721,26.5901767 51.1330977,29.4802233 C53.9397953,32.3706419 56.0618419,39.7098047 56.0618419,39.7098047" id="Fill-24" fill="#D9D9D9" mask="url(#mask-16)"></path>
                                </g>
                                <g id="Group-29">
                                    <mask id="mask-18" fill="white">
                                        <use xlink:href="#path-17"></use>
                                    </mask>
                                    <g id="Clip-28"></g>
                                    <path d="M39.4279442,29.9971721 C39.4279442,29.9971721 47.5738047,27.4390326 50.2435721,29.9971721 C52.9129674,32.5553116 54.6926884,35.752707 55.3088744,38.9504744 C55.9250605,42.1482419 56.5412465,39.4003349 56.5412465,38.2840558 C56.5412465,37.1674047 54.0768744,29.5502884 51.407107,28.3778233 C48.7377116,27.204986 39.6869209,25.2987535 35.4845023,27.3281488 C31.2820837,29.3571721 35.6225488,30.1869395 39.4279442,29.9971721" id="Fill-27" fill="#1C1C1C" mask="url(#mask-18)"></path>
                                </g>
                                <g id="Group-32">
                                    <mask id="mask-20" fill="white">
                                        <use xlink:href="#path-19"></use>
                                    </mask>
                                    <g id="Clip-31"></g>
                                    <path d="M44.7673302,44.567293 C44.7673302,44.567293 42.9876093,44.9773395 42.7137488,45.4279442 C42.4398884,45.8789209 41.7362605,56.7875721 43.1394233,57.1685953 C44.542586,57.5499907 48.7375628,55.4725953 48.5094698,53.5864558 C48.2810047,51.7006884 46.5671442,43.9291535 44.7673302,44.567293" id="Fill-30" fill="#1C1C1C" mask="url(#mask-20)"></path>
                                </g>
                                <g id="Group-35">
                                    <mask id="mask-22" fill="white">
                                        <use xlink:href="#path-21"></use>
                                    </mask>
                                    <g id="Clip-34"></g>
                                    <path d="M54.8981209,48.1339907 C54.8981209,48.1339907 55.0350512,50.8398512 54.8981209,51.5777116 C54.7611907,52.3155721 54.4873302,56.6203163 53.8484465,56.9072 C53.2095628,57.1944558 50.9993302,57.9602233 50.4210977,58.3263628 C49.8428651,58.6921302 43.4871442,57.4154791 43.1396093,57.1687814 C42.7920744,56.9220837 45.034307,56.0874791 45.1518884,55.5542698 C45.2690977,55.0214326 45.3018419,47.2729674 45.3312372,46.7401302 C45.3606326,46.2069209 54.8981209,48.1339907 54.8981209,48.1339907" id="Fill-33" fill="#56B9E8" mask="url(#mask-22)"></path>
                                </g>
                                <g id="Group-38">
                                    <mask id="mask-24" fill="white">
                                        <use xlink:href="#path-23"></use>
                                    </mask>
                                    <g id="Clip-37"></g>
                                    <path d="M55.1263256,46.0840186 C55.1263256,46.0840186 50.4714419,44.6492279 47.7335814,44.5673674 C44.9953488,44.4851349 44.7672558,44.5673674 44.7672558,44.5673674 C44.7672558,44.5673674 45.3086512,47.3141581 45.5627907,48.0520186 C45.8165581,48.7898791 50.0610233,50.7169488 50.4714419,50.7578791 C50.8822326,50.7988093 55.3544186,49.6509023 55.400186,49.4458791 C55.4459535,49.2408558 55.1263256,46.0840186 55.1263256,46.0840186" id="Fill-36" fill="#1C1C1C" mask="url(#mask-24)"></path>
                                </g>
                                <g id="Group-41">
                                    <mask id="mask-26" fill="white">
                                        <use xlink:href="#path-25"></use>
                                    </mask>
                                    <g id="Clip-40"></g>
                                    <path d="M38.4239256,24.6363535 C38.4239256,24.6363535 36.2765767,24.1377488 35.1826233,24.6363535 C34.0886698,25.134586 28.0499721,26.3732837 27.8747163,28.3777488 C27.6998326,30.382214 28.0194605,31.8884465 29.1602977,32.1191442 C30.3007628,32.350214 31.1223442,32.1191442 31.1223442,32.1191442 C31.1223442,32.1191442 34.1433674,30.9972837 35.7586233,29.234307 C37.3742512,27.4717023 38.4239256,24.6363535 38.4239256,24.6363535" id="Fill-39" fill="#032742" mask="url(#mask-26)"></path>
                                </g>
                                <g id="Group-44">
                                    <mask id="mask-28" fill="white">
                                        <use xlink:href="#path-27"></use>
                                    </mask>
                                    <g id="Clip-43"></g>
                                    <path d="M23.6459535,62.0353116 C23.6459535,62.0353116 21.1737674,70.3132651 21.6303256,77.528893 C21.6303256,77.528893 20.5352558,79.3324279 20.4437209,80.5625674 C20.3525581,81.7923349 21.788093,85.8101953 22.2569302,86.6302884 C22.7253953,87.4500093 22.3603721,90.2377302 23.0904186,92.5335442 C23.8208372,94.8293581 24.2725581,96.8792186 24.5028837,99.3391256 C24.7335814,101.799033 23.912,105.488707 23.912,105.488707 C23.912,105.488707 27.7453023,107.702288 31.3962791,106.226567 C31.3962791,106.226567 31.4874419,105.406847 31.3962791,103.848893 C31.3047442,102.29094 32.0251163,93.2717767 31.4364651,91.3856372 C30.8485581,89.4998698 30.2096744,87.6959628 29.5707907,86.6302884 C28.931907,85.5642419 28.5668837,84.0062884 28.5668837,84.0062884 C28.5668837,84.0062884 29.8446512,84.0881488 29.3884651,83.1861953 L28.931907,82.2842419 L30.6223256,78.9826605 C30.6223256,78.9826605 27.7609302,62.6128 23.6459535,62.0353116" id="Fill-42" fill="#1E4174" mask="url(#mask-28)"></path>
                                </g>
                                <g id="Group-47">
                                    <mask id="mask-30" fill="white">
                                        <use xlink:href="#path-29"></use>
                                    </mask>
                                    <g id="Clip-46"></g>
                                    <path d="M39.385786,63.1470512 C39.385786,63.1470512 39.7180651,73.2650047 40.0522047,78.5535628 C40.3863442,83.842493 46.8533209,89.6229581 45.3314605,97.2482605 C43.8088558,104.873935 44.2196465,108.6864 44.2196465,108.6864 C44.2196465,108.6864 37.5658791,110.531237 35.7586233,106.841563 L35.7586233,105.734586 C35.7586233,105.734586 35.4576,103.643795 36.6899721,102.290865 C36.6899721,102.290865 36.6899721,99.3390512 36.8269023,98.6011907 C36.9638326,97.8633302 35.465786,88.2700279 35.465786,88.2700279 C35.465786,88.2700279 34.4994605,86.3615628 34.4994605,86.1472372 C34.4994605,85.9332837 32.5370419,84.5803535 32.8336,83.7193302 L33.1301581,82.858307 C33.1301581,82.858307 31.2138791,80.0296558 30.9400186,79.5377488 C30.665786,79.0458419 23.5993674,67.0499349 24.5999256,63.1470512 C25.6004837,59.2441674 39.385786,63.1470512 39.385786,63.1470512" id="Fill-45" fill="#85B8ED" mask="url(#mask-30)"></path>
                                </g>
                                <g id="Group-50">
                                    <mask id="mask-32" fill="white">
                                        <use xlink:href="#path-31"></use>
                                    </mask>
                                    <g id="Clip-49"></g>
                                    <path d="M33.7624186,13.8752744 C33.7624186,13.8752744 36.5490233,14.6276465 37.0509767,15.3584372 C37.5533023,16.0892279 36.8574884,19.521786 36.6349767,20.0605767 C36.4124651,20.5989953 35.1510698,25.5184372 35.7586977,25.9284837 C36.3666977,26.3385302 37.7813953,24.7805767 37.7356279,25.4365767 C37.6902326,26.0922047 36.9144186,26.8304372 36.9144186,26.8304372 C36.9144186,26.8304372 38.0221395,27.6840186 36.7685581,27.9076465 C35.5149767,28.1316465 34.8150698,27.5355535 34.8150698,27.5355535 C34.8150698,27.5355535 33.5897674,27.8142512 33.2213953,25.7234605 C32.8526512,23.6326698 33.7624186,13.8752744 33.7624186,13.8752744" id="Fill-48" fill="#FD5D5B" mask="url(#mask-32)"></path>
                                </g>
                                <g id="Group-53">
                                    <mask id="mask-34" fill="white">
                                        <use xlink:href="#path-33"></use>
                                    </mask>
                                    <g id="Clip-52"></g>
                                    <path d="M23.7278884,16.5371535 C23.7278884,16.5371535 21.4733767,26.8742698 25.6717023,27.7821767 C27.5332837,28.1847814 28.7221209,28.2305488 29.4692837,28.1565023 C30.0534698,28.0984558 30.5498419,28.5330605 30.5066791,29.0595721 C30.4073302,30.2707349 30.3812837,31.8807814 30.970307,31.7044093 C31.9035163,31.4249674 33.9247256,32.123386 34.5468651,30.2376186 C35.1686326,28.3518512 35.0011907,25.9663628 35.0011907,25.9663628 L35.2776558,23.3122233 C35.2776558,23.3122233 37.2557023,24.0802233 37.4890047,21.4264558 C37.722307,18.7723163 34.9234233,19.8897116 34.9234233,19.8897116 C34.9234233,19.8897116 35.8562605,17.375107 35.1567256,15.7687814 C34.4568186,14.1624558 24.8940279,10.6004093 23.7278884,16.5371535" id="Fill-51" fill="#FFE2C5" mask="url(#mask-34)"></path>
                                </g>
                                <g id="Group-56">
                                    <mask id="mask-36" fill="white">
                                        <use xlink:href="#path-35"></use>
                                    </mask>
                                    <g id="Clip-55"></g>
                                    <path d="M27.5661767,31.7177302 C27.5661767,31.7177302 12.5979907,21.6991256 11.5029209,21.616893 C10.4074791,21.5350326 9.31203721,25.0762419 10.0424558,26.6673116 C10.7725023,28.2587535 22.6374326,40.9675907 25.7406884,37.7698233 C25.7406884,37.7698233 28.8439442,33.700986 27.5661767,31.7177302" id="Fill-54" fill="#003D75" mask="url(#mask-36)"></path>
                                </g>
                                <g id="Group-59">
                                    <mask id="mask-38" fill="white">
                                        <use xlink:href="#path-37"></use>
                                    </mask>
                                    <g id="Clip-58"></g>
                                    <path d="M23.4222884,18.3003907 C23.5744744,17.2440186 23.7277767,16.5370419 23.7277767,16.5370419 C24.8942884,10.6002977 34.4570791,14.1623442 35.156614,15.7686698 C35.2139163,15.9007628 35.2570791,16.0399256 35.2939163,16.1820651 C33.2042419,17.477693 29.4085209,18.3439256 25.0721488,18.3439256 C24.5117767,18.3439256 23.9618233,18.3282977 23.4222884,18.3003907" id="Fill-57" fill="#FFD2A5" mask="url(#mask-38)"></path>
                                </g>
                                <g id="Group-62">
                                    <mask id="mask-40" fill="white">
                                        <use xlink:href="#path-39"></use>
                                    </mask>
                                    <g id="Clip-61"></g>
                                    <path d="M21.2344186,61.4125023 C21.6295814,60.7211535 22.2699535,53.8608744 22.2647442,52.7952 C22.1572093,45.9122233 23.1964651,37.4281302 25.2842791,33.2603163 C25.2842791,33.2603163 24.3603721,31.363014 28.4351628,30.8004093 C32.5095814,30.2374326 41.1652093,30.431293 44.1773023,32.0301767 C47.1890233,33.6294326 43.6306977,40.7297116 41.1756279,47.1855256 C40.7127442,48.4037581 40.3655814,49.7961302 40.1043721,51.2383628 C40.1151628,51.359293 40.8712558,59.8002233 41.6868837,62.035386 C42.508093,64.2869209 38.8950698,63.2119442 38.8950698,63.2119442 L38.8950698,63.2119442 C36.6863256,63.4947349 27.6366512,64.5421767 24.620093,63.155386 C24.0612093,63.1155721 23.6314419,63.0657116 23.379907,63.0032 C21.3564651,62.5034791 20.8388837,62.1049674 21.2344186,61.4125023" id="Fill-60" fill="#032742" mask="url(#mask-40)"></path>
                                </g>
                                <g id="Group-65">
                                    <mask id="mask-42" fill="white">
                                        <use xlink:href="#path-41"></use>
                                    </mask>
                                    <g id="Clip-64"></g>
                                    <path d="M34.9235721,19.889786 C34.9235721,19.889786 34.0007814,22.689786 33.2212465,22.853507 C32.4420837,23.0176 32.2139907,22.853507 32.4420837,22.033786 C32.6701767,21.213693 33.127107,20.8040186 33.127107,20.8040186 C33.127107,20.8040186 32.0458047,21.0086698 32.3579907,20.2708093 C32.6701767,19.5329488 33.2212465,18.8360186 33.2212465,18.8360186 C33.2212465,18.8360186 32.7081302,18.0159256 32.3014326,17.3189953 C31.8943628,16.6220651 32.3014326,15.5150884 32.3014326,15.5150884 C32.3014326,15.5150884 22.531014,16.9911814 21.2342698,14.3262512 C19.9382698,11.6613209 20.3944558,7.68476279 22.3568744,7.39787907 C24.3189209,7.11099535 24.6385488,9.93964651 24.6385488,9.93964651 C24.6385488,9.93964651 27.2725953,8.50485581 27.5527814,10.1446698 C27.8329674,11.7844837 27.7127814,11.989507 27.7127814,11.989507 C27.7127814,11.989507 32.9898047,12.8505302 34.0848744,13.8343442 C34.0848744,13.8343442 33.5371535,12.5223442 34.1760372,12.3582512 C34.8149209,12.1945302 34.9235721,13.9984372 34.9235721,13.9984372 C34.9235721,13.9984372 36.047293,13.3011349 36.5492465,13.5474605 C37.0512,13.793414 35.1825488,14.6953674 35.1825488,14.6953674 C35.1825488,14.6953674 36.9600372,14.6689488 36.4580837,15.3584372 C35.9557581,16.0482977 35.1825488,15.3584372 35.1825488,15.3584372 C35.1825488,15.3584372 37.0854326,17.2948093 34.9235721,19.889786" id="Fill-63" fill="#FD5D5B" mask="url(#mask-42)"></path>
                                </g>
                                <g id="Group-68">
                                    <mask id="mask-44" fill="white">
                                        <use xlink:href="#path-43"></use>
                                    </mask>
                                    <g id="Clip-67"></g>
                                    <path d="M39.773693,30.5137116 C39.773693,30.5137116 35.5991814,29.4647814 34.6384372,29.9336186 C33.6780651,30.4028279 28.1119256,38.7045953 30.3132279,46.4530605 C32.5141581,54.2015256 40.1126698,56.7228279 40.865414,56.2923163 C41.6185302,55.8618047 40.8129488,54.3860837 40.0520186,53.6482233 C39.2910884,52.9099907 33.7852279,50.0556651 33.7941581,43.435386 C33.8030884,36.8154791 35.9437395,33.5146419 39.773693,30.5137116" id="Fill-66" fill="#D9D9D9" mask="url(#mask-44)"></path>
                                </g>
                                <g id="Group-71">
                                    <mask id="mask-46" fill="white">
                                        <use xlink:href="#path-45"></use>
                                    </mask>
                                    <g id="Clip-70"></g>
                                    <path d="M25.147386,14.8870698 C25.147386,14.8870698 26.9728744,15.7957209 26.6078512,15.9185116 C26.2428279,16.0416744 22.8657116,15.9173953 21.9072,14.9544186 C20.9490605,13.991814 23.6869209,13.8556279 25.147386,14.8870698" id="Fill-69" fill="#F7C694" mask="url(#mask-46)"></path>
                                </g>
                                <g id="Group-74">
                                    <mask id="mask-48" fill="white">
                                        <use xlink:href="#path-47"></use>
                                    </mask>
                                    <g id="Clip-73"></g>
                                    <path d="M17.7546047,14.9346605 C17.7546047,14.9346605 20.2874419,13.4414512 21.4513488,13.2349395 C22.6148837,13.0280558 26.6535814,13.7662884 28.844093,14.6269395 C31.0346047,15.4879628 28.3648372,15.6111256 27.2693953,15.4879628 C26.1743256,15.3651721 24.1170233,15.6635907 23.0941395,15.5285209 C22.0712558,15.3934512 20.1505116,14.872893 18.1653953,16.7794977 C16.1802791,18.6857302 17.3575814,16.4721488 17.7546047,14.9346605" id="Fill-72" fill="#FFE2C5" mask="url(#mask-48)"></path>
                                </g>
                                <g id="Group-77">
                                    <mask id="mask-50" fill="white">
                                        <use xlink:href="#path-49"></use>
                                    </mask>
                                    <g id="Clip-76"></g>
                                    <path d="M43.9813581,31.1437767 C45.8660093,31.9515907 46.8933581,33.8154047 46.5223814,35.6621023 C45.740986,39.5493581 43.1352186,48.540986 39.9333581,50.1101023 C35.4154047,52.3236837 35.6781023,43.2222884 35.8094512,42.1156837 C35.9404279,41.008707 38.3936372,31.0611721 39.7737302,30.5138233 C41.1947535,29.9497302 41.8816372,30.2436837 43.9813581,31.1437767" id="Fill-75" fill="#003D75" mask="url(#mask-50)"></path>
                                </g>
                                <g id="Group-80">
                                    <mask id="mask-52" fill="white">
                                        <use xlink:href="#path-51"></use>
                                    </mask>
                                    <g id="Clip-79"></g>
                                    <path d="M24.7011721,27.3274791 C34.2993116,28.6744558 35.2775442,23.3118512 35.2775442,23.3118512 L35.0010791,25.9663628 C35.0010791,25.9663628 35.1685209,28.3518512 34.5467535,30.2376186 C33.924986,32.123386 31.9034047,31.4249674 30.9705674,31.7044093 C30.3811721,31.8807814 30.4072186,30.2707349 30.5065674,29.0595721 C30.5497302,28.5330605 30.0537302,28.0984558 29.4691721,28.1565023 C28.7223814,28.2305488 27.5331721,28.1847814 25.6715907,27.7821767 C25.2983814,27.7014326 24.9783814,27.543293 24.7011721,27.3274791" id="Fill-78" fill="#FFD2A5" mask="url(#mask-52)"></path>
                                </g>
                                <g id="Group-83">
                                    <mask id="mask-54" fill="white">
                                        <use xlink:href="#path-53"></use>
                                    </mask>
                                    <g id="Clip-82"></g>
                                    <path d="M32.1412093,32.0322233 C32.1412093,32.0322233 30.5088372,29.3773395 30.5196279,28.6238512 C30.5300465,27.8703628 27.900093,28.2290605 26.575814,27.9596651 C24.9702326,27.6325953 28.1058605,32.6778047 32.1412093,32.0322233" id="Fill-81" fill="#032742" mask="url(#mask-54)"></path>
                                </g>
                                <g id="Group-86">
                                    <mask id="mask-56" fill="white">
                                        <use xlink:href="#path-55"></use>
                                    </mask>
                                    <g id="Clip-85"></g>
                                    <path d="M27.5527442,30.9602977 C27.5527442,30.9602977 25.048186,30.4401116 24.5030698,30.513786 C23.9575814,30.5874605 19.1869767,39.3811349 22.2567442,48.9130419 C22.2567442,48.9130419 23.0020465,34.2853209 27.5527442,30.9602977" id="Fill-84" fill="#D9D9D9" mask="url(#mask-56)"></path>
                                </g>
                                <g id="Group-89">
                                    <mask id="mask-58" fill="white">
                                        <use xlink:href="#path-57"></use>
                                    </mask>
                                    <g id="Clip-88"></g>
                                    <path d="M32.4915349,30.9971721 C32.4915349,30.9971721 35.5947907,28.7013581 36.7356279,26.2827535 C37.8764651,23.8637767 38.587907,24.6425674 41.1754419,25.2985674 C43.7633488,25.9545674 45.2126512,27.5125209 44.0826047,29.1114047 C42.9529302,30.7102884 38.9257674,30.5030326 37.1006512,31.2431256 C35.2751628,31.9832186 30.1588837,32.8821953 32.4915349,30.9971721" id="Fill-87" fill="#032742" mask="url(#mask-58)"></path>
                                </g>
                                <g id="Group-92">
                                    <mask id="mask-60" fill="white">
                                        <use xlink:href="#path-59"></use>
                                    </mask>
                                    <g id="Clip-91"></g>
                                    <path d="M34.1721302,38.0416744 C34.1721302,38.0416744 33.9537116,35.9266977 34.1721302,35.876093 C34.3909209,35.8251163 36.5836651,35.4701395 36.4474791,34.6586047 C36.3109209,33.8466977 35.7423628,33.1237209 35.2642233,33.1047442 C34.7860837,33.0857674 34.6733395,31.0816744 32.9788279,30.9172093 C31.2850605,30.752 30.9464558,31.6729302 30.9464558,31.6729302 C30.9464558,31.6729302 28.9129674,33.1363721 29.2519442,33.8976744 C29.5905488,34.6586047 30.4378047,36.2820465 30.607107,36.535814 C30.7767814,36.7892093 30.7202233,39.6305116 31.2850605,40.4420465 C31.8495256,41.2535814 34.9133395,39.8016744 34.1721302,38.0416744" id="Fill-90" fill="#FFE2C5" mask="url(#mask-60)"></path>
                                </g>
                                <g id="Group-95">
                                    <mask id="mask-62" fill="white">
                                        <use xlink:href="#path-61"></use>
                                    </mask>
                                    <g id="Clip-94"></g>
                                    <path d="M35.435014,20.8140279 C35.435014,20.8140279 35.6705488,20.1375628 36.4065488,20.1989581 C37.1425488,20.2607256 36.9885023,22.7206326 36.0984558,22.7050047 C35.2087814,22.6897488 35.435014,20.8140279 35.435014,20.8140279" id="Fill-93" fill="#FFD2A5" mask="url(#mask-62)"></path>
                                </g>
                                <g id="Group-98">
                                    <mask id="mask-64" fill="white">
                                        <use xlink:href="#path-63"></use>
                                    </mask>
                                    <g id="Clip-97"></g>
                                    <path d="M35.2938419,21.259907 C35.2938419,21.259907 35.9457488,20.4911628 36.1418419,20.9830698 C36.338307,21.4753488 35.5338419,22.2593488 35.1401674,22.1823256 C34.746493,22.1053023 35.2938419,21.259907 35.2938419,21.259907" id="Fill-96" fill="#FFE2C5" mask="url(#mask-64)"></path>
                                </g>
                                <g id="Group-101">
                                    <mask id="mask-66" fill="white">
                                        <use xlink:href="#path-65"></use>
                                    </mask>
                                    <g id="Clip-100"></g>
                                    <path d="M39.9333953,50.1099907 C39.9333953,50.1099907 40.6388837,46.7745488 38.6098605,42.7715721 C36.5808372,38.7685953 35.1415814,35.6381767 34.5026977,35.6381767 C33.863814,35.6381767 30.9432558,36.2941767 30.3955349,37.1138977 C29.848186,37.9339907 32.1413953,44.2201302 33.9155349,47.1857116 C35.6893023,50.1509209 39.111814,52.8158512 39.9333953,50.1099907" id="Fill-99" fill="#003D75" mask="url(#mask-66)"></path>
                                </g>
                                <g id="Group-104">
                                    <mask id="mask-68" fill="white">
                                        <use xlink:href="#path-67"></use>
                                    </mask>
                                    <g id="Clip-103"></g>
                                    <path d="M27.9925953,17.8725209 C27.9925953,17.8725209 29.8180837,17.728893 30.6850605,19.0818233 C30.6850605,19.0818233 30.7077581,19.1845209 30.4112,19.0818233 C30.1146419,18.9794977 29.2458047,18.2591256 28.2999442,18.1783814 C27.3537116,18.0980093 27.9925953,17.8725209 27.9925953,17.8725209" id="Fill-102" fill="#003D75" mask="url(#mask-68)"></path>
                                </g>
                                <g id="Group-107">
                                    <mask id="mask-70" fill="white">
                                        <use xlink:href="#path-69"></use>
                                    </mask>
                                    <g id="Clip-106"></g>
                                    <path d="M23.4410047,18.5812837 C23.4410047,18.5812837 24.2901209,17.5330977 25.8614698,17.9937488 C25.8614698,17.9937488 25.9578419,18.0510512 25.7167256,18.1362605 C25.4752372,18.2218419 24.422586,18.1887256 23.8551442,18.6277953 C23.2877023,19.0661209 23.4410047,18.5812837 23.4410047,18.5812837" id="Fill-105" fill="#003D75" mask="url(#mask-70)"></path>
                                </g>
                                <g id="Group-110">
                                    <mask id="mask-72" fill="white">
                                        <use xlink:href="#path-71"></use>
                                    </mask>
                                    <g id="Clip-109"></g>
                                    <path d="M17.6365023,13.2368 C17.6365023,13.2368 10.2084093,20.6295442 9.80617674,22.4762419 C9.40357209,24.3229395 9.31203721,26.3728 11.0463628,26.864707 C12.7806884,27.356614 20.0093395,19.0730791 19.7358512,17.3845209 C19.4619907,15.696707 18.7315721,13.1545674 17.6365023,13.2368" id="Fill-108" fill="#003D75" mask="url(#mask-72)"></path>
                                </g>
                            </g>
                        </g>
                    </g>
                </g>
            </g>
        </g>
    </g>
</svg>