
<svg width="80px" height="72px" viewBox="0 0 80 72" version="1.1" xmlns="http://www.w3.org/2000/svg" xmlns:xlink="http://www.w3.org/1999/xlink">
    <g id="Desktop" stroke="none" stroke-width="1" fill="none" fill-rule="evenodd">
        <g id="Homepage_Pick-City" transform="translate(-800.000000, -164.000000)">
            <g id="PICK-CITY">
                <g id="SERVICES" transform="translate(160.000000, 152.000000)">
                    <g id="MULTIDAY-TOURS" transform="translate(616.000000, 0.000000)">
                        <g id="Untitled-1-01" transform="translate(24.000000, 12.000000)">
                            <path d="M48.9302326,0.781395349 C50.344186,2.79069767 51.6465116,5.95348837 48.9674419,9.22790698 C44.5767442,14.5488372 38.3627907,9.89767442 38.3627907,9.89767442 C38.3627907,9.89767442 44.3906977,17.8604651 35.0139535,22.1767442 C25.6744186,26.5302326 23.3674419,10.4930233 23.3674419,10.4930233 C23.3674419,10.4930233 23.1069767,16.8186047 18.455814,15.1813953 C13.8046512,13.544186 15.3674419,10.9767442 15.3674419,10.9767442 C15.3674419,10.9767442 13.0976744,14.6232558 9.78604651,12.9116279 C9.11627907,12.5767442 8.66976744,12.2046512 8.37209302,11.7953488 C3.1627907,18.1209302 0,26.1953488 0,35.0511628 C0,55.1813953 16.3348837,71.5162791 36.4651163,71.5162791 C56.5953488,71.5162791 72.9302326,55.1813953 72.9302326,35.0511628 C72.9302326,19.3116279 62.9209302,5.87906977 48.9302326,0.781395349 Z" id="Path" fill="#F7F8F8" fill-rule="nonzero"></path>
                            <path d="M60.1302326,45.8790698 C58.2325581,47.9255814 55.9627907,49.6 53.4697674,50.6790698 L53.3581395,50.7534884 C52.9860465,51.0883721 53.2465116,50.9395349 53.2465116,50.9395349 C53.3581395,50.9395349 53.4697674,50.9395349 53.4697674,50.9395349 C56.0372093,49.9348837 58.2325581,48.2604651 60.1302326,46.2511628 L60.1302326,46.3255814 L60.2418605,46.2139535 C60.2418605,46.1395349 60.2418605,46.1023256 60.2418605,46.1023256 C60.3534884,45.9906977 60.4651163,45.8046512 60.6139535,45.6930233 C61.7302326,45.9906977 62.6976744,46.8837209 63.627907,47.5906977 C65.7488372,49.227907 67.8325581,50.8651163 70.3255814,51.572093 C70.6232558,51.6093023 70.9581395,51.7209302 70.9581395,51.7209302 C71.3674419,51.7581395 71.8139535,51.6465116 71.627907,51.4232558 L71.4418605,51.3116279 L71.3674419,51.2744186 C69.7302326,50.1953488 68.2790698,48.7813953 66.5674419,47.627907 C65.0790698,46.5860465 63.5162791,45.8046512 61.8046512,45.5069767 C61.4697674,45.4697674 61.1348837,45.3953488 60.8,45.4325581 C61.7302326,44.3906977 62.5860465,43.2744186 63.3674419,42.1209302 L63.4418605,42.1209302 C63.5534884,42.1209302 63.5534884,42.1209302 63.627907,42.1209302 C65.7488372,41.5627907 68.055814,42.5302326 70.4744186,42.7162791 C72.1116279,42.8651163 73.7116279,42.9395349 75.1627907,42.5674419 C75.3860465,42.4930233 75.6465116,42.3813953 75.6465116,42.3813953 L75.6837209,42.3069767 L75.7209302,42.2325581 C75.7209302,42.2325581 75.7209302,42.2325581 75.7581395,42.1581395 C75.8697674,42.0465116 75.9813953,41.8232558 75.572093,41.7860465 C75.3488372,41.7860465 74.6046512,41.6 74.0093023,41.4883721 C72.4837209,41.1906977 70.9581395,40.7813953 69.4697674,40.5953488 C67.6837209,40.4093023 65.7488372,40.2232558 64.1488372,41.1162791 C64.0372093,41.1906977 64,41.227907 63.9255814,41.3023256 C64.6325581,40.1488372 65.3395349,39.0325581 65.972093,37.8790698 C66.1209302,37.5813953 66.3069767,37.3209302 66.455814,36.9860465 C66.455814,36.9860465 66.3813953,36.9860465 66.7906977,36.9116279 C68.5767442,36.3534884 70.5488372,36.5023256 72.4837209,36.3534884 C73.8232558,36.2790698 75.2372093,36.055814 76.5767442,35.944186 C77.6930233,35.7953488 78.8837209,35.6093023 79.7395349,34.9395349 C79.7767442,34.8651163 79.8511628,34.7534884 79.8511628,34.7534884 C79.8511628,34.5674419 79.8883721,34.5674419 79.7395349,34.5302326 C79.4046512,34.4186047 78.9953488,34.5302326 78.6232558,34.5674419 C75.7581395,34.4186047 72.855814,34.1953488 70.1767442,34.7906977 C69.3953488,34.9767442 68.6139535,35.2 67.944186,35.6093023 C67.572093,35.8325581 67.2372093,36.1302326 66.9023256,36.427907 C67.7581395,34.7906977 68.6139535,33.1534884 69.4697674,31.5162791 C69.5069767,31.4418605 69.5813953,31.4418605 69.5813953,31.4418605 C69.7302326,31.255814 69.8046512,31.3302326 69.8418605,31.3302326 C70.0651163,31.255814 70.3627907,31.255814 70.3627907,31.255814 C70.4372093,31.255814 70.4372093,31.255814 70.4744186,31.255814 C71.7395349,31.0697674 73.0418605,31.0697674 74.344186,30.8837209 C76.0186047,30.6232558 77.6186047,30.0651163 79.1813953,29.4325581 C79.4418605,29.3209302 79.8883721,28.9860465 79.627907,28.8744186 C79.4418605,28.8372093 79.255814,28.9488372 79.255814,28.9488372 C78.9581395,28.9488372 78.6976744,28.9488372 78.4,29.0232558 C76.2790698,29.172093 74.0465116,29.1348837 71.9627907,29.8418605 C71.1813953,30.1395349 70.4,30.5488372 69.8046512,31.0697674 C70.4372093,29.8418605 71.144186,28.5767442 71.7767442,27.3116279 C72,26.8651163 72.2604651,26.455814 72.4837209,26.0093023 C73.1534884,25.2651163 73.8976744,24.5953488 74.6790698,23.8883721 C76.3162791,22.3255814 77.9534884,20.6883721 79.255814,18.9023256 C79.4790698,18.5674419 79.7023256,18.2697674 79.8883721,17.7860465 C79.9255814,17.6744186 79.8883721,17.5627907 79.8883721,17.5627907 C79.7767442,17.4511628 80.0372093,17.227907 79.1069767,17.7488372 C76.2418605,19.3860465 73.4883721,22.027907 71.8139535,25.3395349 C71.3302326,26.3069767 70.8465116,27.2744186 70.6604651,28.3162791 C70.4372093,28.7255814 70.2139535,29.172093 70.027907,29.544186 C70.3627907,27.0139535 69.5813953,24.1116279 68.6883721,21.3581395 C68.4651163,20.6511628 68.2046512,19.9069767 67.8697674,19.2372093 C67.6837209,18.8651163 67.4976744,19.4232558 67.4976744,19.4232558 C67.2372093,20.1674419 67.2372093,20.9860465 67.3116279,21.7674419 C67.4976744,24.9674419 69.4697674,27.944186 69.3209302,31.0325581 C69.2837209,31.2186047 69.172093,31.3302326 69.0976744,31.4790698 C68.9860465,31.5534884 68.9860465,31.5534884 69.0604651,31.5534884 L69.0604651,31.5534884 C68.4651163,32.6697674 67.944186,33.8232558 67.3488372,34.9395349 C67.7953488,33.0790698 67.5348837,31.0325581 66.9395349,29.0604651 C66.9395349,28.9860465 66.9395349,28.9860465 66.9395349,28.9860465 C66.3813953,27.3116279 65.6,25.8232558 64.8186047,24.2604651 C64.7069767,24.0372093 64.6325581,23.5534884 64.4093023,23.8883721 C64.2604651,24.0744186 64.2976744,24.1116279 64.2604651,24.2232558 C64.2232558,24.5581395 64.1488372,24.9674419 64.2232558,25.3395349 C64.372093,27.4232558 64.744186,29.4325581 65.2651163,31.5906977 C65.7116279,33.3023256 66.455814,35.0883721 66.344186,36.8744186 C65.7488372,37.9534884 65.1534884,38.9581395 64.5581395,40 C64.5953488,39.7767442 64.7069767,38.9953488 64.7069767,38.3627907 C64.5953488,36.3906977 63.8511628,34.5302326 63.0697674,32.744186 C62.6604651,31.7395349 62.2511628,30.6976744 61.8418605,29.7302326 C61.7302326,29.4697674 61.6930233,28.9116279 61.3209302,29.1348837 L61.2093023,29.2465116 C60.8,30.2511628 61.0232558,31.5534884 61.3581395,32.7813953 C61.9162791,35.1627907 62.9209302,37.5069767 63.3674419,39.8883721 C63.4790698,40.4837209 63.5534884,41.1534884 63.4790698,41.7488372 C62.7348837,42.9023256 61.9162791,44.0186047 61.0232558,45.0604651 L60.9860465,45.1348837 C61.4697674,43.7209302 61.3209302,41.9348837 60.8744186,40.3348837 C60.3906977,38.2139535 59.6465116,36.1674419 59.0511628,34.0465116 C58.9767442,33.8232558 58.9395349,33.6 58.9395349,33.6 C58.7534884,33.4511628 58.7534884,33.5627907 58.7162791,33.6744186 C58.6790698,33.7860465 58.6790698,33.7860465 58.6790698,33.7860465 C58.6046512,34.8651163 58.6046512,35.8697674 58.6790698,36.9116279 C58.827907,39.144186 59.1627907,41.3767442 59.7209302,43.6093023 C59.944186,44.2418605 60.1674419,45.0232558 60.1302326,45.8790698" id="Fill-15_4_" fill="#59B9E9"></path>
                            <g id="Group" transform="translate(4.465116, 8.558140)" fill-rule="nonzero">
                                <g transform="translate(0.000000, 19.720930)" id="Path">
                                    <path d="M13.0976744,9.00465116 L6.99534884,2.53023256 L2.56744186,6.69767442 L8.63255814,13.172093 C8.81860465,13.3581395 9.11627907,13.3581395 9.30232558,13.2093023 L13.0604651,9.6744186 C13.2465116,9.48837209 13.2837209,9.19069767 13.0976744,9.00465116 Z" fill="#EDEDEE"></path>
                                    <path d="M4.8744186,0.297674419 C4.68837209,0.111627907 4.39069767,0.111627907 4.20465116,0.260465116 L0.446511628,3.79534884 C0.260465116,3.98139535 0.260465116,4.27906977 0.409302326,4.46511628 L2.53023256,6.73488372 L6.95813953,2.56744186 L4.8744186,0.297674419 Z" fill="#F15E5E"></path>
                                    <path d="M4.57674419,4.39069767 L4.53953488,4.24186047 L4.50232558,4.16744186 C4.53953488,4.16744186 4.53953488,4.13023256 4.53953488,4.13023256 C4.53953488,4.13023256 4.53953488,4.13023256 4.53953488,4.13023256 C4.53953488,4.13023256 4.53953488,4.09302326 4.53953488,4.09302326 C4.53953488,4.09302326 4.53953488,4.05581395 4.53953488,4.05581395 C4.53953488,4.05581395 4.53953488,4.05581395 4.50232558,4.01860465 C4.50232558,4.01860465 4.50232558,4.01860465 4.46511628,4.01860465 C4.46511628,4.01860465 4.46511628,4.01860465 4.46511628,4.01860465 C4.46511628,4.01860465 4.42790698,4.01860465 4.42790698,4.05581395 L4.35348837,3.83255814 C4.35348837,3.83255814 4.35348837,3.83255814 4.35348837,3.83255814 C4.35348837,3.83255814 4.35348837,3.83255814 4.35348837,3.83255814 C4.35348837,3.83255814 4.35348837,3.83255814 4.35348837,3.83255814 C4.35348837,3.83255814 4.35348837,3.83255814 4.35348837,3.83255814 L4.35348837,3.83255814 L4.35348837,3.83255814 C4.39069767,3.83255814 4.39069767,3.79534884 4.39069767,3.79534884 C4.42790698,3.75813953 4.42790698,3.75813953 4.42790698,3.75813953 C4.42790698,3.75813953 4.42790698,3.75813953 4.42790698,3.75813953 C4.42790698,3.75813953 4.42790698,3.75813953 4.42790698,3.72093023 C4.42790698,3.72093023 4.42790698,3.72093023 4.42790698,3.72093023 C4.42790698,3.68372093 4.39069767,3.64651163 4.39069767,3.64651163 C4.39069767,3.64651163 4.35348837,3.60930233 4.35348837,3.60930233 C4.31627907,3.57209302 4.27906977,3.53488372 4.24186047,3.53488372 C4.24186047,3.53488372 4.24186047,3.53488372 4.24186047,3.53488372 C4.24186047,3.53488372 4.24186047,3.53488372 4.24186047,3.53488372 C4.24186047,3.53488372 4.24186047,3.53488372 4.24186047,3.53488372 L4.24186047,3.53488372 C4.24186047,3.53488372 4.24186047,3.53488372 4.24186047,3.53488372 C4.24186047,3.53488372 4.24186047,3.53488372 4.24186047,3.53488372 L4.13023256,3.2372093 L4.13023256,3.2 C4.20465116,3.1255814 4.24186047,3.08837209 4.27906977,3.01395349 C4.27906977,3.01395349 4.27906977,3.01395349 4.27906977,3.01395349 C4.31627907,2.93953488 4.35348837,2.90232558 4.39069767,2.82790698 C4.39069767,2.82790698 4.39069767,2.82790698 4.39069767,2.79069767 C4.39069767,2.75348837 4.42790698,2.75348837 4.42790698,2.71627907 C4.42790698,2.71627907 4.42790698,2.71627907 4.42790698,2.71627907 C4.42790698,2.67906977 4.46511628,2.64186047 4.46511628,2.64186047 C4.46511628,2.64186047 4.46511628,2.60465116 4.46511628,2.60465116 C4.46511628,2.56744186 4.46511628,2.53023256 4.46511628,2.49302326 C4.46511628,2.49302326 4.46511628,2.49302326 4.46511628,2.49302326 C4.46511628,2.49302326 4.46511628,2.49302326 4.46511628,2.49302326 L4.46511628,2.49302326 L4.46511628,2.49302326 C4.42790698,2.45581395 4.39069767,2.45581395 4.31627907,2.45581395 C4.31627907,2.45581395 4.31627907,2.45581395 4.27906977,2.45581395 C4.27906977,2.45581395 4.24186047,2.45581395 4.24186047,2.45581395 C4.20465116,2.45581395 4.20465116,2.45581395 4.16744186,2.49302326 C4.13023256,2.49302326 4.05581395,2.53023256 4.01860465,2.56744186 C3.94418605,2.60465116 3.90697674,2.64186047 3.83255814,2.67906977 C3.83255814,2.67906977 3.79534884,2.67906977 3.79534884,2.71627907 C3.75813953,2.75348837 3.72093023,2.79069767 3.64651163,2.82790698 L3.64651163,2.82790698 L3.64651163,2.82790698 L3.64651163,2.82790698 L3.64651163,2.82790698 L3.64651163,2.82790698 L3.64651163,2.82790698 L3.64651163,2.82790698 L3.60930233,2.82790698 C3.60930233,2.82790698 3.60930233,2.82790698 3.60930233,2.82790698 L3.2744186,2.67906977 C3.2744186,2.67906977 3.2744186,2.67906977 3.2744186,2.67906977 C3.2744186,2.67906977 3.2744186,2.67906977 3.2744186,2.67906977 L3.2744186,2.67906977 L3.2744186,2.67906977 L3.2744186,2.67906977 L3.2744186,2.67906977 C3.2744186,2.67906977 3.31162791,2.64186047 3.31162791,2.64186047 C3.31162791,2.64186047 3.31162791,2.64186047 3.31162791,2.64186047 C3.31162791,2.60465116 3.2744186,2.53023256 3.2,2.49302326 C3.2,2.49302326 3.2,2.49302326 3.1627907,2.45581395 C3.1627907,2.45581395 3.1255814,2.41860465 3.1255814,2.41860465 C3.1255814,2.41860465 3.1255814,2.41860465 3.08837209,2.41860465 C3.05116279,2.41860465 3.05116279,2.38139535 3.01395349,2.38139535 C3.01395349,2.38139535 3.01395349,2.38139535 3.01395349,2.38139535 C3.01395349,2.38139535 2.97674419,2.41860465 2.93953488,2.45581395 C2.93953488,2.45581395 2.93953488,2.45581395 2.90232558,2.49302326 C2.90232558,2.49302326 2.90232558,2.49302326 2.86511628,2.53023256 L2.86511628,2.53023256 L2.86511628,2.53023256 L2.86511628,2.53023256 L2.86511628,2.53023256 C2.86511628,2.53023256 2.86511628,2.53023256 2.86511628,2.53023256 L2.71627907,2.45581395 C2.71627907,2.45581395 2.71627907,2.45581395 2.75348837,2.41860465 C2.75348837,2.41860465 2.75348837,2.41860465 2.75348837,2.41860465 C2.79069767,2.38139535 2.71627907,2.34418605 2.71627907,2.34418605 L2.71627907,2.34418605 L2.71627907,2.34418605 C2.71627907,2.34418605 2.71627907,2.34418605 2.67906977,2.38139535 C2.67906977,2.38139535 2.67906977,2.38139535 2.67906977,2.38139535 C2.67906977,2.38139535 2.67906977,2.38139535 2.64186047,2.41860465 L2.60465116,2.23255814 L2.45581395,2.38139535 L2.45581395,2.38139535 L2.45581395,2.38139535 L2.64186047,2.56744186 L2.82790698,2.75348837 C2.82790698,2.75348837 2.82790698,2.75348837 2.82790698,2.75348837 C2.82790698,2.75348837 2.82790698,2.75348837 2.82790698,2.75348837 C2.82790698,2.75348837 2.82790698,2.75348837 2.82790698,2.75348837 C2.82790698,2.75348837 2.82790698,2.75348837 2.82790698,2.75348837 L2.82790698,2.75348837 L2.82790698,2.75348837 L2.82790698,2.75348837 C2.82790698,2.79069767 2.79069767,2.79069767 2.79069767,2.82790698 C2.79069767,2.82790698 2.79069767,2.86511628 2.79069767,2.86511628 C2.79069767,2.86511628 2.79069767,2.86511628 2.79069767,2.90232558 C2.79069767,2.90232558 2.79069767,2.90232558 2.79069767,2.90232558 C2.82790698,2.93953488 2.86511628,2.90232558 2.93953488,2.86511628 L2.93953488,2.86511628 L2.93953488,2.86511628 L2.93953488,2.86511628 L2.93953488,2.86511628 C2.93953488,2.86511628 2.93953488,2.86511628 2.93953488,2.86511628 C2.93953488,2.86511628 2.93953488,2.86511628 2.93953488,2.86511628 C2.93953488,2.86511628 2.93953488,2.86511628 2.97674419,2.86511628 L3.1627907,3.05116279 L3.34883721,3.2372093 C3.1627907,3.42325581 2.97674419,3.68372093 2.82790698,3.86976744 C2.82790698,3.86976744 2.79069767,3.90697674 2.79069767,3.90697674 C2.79069767,3.90697674 2.75348837,3.94418605 2.75348837,3.94418605 L2.75348837,3.90697674 L2.75348837,3.86976744 L2.26976744,3.79534884 L2.12093023,3.98139535 L2.12093023,3.98139535 L2.12093023,3.98139535 L2.53023256,4.20465116 L2.53023256,4.16744186 C2.53023256,4.16744186 2.53023256,4.20465116 2.49302326,4.20465116 C2.49302326,4.20465116 2.49302326,4.24186047 2.49302326,4.24186047 C2.49302326,4.24186047 2.49302326,4.24186047 2.49302326,4.24186047 C2.49302326,4.24186047 2.49302326,4.24186047 2.49302326,4.24186047 C2.49302326,4.24186047 2.53023256,4.24186047 2.56744186,4.20465116 L2.56744186,4.20465116 L2.56744186,4.20465116 L2.75348837,4.61395349 L2.97674419,4.50232558 L2.93953488,4.01860465 L2.93953488,4.01860465 L2.93953488,4.01860465 L2.90232558,4.01860465 L2.86511628,4.01860465 C3.05116279,3.90697674 3.2744186,3.75813953 3.49767442,3.60930233 C3.53488372,3.57209302 3.60930233,3.53488372 3.64651163,3.49767442 L3.90697674,3.83255814 C3.90697674,3.83255814 3.90697674,3.86976744 3.90697674,3.86976744 C3.90697674,3.86976744 3.90697674,3.86976744 3.90697674,3.86976744 C3.90697674,3.86976744 3.90697674,3.86976744 3.90697674,3.86976744 L3.90697674,3.86976744 C3.86976744,3.90697674 3.86976744,3.94418605 3.86976744,3.98139535 C3.86976744,4.01860465 3.86976744,4.01860465 3.86976744,4.05581395 C3.86976744,4.05581395 3.86976744,4.05581395 3.90697674,4.05581395 C3.94418605,4.05581395 3.98139535,4.01860465 4.01860465,4.01860465 L4.01860465,4.01860465 L4.01860465,4.01860465 C4.01860465,4.01860465 4.01860465,4.01860465 4.01860465,4.01860465 L4.01860465,4.01860465 C4.01860465,4.01860465 4.01860465,4.01860465 4.01860465,4.01860465 C4.01860465,4.01860465 4.01860465,4.01860465 4.01860465,4.01860465 L4.42790698,4.50232558 L4.42790698,4.50232558 L4.42790698,4.50232558 L4.57674419,4.39069767 Z" fill="#FFFFFF"></path>
                                </g>
                                <g transform="translate(5.953488, 17.116279)" id="Path">
                                    <path d="M9.71162791,12.0186047 L6.95813953,3.57209302 L1.15348837,5.46976744 L3.90697674,13.9162791 C3.98139535,14.1767442 4.24186047,14.2883721 4.50232558,14.2139535 L9.41395349,12.6139535 C9.6372093,12.5395349 9.78604651,12.2790698 9.71162791,12.0186047 Z" fill="#FFFFFF"></path>
                                    <path d="M6.02790698,0.63255814 C5.95348837,0.372093023 5.69302326,0.260465116 5.43255814,0.334883721 L0.520930233,1.93488372 C0.260465116,2.00930233 0.148837209,2.26976744 0.223255814,2.53023256 L1.19069767,5.46976744 L6.99534884,3.57209302 L6.02790698,0.63255814 Z" fill="#F15E5E"></path>
                                    <path d="M3.98139535,4.24186047 L4.01860465,4.09302326 L4.01860465,4.01860465 C4.05581395,4.01860465 4.05581395,4.01860465 4.09302326,4.01860465 C4.09302326,4.01860465 4.09302326,4.01860465 4.09302326,4.01860465 C4.09302326,4.01860465 4.09302326,4.01860465 4.09302326,3.98139535 C4.09302326,3.94418605 4.09302326,3.94418605 4.09302326,3.94418605 C4.09302326,3.94418605 4.09302326,3.90697674 4.09302326,3.90697674 C4.09302326,3.90697674 4.09302326,3.90697674 4.09302326,3.86976744 C4.09302326,3.86976744 4.09302326,3.86976744 4.09302326,3.86976744 C4.09302326,3.86976744 4.05581395,3.86976744 4.05581395,3.86976744 L4.09302326,3.60930233 C4.09302326,3.60930233 4.09302326,3.60930233 4.09302326,3.60930233 C4.09302326,3.60930233 4.09302326,3.60930233 4.09302326,3.60930233 C4.09302326,3.60930233 4.09302326,3.60930233 4.09302326,3.60930233 C4.09302326,3.60930233 4.09302326,3.60930233 4.09302326,3.60930233 L4.09302326,3.60930233 L4.09302326,3.60930233 C4.13023256,3.60930233 4.13023256,3.60930233 4.16744186,3.60930233 C4.20465116,3.60930233 4.20465116,3.60930233 4.24186047,3.57209302 C4.24186047,3.57209302 4.24186047,3.57209302 4.24186047,3.57209302 C4.24186047,3.57209302 4.24186047,3.57209302 4.24186047,3.53488372 C4.24186047,3.53488372 4.24186047,3.53488372 4.24186047,3.53488372 C4.24186047,3.49767442 4.24186047,3.46046512 4.24186047,3.42325581 C4.24186047,3.38604651 4.24186047,3.38604651 4.24186047,3.34883721 C4.24186047,3.2744186 4.20465116,3.2372093 4.16744186,3.2372093 C4.16744186,3.2372093 4.16744186,3.2372093 4.16744186,3.2372093 C4.16744186,3.2372093 4.16744186,3.2372093 4.16744186,3.2372093 C4.16744186,3.2372093 4.16744186,3.2372093 4.16744186,3.2372093 L4.16744186,3.2372093 C4.16744186,3.2372093 4.16744186,3.2372093 4.16744186,3.2372093 C4.16744186,3.2372093 4.16744186,3.2372093 4.16744186,3.2372093 L4.20465116,2.93953488 L4.20465116,2.90232558 C4.27906977,2.86511628 4.35348837,2.82790698 4.42790698,2.79069767 C4.42790698,2.79069767 4.42790698,2.79069767 4.46511628,2.79069767 C4.53953488,2.75348837 4.61395349,2.71627907 4.65116279,2.67906977 C4.65116279,2.67906977 4.65116279,2.67906977 4.68837209,2.67906977 C4.7255814,2.67906977 4.7255814,2.64186047 4.7627907,2.64186047 C4.7627907,2.64186047 4.7627907,2.64186047 4.7627907,2.64186047 C4.8,2.60465116 4.8,2.60465116 4.8372093,2.56744186 C4.8372093,2.56744186 4.8372093,2.56744186 4.8744186,2.53023256 C4.91162791,2.49302326 4.91162791,2.45581395 4.91162791,2.45581395 C4.91162791,2.45581395 4.91162791,2.45581395 4.91162791,2.45581395 C4.91162791,2.45581395 4.91162791,2.45581395 4.91162791,2.45581395 L4.91162791,2.45581395 L4.91162791,2.45581395 C4.91162791,2.41860465 4.8744186,2.38139535 4.8,2.38139535 C4.8,2.38139535 4.8,2.38139535 4.7627907,2.38139535 C4.7627907,2.38139535 4.7255814,2.38139535 4.7255814,2.38139535 C4.68837209,2.38139535 4.68837209,2.38139535 4.65116279,2.38139535 C4.61395349,2.38139535 4.53953488,2.38139535 4.50232558,2.38139535 C4.42790698,2.38139535 4.35348837,2.38139535 4.27906977,2.41860465 C4.27906977,2.41860465 4.24186047,2.41860465 4.24186047,2.41860465 C4.20465116,2.41860465 4.13023256,2.45581395 4.09302326,2.45581395 L4.09302326,2.45581395 L4.09302326,2.45581395 L4.09302326,2.45581395 L4.09302326,2.45581395 L4.09302326,2.45581395 L4.09302326,2.45581395 L4.09302326,2.45581395 L4.05581395,2.41860465 C4.05581395,2.41860465 4.05581395,2.41860465 4.05581395,2.41860465 L3.83255814,2.15813953 C3.83255814,2.15813953 3.83255814,2.15813953 3.83255814,2.15813953 C3.83255814,2.15813953 3.83255814,2.15813953 3.83255814,2.15813953 L3.83255814,2.15813953 L3.83255814,2.15813953 L3.83255814,2.15813953 L3.83255814,2.15813953 C3.83255814,2.15813953 3.86976744,2.15813953 3.86976744,2.15813953 C3.86976744,2.15813953 3.86976744,2.15813953 3.86976744,2.15813953 C3.86976744,2.12093023 3.86976744,2.04651163 3.83255814,1.97209302 C3.83255814,1.97209302 3.83255814,1.97209302 3.83255814,1.93488372 C3.83255814,1.93488372 3.83255814,1.89767442 3.79534884,1.89767442 C3.79534884,1.89767442 3.79534884,1.89767442 3.79534884,1.86046512 C3.79534884,1.82325581 3.75813953,1.82325581 3.75813953,1.82325581 C3.75813953,1.82325581 3.75813953,1.82325581 3.75813953,1.82325581 C3.75813953,1.82325581 3.72093023,1.82325581 3.64651163,1.86046512 C3.64651163,1.86046512 3.64651163,1.86046512 3.60930233,1.86046512 C3.60930233,1.86046512 3.57209302,1.86046512 3.57209302,1.86046512 L3.57209302,1.86046512 L3.57209302,1.86046512 L3.57209302,1.86046512 L3.57209302,1.86046512 C3.57209302,1.86046512 3.57209302,1.86046512 3.53488372,1.86046512 L3.34883721,1.6744186 C3.34883721,1.6744186 3.38604651,1.6744186 3.38604651,1.6744186 C3.38604651,1.6744186 3.38604651,1.6744186 3.38604651,1.6744186 C3.42325581,1.6372093 3.38604651,1.6 3.38604651,1.5627907 L3.38604651,1.5627907 L3.38604651,1.5627907 C3.38604651,1.5627907 3.34883721,1.5627907 3.34883721,1.5627907 C3.34883721,1.5627907 3.34883721,1.5627907 3.34883721,1.5627907 C3.34883721,1.5627907 3.31162791,1.5627907 3.31162791,1.5627907 L3.1627907,1.37674419 L2.90232558,1.48837209 L2.90232558,1.48837209 L2.90232558,1.48837209 L3.01395349,1.74883721 L3.1255814,2.00930233 C3.1255814,2.00930233 3.1255814,2.00930233 3.1255814,2.00930233 C3.1255814,2.00930233 3.1255814,2.00930233 3.1255814,2.00930233 C3.1255814,2.00930233 3.1255814,2.00930233 3.1255814,2.00930233 C3.1255814,2.00930233 3.1255814,2.00930233 3.1255814,2.00930233 L3.1255814,2.00930233 L3.1255814,2.00930233 L3.1255814,2.00930233 C3.08837209,2.00930233 3.08837209,2.04651163 3.05116279,2.04651163 C3.05116279,2.04651163 3.05116279,2.04651163 3.01395349,2.08372093 C3.01395349,2.08372093 3.01395349,2.08372093 3.01395349,2.12093023 C3.01395349,2.12093023 3.01395349,2.12093023 3.01395349,2.12093023 C3.01395349,2.15813953 3.08837209,2.15813953 3.1627907,2.15813953 L3.1627907,2.15813953 L3.1627907,2.15813953 L3.1627907,2.15813953 L3.1627907,2.15813953 C3.1627907,2.15813953 3.1627907,2.15813953 3.1627907,2.15813953 C3.1627907,2.15813953 3.1627907,2.15813953 3.1627907,2.15813953 C3.1627907,2.15813953 3.2,2.15813953 3.2,2.15813953 L3.2744186,2.38139535 L3.34883721,2.60465116 C3.08837209,2.71627907 2.82790698,2.82790698 2.60465116,2.93953488 C2.60465116,2.93953488 2.56744186,2.93953488 2.56744186,2.97674419 C2.56744186,2.97674419 2.53023256,2.97674419 2.53023256,3.01395349 L2.56744186,3.01395349 L2.60465116,3.01395349 L2.23255814,2.71627907 L2.00930233,2.82790698 L2.00930233,2.82790698 L2.00930233,2.82790698 L2.26976744,3.2 L2.30697674,3.2 C2.30697674,3.2 2.26976744,3.2372093 2.26976744,3.2372093 C2.26976744,3.2372093 2.26976744,3.2372093 2.23255814,3.2744186 C2.23255814,3.2744186 2.23255814,3.2744186 2.23255814,3.2744186 C2.23255814,3.2744186 2.23255814,3.2744186 2.23255814,3.2744186 C2.23255814,3.2744186 2.26976744,3.2744186 2.30697674,3.2744186 L2.30697674,3.2744186 L2.26976744,3.2744186 L2.23255814,3.72093023 L2.45581395,3.72093023 L2.60465116,3.2744186 L2.60465116,3.2744186 L2.60465116,3.2744186 L2.56744186,3.2744186 L2.53023256,3.2744186 C2.75348837,3.2372093 3.01395349,3.2372093 3.2744186,3.1627907 C3.34883721,3.1627907 3.38604651,3.1255814 3.46046512,3.1255814 L3.57209302,3.53488372 C3.57209302,3.53488372 3.57209302,3.53488372 3.53488372,3.57209302 C3.53488372,3.57209302 3.53488372,3.57209302 3.53488372,3.57209302 C3.53488372,3.57209302 3.53488372,3.57209302 3.53488372,3.57209302 L3.53488372,3.57209302 C3.49767442,3.60930233 3.46046512,3.60930233 3.46046512,3.64651163 C3.46046512,3.68372093 3.42325581,3.68372093 3.42325581,3.68372093 C3.42325581,3.68372093 3.42325581,3.68372093 3.46046512,3.72093023 C3.49767442,3.72093023 3.53488372,3.72093023 3.57209302,3.72093023 L3.57209302,3.72093023 L3.57209302,3.72093023 C3.57209302,3.72093023 3.57209302,3.72093023 3.57209302,3.72093023 L3.57209302,3.72093023 C3.57209302,3.72093023 3.57209302,3.72093023 3.57209302,3.72093023 C3.57209302,3.72093023 3.57209302,3.72093023 3.57209302,3.72093023 L3.72093023,4.31627907 L3.72093023,4.31627907 L3.72093023,4.31627907 L3.98139535,4.24186047 Z" fill="#FFFFFF"></path>
                                </g>
                                <g transform="translate(13.395349, 15.627907)">
                                    <polygon id="Path" fill="#E6E7E7" points="0 2.93953488 1.6 17.8232558 6.21395349 16.1488372 4.57674419 1.15348837"></polygon>
                                    <polygon id="Path" fill="#E6E7E7" points="9.45116279 1.93488372 11.0511628 16.8186047 6.21395349 16.1488372 4.57674419 1.15348837"></polygon>
                                    <polygon id="Path" fill="#E6E7E7" points="9.45116279 1.93488372 11.0511628 16.8186047 15.6651163 15.144186 14.0651163 0.148837209"></polygon>
                                    <polygon id="Path" fill="#E6E7E7" points="18.9395349 0.930232558 20.5023256 15.8139535 15.6651163 15.144186 14.0651163 0.148837209"></polygon>
                                    <polygon id="Path" fill="#56CAF5" points="6.13953488 15.7767442 1.86046512 17.3395349 0.334883721 3.2 4.65116279 1.5255814 9.48837209 2.30697674 14.1023256 0.520930233 18.6418605 1.22790698 20.1674419 15.3674419 15.627907 14.772093 11.0139535 16.4465116"></polygon>
                                    <polygon id="Path" fill="#FFFFFF" points="18.9023256 3.49767442 18.8651163 3.2 14.3627907 2.56744186 14.3255814 2.56744186 9.71162791 4.24186047 5.58139535 3.49767442 5.54418605 3.49767442 0.558139535 5.17209302 0.595348837 5.46976744 5.58139535 3.79534884 9.74883721 4.50232558 14.3627907 2.82790698"></polygon>
                                    <path d="M6.95813953,1.89767442 L7.77674419,9.74883721 C7.77674419,9.74883721 7.77674419,9.74883721 7.77674419,9.74883721 C7.70232558,9.86046512 6.95813953,9.71162791 6.66046512,9.6372093 C6.4,9.5627907 6.21395349,9.5255814 6.06511628,9.5255814 C5.61860465,9.5255814 4.20465116,9.82325581 3.68372093,10.2325581 C3.2372093,10.5674419 3.34883721,11.4976744 3.46046512,12.5023256 C3.49767442,12.7255814 3.53488372,12.9488372 3.53488372,13.1348837 L3.90697674,16.5953488 L4.13023256,16.5209302 L3.75813953,13.1348837 C3.72093023,12.9116279 3.72093023,12.6883721 3.68372093,12.4651163 C3.57209302,11.6093023 3.46046512,10.7162791 3.79534884,10.4930233 C4.27906977,10.1581395 5.61860465,9.82325581 6.06511628,9.82325581 C6.17674419,9.82325581 6.4,9.86046512 6.62325581,9.93488372 C7.29302326,10.0837209 7.73953488,10.1581395 7.9255814,9.97209302 C8,9.89767442 8,9.82325581 8,9.71162791 L7.18139535,1.93488372 L6.95813953,1.89767442 Z" id="Path" fill="#FFFFFF"></path>
                                    <path d="M19.2,6.62325581 L19.2,6.3255814 C17.5627907,6.17674419 14.8837209,5.95348837 14.6976744,5.99069767 C14.5488372,5.99069767 14.2883721,6.10232558 13.9906977,6.21395349 C13.8046512,6.28837209 13.5813953,6.3627907 13.4325581,6.4372093 L13.3953488,6.4372093 C13.0232558,6.54883721 12.5023256,6.69767442 12.5767442,7.59069767 L12.9488372,10.9767442 C12.9488372,11.0511628 12.9488372,11.1255814 12.9860465,11.2 C13.0232558,11.6093023 13.1348837,12.6511628 12.9860465,12.7255814 C12.6883721,12.8372093 10.9395349,13.3581395 10.2325581,13.4325581 C9.82325581,13.4697674 8.70697674,13.3581395 7.66511628,13.2465116 C6.80930233,13.172093 6.10232558,13.0604651 5.87906977,13.0976744 C5.39534884,13.1348837 3.83255814,13.8418605 3.75813953,13.8790698 L3.83255814,14.1395349 C3.83255814,14.1395349 5.43255814,13.4325581 5.91627907,13.3581395 C6.10232558,13.3209302 6.88372093,13.4325581 7.66511628,13.5069767 C8.66976744,13.6186047 9.86046512,13.7302326 10.2697674,13.6930233 C11.0511628,13.6186047 12.8,13.0976744 13.0976744,12.9860465 C13.4325581,12.8372093 13.3581395,12.1302326 13.2465116,11.1627907 C13.2465116,11.0883721 13.2093023,11.0139535 13.2093023,10.9395349 L12.8372093,7.55348837 C12.7627907,6.88372093 13.0976744,6.80930233 13.4697674,6.69767442 L13.5069767,6.69767442 C13.655814,6.66046512 13.8790698,6.54883721 14.1023256,6.4744186 C14.3627907,6.3627907 14.6232558,6.25116279 14.7348837,6.25116279 C14.8837209,6.25116279 17.1906977,6.4372093 19.2,6.62325581 Z" id="Path" fill="#FFFFFF"></path>
                                    <polygon id="Path" fill="#FFFFFF" points="17.9348837 15.0697674 18.1581395 15.1069767 17.227907 6.28837209 17.0046512 6.3255814"></polygon>
                                    <polygon id="Rectangle" fill="#FFFFFF" transform="translate(15.705607, 4.539736) rotate(-6.095972) translate(-15.705607, -4.539736) " points="15.5939734 2.86522529 15.8172415 2.86522529 15.8172415 6.21424634 15.5939734 6.21424634"></polygon>
                                    <path d="M0.855813953,7.85116279 L0.893023256,8.11162791 C2.41860465,7.66511628 4.8744186,6.99534884 5.24651163,6.95813953 C5.76744186,6.92093023 7.62790698,7.21860465 7.62790698,7.21860465 L7.66511628,6.95813953 C7.59069767,6.95813953 5.76744186,6.66046512 5.20930233,6.69767442 C4.8372093,6.73488372 2.38139535,7.44186047 0.855813953,7.85116279 Z" id="Path" fill="#FFFFFF"></path>
                                    <path d="M10.1953488,5.06046512 L10.344186,6.62325581 C10.3813953,6.84651163 10.5302326,6.99534884 10.7162791,6.92093023 L11.6093023,6.69767442 C11.7581395,6.66046512 11.8697674,6.51162791 11.8325581,6.3255814 L11.6465116,4.65116279 C11.6093023,4.42790698 11.4232558,4.27906977 11.2372093,4.35348837 L10.3813953,4.68837209 C10.2697674,4.7627907 10.1953488,4.91162791 10.1953488,5.06046512 Z" id="Path" fill="#FFFFFF"></path>
                                    <path d="M12.1302326,4.50232558 L12.2790698,5.95348837 C12.3162791,6.21395349 12.5023256,6.3627907 12.7255814,6.3255814 L13.9162791,5.99069767 C14.1023256,5.95348837 14.1767442,5.76744186 14.1767442,5.54418605 L14.027907,3.98139535 C13.9906977,3.72093023 13.7674419,3.53488372 13.544186,3.64651163 L12.3906977,4.09302326 C12.2046512,4.13023256 12.0930233,4.31627907 12.1302326,4.50232558 Z" id="Path" fill="#FFFFFF"></path>
                                    <path d="M19.8697674,12.8744186 C19.5348837,12.8744186 19.1255814,12.8372093 18.6790698,12.8 C16.6697674,12.6139535 16.6325581,12.3162791 16.6325581,12.3162791 C16.5953488,12.0930233 16.5953488,11.7953488 16.5581395,11.4232558 C16.4837209,9.86046512 16.4093023,9.5627907 16.2232558,9.5255814 C16.0372093,9.48837209 15.0697674,9.41395349 14.5488372,9.48837209 C14.2883721,9.5255814 13.4697674,9.86046512 12.4651163,10.2697674 C11.4232558,10.6790698 10.2697674,11.1627907 9.93488372,11.2 C9.6,11.2372093 8.44651163,11.1255814 7.47906977,10.9767442 C6.58604651,10.8651163 5.84186047,10.7906977 5.61860465,10.827907 C5.24651163,10.8651163 2.53023256,11.7581395 1.30232558,12.1674419 L1.33953488,12.4651163 C2.93953488,11.944186 5.32093023,11.1627907 5.65581395,11.1255814 C5.87906977,11.0883721 6.69767442,11.2 7.47906977,11.2744186 C8.52093023,11.3860465 9.6372093,11.5348837 10.0093023,11.4976744 C10.3813953,11.4604651 11.4976744,11.0139535 12.6139535,10.5674419 C13.5069767,10.1953488 14.4,9.82325581 14.6232558,9.82325581 C15.1069767,9.78604651 15.9627907,9.86046512 16.2232558,9.86046512 C16.2976744,10.0465116 16.3348837,10.9395349 16.372093,11.4976744 C16.4093023,11.8697674 16.4093023,12.2046512 16.4465116,12.3906977 C16.4837209,12.6511628 16.7813953,12.9488372 18.7162791,13.1348837 C19.1255814,13.172093 19.572093,13.2093023 19.944186,13.2093023 L19.8697674,12.8744186 Z" id="Path" fill="#FFFFFF"></path>
                                    <path d="M19.4232558,8.55813953 C17.7860465,8.33488372 14.7348837,7.9627907 14.4,8.0372093 L14.2139535,8.0744186 C13.544186,8.26046512 12.2046512,8.66976744 11.9069767,8.78139535 C11.6093023,8.89302326 11.2372093,9.04186047 11.3116279,9.6744186 L11.9813953,16.0744186 L12.2046512,16 L11.5348837,9.6744186 C11.4976744,9.30232558 11.6837209,9.19069767 11.9813953,9.07906977 C12.2418605,8.96744186 13.655814,8.55813953 14.2511628,8.40930233 L14.4372093,8.37209302 C14.6976744,8.29767442 17.3023256,8.59534884 19.4232558,8.89302326 L19.4232558,8.55813953 Z" id="Path" fill="#FFFFFF"></path>
                                    <polygon id="Path" fill="#FFFFFF" points="8.44651163 16.0744186 8.70697674 16.1116279 8.18604651 11.1627907 7.9255814 11.2"></polygon>
                                    <path d="M19.6465116,10.7162791 C18.1581395,10.5302326 15.4046512,10.2325581 15.144186,10.2325581 C14.8837209,10.1953488 14.6604651,10.3069767 14.5488372,10.4930233 C14.4372093,10.6418605 14.4,10.7906977 14.4,10.9395349 L14.5488372,12.2418605 C14.6232558,13.0604651 14.5488372,13.2465116 14.4744186,13.2837209 C14.1395349,13.4325581 11.3116279,14.4372093 10.9767442,14.4744186 C10.7162791,14.5116279 10.0837209,14.5488372 10.0465116,14.2139535 L9.26511628,6.92093023 C9.19069767,6.17674419 9.04186047,5.39534884 8.59534884,5.35813953 C8.26046512,5.32093023 5.69302326,5.13488372 5.02325581,5.20930233 C4.57674419,5.24651163 2.19534884,5.99069767 0.706976744,6.4744186 L0.744186047,6.84651163 C2.49302326,6.28837209 4.68837209,5.61860465 5.06046512,5.58139535 C5.69302326,5.50697674 8.26046512,5.69302326 8.55813953,5.73023256 C8.63255814,5.73023256 8.81860465,5.87906977 8.93023256,6.95813953 L9.71162791,14.2511628 C9.74883721,14.5860465 10.0093023,14.9581395 11.0139535,14.8465116 C11.3860465,14.8093023 14.2883721,13.7302326 14.5860465,13.6186047 C14.9953488,13.4325581 14.9209302,12.6139535 14.8837209,12.2046512 L14.7348837,10.9023256 C14.7348837,10.827907 14.7348837,10.7906977 14.8093023,10.7162791 C14.8837209,10.6046512 15.0325581,10.5674419 15.1813953,10.5674419 C15.4418605,10.6046512 18.2325581,10.9023256 19.7209302,11.0511628 L19.6465116,10.7162791 Z" id="Path" fill="#FCEE1F"></path>
                                    <path d="M1.71162791,13.0976744 L2.04651163,16.2232558 C2.08372093,16.4837209 2.30697674,16.6697674 2.53023256,16.5953488 L3.31162791,16.2976744 C3.46046512,16.2232558 3.57209302,16.0372093 3.53488372,15.8511628 L3.2,12.7627907 C3.1627907,12.5023256 2.93953488,12.3162791 2.71627907,12.3906977 L1.97209302,12.6511628 C1.82325581,12.7255814 1.71162791,12.9116279 1.71162791,13.0976744 Z" id="Path" fill="#FFFFFF"></path>
                                    <path d="M3.68372093,8.22325581 L3.79534884,9.19069767 C3.83255814,9.41395349 4.01860465,9.5627907 4.16744186,9.48837209 L4.98604651,9.22790698 C5.13488372,9.19069767 5.20930233,9.04186047 5.20930233,8.85581395 L5.06046512,7.81395349 C5.02325581,7.59069767 4.8372093,7.44186047 4.65116279,7.51627907 L3.86976744,7.85116279 C3.72093023,7.88837209 3.64651163,8.0372093 3.68372093,8.22325581 Z" id="Path" fill="#FFFFFF"></path>
                                    <path d="M6.80930233,15.3674419 L7.70232558,15.4790698 C7.88837209,15.5162791 8,15.3302326 8,15.144186 L7.88837209,14.2139535 C7.88837209,14.0651163 7.77674419,13.9534884 7.62790698,13.9162791 L6.73488372,13.7674419 C6.54883721,13.7302326 6.4,13.9162791 6.4372093,14.1023256 L6.54883721,15.0697674 C6.58604651,15.255814 6.69767442,15.3674419 6.80930233,15.3674419 Z" id="Path" fill="#FFFFFF"></path>
                                    <path d="M11.8697674,2.12093023 L11.944186,2.64186047 C11.944186,2.79069767 12.0930233,2.90232558 12.2418605,2.86511628 L13.655814,2.30697674 C13.7674419,2.26976744 13.8046512,2.15813953 13.8046512,2.04651163 L13.7302326,1.41395349 C13.7302326,1.22790698 13.544186,1.15348837 13.4325581,1.19069767 L12.0186047,1.86046512 C11.9069767,1.89767442 11.8697674,2.00930233 11.8697674,2.12093023 Z" id="Path" fill="#FFFFFF"></path>
                                    <path d="M2.82790698,2.97674419 L2.90232558,3.60930233 C2.90232558,3.75813953 3.05116279,3.86976744 3.2,3.83255814 L4.20465116,3.46046512 C4.31627907,3.42325581 4.35348837,3.31162791 4.35348837,3.2 L4.27906977,2.53023256 C4.27906977,2.34418605 4.09302326,2.26976744 3.98139535,2.30697674 L2.97674419,2.71627907 C2.86511628,2.75348837 2.82790698,2.86511628 2.82790698,2.97674419 Z" id="Path" fill="#FFFFFF"></path>
                                    <path d="M12.5023256,14.8093023 L12.5395349,15.2186047 C12.5395349,15.3674419 12.6883721,15.4418605 12.7627907,15.4046512 L14.4372093,14.772093 C14.5116279,14.7348837 14.5860465,14.6604651 14.5488372,14.5488372 L14.5116279,14.1395349 C14.5116279,13.9906977 14.3627907,13.9162791 14.2883721,13.9534884 L12.6139535,14.5860465 C12.5395349,14.6232558 12.4651163,14.6976744 12.5023256,14.8093023 Z" id="Path" fill="#FFFFFF"></path>
                                    <g opacity="0.31" transform="translate(13.767442, 0.372093)" fill="#231F20" id="Path">
                                        <polygon points="0.334883721 0.148837209 1.86046512 14.4 6.4 14.9953488 4.8744186 0.855813953"></polygon>
                                    </g>
                                    <g opacity="0.31" transform="translate(4.465116, 1.488372)" fill="#231F20" id="Path">
                                        <polygon points="0.223255814 0.0744186047 1.74883721 14.3255814 6.25116279 14.9209302 4.7627907 0.781395349"></polygon>
                                    </g>
                                </g>
                                <g transform="translate(32.000000, 0.000000)">
                                    <g transform="translate(0.000000, 10.790698)">
                                        <path d="M9.93488372,40.9302326 L9.48837209,40.9302326 C8.93023256,40.9302326 8.48372093,40.4837209 8.48372093,39.9255814 L8.48372093,39.144186 C8.48372093,38.5860465 8.93023256,38.1395349 9.48837209,38.1395349 L9.93488372,38.1395349 C10.4930233,38.1395349 10.9395349,38.5860465 10.9395349,39.144186 L10.9395349,39.9255814 C10.9395349,40.4837209 10.4930233,40.9302326 9.93488372,40.9302326 Z" id="Path" fill="#424143"></path>
                                        <path d="M21.8046512,39.5534884 L21.3581395,39.5534884 C20.8,39.5534884 20.3534884,39.1069767 20.3534884,38.5488372 L20.3534884,37.7674419 C20.3534884,37.2093023 20.8,36.7627907 21.3581395,36.7627907 L21.8046512,36.7627907 C22.3627907,36.7627907 22.8093023,37.2093023 22.8093023,37.7674419 L22.8093023,38.5488372 C22.8093023,39.1069767 22.3627907,39.5534884 21.8046512,39.5534884 Z" id="Path" fill="#424143"></path>
                                        <path d="M26.1581395,0.96744186 L19.7581395,0.520930233 C18.0093023,0.111627907 3.86976744,0.409302326 1.78604651,1.5255814 C0.48372093,2.19534884 0.223255814,4.61395349 0.223255814,7.36744186 C0.223255814,10.1209302 0.223255814,33.3023256 0.223255814,35.1627907 C0.223255814,36.5767442 1.74883721,38.4 3.53488372,38.6976744 L3.53488372,38.6976744 L3.53488372,38.6976744 C3.83255814,38.7348837 4.16744186,38.8837209 4.50232558,38.8837209 L10.7162791,39.9627907 C10.7162791,39.9627907 11.572093,39.3674419 12.7255814,38.5860465 C15.2930233,38.3255814 17.6744186,38.0651163 18.2325581,37.8790698 C19.4976744,37.4697674 22.5488372,36.2046512 22.5488372,32.9302326 C22.5488372,31.0697674 22.5488372,24.2604651 22.5488372,18.1209302 C24.3348837,9.6372093 26.1581395,0.96744186 26.1581395,0.96744186 Z" id="Path" fill="#408CAC"></path>
                                        <g opacity="0.09" transform="translate(0.372093, 1.860465)" fill="#FFFFFF" id="Path">
                                            <path d="M0,2.60465116 L8.44651163,3.42325581 L9.19069767,0.893023256 L0.781395349,0.223255814 C0.372093023,0.781395349 0.148837209,1.6 0,2.60465116 Z"></path>
                                        </g>
                                        <path d="M26.1581395,0.96744186 C24.4093023,0.558139535 10.2697674,0.855813953 8.18604651,1.97209302 C6.88372093,2.64186047 6.62325581,5.06046512 6.62325581,7.81395349 C6.62325581,10.5674419 6.62325581,35.1255814 6.62325581,36.9860465 C6.62325581,38.8465116 9.26511628,40.2976744 11.572093,39.8883721 C13.8790698,39.4790698 23.3674419,38.7348837 24.6325581,38.3255814 C25.8976744,37.9162791 28.9488372,36.6511628 28.9488372,33.3767442 C28.9488372,30.1023256 28.9488372,12.0186047 28.9488372,8.33488372 C28.9488372,4.65116279 28.3534884,1.48837209 26.1581395,0.96744186 Z" id="Path" fill="#59B9E9"></path>
                                        <g opacity="0.1" transform="translate(0.000000, 20.837209)" fill="#231F20" id="Path">
                                            <path d="M28.8744186,12.5395349 C28.8744186,10.9023256 28.8744186,5.50697674 28.8744186,0.111627907 C28.8744186,0.186046512 28.8744186,5.50697674 27.1255814,11.1255814 C25.3767442,16.8186047 16.9674419,16.372093 12.1302326,16.0372093 C7.29302326,15.7023256 6.58604651,9.48837209 6.58604651,9.48837209 C6.58604651,9.48837209 5.87906977,15.8883721 3.01395349,15.627907 C0.334883721,15.4046512 0.223255814,11.0511628 0.223255814,10.455814 C0.223255814,12.4651163 0.223255814,13.9162791 0.223255814,14.3255814 C0.223255814,15.7395349 1.74883721,17.5627907 3.53488372,17.8604651 L3.53488372,17.8604651 C3.83255814,17.8976744 4.16744186,18.0465116 4.50232558,18.0465116 L9.11627907,18.8651163 C9.6,19.0511628 10.1581395,19.1255814 10.7162791,19.1255814 L10.7162791,19.1255814 C10.7162791,19.1255814 10.7162791,19.1255814 10.7162791,19.1255814 C11.0139535,19.1255814 11.3116279,19.0883721 11.6093023,19.0511628 C13.9162791,18.6418605 23.4046512,17.8976744 24.6697674,17.4883721 C25.8232558,17.0790698 28.8744186,15.8139535 28.8744186,12.5395349 Z"></path>
                                        </g>
                                        <path d="M7.70232558,12.6883721 C7.70232558,14.3627907 8.0744186,15.8883721 8.96744186,15.9255814 C9.86046512,15.9627907 24.3348837,14.9209302 25.3767442,14.6604651 C26.4186047,14.4 26.6046512,12.2418605 26.6046512,10.7534884 C26.6046512,9.26511628 26.1209302,7.55348837 24.0372093,7.40465116 C21.9162791,7.25581395 10.9767442,8.26046512 9.5627907,8.29767442 C8.11162791,8.37209302 7.70232558,9.97209302 7.70232558,12.6883721 Z" id="Path" fill="#408CAC"></path>
                                        <g opacity="0.09" transform="translate(7.069767, 1.116279)" fill="#FFFFFF" id="Path">
                                            <path d="M0.223255814,4.8 C0.223255814,4.8 -0.0372093023,1.48837209 2.79069767,0.96744186 C5.61860465,0.48372093 15.3674419,2.60902411e-15 17.5627907,0.260465116 C19.7581395,0.520930233 20.3906977,1.11627907 20.8744186,3.31162791 C20.8744186,3.31162791 20.2418605,0.63255814 17.227907,0.669767442 C14.2139535,0.706976744 4.91162791,1.15348837 3.34883721,1.33953488 C1.82325581,1.5627907 0.558139535,2.67906977 0.223255814,4.8 Z"></path>
                                        </g>
                                        <path d="M8.48372093,12.8372093 C8.48372093,14.5116279 8.85581395,16.0372093 9.74883721,16.0744186 C10.6418605,16.1488372 25.1162791,15.0697674 26.1581395,14.8093023 C27.1627907,14.5488372 27.3860465,12.3906977 27.3860465,10.9023256 C27.3860465,9.41395349 26.9023256,7.70232558 24.8186047,7.55348837 C22.6976744,7.40465116 11.7581395,8.40930233 10.344186,8.44651163 C8.93023256,8.52093023 8.48372093,10.1209302 8.48372093,12.8372093 Z" id="Path" fill="#59B9E9"></path>
                                        <path d="M7.70232558,21.9906977 C7.70232558,23.6651163 6.80930233,32.8186047 10.4930233,32.5953488 C11.3860465,32.5581395 22.9209302,31.6651163 23.9627907,31.5162791 C27.3116279,31.0325581 26.6046512,21.5813953 26.6046512,20.0930233 C26.6046512,18.6046512 26.1209302,16.8930233 24.0372093,16.744186 C21.9162791,16.5953488 10.9767442,17.6 9.5627907,17.6372093 C8.11162791,17.6744186 7.70232558,19.2372093 7.70232558,21.9906977 Z" id="Path" fill="#408CAC"></path>
                                        <path d="M8.59534884,22.2511628 C8.59534884,23.9255814 7.70232558,33.0790698 11.3860465,32.855814 C12.2790698,32.8186047 23.8139535,31.9255814 24.855814,31.7767442 C28.2046512,31.2930233 27.4976744,21.8418605 27.4976744,20.3534884 C27.4976744,18.8651163 27.0139535,17.1534884 24.9302326,17.0046512 C22.8093023,16.855814 11.8697674,17.8604651 10.455814,17.8976744 C9.00465116,17.9348837 8.59534884,19.5348837 8.59534884,22.2511628 Z" id="Path" fill="#59B9E9"></path>
                                        <g opacity="0.17" transform="translate(8.930233, 7.813953)" fill="#FFFFFF" id="Path">
                                            <path d="M0.0372093023,4.01860465 C0.0372093023,4.01860465 0.0744186047,1.41395349 1.26511628,1.26511628 C2.45581395,1.11627907 14.3255814,0.260465116 15.6651163,0.334883721 C17.0046512,0.446511628 17.8976744,1.33953488 17.7860465,2.79069767 C17.7860465,2.79069767 17.5255814,0.818604651 15.4790698,0.706976744 C13.3953488,0.595348837 2.64186047,1.48837209 1.6,1.6372093 C0.558139535,1.78604651 0,3.42325581 0.0372093023,4.01860465 Z"></path>
                                        </g>
                                        <g opacity="0.17" transform="translate(8.930233, 17.488372)" fill="#FFFFFF" id="Path">
                                            <path d="M0.186046512,3.83255814 C0.186046512,3.83255814 0.223255814,1.22790698 1.41395349,1.07906977 C2.60465116,0.930232558 14.4744186,0.0744186047 15.8139535,0.148837209 C17.1534884,0.260465116 18.0465116,1.15348837 17.9348837,2.60465116 C17.9348837,2.60465116 17.6744186,0.63255814 15.627907,0.520930233 C13.544186,0.409302326 2.79069767,1.30232558 1.74883721,1.45116279 C0.706976744,1.6 0.148837209,3.2372093 0.186046512,3.83255814 Z"></path>
                                        </g>
                                        <g transform="translate(10.046512, 8.930233)" fill="#FFFFFF">
                                            <path d="M0.223255814,1.15348837 C0.186046512,1.15348837 0.148837209,1.11627907 0.148837209,1.07906977 C0.148837209,1.04186047 0.186046512,1.00465116 0.223255814,1.00465116 C0.334883721,1.00465116 11.6837209,0.0372093023 14.8093023,0.0744186047 C14.8465116,0.0744186047 14.8837209,0.111627907 14.8837209,0.148837209 C14.8837209,0.186046512 14.8465116,0.223255814 14.8093023,0.223255814 C11.6837209,0.186046512 0.334883721,1.15348837 0.223255814,1.15348837 C0.223255814,1.15348837 0.223255814,1.15348837 0.223255814,1.15348837 Z" id="Path"></path>
                                            <path d="M1.12095706,1.45116279 C1.07604397,1.15348837 0.941304699,0.930232558 0.716739247,0.930232558 C0.492173794,0.930232558 0.357434523,1.15348837 0.312521432,1.45116279 C0.267608342,1.74883721 -0.00187020096,2.67906977 0.716739247,2.67906977 C1.43534869,2.71627907 1.21078324,1.74883721 1.12095706,1.45116279 Z M0.716739247,1.00465116 C0.806565428,1.00465116 0.896391609,1.07906977 0.896391609,1.19069767 C0.896391609,1.30232558 0.806565428,1.37674419 0.716739247,1.37674419 C0.626913066,1.37674419 0.537086885,1.30232558 0.537086885,1.19069767 C0.537086885,1.07906977 0.626913066,1.00465116 0.716739247,1.00465116 Z M0.716739247,2.64186047 C0.222695252,2.64186047 0.267608342,2.08372093 0.267608342,2.08372093 L1.12095706,2.08372093 C1.16587015,2.12093023 1.21078324,2.64186047 0.716739247,2.64186047 Z" id="Shape"></path>
                                        </g>
                                        <g transform="translate(10.418605, 18.604651)" fill="#FFFFFF">
                                            <path d="M0.223255814,1.30232558 C0.186046512,1.30232558 0.148837209,1.26511628 0.148837209,1.22790698 C0.148837209,1.19069767 0.186046512,1.15348837 0.223255814,1.15348837 C0.334883721,1.15348837 11.6837209,0.186046512 14.8093023,0.223255814 C14.8465116,0.223255814 14.8837209,0.260465116 14.8837209,0.297674419 C14.8837209,0.334883721 14.8465116,0.372093023 14.8093023,0.372093023 C11.6837209,0.334883721 0.334883721,1.30232558 0.223255814,1.30232558 C0.223255814,1.30232558 0.223255814,1.30232558 0.223255814,1.30232558 Z" id="Path"></path>
                                            <path d="M1.18882098,1.6372093 C1.14236956,1.33953488 1.0030153,1.11627907 0.770758215,1.11627907 C0.538501125,1.11627907 0.399146872,1.33953488 0.352695454,1.6372093 C0.306244036,1.93488372 0.0275355288,2.86511628 0.770758215,2.86511628 C1.46752948,2.86511628 1.23527239,1.93488372 1.18882098,1.6372093 Z M0.770758215,1.15348837 C0.863661051,1.15348837 0.956563886,1.22790698 0.956563886,1.33953488 C0.956563886,1.45116279 0.863661051,1.5255814 0.770758215,1.5255814 C0.677855379,1.5255814 0.584952543,1.45116279 0.584952543,1.33953488 C0.584952543,1.26511628 0.631403961,1.15348837 0.770758215,1.15348837 Z M0.770758215,2.82790698 C0.259792618,2.82790698 0.306244036,2.26976744 0.306244036,2.26976744 L1.18882098,2.26976744 C1.18882098,2.26976744 1.23527239,2.82790698 0.770758215,2.82790698 Z" id="Shape"></path>
                                        </g>
                                    </g>
                                    <g transform="translate(7.069767, 10.418605)" id="Path">
                                        <path d="M0.669767442,0.223255814 C0.818604651,0.148837209 2.00930233,0.111627907 2.19534884,0.111627907 C2.38139535,0.0744186047 3.68372093,0.223255814 3.75813953,0.334883721 C3.83255814,0.446511628 2.30697674,0.706976744 2.30697674,0.706976744 L0.669767442,0.223255814 Z" fill="#C2C3C4"></path>
                                        <path d="M0.223255814,1.37674419 C0.223255814,1.37674419 0.48372093,0.223255814 0.669767442,0.223255814 C0.855813953,0.223255814 2.26976744,0.334883721 2.30697674,0.372093023 C2.38139535,0.409302326 2.30697674,1.6744186 2.30697674,1.6744186 L0.223255814,1.37674419 Z" fill="#E5E6E7"></path>
                                        <path d="M2.34418605,0.372093023 C2.34418605,0.372093023 3.75813953,0.223255814 3.83255814,0.372093023 C3.90697674,0.520930233 4.01860465,1.48837209 4.01860465,1.48837209 L2.30697674,1.6744186 L2.30697674,0.372093023 L2.34418605,0.372093023 Z" fill="#CFD1D2"></path>
                                    </g>
                                    <g transform="translate(16.372093, 10.046512)" id="Path">
                                        <path d="M0.669767442,0.409302326 C0.781395349,0.372093023 1.74883721,0.334883721 1.89767442,0.297674419 C2.04651163,0.297674419 3.08837209,0.409302326 3.1627907,0.48372093 C3.2372093,0.558139535 2.00930233,0.781395349 2.00930233,0.781395349 L0.669767442,0.409302326 Z" fill="#C2C3C4"></path>
                                        <path d="M0.297674419,1.30232558 C0.297674419,1.30232558 0.520930233,0.372093023 0.669767442,0.372093023 C0.818604651,0.372093023 1.93488372,0.446511628 1.97209302,0.48372093 C2.00930233,0.520930233 1.97209302,1.5255814 1.97209302,1.5255814 L0.297674419,1.30232558 Z" fill="#E5E6E7"></path>
                                        <path d="M1.97209302,0.520930233 C1.97209302,0.520930233 3.08837209,0.409302326 3.1627907,0.520930233 C3.2372093,0.669767442 3.31162791,1.37674419 3.31162791,1.37674419 L1.97209302,1.5255814 L1.97209302,0.520930233 Z" fill="#CFD1D2"></path>
                                    </g>
                                    <g transform="translate(8.186047, 0.372093)" id="Path">
                                        <path d="M0.260465116,10.2325581 C0.260465116,10.2325581 0.260465116,3.1627907 0.260465116,2.38139535 C0.260465116,1.6 0.297674419,0.48372093 1.82325581,0.446511628 C3.34883721,0.409302326 8.26046512,0.297674419 9.11627907,0.260465116 C9.93488372,0.223255814 10.3813953,1.04186047 10.3813953,1.86046512 C10.3813953,2.71627907 10.3813953,10.0465116 10.3813953,10.0465116 L9.30232558,10.0465116 C9.30232558,10.0465116 9.30232558,3.38604651 9.30232558,2.64186047 C9.30232558,1.89767442 9.00465116,1.6372093 8.26046512,1.6 C7.51627907,1.5627907 2.12093023,1.82325581 1.82325581,1.86046512 C1.5255814,1.89767442 1.5255814,2.45581395 1.5255814,2.97674419 C1.5255814,3.49767442 1.5255814,10.1953488 1.5255814,10.1953488 C1.5255814,10.1953488 0.781395349,10.4930233 0.260465116,10.2325581 Z" fill="#9A9D9F"></path>
                                        <path d="M0.818604651,10.344186 C0.818604651,10.344186 0.818604651,3.1627907 0.818604651,2.38139535 C0.818604651,1.6 0.855813953,0.48372093 2.38139535,0.446511628 C3.90697674,0.409302326 8.81860465,0.297674419 9.6744186,0.260465116 C10.4930233,0.223255814 10.9395349,1.04186047 10.9395349,1.86046512 C10.9395349,2.71627907 10.9395349,10.0465116 10.9395349,10.0465116 L9.89767442,10.0465116 C9.89767442,10.0465116 9.89767442,3.38604651 9.89767442,2.64186047 C9.89767442,1.89767442 9.6,1.6372093 8.85581395,1.6 C8.11162791,1.5627907 2.71627907,1.82325581 2.41860465,1.86046512 C2.12093023,1.89767442 2.12093023,2.45581395 2.12093023,2.97674419 C2.12093023,3.49767442 2.12093023,10.1953488 2.12093023,10.1953488 C2.12093023,10.1953488 1.33953488,10.6046512 0.818604651,10.344186 Z" fill="#C2C3C4"></path>
                                    </g>
                                    <path d="M11.0139535,0.781395349 L11.0139535,2.23255814 L10.7162791,2.26976744 C10.7162791,2.26976744 10.7534884,2.60465116 11.2,2.60465116 C11.6465116,2.60465116 16.2976744,2.38139535 16.5953488,2.34418605 C16.8930233,2.34418605 17.0790698,1.74883721 17.0046512,1.26511628 C16.9302326,0.781395349 16.855814,0.334883721 16.4465116,0.334883721 C16.0372093,0.334883721 11.1255814,0.48372093 10.9023256,0.48372093 C10.6790698,0.48372093 10.5674419,0.818604651 10.5674419,0.818604651 L11.0139535,0.781395349 Z" id="Path" fill="#5A4B43"></path>
                                    <g opacity="0.1" transform="translate(10.418605, 0.744186)" fill="#231F20" id="Path">
                                        <path d="M5.65581395,1.07906977 C4.8744186,1.11627907 2.00930233,1.15348837 1.37674419,1.15348837 C0.744186047,1.15348837 0.63255814,0.409302326 0.63255814,0.409302326 L0.63255814,1.48837209 L0.334883721,1.5255814 C0.334883721,1.5255814 0.372093023,1.86046512 0.818604651,1.86046512 C1.26511628,1.86046512 5.91627907,1.6372093 6.21395349,1.6 C6.51162791,1.6 6.69767442,1.00465116 6.62325581,0.520930233 C6.62325581,0.409302326 6.58604651,0.297674419 6.58604651,0.223255814 C6.4,0.558139535 6.17674419,1.04186047 5.65581395,1.07906977 Z"></path>
                                    </g>
                                    <g opacity="0.09" transform="translate(10.418605, 0.000000)" fill="#FFFFFF" id="Path">
                                        <path d="M6.4,0.595348837 C6.3255814,0.446511628 6.21395349,0.334883721 5.99069767,0.334883721 C5.58139535,0.334883721 0.669767442,0.48372093 0.446511628,0.48372093 C0.297674419,0.48372093 0.186046512,0.63255814 0.148837209,0.744186047 C0.186046512,0.781395349 0.223255814,0.781395349 0.223255814,0.818604651 L0.558139535,0.781395349 L0.558139535,1.04186047 C0.893023256,1.22790698 1.33953488,1.33953488 1.97209302,1.30232558 C3.53488372,1.22790698 4.98604651,1.26511628 5.69302326,1.22790698 C6.17674419,1.22790698 6.4,0.930232558 6.4,0.595348837 Z"></path>
                                    </g>
                                </g>
                                <g transform="translate(2.232558, 25.302326)" id="Path">
                                    <path d="M17.1906977,0.706976744 L13.3953488,0.520930233 C13.3581395,0.520930233 13.2837209,0.520930233 13.2465116,0.558139535 L13.2465116,0.558139535 L12.8744186,0.744186047 L13.0976744,0.855813953 L12.427907,3.01395349 C12.3906977,3.1255814 12.2790698,3.2 12.1674419,3.2 L11.7953488,3.1627907 C11.7581395,3.1627907 11.6837209,3.1627907 11.6465116,3.2 L11.6465116,3.2 L11.2744186,3.38604651 L11.4976744,3.57209302 C11.4976744,3.72093023 11.572093,3.83255814 11.7209302,3.83255814 L11.8697674,3.83255814 L12.1302326,4.01860465 L12.5395349,3.83255814 L12.5395349,3.83255814 C12.5767442,3.79534884 12.6139535,3.75813953 12.6511628,3.68372093 L13.544186,1.11627907 C13.5813953,1.00465116 13.6930233,0.930232558 13.8046512,0.930232558 L17.0418605,1.07906977 C17.0046512,0.893023256 17.0790698,0.781395349 17.1906977,0.706976744 Z" fill="#816F66"></path>
                                    <g transform="translate(0.000000, 2.232558)">
                                        <path d="M31.3302326,2.15813953 C31.3302326,2.15813953 5.58139535,0.148837209 4.8372093,0.0744186047 C4.68837209,0.0744186047 4.53953488,0.0744186047 4.39069767,0.148837209 L4.39069767,0.148837209 L4.39069767,0.148837209 C4.35348837,0.148837209 4.31627907,0.186046512 4.27906977,0.186046512 L1.07906977,1.5255814 L3.38604651,3.38604651 C3.38604651,7.81395349 3.38604651,18.344186 3.38604651,19.0883721 C3.38604651,20.0186047 4.24186047,20.4651163 5.09767442,20.6139535 C5.76744186,20.7255814 19.8325581,21.9906977 27.0883721,22.5488372 L28.8,23.9627907 L31.7767442,22.7348837 C31.8139535,22.7348837 31.8511628,22.6976744 31.8883721,22.6976744 L31.8883721,22.6976744 L31.8883721,22.6976744 C32.4837209,22.4372093 32.8186047,21.8790698 32.8186047,21.0232558 C32.8186047,19.944186 32.8186047,5.84186047 32.8186047,4.39069767 C32.8186047,2.93953488 32.2232558,2.23255814 31.3302326,2.15813953 Z" fill="#C44B4B"></path>
                                        <path d="M27.9813953,3.60930233 C27.9813953,3.60930233 2.23255814,1.6 1.48837209,1.5255814 C0.781395349,1.45116279 0.0372093023,2.30697674 0.0372093023,2.90232558 C0.0372093023,3.46046512 0.0372093023,19.6093023 0.0372093023,20.5395349 C0.0372093023,21.4697674 0.893023256,21.9162791 1.74883721,22.0651163 C2.60465116,22.2139535 27.0139535,24.372093 27.944186,24.2976744 C28.8744186,24.2232558 29.4697674,23.5906977 29.4697674,22.5116279 C29.4697674,21.4325581 29.4697674,7.33023256 29.4697674,5.87906977 C29.4697674,4.39069767 28.8372093,3.68372093 27.9813953,3.60930233 Z" fill="#F15E5E"></path>
                                        <path d="M0.520930233,3.90697674 C0.520930233,3.90697674 0.0744186047,1.71162791 2.30697674,1.89767442 C4.53953488,2.08372093 25.8976744,3.79534884 26.9767442,3.90697674 C28.055814,4.01860465 28.8744186,4.35348837 28.7255814,6.4372093 C28.7255814,6.4372093 28.7627907,4.61395349 26.6790698,4.42790698 C24.5953488,4.24186047 3.75813953,2.49302326 2.60465116,2.41860465 C1.48837209,2.30697674 0.96744186,2.34418605 0.520930233,3.90697674 Z" fill="#C44B4B"></path>
                                        <g opacity="0.1" transform="translate(0.000000, 16.744186)" fill="#231F20">
                                            <path d="M27.9813953,7.51627907 C28.3534884,7.47906977 28.6511628,7.36744186 28.8744186,7.18139535 L28.8744186,7.18139535 L31.8511628,5.95348837 C31.8883721,5.95348837 31.9255814,5.91627907 31.9627907,5.91627907 L31.9627907,5.91627907 C32.5581395,5.65581395 32.8930233,5.09767442 32.8930233,4.24186047 C32.8930233,3.90697674 32.8930233,2.34418605 32.8930233,0.297674419 C32.8930233,1.37674419 32.855814,4.7255814 31.1813953,4.98604651 C29.5069767,5.20930233 29.544186,1.89767442 29.544186,1.89767442 C29.544186,5.17209302 27.2372093,6.17674419 25.7116279,6.17674419 C24.1860465,6.17674419 7.9255814,4.8 3.83255814,4.31627907 C1.82325581,4.05581395 0.706976744,2.97674419 0.0744186047,1.89767442 C0.0744186047,2.90232558 0.0744186047,3.57209302 0.0744186047,3.72093023 C0.0744186047,4.65116279 0.930232558,5.09767442 1.78604651,5.24651163 C2.64186047,5.43255814 27.0139535,7.59069767 27.9813953,7.51627907 Z"></path>
                                        </g>
                                        <path d="M12.055814,0.669767442 C12.055814,0.669767442 9.5255814,1.86046512 9.11627907,2.15813953 C8.70697674,2.41860465 8.81860465,4.42790698 8.81860465,5.73023256 C8.81860465,7.03255814 8.81860465,22.7348837 8.81860465,22.7348837 L5.91627907,22.4744186 C5.91627907,22.4744186 5.91627907,3.83255814 5.91627907,2.67906977 C5.91627907,1.5627907 8.74418605,0.409302326 8.74418605,0.409302326 L12.055814,0.669767442 Z" fill="#5A4B43"></path>
                                        <path d="M25.0046512,1.6744186 C25.0046512,1.6744186 22.027907,2.97674419 21.6186047,3.2372093 C21.2093023,3.49767442 21.3209302,5.50697674 21.3209302,6.80930233 C21.3209302,8.11162791 21.3209302,23.8139535 21.3209302,23.8139535 L18.4186047,23.5534884 C18.4186047,23.5534884 18.4186047,4.91162791 18.4186047,3.75813953 C18.4186047,2.64186047 22.1767442,1.37674419 22.1767442,1.37674419 L25.0046512,1.6744186 Z" fill="#5A4B43"></path>
                                        <path d="M8.78139535,0.409302326 C8.78139535,0.409302326 6.4,1.15348837 5.95348837,1.89767442 C5.46976744,2.64186047 5.06046512,5.06046512 5.02325581,6.02790698 C4.98604651,6.99534884 5.58139535,8.0372093 6.3627907,8.0744186 C7.14418605,8.11162791 7.70232558,7.36744186 8,6.10232558 C8.29767442,4.8372093 8.29767442,2.56744186 9.37674419,2.00930233 C10.455814,1.45116279 12.0930233,0.669767442 12.0930233,0.669767442 L8.78139535,0.409302326 Z" fill="#6F5C53"></path>
                                        <path d="M21.7302326,1.41395349 C21.7302326,1.41395349 19.3488372,2.15813953 18.9023256,2.90232558 C18.4186047,3.64651163 18.0093023,6.06511628 17.972093,7.03255814 C17.9348837,8 18.5302326,9.04186047 19.3116279,9.07906977 C20.0930233,9.11627907 20.6511628,8.37209302 20.9488372,7.10697674 C21.2465116,5.84186047 21.2465116,3.57209302 22.3255814,3.01395349 C23.4046512,2.45581395 25.0418605,1.6744186 25.0418605,1.6744186 L21.7302326,1.41395349 Z" fill="#6F5C53"></path>
                                        <path d="M6.51162791,1.41395349 C6.51162791,1.41395349 9.6744186,1.78604651 9.89767442,1.78604651 C10.0837209,1.78604651 10.455814,1.6372093 10.1953488,1.5627907 C9.97209302,1.48837209 7.03255814,1.19069767 6.80930233,1.19069767 C6.58604651,1.19069767 6.28837209,1.37674419 6.51162791,1.41395349 Z" fill="#9A8479"></path>
                                        <path d="M7.9255814,0.744186047 C7.9255814,0.744186047 10.9395349,1.04186047 11.1255814,1.04186047 C11.3116279,1.04186047 11.6465116,0.930232558 11.4232558,0.855813953 C11.2,0.781395349 8.44651163,0.558139535 8.22325581,0.558139535 C8,0.558139535 7.70232558,0.744186047 7.9255814,0.744186047 Z" fill="#9A8479"></path>
                                        <path d="M19.572093,2.34418605 C19.572093,2.34418605 22.7348837,2.71627907 22.9581395,2.71627907 C23.144186,2.71627907 23.5162791,2.56744186 23.255814,2.49302326 C23.0325581,2.41860465 20.0930233,2.12093023 19.8697674,2.12093023 C19.6465116,2.12093023 19.3488372,2.30697674 19.572093,2.34418605 Z" fill="#9A8479"></path>
                                        <path d="M21.0232558,1.71162791 C21.0232558,1.71162791 24.0372093,2.00930233 24.2232558,2.00930233 C24.4093023,2.00930233 24.744186,1.89767442 24.5209302,1.82325581 C24.2976744,1.74883721 21.544186,1.5255814 21.3209302,1.5255814 C21.0604651,1.5255814 20.7627907,1.6744186 21.0232558,1.71162791 Z" fill="#9A8479"></path>
                                        <g transform="translate(18.976744, 9.674419)">
                                            <path d="M1.48837209,0.818604651 C1.48837209,1.19069767 1.19069767,1.45116279 0.855813953,1.45116279 C0.48372093,1.45116279 0.223255814,1.15348837 0.223255814,0.818604651 C0.223255814,0.446511628 0.520930233,0.186046512 0.855813953,0.186046512 C1.22790698,0.148837209 1.48837209,0.446511628 1.48837209,0.818604651 Z" fill="#AAABAD"></path>
                                            <path d="M0.223255814,0.818604651 C0.223255814,1.00465116 0.297674419,1.15348837 0.409302326,1.26511628 C0.48372093,1.30232558 0.595348837,1.33953488 0.706976744,1.33953488 C1.04186047,1.33953488 1.33953488,1.07906977 1.33953488,0.706976744 C1.33953488,0.48372093 1.22790698,0.260465116 1.00465116,0.186046512 C0.96744186,0.186046512 0.930232558,0.186046512 0.893023256,0.186046512 C0.48372093,0.148837209 0.223255814,0.446511628 0.223255814,0.818604651 Z" fill="#BBBDBF"></path>
                                            <path d="M0.744186047,0.706976744 C0.744186047,0.855813953 0.669767442,0.930232558 0.558139535,0.930232558 C0.446511628,0.930232558 0.372093023,0.818604651 0.372093023,0.706976744 C0.372093023,0.595348837 0.446511628,0.48372093 0.558139535,0.48372093 C0.669767442,0.48372093 0.744186047,0.558139535 0.744186047,0.706976744 Z" fill="#D0D2D3"></path>
                                        </g>
                                        <g transform="translate(6.325581, 8.930233)">
                                            <path d="M1.5255814,0.893023256 C1.5255814,1.26511628 1.22790698,1.5255814 0.893023256,1.5255814 C0.558139535,1.5255814 0.260465116,1.22790698 0.260465116,0.893023256 C0.260465116,0.558139535 0.558139535,0.260465116 0.893023256,0.260465116 C1.22790698,0.260465116 1.5255814,0.558139535 1.5255814,0.893023256 Z" fill="#AAABAD"></path>
                                            <path d="M0.223255814,0.893023256 C0.223255814,1.07906977 0.297674419,1.22790698 0.409302326,1.33953488 C0.48372093,1.37674419 0.595348837,1.41395349 0.706976744,1.41395349 C1.04186047,1.41395349 1.33953488,1.15348837 1.33953488,0.781395349 C1.33953488,0.558139535 1.22790698,0.334883721 1.00465116,0.260465116 C0.96744186,0.260465116 0.930232558,0.260465116 0.893023256,0.260465116 C0.520930233,0.260465116 0.223255814,0.558139535 0.223255814,0.893023256 Z" fill="#BBBDBF"></path>
                                            <path d="M0.781395349,0.781395349 C0.781395349,0.930232558 0.706976744,1.00465116 0.595348837,1.00465116 C0.48372093,1.00465116 0.409302326,0.893023256 0.409302326,0.781395349 C0.409302326,0.63255814 0.48372093,0.558139535 0.595348837,0.558139535 C0.706976744,0.558139535 0.781395349,0.669767442 0.781395349,0.781395349 Z" fill="#D0D2D3"></path>
                                        </g>
                                        <g transform="translate(18.976744, 19.720930)">
                                            <path d="M1.48837209,0.930232558 C1.48837209,1.30232558 1.19069767,1.5627907 0.855813953,1.5627907 C0.48372093,1.5627907 0.223255814,1.26511628 0.223255814,0.930232558 C0.223255814,0.558139535 0.520930233,0.297674419 0.855813953,0.297674419 C1.22790698,0.297674419 1.48837209,0.595348837 1.48837209,0.930232558 Z" fill="#AAABAD"></path>
                                            <path d="M0.223255814,0.930232558 C0.223255814,1.11627907 0.297674419,1.26511628 0.409302326,1.37674419 C0.48372093,1.41395349 0.595348837,1.45116279 0.706976744,1.45116279 C1.04186047,1.45116279 1.33953488,1.19069767 1.33953488,0.818604651 C1.33953488,0.595348837 1.22790698,0.372093023 1.00465116,0.297674419 C0.96744186,0.297674419 0.930232558,0.297674419 0.893023256,0.297674419 C0.48372093,0.297674419 0.223255814,0.595348837 0.223255814,0.930232558 Z" fill="#BBBDBF"></path>
                                            <path d="M0.744186047,0.818604651 C0.744186047,0.96744186 0.669767442,1.04186047 0.558139535,1.04186047 C0.446511628,1.04186047 0.372093023,0.930232558 0.372093023,0.818604651 C0.372093023,0.669767442 0.446511628,0.595348837 0.558139535,0.595348837 C0.669767442,0.595348837 0.744186047,0.706976744 0.744186047,0.818604651 Z" fill="#D0D2D3"></path>
                                        </g>
                                        <g transform="translate(6.325581, 18.976744)">
                                            <path d="M1.5255814,0.706976744 C1.5255814,1.07906977 1.22790698,1.33953488 0.893023256,1.33953488 C0.558139535,1.33953488 0.260465116,1.04186047 0.260465116,0.706976744 C0.260465116,0.334883721 0.558139535,0.0744186047 0.893023256,0.0744186047 C1.22790698,0.0744186047 1.5255814,0.334883721 1.5255814,0.706976744 Z" fill="#AAABAD"></path>
                                            <path d="M0.223255814,0.706976744 C0.223255814,0.893023256 0.297674419,1.04186047 0.409302326,1.15348837 C0.48372093,1.19069767 0.595348837,1.22790698 0.706976744,1.22790698 C1.04186047,1.22790698 1.33953488,0.96744186 1.33953488,0.595348837 C1.33953488,0.372093023 1.22790698,0.148837209 1.00465116,0.0744186047 C0.96744186,0.0744186047 0.930232558,0.0744186047 0.893023256,0.0744186047 C0.520930233,0.0372093023 0.223255814,0.334883721 0.223255814,0.706976744 Z" fill="#BBBDBF"></path>
                                            <path d="M0.781395349,0.595348837 C0.781395349,0.744186047 0.706976744,0.818604651 0.595348837,0.818604651 C0.48372093,0.818604651 0.409302326,0.706976744 0.409302326,0.595348837 C0.409302326,0.446511628 0.48372093,0.372093023 0.595348837,0.372093023 C0.706976744,0.372093023 0.781395349,0.446511628 0.781395349,0.595348837 Z" fill="#D0D2D3"></path>
                                        </g>
                                    </g>
                                    <path d="M17.0418605,0.893023256 L13.0232558,0.706976744 C12.9116279,0.706976744 12.8,0.781395349 12.7627907,0.893023256 L12.055814,3.2 C12.0186047,3.31162791 11.9069767,3.38604651 11.7953488,3.38604651 L11.4232558,3.34883721 C11.2744186,3.34883721 11.1627907,3.42325581 11.1627907,3.53488372 L11.1255814,3.68372093 C11.0883721,3.83255814 11.2,3.98139535 11.3488372,3.98139535 L11.9813953,4.05581395 C12.0930233,4.05581395 12.2046512,3.98139535 12.2418605,3.86976744 L13.1348837,1.30232558 C13.172093,1.19069767 13.2837209,1.11627907 13.3953488,1.11627907 L17.0790698,1.30232558 C17.0046512,1.11627907 17.0046512,1.00465116 17.0418605,0.893023256 Z" fill="#9A8479"></path>
                                    <path d="M14.4372093,0.186046512 C14.7348837,0.186046512 16.8930233,0.334883721 17.227907,0.334883721 C17.8604651,0.372093023 17.8976744,1.6 17.227907,1.6 C17.0418605,1.6 14.1395349,1.41395349 13.8418605,1.37674419 C13.544186,1.37674419 13.3953488,0.111627907 14.4372093,0.186046512 Z" fill="#816F66"></path>
                                    <g opacity="0.1" transform="translate(13.395349, 0.000000)" fill="#231F20">
                                        <path d="M3.90697674,0.334883721 C3.31162791,0.595348837 3.68372093,1.33953488 3.53488372,1.33953488 C3.34883721,1.33953488 1.30232558,1.22790698 0.781395349,1.19069767 C0.446511628,1.19069767 0.297674419,0.893023256 0.260465116,0.669767442 C0.186046512,1.00465116 0.297674419,1.33953488 0.446511628,1.33953488 C0.744186047,1.37674419 3.64651163,1.5627907 3.83255814,1.5627907 C4.46511628,1.6372093 4.50232558,0.48372093 3.90697674,0.334883721 Z"></path>
                                    </g>
                                    <path d="M19.572093,3.79534884 L19.2372093,3.75813953 C19.1255814,3.75813953 19.0139535,3.64651163 19.0139535,3.53488372 L18.6790698,0.96744186 C18.6790698,0.855813953 18.5674419,0.744186047 18.455814,0.744186047 L17.5255814,0.744186047 C17.4139535,0.818604651 17.3023256,0.893023256 17.3395349,1.11627907 L18.0465116,1.11627907 C18.1581395,1.11627907 18.2697674,1.22790698 18.2697674,1.33953488 L18.4930233,4.01860465 C18.4930233,4.13023256 18.6046512,4.24186047 18.7162791,4.24186047 L19.1255814,4.27906977 L19.2744186,4.46511628 L19.6465116,4.27906977 L19.6465116,4.27906977 C19.7209302,4.24186047 19.7581395,4.20465116 19.7581395,4.13023256 L19.7581395,4.05581395 C19.8325581,3.94418605 19.7209302,3.79534884 19.572093,3.79534884 Z" fill="#786860"></path>
                                    <path d="M19.2,3.98139535 L18.8651163,3.94418605 C18.7534884,3.94418605 18.6418605,3.83255814 18.6418605,3.72093023 L18.3069767,1.15348837 C18.3069767,1.04186047 18.1953488,0.930232558 18.0837209,0.930232558 L17.4139535,0.893023256 C17.3767442,1.00465116 17.3767442,1.11627907 17.4139535,1.26511628 L17.6744186,1.30232558 C17.7860465,1.30232558 17.8976744,1.41395349 17.8976744,1.5255814 L18.1209302,4.20465116 C18.1209302,4.31627907 18.2325581,4.42790698 18.344186,4.42790698 L19.1627907,4.46511628 C19.2744186,4.46511628 19.3860465,4.39069767 19.4232558,4.27906977 L19.4232558,4.20465116 C19.4604651,4.13023256 19.3488372,3.98139535 19.2,3.98139535 Z" fill="#9A8479"></path>
                                    <g opacity="0.09" transform="translate(13.395349, 0.000000)" fill="#FFFFFF">
                                        <path d="M1.04186047,0.186046512 C0.63255814,0.148837209 0.409302326,0.334883721 0.297674419,0.520930233 C0.372093023,0.706976744 0.48372093,0.930232558 0.893023256,0.96744186 C1.48837209,1.00465116 2.93953488,1.07906977 3.1627907,1.07906977 C3.34883721,1.07906977 3.31162791,0.558139535 3.53488372,0.297674419 C2.79069767,0.260465116 1.26511628,0.186046512 1.04186047,0.186046512 Z"></path>
                                    </g>
                                </g>
                                <g transform="translate(30.139535, 43.162791)" id="Path">
                                    <path d="M10.0837209,4.39069767 C6.06511628,4.39069767 0.0372093023,5.06046512 0.372093023,7.62790698 C0.706976744,10.1953488 10.0837209,10.2697674 10.0837209,10.2697674 C10.0837209,10.2697674 19.4604651,10.1953488 19.7953488,7.62790698 C20.1302326,5.09767442 14.1023256,4.39069767 10.0837209,4.39069767 Z" fill="#D1CCBE"></path>
                                    <g opacity="0.1" transform="translate(5.209302, 4.093023)" fill="#231F20">
                                        <path d="M4.8744186,0.297674419 C4.13023256,0.297674419 3.31162791,0.334883721 2.49302326,0.372093023 L-5.28775989e-15,3.08837209 C4.8744186,6.21395349 10.9767442,2.49302326 10.9023256,4.05581395 C10.8651163,5.39534884 5.28372093,5.99069767 3.79534884,6.13953488 C4.46511628,6.17674419 4.8744186,6.17674419 4.8744186,6.17674419 C4.8744186,6.17674419 14.2511628,6.10232558 14.5860465,3.53488372 C14.9209302,1.00465116 8.89302326,0.297674419 4.8744186,0.297674419 Z"></path>
                                    </g>
                                    <path d="M5.32093023,1.26511628 C5.32093023,1.26511628 4.53953488,3.75813953 4.39069767,6.4 C4.39069767,6.4 4.8744186,8.18604651 10.0837209,8.18604651 C15.2930233,8.18604651 15.7767442,6.4744186 15.7767442,6.4744186 C15.7767442,6.4744186 15.0697674,2.04651163 14.8465116,1.26511628 C14.8465116,1.26511628 10.4930233,-0.111627907 5.32093023,1.26511628 Z" fill="#D1CCBE"></path>
                                    <path d="M15.7767442,6.4372093 C15.7767442,6.4372093 15.6651163,5.80465116 15.5534884,4.94883721 C15.0697674,5.32093023 13.6930233,6.02790698 10.1209302,6.02790698 C6.84651163,6.02790698 5.28372093,5.46976744 4.57674419,5.06046512 C4.53953488,5.46976744 4.46511628,5.91627907 4.46511628,6.3255814 C4.46511628,6.3255814 4.94883721,8.11162791 10.1581395,8.11162791 C15.2930233,8.14883721 15.7767442,6.4372093 15.7767442,6.4372093 Z" fill="#5A4B43"></path>
                                    <g opacity="0.1" transform="translate(6.697674, 0.372093)" fill="#231F20">
                                        <path d="M0.223255814,7.47906977 C1.00465116,7.66511628 2.04651163,7.77674419 3.38604651,7.77674419 C8.59534884,7.77674419 9.07906977,6.06511628 9.07906977,6.06511628 C9.07906977,6.06511628 8.37209302,1.6372093 8.14883721,0.855813953 C8.14883721,0.855813953 6.51162791,0.334883721 4.09302326,0.260465116 C4.05581395,0.297674419 4.16744186,0.372093023 4.46511628,0.446511628 C6.4,0.96744186 8.33488372,3.38604651 7.21860465,5.65581395 C6.13953488,7.88837209 0.409302326,7.51627907 0.223255814,7.47906977 Z"></path>
                                    </g>
                                    <path d="M5.32093023,1.26511628 C5.32093023,1.26511628 6.17674419,0.223255814 9.93488372,0.0744186047 C13.7302326,-0.0372093023 14.8093023,1.26511628 14.8093023,1.26511628 C14.8093023,1.26511628 11.7953488,0.334883721 5.32093023,1.26511628 Z" fill="#E3DECE"></path>
                                </g>
                            </g>
                            <g id="Group" transform="translate(11.162791, 0.000000)" fill-rule="nonzero">
                                <g>
                                    <path d="M3.83255814,1.15348837 C3.83255814,1.15348837 1.33953488,1.41395349 0.446511628,4.61395349 C-0.446511628,7.81395349 0.446511628,12.5767442 6.10232558,17.2651163 L3.83255814,1.15348837 Z" id="Path" fill="#F15E5E"></path>
                                    <path d="M5.06046512,0.63255814 C5.06046512,0.63255814 2.67906977,0.409302326 1.45116279,4.13023256 C0.223255814,7.88837209 1.33953488,11.944186 6.10232558,17.227907 L7.29302326,17.227907 L5.06046512,0.63255814 Z" id="Path" fill="#F1F1F1"></path>
                                    <path d="M6.28837209,0.297674419 C6.28837209,0.297674419 5.32093023,0.0372093023 4.39069767,0.893023256 C3.46046512,1.74883721 1.86046512,3.79534884 2.56744186,8.66976744 C3.2744186,13.544186 6.3627907,17.227907 6.3627907,17.227907 L6.99534884,17.227907 L6.28837209,0.297674419 Z" id="Path" fill="#F15E5E"></path>
                                    <path d="M7.21860465,0.186046512 C7.21860465,0.186046512 6.21395349,-0.148837209 5.50697674,0.558139535 C4.8,1.30232558 3.79534884,3.64651163 4.20465116,7.9255814 C4.61395349,12.2046512 6.62325581,17.227907 6.62325581,17.227907 L7.29302326,17.227907 L7.21860465,0.186046512 Z" id="Path" fill="#F1F1F1"></path>
                                    <path d="M10.455814,1.11627907 C10.455814,1.11627907 12.9488372,1.33953488 13.8790698,4.53953488 C14.8093023,7.70232558 13.9162791,12.5023256 8.33488372,17.227907 L10.455814,1.11627907 Z" id="Path" fill="#F15E5E"></path>
                                    <path d="M9.22790698,0.63255814 C9.22790698,0.63255814 11.6093023,0.372093023 12.8744186,4.09302326 C14.1023256,7.81395349 13.0232558,11.9069767 8.33488372,17.227907 L7.14418605,17.227907 L9.22790698,0.63255814 Z" id="Path" fill="#F1F1F1"></path>
                                    <path d="M8,0.297674419 C8,0.297674419 8.96744186,0.0372093023 9.93488372,0.893023256 C10.8651163,1.74883721 12.5023256,3.79534884 11.8325581,8.66976744 C11.1627907,13.544186 8.11162791,17.227907 8.11162791,17.227907 L7.47906977,17.227907 L8,0.297674419 Z" id="Path" fill="#F15E5E"></path>
                                    <path d="M7.03255814,0.186046512 C7.03255814,0.186046512 8.0372093,-0.148837209 8.74418605,0.558139535 C9.45116279,1.26511628 10.4930233,3.64651163 10.1209302,7.9255814 C9.74883721,12.2046512 7.77674419,17.227907 7.77674419,17.227907 L7.10697674,17.227907 L7.03255814,0.186046512 Z" id="Path" fill="#F1F1F1"></path>
                                    <path d="M7.21860465,0 C5.69302326,0 5.87906977,4.7255814 5.87906977,8.26046512 C5.87906977,11.7953488 6.95813953,17.2651163 6.95813953,17.2651163 L7.29302326,17.2651163 L7.62790698,17.2651163 C7.62790698,17.2651163 8.63255814,11.7953488 8.63255814,8.26046512 C8.63255814,4.7255814 8.74418605,0 7.21860465,0 Z" id="Path" fill="#F15E5E"></path>
                                    <path d="M4.98604651,16.2604651 C4.98604651,16.2604651 6.95813953,14.9209302 9.41395349,16.2232558 L8.29767442,17.227907 L5.91627907,17.227907 L4.98604651,16.2604651 Z" id="Path" fill="#CD2027"></path>
                                    <path d="M8.33488372,17.227907 C8.33488372,17.3395349 7.77674419,17.4511628 7.10697674,17.4511628 C6.4372093,17.4511628 5.87906977,17.3767442 5.87906977,17.2651163 C5.87906977,17.1534884 6.4372093,17.0418605 7.10697674,17.0418605 C7.77674419,17.0418605 8.33488372,17.1162791 8.33488372,17.227907 Z" id="Path" fill="#A21E21"></path>
                                    <path d="M7.10697674,17.3767442 C6.4372093,17.3767442 6.02790698,17.3023256 5.95348837,17.227907 C6.02790698,17.1906977 6.4,17.0790698 7.10697674,17.0790698 C7.77674419,17.0790698 8.18604651,17.1534884 8.26046512,17.227907 C8.18604651,17.3023256 7.81395349,17.3767442 7.10697674,17.3767442 Z" id="Path" fill="#721011"></path>
                                    <g transform="translate(5.953488, 18.604651)" id="Path">
                                        <path d="M2.23255814,0.186046512 L1.26511628,0.111627907 L1.26511628,1.6744186 C1.26511628,1.6744186 2.15813953,1.5627907 2.23255814,1.5255814 C2.30697674,1.5255814 2.23255814,0.186046512 2.23255814,0.186046512 Z" fill="#7A5434"></path>
                                        <path d="M0.297674419,0.186046512 L1.26511628,0.111627907 L1.26511628,1.6744186 C1.26511628,1.6744186 0.372093023,1.5627907 0.297674419,1.5255814 C0.223255814,1.5255814 0.297674419,0.186046512 0.297674419,0.186046512 Z" fill="#8A5F3D"></path>
                                        <g opacity="0.17" fill="#785232">
                                            <path d="M0.297674419,0.223255814 C0.297674419,0.260465116 0.297674419,0.334883721 0.297674419,0.446511628 C0.48372093,0.446511628 0.96744186,0.446511628 1.04186047,0.446511628 C1.15348837,0.48372093 1.22790698,0.744186047 1.19069767,1.15348837 C1.15348837,1.5255814 0.706976744,1.6372093 0.372093023,1.5627907 C0.558139535,1.6 1.30232558,1.71162791 1.30232558,1.71162791 C1.30232558,1.71162791 2.19534884,1.6 2.26976744,1.5627907 C2.34418605,1.5255814 2.26976744,0.409302326 2.26976744,0.223255814 L2.15813953,0.223255814 L0.297674419,0.223255814 Z"></path>
                                        </g>
                                        <path d="M1.26511628,0.0372093023 C1.26511628,0.0372093023 0.297674419,0.111627907 0.260465116,0.111627907 C0.223255814,0.111627907 0.223255814,0.372093023 0.223255814,0.409302326 C0.260465116,0.446511628 1.26511628,0.372093023 1.26511628,0.372093023 L1.26511628,0.0372093023 Z" fill="#9A6A45"></path>
                                        <path d="M1.26511628,0.0372093023 C1.26511628,0.0372093023 2.23255814,0.0744186047 2.26976744,0.111627907 C2.30697674,0.111627907 2.30697674,0.372093023 2.30697674,0.409302326 C2.30697674,0.446511628 1.26511628,0.372093023 1.26511628,0.372093023 L1.26511628,0.0372093023 Z" fill="#8E613F"></path>
                                    </g>
                                    <polygon id="Path" fill="#F1F1F1" points="6.21395349 18.7162791 5.95348837 17.227907 5.99069767 17.227907"></polygon>
                                    <polygon id="Rectangle" fill="#F1F1F1" transform="translate(7.237428, 17.860644) rotate(-0.283716) translate(-7.237428, -17.860644) " points="7.2188232 17.0792388 7.25603251 17.0792388 7.25603251 18.6420487 7.2188232 18.6420487"></polygon>
                                    <polygon id="Path" fill="#F1F1F1" points="8.11162791 18.6790698 8.11162791 18.6790698 8.26046512 17.227907 8.26046512 17.227907"></polygon>
                                </g>
                                <g opacity="0.21" transform="translate(3.720930, 0.000000)" fill="#231F20" id="Path">
                                    <path d="M5.69302326,16.2604651 C5.69302326,16.2604651 5.69302326,16.2604651 5.69302326,16.2604651 C10.3069767,11.8697674 10.9767442,7.51627907 10.1581395,4.57674419 C9.5255814,2.38139535 8.14883721,1.6 7.33023256,1.30232558 C6.77209302,0.855813953 6.25116279,0.706976744 5.87906977,0.669767442 C5.35813953,0.334883721 4.8744186,0.260465116 4.57674419,0.260465116 C4.57674419,0.260465116 4.53953488,0.260465116 4.53953488,0.260465116 C9.48837209,2.49302326 9.15348837,9.26511628 6.73488372,13.172093 C4.65116279,16.5581395 1.37674419,15.5906977 0.0372093023,14.9953488 C0.409302326,15.4046512 0.818604651,15.8511628 1.26511628,16.2604651 L1.26511628,16.2604651 L2.19534884,17.1906977 C2.19534884,17.1906977 2.19534884,17.227907 2.19534884,17.227907 C2.19534884,17.2651163 2.23255814,17.2651163 2.26976744,17.3023256 L2.34418605,17.7860465 C2.34418605,17.7860465 2.34418605,17.7860465 2.34418605,17.7860465 L2.26976744,17.3023256 C2.45581395,17.3767442 2.90232558,17.4139535 3.38604651,17.4139535 C3.42325581,17.4139535 3.46046512,17.4139535 3.46046512,17.4139535 L3.46046512,17.9348837 C3.46046512,17.9348837 3.46046512,17.9348837 3.46046512,17.9348837 L3.46046512,17.4139535 C3.94418605,17.4139535 4.31627907,17.3395349 4.50232558,17.2651163 L4.46511628,18.0837209 C4.46511628,18.0837209 4.46511628,18.0837209 4.46511628,18.0837209 L4.53953488,17.3023256 C4.57674419,17.2651163 4.61395349,17.2651163 4.61395349,17.227907 C4.61395349,17.227907 4.61395349,17.227907 4.61395349,17.227907 C4.98604651,16.8930233 5.32093023,16.5953488 5.69302326,16.2604651 L5.69302326,16.2604651 Z"></path>
                                </g>
                            </g>
                        </g>
                    </g>
                </g>
            </g>
        </g>
    </g>
</svg>