<?xml version="1.0" encoding="UTF-8"?>
<svg width="40px" height="37px" viewBox="0 0 40 37" version="1.1" xmlns="http://www.w3.org/2000/svg" xmlns:xlink="http://www.w3.org/1999/xlink">
    <!-- Generator: Sketch 56.3 (81716) - https://sketch.com -->
    <title>Group 111</title>
    <desc>Created with Sketch.</desc>
    <defs>
        <path d="M18.373271,0.122990654 C8.25850467,0.122990654 0.0586915888,8.32280374 0.0586915888,18.4375701 L0.0586915888,18.4375701 C0.0586915888,28.5523364 8.25850467,36.7521495 18.373271,36.7521495 L18.373271,36.7521495 C28.4880374,36.7521495 36.6876636,28.5523364 36.6876636,18.4375701 L36.6876636,18.4375701" id="path-1"></path>
        <path d="M18.373271,0.122990654 C8.25850467,0.122990654 0.0586915888,8.32280374 0.0586915888,18.4375701 L0.0586915888,18.4375701 C0.0586915888,28.5523364 8.25850467,36.7521495 18.373271,36.7521495 L18.373271,36.7521495 C28.4880374,36.7521495 36.6876636,28.5523364 36.6876636,18.4375701 L36.6876636,18.4375701" id="path-3"></path>
        <path d="M18.373271,0.122990654 C8.25850467,0.122990654 0.0586915888,8.32280374 0.0586915888,18.4375701 L0.0586915888,18.4375701 C0.0586915888,28.5523364 8.25850467,36.7521495 18.373271,36.7521495 L18.373271,36.7521495 C28.4880374,36.7521495 36.6876636,28.5523364 36.6876636,18.4375701 L36.6876636,18.4375701" id="path-5"></path>
        <path d="M18.373271,0.122990654 C8.25850467,0.122990654 0.0586915888,8.32280374 0.0586915888,18.4375701 L0.0586915888,18.4375701 C0.0586915888,28.5523364 8.25850467,36.7521495 18.373271,36.7521495 L18.373271,36.7521495 C28.4880374,36.7521495 36.6876636,28.5523364 36.6876636,18.4375701 L36.6876636,18.4375701" id="path-7"></path>
        <path d="M18.373271,0.122990654 C8.25850467,0.122990654 0.0586915888,8.32280374 0.0586915888,18.4375701 L0.0586915888,18.4375701 C0.0586915888,28.5523364 8.25850467,36.7521495 18.373271,36.7521495 L18.373271,36.7521495 C28.4880374,36.7521495 36.6876636,28.5523364 36.6876636,18.4375701 L36.6876636,18.4375701" id="path-9"></path>
        <path d="M18.373271,0.122990654 C8.25850467,0.122990654 0.0586915888,8.32280374 0.0586915888,18.4375701 L0.0586915888,18.4375701 C0.0586915888,28.5523364 8.25850467,36.7521495 18.373271,36.7521495 L18.373271,36.7521495 C28.4880374,36.7521495 36.6876636,28.5523364 36.6876636,18.4375701 L36.6876636,18.4375701" id="path-11"></path>
        <path d="M18.373271,0.122990654 C8.25850467,0.122990654 0.0586915888,8.32280374 0.0586915888,18.4375701 L0.0586915888,18.4375701 C0.0586915888,28.5523364 8.25850467,36.7521495 18.373271,36.7521495 L18.373271,36.7521495 C28.4880374,36.7521495 36.6876636,28.5523364 36.6876636,18.4375701 L36.6876636,18.4375701 C36.6876636,8.32280374 28.4880374,0.122990654 18.373271,0.122990654 Z" id="path-13"></path>
        <path d="M18.373271,0.122990654 C8.25850467,0.122990654 0.0586915888,8.32280374 0.0586915888,18.4375701 L0.0586915888,18.4375701 C0.0586915888,28.5523364 8.25850467,36.7521495 18.373271,36.7521495 L18.373271,36.7521495 C28.4880374,36.7521495 36.6876636,28.5523364 36.6876636,18.4375701 L36.6876636,18.4375701" id="path-15"></path>
        <path d="M18.373271,0.122990654 C8.25850467,0.122990654 0.0586915888,8.32280374 0.0586915888,18.4375701 L0.0586915888,18.4375701 C0.0586915888,28.5523364 8.25850467,36.7521495 18.373271,36.7521495 L18.373271,36.7521495 C28.4880374,36.7521495 36.6876636,28.5523364 36.6876636,18.4375701 L36.6876636,18.4375701" id="path-17"></path>
        <path d="M18.373271,0.122990654 C8.25850467,0.122990654 0.0586915888,8.32280374 0.0586915888,18.4375701 L0.0586915888,18.4375701 C0.0586915888,28.5523364 8.25850467,36.7521495 18.373271,36.7521495 L18.373271,36.7521495 C28.4880374,36.7521495 36.6876636,28.5523364 36.6876636,18.4375701 L36.6876636,18.4375701 C36.6876636,8.32280374 28.4880374,0.122990654 18.373271,0.122990654 Z" id="path-19"></path>
        <path d="M18.373271,0.122990654 C8.25850467,0.122990654 0.0586915888,8.32280374 0.0586915888,18.4375701 L0.0586915888,18.4375701 C0.0586915888,28.5523364 8.25850467,36.7521495 18.373271,36.7521495 L18.373271,36.7521495 C28.4880374,36.7521495 36.6876636,28.5523364 36.6876636,18.4375701 L36.6876636,18.4375701" id="path-21"></path>
        <path d="M18.373271,0.122990654 C8.25850467,0.122990654 0.0586915888,8.32280374 0.0586915888,18.4375701 L0.0586915888,18.4375701 C0.0586915888,28.5523364 8.25850467,36.7521495 18.373271,36.7521495 L18.373271,36.7521495 C28.4880374,36.7521495 36.6876636,28.5523364 36.6876636,18.4375701 L36.6876636,18.4375701" id="path-23"></path>
        <path d="M18.373271,0.122990654 C8.25850467,0.122990654 0.0586915888,8.32280374 0.0586915888,18.4375701 L0.0586915888,18.4375701 C0.0586915888,28.5523364 8.25850467,36.7521495 18.373271,36.7521495 L18.373271,36.7521495 C28.4880374,36.7521495 36.6876636,28.5523364 36.6876636,18.4375701 L36.6876636,18.4375701 C36.6876636,8.32280374 28.4880374,0.122990654 18.373271,0.122990654 Z" id="path-25"></path>
        <path d="M18.373271,0.122990654 C8.25850467,0.122990654 0.0586915888,8.32280374 0.0586915888,18.4375701 L0.0586915888,18.4375701 C0.0586915888,28.5523364 8.25850467,36.7521495 18.373271,36.7521495 L18.373271,36.7521495 C28.4880374,36.7521495 36.6876636,28.5523364 36.6876636,18.4375701 L36.6876636,18.4375701 C36.6876636,8.32280374 28.4880374,0.122990654 18.373271,0.122990654 Z" id="path-27"></path>
        <path d="M18.373271,0.122990654 C8.25850467,0.122990654 0.0586915888,8.32280374 0.0586915888,18.4375701 L0.0586915888,18.4375701 C0.0586915888,28.5523364 8.25850467,36.7521495 18.373271,36.7521495 L18.373271,36.7521495 C28.4880374,36.7521495 36.6876636,28.5523364 36.6876636,18.4375701 L36.6876636,18.4375701" id="path-29"></path>
        <path d="M18.373271,0.122990654 C8.25850467,0.122990654 0.0586915888,8.32280374 0.0586915888,18.4375701 L0.0586915888,18.4375701 C0.0586915888,28.5523364 8.25850467,36.7521495 18.373271,36.7521495 L18.373271,36.7521495 C28.4880374,36.7521495 36.6876636,28.5523364 36.6876636,18.4375701 L36.6876636,18.4375701" id="path-31"></path>
        <path d="M18.373271,0.122990654 C8.25850467,0.122990654 0.0586915888,8.32280374 0.0586915888,18.4375701 L0.0586915888,18.4375701 C0.0586915888,28.5523364 8.25850467,36.7521495 18.373271,36.7521495 L18.373271,36.7521495 C28.4880374,36.7521495 36.6876636,28.5523364 36.6876636,18.4375701 L36.6876636,18.4375701" id="path-33"></path>
        <path d="M18.373271,0.122990654 C8.25850467,0.122990654 0.0586915888,8.32280374 0.0586915888,18.4375701 L0.0586915888,18.4375701 C0.0586915888,28.5523364 8.25850467,36.7521495 18.373271,36.7521495 L18.373271,36.7521495 C28.4880374,36.7521495 36.6876636,28.5523364 36.6876636,18.4375701 L36.6876636,18.4375701" id="path-35"></path>
        <path d="M18.373271,0.122990654 C8.25850467,0.122990654 0.0586915888,8.32280374 0.0586915888,18.4375701 L0.0586915888,18.4375701 C0.0586915888,28.5523364 8.25850467,36.7521495 18.373271,36.7521495 L18.373271,36.7521495 C28.4880374,36.7521495 36.6876636,28.5523364 36.6876636,18.4375701 L36.6876636,18.4375701 C36.6876636,8.32280374 28.4880374,0.122990654 18.373271,0.122990654 Z" id="path-37"></path>
        <path d="M18.373271,0.122990654 C8.25850467,0.122990654 0.0586915888,8.32280374 0.0586915888,18.4375701 L0.0586915888,18.4375701 C0.0586915888,28.5523364 8.25850467,36.7521495 18.373271,36.7521495 L18.373271,36.7521495 C28.4880374,36.7521495 36.6876636,28.5523364 36.6876636,18.4375701 L36.6876636,18.4375701" id="path-39"></path>
        <path d="M18.373271,0.122990654 C8.25850467,0.122990654 0.0586915888,8.32280374 0.0586915888,18.4375701 L0.0586915888,18.4375701 C0.0586915888,28.5523364 8.25850467,36.7521495 18.373271,36.7521495 L18.373271,36.7521495 C28.4880374,36.7521495 36.6876636,28.5523364 36.6876636,18.4375701 L36.6876636,18.4375701 C36.6876636,8.32280374 28.4880374,0.122990654 18.373271,0.122990654 Z" id="path-41"></path>
        <path d="M18.373271,0.122990654 C8.25850467,0.122990654 0.0586915888,8.32280374 0.0586915888,18.4375701 L0.0586915888,18.4375701 C0.0586915888,28.5523364 8.25850467,36.7521495 18.373271,36.7521495 L18.373271,36.7521495 C28.4880374,36.7521495 36.6876636,28.5523364 36.6876636,18.4375701 L36.6876636,18.4375701" id="path-43"></path>
        <path d="M18.373271,0.122990654 C8.25850467,0.122990654 0.0586915888,8.32280374 0.0586915888,18.4375701 L0.0586915888,18.4375701 C0.0586915888,28.5523364 8.25850467,36.7521495 18.373271,36.7521495 L18.373271,36.7521495 C28.4880374,36.7521495 36.6876636,28.5523364 36.6876636,18.4375701 L36.6876636,18.4375701" id="path-45"></path>
        <path d="M18.373271,0.122990654 C8.25850467,0.122990654 0.0586915888,8.32280374 0.0586915888,18.4375701 L0.0586915888,18.4375701 C0.0586915888,28.5523364 8.25850467,36.7521495 18.373271,36.7521495 L18.373271,36.7521495 C28.4880374,36.7521495 36.6876636,28.5523364 36.6876636,18.4375701 L36.6876636,18.4375701 C36.6876636,8.32280374 28.4880374,0.122990654 18.373271,0.122990654 Z" id="path-47"></path>
        <path d="M18.373271,0.122990654 C8.25850467,0.122990654 0.0586915888,8.32280374 0.0586915888,18.4375701 L0.0586915888,18.4375701 C0.0586915888,28.5523364 8.25850467,36.7521495 18.373271,36.7521495 L18.373271,36.7521495 C28.4880374,36.7521495 36.6876636,28.5523364 36.6876636,18.4375701 L36.6876636,18.4375701 C36.6876636,8.32280374 28.4880374,0.122990654 18.373271,0.122990654 Z" id="path-49"></path>
        <path d="M18.373271,0.122990654 C8.25850467,0.122990654 0.0586915888,8.32280374 0.0586915888,18.4375701 L0.0586915888,18.4375701 C0.0586915888,28.5523364 8.25850467,36.7521495 18.373271,36.7521495 L18.373271,36.7521495 C28.4880374,36.7521495 36.6876636,28.5523364 36.6876636,18.4375701 L36.6876636,18.4375701 C36.6876636,8.32280374 28.4880374,0.122990654 18.373271,0.122990654 Z" id="path-51"></path>
        <path d="M18.373271,0.122990654 C8.25850467,0.122990654 0.0586915888,8.32280374 0.0586915888,18.4375701 L0.0586915888,18.4375701 C0.0586915888,28.5523364 8.25850467,36.7521495 18.373271,36.7521495 L18.373271,36.7521495 C28.4880374,36.7521495 36.6876636,28.5523364 36.6876636,18.4375701 L36.6876636,18.4375701 C36.6876636,8.32280374 28.4880374,0.122990654 18.373271,0.122990654 Z" id="path-53"></path>
        <path d="M18.373271,0.122990654 C8.25850467,0.122990654 0.0586915888,8.32280374 0.0586915888,18.4375701 L0.0586915888,18.4375701 C0.0586915888,28.5523364 8.25850467,36.7521495 18.373271,36.7521495 L18.373271,36.7521495 C28.4880374,36.7521495 36.6876636,28.5523364 36.6876636,18.4375701 L36.6876636,18.4375701 C36.6876636,8.32280374 28.4880374,0.122990654 18.373271,0.122990654 Z" id="path-55"></path>
        <path d="M18.373271,0.122990654 C8.25850467,0.122990654 0.0586915888,8.32280374 0.0586915888,18.4375701 L0.0586915888,18.4375701 C0.0586915888,28.5523364 8.25850467,36.7521495 18.373271,36.7521495 L18.373271,36.7521495 C28.4880374,36.7521495 36.6876636,28.5523364 36.6876636,18.4375701 L36.6876636,18.4375701 C36.6876636,8.32280374 28.4880374,0.122990654 18.373271,0.122990654 Z" id="path-57"></path>
        <path d="M18.373271,0.122990654 C8.25850467,0.122990654 0.0586915888,8.32280374 0.0586915888,18.4375701 L0.0586915888,18.4375701 C0.0586915888,28.5523364 8.25850467,36.7521495 18.373271,36.7521495 L18.373271,36.7521495 C28.4880374,36.7521495 36.6876636,28.5523364 36.6876636,18.4375701 L36.6876636,18.4375701" id="path-59"></path>
        <path d="M18.373271,0.122990654 C8.25850467,0.122990654 0.0586915888,8.32280374 0.0586915888,18.4375701 L0.0586915888,18.4375701 C0.0586915888,28.5523364 8.25850467,36.7521495 18.373271,36.7521495 L18.373271,36.7521495 C28.4880374,36.7521495 36.6876636,28.5523364 36.6876636,18.4375701 L36.6876636,18.4375701" id="path-61"></path>
        <path d="M18.373271,0.122990654 C8.25850467,0.122990654 0.0586915888,8.32280374 0.0586915888,18.4375701 L0.0586915888,18.4375701 C0.0586915888,28.5523364 8.25850467,36.7521495 18.373271,36.7521495 L18.373271,36.7521495 C28.4880374,36.7521495 36.6876636,28.5523364 36.6876636,18.4375701 L36.6876636,18.4375701" id="path-63"></path>
        <path d="M18.373271,0.122990654 C8.25850467,0.122990654 0.0586915888,8.32280374 0.0586915888,18.4375701 L0.0586915888,18.4375701 C0.0586915888,28.5523364 8.25850467,36.7521495 18.373271,36.7521495 L18.373271,36.7521495 C28.4880374,36.7521495 36.6876636,28.5523364 36.6876636,18.4375701 L36.6876636,18.4375701 C36.6876636,8.32280374 28.4880374,0.122990654 18.373271,0.122990654 Z" id="path-65"></path>
    </defs>
    <g id="Desktop" stroke="none" stroke-width="1" fill="none" fill-rule="evenodd">
        <g id="Homepage_Pick-City" transform="translate(-1120.000000, -181.000000)">
            <g id="PICK-CITY">
                <g id="SERVICES" transform="translate(160.000000, 152.000000)">
                    <g id="TRIP-SHEPPARD" transform="translate(944.000000, 8.000000)">
                        <g id="Group-111" transform="translate(16.000000, 21.000000)">
                            <g id="Group-11" transform="translate(0.000000, 0.063925)">
                                <path d="M39.8632523,18.4375327 C39.8632523,28.552486 31.6634393,36.7521121 21.5486729,36.7521121 C11.4339065,36.7521121 3.23428037,28.552486 3.23428037,18.4375327 C3.23428037,8.32276636 11.4339065,0.123140187 21.5486729,0.123140187 C31.6634393,0.123140187 39.8632523,8.32276636 39.8632523,18.4375327" id="Fill-1" fill="#F7F7F7"></path>
                                <path d="M11.3257196,17.9642991 C11.8838505,19.4149533 11.9300187,21.0702804 12.1148785,22.6635514 C13.5668411,22.651215 15.0193645,22.5803738 16.4685234,22.5839252 C16.5038505,22.4401869 16.5343178,22.2957009 16.5511402,22.1485981 C16.6728224,21.1837383 16.2717009,20.3001869 16.3580561,19.3250467 C16.4950654,17.9031776 17.1348785,16.471215 16.6778692,15.1102804 C15.8754393,12.5358879 12.1380561,12.16 11.6251589,9.51439252 C11.1122617,6.86878505 10.7922617,4.08598131 8.48684112,2.19700935 C8.05020561,1.84149533 6.86702804,0.734579439 6.18142056,0.846168224 C6.18142056,0.846168224 6.22721495,1.35925234 6.21693458,1.39476636 C6.22198131,1.78056075 6.19151402,2.1564486 6.16104673,2.53214953 C6.06478505,4.35009346 5.86160748,6.13757009 5.8006729,7.96560748 C5.76515888,9.57028037 5.73973832,11.1394393 6.65375701,12.5157009 C7.99450467,14.5519626 10.4167477,15.6284112 11.3257196,17.9642991" id="Fill-3" fill="#56B9E8"></path>
                                <path d="M9.11669159,12.642486 C9.37052336,13.0994953 9.67014953,13.5310841 10.0155701,13.9374393 C10.2389346,14.2318318 10.533514,14.546785 10.533514,14.546785 C11.2798692,15.2981869 12.0619252,16.0600561 12.5697757,16.9740748 C13.4279065,18.4110841 13.5245421,20.0918318 13.4331402,21.7576262 C13.4482804,21.8387477 13.4178131,21.9454766 13.4230467,22.0622991 C13.3976262,22.2856636 13.3875327,22.5903364 13.3875327,22.5903364 C13.386785,22.6073458 13.3864112,22.6243551 13.3858505,22.6413645 C13.9374393,22.6277196 14.489028,22.611271 15.040243,22.5993084 C15.186785,21.9922056 15.3181869,21.3845421 15.3677196,20.7723925 C15.4998692,18.9645421 14.7482804,17.2888411 13.544729,15.9837944 C12.8694019,15.2525794 12.066972,14.5621121 11.4019252,13.7951963 C10.4675327,12.7593084 9.9544486,11.4593084 8.96435514,10.4843551 C8.84248598,10.3725794 8.70528972,10.1796822 8.55295327,10.1746355 C8.29407477,10.1389346 8.3651028,10.4284673 8.42099065,10.6366916 C8.53257944,11.3222991 8.79669159,12.0127664 9.11669159,12.642486" id="Fill-5" fill="#3F8BAB"></path>
                                <path d="M11.7546916,22.6658505 C14.2438505,22.6636075 16.736,22.4529533 19.2096449,22.7168785 C18.4059065,21.675757 17.1717009,20.9738879 15.5388037,20.8751963 C9.21039252,20.5054766 17.3700187,14.2809907 11.5517009,12.8260374 C5.73805607,11.4546355 7.98011215,11.6488411 6.38459813,7.69426168 C5.76497196,6.20211215 3.23188785,4.69874766 1.43693458,6.20771963 C-0.229981308,7.60884112 -0.0497943925,9.64566355 0.708336449,10.9120187 C2.89020561,14.5488411 3.99861682,12.4572523 1.82534579,18.3322056 C0.480485981,21.9645421 3.52814953,21.9621121 5.31431776,22.7680935 C7.44983178,22.573514 9.60291589,22.6679065 11.7546916,22.6658505" id="Fill-7" fill="#FD5D5B"></path>
                                <path d="M5.07736449,13.4542243 C5.07736449,13.4542243 5.42857944,14.3405794 5.71661682,14.9957196 L5.79007477,15.1089907 C6.63007477,16.9413271 7.48484112,18.739271 8.40371963,20.4831963 C8.48185047,20.6802056 8.57474766,20.8428224 8.66764486,21.0054393 C7.51923364,20.2639439 6.31138318,19.6600187 5.05418692,19.0755327 C5.05418692,19.0755327 4.42054206,18.8424486 3.9586729,18.6835701 C3.70315888,18.6138505 3.81100935,18.7420748 3.81100935,18.7420748 C4.29231776,18.9501121 4.96502804,19.2818879 4.96502804,19.2818879 C6.34016822,19.8764673 7.67082243,20.5742243 8.94185047,21.4095514 C9.15717757,21.8220748 9.36914019,22.2357196 9.58147664,22.6495514 C9.83885981,22.6519813 10.096243,22.6545981 10.3538131,22.657215 C9.90652336,21.8108598 9.46072897,20.9598318 9.01979439,20.0966542 C9.05979439,19.9099252 9.11456075,19.6888037 9.16951402,19.4676822 C9.71119626,17.7431963 10.222972,16.0873084 10.6811028,14.3674953 C10.6569907,14.2345981 10.6123178,14.3377757 10.6123178,14.3377757 C10.354,15.123757 9.99175701,16.150486 9.99175701,16.150486 C9.76315888,16.8678692 9.53456075,17.5852523 9.30596262,18.3024486 C9.13213084,18.7987103 8.97343925,19.2603925 8.834,19.7714206 C8.10091589,18.352729 7.36783178,16.9338505 6.6986729,15.4611402 C6.5668972,15.2000187 6.44970093,14.9045047 6.31773832,14.6435701 L6.22016822,14.397215 C6.04465421,13.9540374 5.81979439,13.5302991 5.6293271,13.121514 L5.36540187,12.5994579 C4.68614953,11.2446916 4.02185047,9.85553271 3.25885981,8.50543925 C3.19007477,8.47590654 3.14091589,8.49534579 3.07213084,8.46562617 L3.05175701,8.70151402 C3.71605607,10.0906729 4.28203738,11.5188972 4.86278505,12.9125421 L5.07736449,13.4542243 Z" id="Fill-9" fill="#C34A4A"></path>
                            </g>
                            <g id="Group-110" transform="translate(3.177570, 0.063925)">
                                <g id="Group-14">
                                    <mask id="mask-2" fill="white">
                                        <use xlink:href="#path-1"></use>
                                    </mask>
                                    <g id="Clip-13"></g>
                                    <path d="M26.0482804,30.7119065 L18.1288411,30.7119065 C17.6675327,30.7119065 17.293514,30.3378879 17.293514,29.8765794 C17.293514,29.415271 17.6675327,29.0412523 18.1288411,29.0412523 L26.0482804,29.0412523 C26.5095888,29.0412523 26.8836075,29.415271 26.8836075,29.8765794 C26.8836075,30.3378879 26.5095888,30.7119065 26.0482804,30.7119065" id="Fill-12" fill="#FD5D5B" mask="url(#mask-2)"></path>
                                </g>
                                <g id="Group-17">
                                    <mask id="mask-4" fill="white">
                                        <use xlink:href="#path-3"></use>
                                    </mask>
                                    <g id="Clip-16"></g>
                                    <path d="M31.497215,30.7119065 L22.1516075,30.7119065 C21.5142243,30.7119065 21.0559065,30.0881682 21.2362804,29.4659252 L25.699271,14.082 C25.8190841,13.6691028 26.1916075,13.3857383 26.6145981,13.3857383 L35.9600187,13.3857383 C36.5975888,13.3857383 37.0557196,14.0096636 36.8753458,14.6319065 L32.4123551,30.0158318 C32.292729,30.4285421 31.9202056,30.7119065 31.497215,30.7119065" id="Fill-15" fill="#FD5D5B" mask="url(#mask-4)"></path>
                                </g>
                                <g id="Group-20">
                                    <mask id="mask-6" fill="white">
                                        <use xlink:href="#path-5"></use>
                                    </mask>
                                    <g id="Clip-19"></g>
                                    <path d="M30.2112523,30.7119065 L22.0710654,30.7119065 C21.4334953,30.7119065 20.9751776,30.0881682 21.1557383,29.4659252 L25.618729,14.082 C25.7383551,13.6691028 26.1108785,13.3857383 26.5338692,13.3857383 L34.6740561,13.3857383 C35.3116262,13.3857383 35.7699439,14.0096636 35.5893832,14.6319065 L31.1263925,30.0158318 C31.0067664,30.4285421 30.634243,30.7119065 30.2112523,30.7119065" id="Fill-18" fill="#FFFFFF" mask="url(#mask-6)"></path>
                                </g>
                                <g id="Group-23">
                                    <mask id="mask-8" fill="white">
                                        <use xlink:href="#path-7"></use>
                                    </mask>
                                    <g id="Clip-22"></g>
                                    <path d="M31.4947477,30.7119065 L21.6031589,30.7119065 C21.1418505,30.7119065 20.7678318,30.3378879 20.7678318,29.8765794 C20.7678318,29.415271 21.1418505,29.0412523 21.6031589,29.0412523 L31.4947477,29.0412523 C31.9560561,29.0412523 32.3300748,29.415271 32.3300748,29.8765794 C32.3300748,30.3378879 31.9560561,30.7119065 31.4947477,30.7119065" id="Fill-21" fill="#C34A4A" mask="url(#mask-8)"></path>
                                </g>
                                <g id="Group-26">
                                    <mask id="mask-10" fill="white">
                                        <use xlink:href="#path-9"></use>
                                    </mask>
                                    <g id="Clip-25"></g>
                                    <path d="M19.6669346,12.6560935 C19.6669346,12.6560935 17.4590841,15.6910467 15.8959065,19.2818879 C15.7205794,19.6845047 15.7581495,20.152729 15.9990841,20.5190841 C16.5430093,21.346 17.9631963,21.1551589 18.510486,20.3861869 C18.510486,20.3861869 22.6893645,14.6000187 22.5114206,14.3658131 C22.4691776,14.3102991 19.6669346,12.6560935 19.6669346,12.6560935" id="Fill-24" fill="#FD5D5B" mask="url(#mask-10)"></path>
                                </g>
                                <g id="Group-29">
                                    <mask id="mask-12" fill="white">
                                        <use xlink:href="#path-11"></use>
                                    </mask>
                                    <g id="Clip-28"></g>
                                    <path d="M17.0783178,18.2297009 L11.6029907,16.0270841 L11.128785,18.8930654 L16.6416822,20.9893271 C16.8407477,21.065028 17.0583178,21.0870841 17.2661682,21.040729 C17.9783178,20.8820374 18.4833645,20.1797944 18.3525234,19.4093271 C18.2441121,18.7697009 17.7201869,18.2846542 17.0783178,18.2297009" id="Fill-27" fill="#FD5D5B" mask="url(#mask-12)"></path>
                                </g>
                                <g id="Group-32">
                                    <mask id="mask-14" fill="white">
                                        <use xlink:href="#path-13"></use>
                                    </mask>
                                    <g id="Clip-31"></g>
                                    <path d="M23.9358879,11.9526916 L20.1456075,12.4397944 C19.7594393,12.4893271 19.4828037,12.8369907 19.5213084,13.2244673 L21.9700935,23.8489533 L30.1050467,23.8289533 L28.953271,13.2603551 C29.0013084,12.8631589 28.7160748,12.5031589 28.3183178,12.4590467 L23.9358879,11.9526916 Z" id="Fill-30" fill="#FD5D5B" mask="url(#mask-14)"></path>
                                </g>
                                <g id="Group-35">
                                    <mask id="mask-16" fill="white">
                                        <use xlink:href="#path-15"></use>
                                    </mask>
                                    <g id="Clip-34"></g>
                                    <path d="M20.594486,17.6420374 C20.594486,17.5154953 19.9148598,14.9319439 19.9148598,14.9319439" id="Fill-33" fill="#FD5D5B" mask="url(#mask-16)"></path>
                                </g>
                                <g id="Group-38">
                                    <mask id="mask-18" fill="white">
                                        <use xlink:href="#path-17"></use>
                                    </mask>
                                    <g id="Clip-37"></g>
                                    <path d="M22.4993271,22.5687477 L15.9430654,22.5687477 L15.9430654,21.8289346 L22.4993271,21.8289346 C22.7036262,21.8289346 22.8692336,21.994729 22.8692336,22.1988411 C22.8692336,22.4031402 22.7036262,22.5687477 22.4993271,22.5687477" id="Fill-36" fill="#85B8ED" mask="url(#mask-18)"></path>
                                </g>
                                <g id="Group-41">
                                    <mask id="mask-20" fill="white">
                                        <use xlink:href="#path-19"></use>
                                    </mask>
                                    <g id="Clip-40"></g>
                                    <path d="M16.8060748,22.5687477 L7.39317757,22.5687477 C6.89280374,22.5687477 6.45373832,22.2352897 6.31953271,21.7532336 L4.62551402,15.6668785 C4.47579439,15.1289346 4.88028037,14.5962243 5.43897196,14.5962243 L14.143271,14.5962243 C14.4774766,14.5962243 14.7694393,14.8214579 14.8542991,15.1444486 L16.8060748,22.5687477 Z" id="Fill-39" fill="#85B8ED" mask="url(#mask-20)"></path>
                                </g>
                                <g id="Group-44">
                                    <mask id="mask-22" fill="white">
                                        <use xlink:href="#path-21"></use>
                                    </mask>
                                    <g id="Clip-43"></g>
                                    <path d="M11.1540561,18.9231589 C11.1540561,19.3771776 10.7860187,19.745028 10.3321869,19.745028 C9.87816822,19.745028 9.51013084,19.3771776 9.51013084,18.9231589 C9.51013084,18.4693271 9.87816822,18.1012897 10.3321869,18.1012897 C10.7860187,18.1012897 11.1540561,18.4693271 11.1540561,18.9231589" id="Fill-42" fill="#1E4174" mask="url(#mask-22)"></path>
                                </g>
                                <g id="Group-47">
                                    <mask id="mask-24" fill="white">
                                        <use xlink:href="#path-23"></use>
                                    </mask>
                                    <g id="Clip-46"></g>
                                    <path d="M25.7166916,14.5069159 C25.7166916,14.5069159 27.7826729,18.5975701 30.1146355,21.8945794 C30.3761308,22.2641121 30.9931402,22.4478505 31.4454766,22.4282243 C32.4662243,22.3842991 32.8987477,21.2848598 32.5131402,20.3899065 C32.5131402,20.3899065 29.2460374,12.84 28.793514,12.7164486 C28.7237944,12.6973832 25.7166916,14.5069159 25.7166916,14.5069159" id="Fill-45" fill="#FD5D5B" mask="url(#mask-24)"></path>
                                </g>
                                <g id="Group-50">
                                    <mask id="mask-26" fill="white">
                                        <use xlink:href="#path-25"></use>
                                    </mask>
                                    <g id="Clip-49"></g>
                                    <polygon id="Fill-48" fill="#C35F54" mask="url(#mask-26)" points="23.3560561 20.9635327 25.1325047 20.8265234 25.0769907 22.6040935 23.5392336 22.6035327"></polygon>
                                </g>
                                <g id="Group-53">
                                    <mask id="mask-28" fill="white">
                                        <use xlink:href="#path-27"></use>
                                    </mask>
                                    <g id="Clip-52"></g>
                                    <path d="M23.4874019,20.9635327 C23.4874019,20.9635327 19.4145047,19.3934393 19.867215,22.6011028 L23.7765607,22.6011028 L23.4874019,20.9635327 Z" id="Fill-51" fill="#C35F54" mask="url(#mask-28)"></path>
                                </g>
                                <g id="Group-56">
                                    <mask id="mask-30" fill="white">
                                        <use xlink:href="#path-29"></use>
                                    </mask>
                                    <g id="Clip-55"></g>
                                    <path d="M31.0059252,19.6756636 L24.6206916,19.8678131 L24.7451776,22.7263178 L31.3793832,22.5866916 C32.3240561,22.4599626 32.8991963,21.4799626 32.5491028,20.5934206 C32.3036822,19.9717383 31.6692897,19.5943551 31.0059252,19.6756636" id="Fill-54" fill="#FD5D5B" mask="url(#mask-30)"></path>
                                </g>
                                <g id="Group-59">
                                    <mask id="mask-32" fill="white">
                                        <use xlink:href="#path-31"></use>
                                    </mask>
                                    <g id="Clip-58"></g>
                                    <polyline id="Fill-57" fill="#C34A4A" mask="url(#mask-32)" points="26.9475327 16.0851963 28.6366916 19.7468785 24.6208037 19.8678131 24.6170654 20.8265047"></polyline>
                                </g>
                                <g id="Group-62">
                                    <mask id="mask-34" fill="white">
                                        <use xlink:href="#path-33"></use>
                                    </mask>
                                    <g id="Clip-61"></g>
                                    <path d="M28.6367103,19.7469346 L29.5286729,20.1843178" id="Fill-60" fill="#C34A4A" mask="url(#mask-34)"></path>
                                </g>
                                <g id="Group-65">
                                    <mask id="mask-36" fill="white">
                                        <use xlink:href="#path-35"></use>
                                    </mask>
                                    <g id="Clip-64"></g>
                                    <path d="M21.3186168,7.68803738 C21.3875888,8.14149533 21.0877757,8.56485981 20.6487103,8.63364486 C20.2096449,8.70242991 19.7978692,8.39065421 19.7288972,7.93719626 C19.6597383,7.48373832 19.9597383,7.06037383 20.3988037,6.99140187 C20.8378692,6.92261682 21.2496449,7.23457944 21.3186168,7.68803738" id="Fill-63" fill="#032742" mask="url(#mask-36)"></path>
                                </g>
                                <g id="Group-68">
                                    <mask id="mask-38" fill="white">
                                        <use xlink:href="#path-37"></use>
                                    </mask>
                                    <g id="Clip-67"></g>
                                    <path d="M22.4494206,9.9004486 L22.6378318,12.1238131 C22.7025047,12.9047477 23.2030654,13.281757 23.9468037,13.2111028 C24.5815701,13.150729 25.2533458,12.7834393 25.1671776,12.0974579 L24.7075514,8.61315888 L22.4494206,9.9004486 Z" id="Fill-66" fill="#C35F54" mask="url(#mask-38)"></path>
                                </g>
                                <g id="Group-71">
                                    <mask id="mask-40" fill="white">
                                        <use xlink:href="#path-39"></use>
                                    </mask>
                                    <g id="Clip-70"></g>
                                    <path d="M22.9808598,10.6015701 L22.9808598,10.6015701 C21.711514,10.7120374 20.5763738,9.7675514 20.4485234,8.70007477 L20.1931963,6.46568224 C20.0330093,5.12773832 20.929271,3.90549533 22.2186168,3.70343925 C23.5386168,3.49652336 25.0083364,4.39801869 25.2158131,5.76157009 L25.3935701,7.50530841 C25.5554393,9.07502804 24.4907664,10.3649346 22.9808598,10.6015701" id="Fill-69" fill="#C35F54" mask="url(#mask-40)"></path>
                                </g>
                                <g id="Group-74">
                                    <mask id="mask-42" fill="white">
                                        <use xlink:href="#path-41"></use>
                                    </mask>
                                    <g id="Clip-73"></g>
                                    <path d="M23.932785,4.65330841 C23.932785,4.65330841 23.3357757,5.41966355 24.5232523,6.34919626 C24.5232523,6.34919626 24.3215701,8.26938318 24.0623178,8.75854206 C24.0623178,8.75854206 21.6563364,8.26601869 20.5281121,9.05237383 C20.5281121,9.05237383 20.5669907,10.7299439 22.5447477,10.8099439 C25.1746542,10.9162991 25.4516636,8.24284112 25.4516636,8.24284112 L24.9030654,6.95106542 L25.8004486,7.0731215 C25.8004486,7.0731215 27.6243738,4.31779439 24.7804486,4.31779439 L23.932785,4.65330841 Z" id="Fill-72" fill="#032742" mask="url(#mask-42)"></path>
                                </g>
                                <g id="Group-77">
                                    <mask id="mask-44" fill="white">
                                        <use xlink:href="#path-43"></use>
                                    </mask>
                                    <g id="Clip-76"></g>
                                    <path d="M26.3619626,7.29676636 C26.4309346,7.7502243 26.1311215,8.17358879 25.6920561,8.24256075 C25.2529907,8.31134579 24.841215,7.99938318 24.772243,7.54592523 C24.703271,7.09246729 25.0030841,6.6691028 25.4421495,6.60031776 C25.881215,6.53153271 26.2929907,6.84330841 26.3619626,7.29676636" id="Fill-75" fill="#C35F54" mask="url(#mask-44)"></path>
                                </g>
                                <g id="Group-80">
                                    <mask id="mask-46" fill="white">
                                        <use xlink:href="#path-45"></use>
                                    </mask>
                                    <g id="Clip-79"></g>
                                    <path d="M25.3257944,7.66102804 C25.3257944,7.66102804 25.2353271,7.06570093 25.8005607,7.07299065" id="Stroke-78" stroke="#312220" stroke-width="0.519" stroke-linecap="round" stroke-linejoin="round" mask="url(#mask-46)"></path>
                                </g>
                                <g id="Group-83">
                                    <mask id="mask-48" fill="white">
                                        <use xlink:href="#path-47"></use>
                                    </mask>
                                    <g id="Clip-82"></g>
                                    <path d="M24.0501495,4.77140187 C24.0501495,4.77140187 21.8523925,4.90542056 20.5237944,4.79925234 C20.5237944,4.79925234 19.2131402,4.30841121 19.7568785,3.51308411 C20.186785,2.88429907 21.226785,3.39719626 21.226785,3.39719626 C21.226785,3.39719626 21.209215,2.74915888 21.6660374,2.57271028 C22.2133271,2.3611215 23.8120187,2.19009346 25.1746355,4.35943925 L24.0501495,4.77140187 Z" id="Fill-81" fill="#032742" mask="url(#mask-48)"></path>
                                </g>
                                <g id="Group-86">
                                    <mask id="mask-50" fill="white">
                                        <use xlink:href="#path-49"></use>
                                    </mask>
                                    <g id="Clip-85"></g>
                                    <path d="M22.6152523,12.1223551 L21.9133832,12.2126355 C21.9133832,12.2126355 21.5997383,13.3857196 23.2285234,13.5034766 C24.9259065,13.6262804 25.5950654,12.998243 25.9231028,12.1601121 L24.0541308,11.7933832 L22.6152523,12.1223551 Z" id="Fill-84" fill="#C35F54" mask="url(#mask-50)"></path>
                                </g>
                                <g id="Group-89">
                                    <mask id="mask-52" fill="white">
                                        <use xlink:href="#path-51"></use>
                                    </mask>
                                    <g id="Clip-88"></g>
                                    <polygon id="Fill-87" fill="#1E4174" mask="url(#mask-52)" points="15.9996262 39.9885234 18.3953271 39.9784299 18.3816822 36.7397383 15.9859813 36.7498318"></polygon>
                                </g>
                                <g id="Group-92">
                                    <mask id="mask-54" fill="white">
                                        <use xlink:href="#path-53"></use>
                                    </mask>
                                    <g id="Clip-91"></g>
                                    <path d="M23.833028,23.828972 L24.0014393,24.8614953 C24.3612523,27.0665421 22.6591963,29.0685981 20.4251776,29.0685981 L19.3543364,29.0685981 L19.3543364,38.1771963 L14.9094766,38.2366355 L14.6614393,27.0775701 C14.6281682,25.3031776 16.0554579,23.8457944 17.8302243,23.8418692 L23.833028,23.828972 Z" id="Fill-90" fill="#1E4174" mask="url(#mask-54)"></path>
                                </g>
                                <g id="Group-95">
                                    <mask id="mask-56" fill="white">
                                        <use xlink:href="#path-55"></use>
                                    </mask>
                                    <g id="Clip-94"></g>
                                    <polygon id="Fill-93" fill="#85B8ED" mask="url(#mask-56)" points="22.2717196 39.9885234 24.6674206 39.9784299 24.6537757 36.7397383 22.2580748 36.7498318"></polygon>
                                </g>
                                <g id="Group-98">
                                    <mask id="mask-58" fill="white">
                                        <use xlink:href="#path-57"></use>
                                    </mask>
                                    <g id="Clip-97"></g>
                                    <path d="M30.105028,23.828972 L30.2734393,24.8614953 C30.6332523,27.0665421 28.9313832,29.0685981 26.6971776,29.0685981 L25.6265234,29.0685981 L25.6265234,38.1771963 L21.1814766,38.2366355 L20.9334393,27.0775701 C20.9001682,25.3031776 22.3274579,23.8457944 24.1022243,23.8418692 L30.105028,23.828972 Z" id="Fill-96" fill="#85B8ED" mask="url(#mask-58)"></path>
                                </g>
                                <g id="Group-101">
                                    <mask id="mask-60" fill="white">
                                        <use xlink:href="#path-59"></use>
                                    </mask>
                                    <g id="Clip-100"></g>
                                    <path d="M20.8912897,29.0412523 L20.8912897,26.913028 C20.8912897,25.1728411 22.2909159,23.7612523 24.0191402,23.7582617 L24.8112897,23.7569533" id="Fill-99" fill="#85B8ED" mask="url(#mask-60)"></path>
                                </g>
                                <g id="Group-104">
                                    <mask id="mask-62" fill="white">
                                        <use xlink:href="#path-61"></use>
                                    </mask>
                                    <g id="Clip-103"></g>
                                    <polyline id="Stroke-102" stroke="#55382E" stroke-width="1.147" mask="url(#mask-62)" points="10.661215 42.208785 4.28457944 23.2605607 -0.847196262 41.9786916"></polyline>
                                </g>
                                <g id="Group-107">
                                    <mask id="mask-64" fill="white">
                                        <use xlink:href="#path-63"></use>
                                    </mask>
                                    <g id="Clip-106"></g>
                                    <polyline id="Stroke-105" stroke="#55382E" stroke-width="1.147" mask="url(#mask-64)" points="37.4687664 42.208785 31.0921308 23.2605607 25.9603551 41.9786916"></polyline>
                                </g>
                                <mask id="mask-66" fill="white">
                                    <use xlink:href="#path-65"></use>
                                </mask>
                                <g id="Clip-109"></g>
                                <polygon id="Fill-108" fill="#FFFFFF" mask="url(#mask-66)" points="-5.04672897 23.8557009 40.2613084 23.8557009 40.2613084 22.5719626 -5.04672897 22.5719626"></polygon>
                            </g>
                        </g>
                    </g>
                </g>
            </g>
        </g>
    </g>
</svg>